ISO-10303-21;
HEADER;
/*Generated by software containing ST-Developer
 * from STEP Tools, Inc. (www.steptools.com) 
 */
/*OPTION: using custom renumber hook */
/*description */
/*implementation_level */
FILE_DESCRIPTION(('STEP AP242 Edition 2','STEP AP242 Edition 2''CAx-IF Rec.Pracs.---Representation and Presentation of Product Manufa
cturing Information (PMI)---4.0---2014-10-13','STEP AP242 Edition 2''CAx-IF Rec.Pracs.---Representation and Presentation of Product Manufa
cturing Information (PMI)---4.0---2014-10-13''CAx-IF Rec.Pracs.---3D Tessellated Geometry---0.4---2014-09-14','STEP AP242 Edition 2''CAx-IF Rec.Pracs.---Representation and Presentation of Product Manufa
cturing Information (PMI)---4.0---2014-10-13''CAx-IF Rec.Pracs.---3D Tessellated Geometry---0.4---2014-09-14''2;1','STEP AP242 Edition 2''CAx-IF Rec.Pracs.---Representation and Presentation of Product Manufa
cturing Information (PMI)---4.0---2014-10-13''CAx-IF Rec.Pracs.---3D Tessellated Geometry---0.4---2014-09-14''2;1''CAx-IF Rec.Pracs.---User Defined Attributes---1.5---2016-08-15'),'2;1');
/*name */
/*time_stamp */
/*author */
/*organization */
/*preprocessor_version */
/*originating_system */
/*authorisation */
FILE_NAME('/vol/tmp/translate-1075404649010560997/0603_LED.step','2026-03-12T12:37:32',(''),(''),'ST-DEVELOPER v20','ONSHAPE BY PTC INC, 1.211','  ');
FILE_SCHEMA(('AP242_MANAGED_MODEL_BASED_3D_ENGINEERING_MIM_LF { 1 0 10303 442 3 1 4 }'));
ENDSEC;
DATA;
#10=LINE('',#1036,#98);
#11=LINE('',#1039,#99);
#12=LINE('',#1041,#100);
#13=LINE('',#1043,#101);
#14=LINE('',#1045,#102);
#15=LINE('',#1047,#103);
#16=LINE('',#1049,#104);
#17=LINE('',#1053,#105);
#18=LINE('',#1057,#106);
#19=LINE('',#1059,#107);
#20=LINE('',#1061,#108);
#21=LINE('',#1063,#109);
#22=LINE('',#1065,#110);
#23=LINE('',#1067,#111);
#24=LINE('',#1069,#112);
#25=LINE('',#1070,#113);
#26=LINE('',#1080,#114);
#27=LINE('',#1083,#115);
#28=LINE('',#1085,#116);
#29=LINE('',#1087,#117);
#30=LINE('',#1089,#118);
#31=LINE('',#1091,#119);
#32=LINE('',#1093,#120);
#33=LINE('',#1095,#121);
#34=LINE('',#1097,#122);
#35=LINE('',#1099,#123);
#36=LINE('',#1101,#124);
#37=LINE('',#1103,#125);
#38=LINE('',#1105,#126);
#39=LINE('',#1109,#127);
#40=LINE('',#1113,#128);
#41=LINE('',#1114,#129);
#42=LINE('',#1119,#130);
#43=LINE('',#1122,#131);
#44=LINE('',#1124,#132);
#45=LINE('',#1126,#133);
#46=LINE('',#1128,#134);
#47=LINE('',#1131,#135);
#48=LINE('',#1133,#136);
#49=LINE('',#1135,#137);
#50=LINE('',#1137,#138);
#51=LINE('',#1140,#139);
#52=LINE('',#1142,#140);
#53=LINE('',#1144,#141);
#54=LINE('',#1146,#142);
#55=LINE('',#1148,#143);
#56=LINE('',#1150,#144);
#57=LINE('',#1152,#145);
#58=LINE('',#1155,#146);
#59=LINE('',#1157,#147);
#60=LINE('',#1159,#148);
#61=LINE('',#1161,#149);
#62=LINE('',#1164,#150);
#63=LINE('',#1165,#151);
#64=LINE('',#1167,#152);
#65=LINE('',#1170,#153);
#66=LINE('',#1172,#154);
#67=LINE('',#1174,#155);
#68=LINE('',#1176,#156);
#69=LINE('',#1178,#157);
#70=LINE('',#1180,#158);
#71=LINE('',#1181,#159);
#72=LINE('',#1182,#160);
#73=LINE('',#1184,#161);
#74=LINE('',#1186,#162);
#75=LINE('',#1188,#163);
#76=LINE('',#1190,#164);
#77=LINE('',#1191,#165);
#78=LINE('',#1193,#166);
#79=LINE('',#1195,#167);
#80=LINE('',#1196,#168);
#81=LINE('',#1198,#169);
#82=LINE('',#1199,#170);
#83=LINE('',#1201,#171);
#84=LINE('',#1203,#172);
#85=LINE('',#1206,#173);
#86=LINE('',#1208,#174);
#87=LINE('',#1210,#175);
#88=LINE('',#1212,#176);
#89=LINE('',#1214,#177);
#90=LINE('',#1216,#178);
#91=LINE('',#1218,#179);
#92=LINE('',#1220,#180);
#93=LINE('',#1222,#181);
#94=LINE('',#1224,#182);
#95=LINE('',#1226,#183);
#96=LINE('',#1228,#184);
#97=LINE('',#1229,#185);
#98=VECTOR('',#846,1.);
#99=VECTOR('',#847,1.);
#100=VECTOR('',#848,1.);
#101=VECTOR('',#849,1.);
#102=VECTOR('',#852,1.);
#103=VECTOR('',#853,1.);
#104=VECTOR('',#854,1.);
#105=VECTOR('',#859,1.);
#106=VECTOR('',#864,1.);
#107=VECTOR('',#865,1.);
#108=VECTOR('',#866,1.);
#109=VECTOR('',#869,1.);
#110=VECTOR('',#870,1.);
#111=VECTOR('',#871,1.);
#112=VECTOR('',#874,1.);
#113=VECTOR('',#875,1.);
#114=VECTOR('',#890,1.);
#115=VECTOR('',#891,1.);
#116=VECTOR('',#892,1.);
#117=VECTOR('',#893,1.);
#118=VECTOR('',#896,1.);
#119=VECTOR('',#897,1.);
#120=VECTOR('',#898,1.);
#121=VECTOR('',#901,1.);
#122=VECTOR('',#902,1.);
#123=VECTOR('',#903,1.);
#124=VECTOR('',#906,1.);
#125=VECTOR('',#907,1.);
#126=VECTOR('',#908,1.);
#127=VECTOR('',#913,1.);
#128=VECTOR('',#918,1.);
#129=VECTOR('',#919,1.);
#130=VECTOR('',#928,1.);
#131=VECTOR('',#929,1.);
#132=VECTOR('',#930,1.);
#133=VECTOR('',#931,1.);
#134=VECTOR('',#934,1.);
#135=VECTOR('',#935,1.);
#136=VECTOR('',#936,1.);
#137=VECTOR('',#937,1.);
#138=VECTOR('',#940,1.);
#139=VECTOR('',#941,1.);
#140=VECTOR('',#942,1.);
#141=VECTOR('',#943,1.);
#142=VECTOR('',#946,1.);
#143=VECTOR('',#947,1.);
#144=VECTOR('',#948,1.);
#145=VECTOR('',#951,1.);
#146=VECTOR('',#952,1.);
#147=VECTOR('',#953,1.);
#148=VECTOR('',#954,1.);
#149=VECTOR('',#957,1.);
#150=VECTOR('',#958,1.);
#151=VECTOR('',#959,1.);
#152=VECTOR('',#962,1.);
#153=VECTOR('',#963,1.);
#154=VECTOR('',#964,1.);
#155=VECTOR('',#965,1.);
#156=VECTOR('',#966,1.);
#157=VECTOR('',#967,1.);
#158=VECTOR('',#968,1.);
#159=VECTOR('',#969,1.);
#160=VECTOR('',#970,1.);
#161=VECTOR('',#971,1.);
#162=VECTOR('',#974,1.);
#163=VECTOR('',#975,1.);
#164=VECTOR('',#978,1.);
#165=VECTOR('',#979,1.);
#166=VECTOR('',#980,1.);
#167=VECTOR('',#983,1.);
#168=VECTOR('',#984,1.);
#169=VECTOR('',#987,1.);
#170=VECTOR('',#988,1.);
#171=VECTOR('',#989,1.);
#172=VECTOR('',#990,1.);
#173=VECTOR('',#995,1.);
#174=VECTOR('',#996,1.);
#175=VECTOR('',#997,1.);
#176=VECTOR('',#1000,1.);
#177=VECTOR('',#1003,1.);
#178=VECTOR('',#1004,1.);
#179=VECTOR('',#1007,1.);
#180=VECTOR('',#1008,1.);
#181=VECTOR('',#1011,1.);
#182=VECTOR('',#1014,1.);
#183=VECTOR('',#1017,1.);
#184=VECTOR('',#1020,1.);
#185=VECTOR('',#1021,1.);
#186=SHAPE_REPRESENTATION_RELATIONSHIP('','',#772,#190);
#187=SHAPE_REPRESENTATION_RELATIONSHIP('','',#773,#191);
#188=SHAPE_REPRESENTATION_RELATIONSHIP('','',#774,#192);
#189=SHAPE_REPRESENTATION_RELATIONSHIP('','',#775,#193);
#190=ADVANCED_BREP_SHAPE_REPRESENTATION('',(#764),#1236);
#191=ADVANCED_BREP_SHAPE_REPRESENTATION('',(#765),#1237);
#192=ADVANCED_BREP_SHAPE_REPRESENTATION('',(#766),#1238);
#193=ADVANCED_BREP_SHAPE_REPRESENTATION('',(#767),#1239);
#194=CYLINDRICAL_SURFACE('',#781,3.75E-05);
#195=CYLINDRICAL_SURFACE('',#785,0.0001);
#196=CYLINDRICAL_SURFACE('',#795,3.75E-05);
#197=CYLINDRICAL_SURFACE('',#801,0.0001);
#198=ORIENTED_EDGE('',*,*,#390,.T.);
#199=ORIENTED_EDGE('',*,*,#391,.T.);
#200=ORIENTED_EDGE('',*,*,#390,.F.);
#201=ORIENTED_EDGE('',*,*,#391,.F.);
#202=ORIENTED_EDGE('',*,*,#392,.F.);
#203=ORIENTED_EDGE('',*,*,#393,.F.);
#204=ORIENTED_EDGE('',*,*,#394,.T.);
#205=ORIENTED_EDGE('',*,*,#395,.T.);
#206=ORIENTED_EDGE('',*,*,#396,.F.);
#207=ORIENTED_EDGE('',*,*,#397,.F.);
#208=ORIENTED_EDGE('',*,*,#398,.T.);
#209=ORIENTED_EDGE('',*,*,#393,.T.);
#210=ORIENTED_EDGE('',*,*,#399,.F.);
#211=ORIENTED_EDGE('',*,*,#400,.F.);
#212=ORIENTED_EDGE('',*,*,#401,.T.);
#213=ORIENTED_EDGE('',*,*,#397,.T.);
#214=ORIENTED_EDGE('',*,*,#402,.F.);
#215=ORIENTED_EDGE('',*,*,#403,.F.);
#216=ORIENTED_EDGE('',*,*,#404,.T.);
#217=ORIENTED_EDGE('',*,*,#400,.T.);
#218=ORIENTED_EDGE('',*,*,#405,.F.);
#219=ORIENTED_EDGE('',*,*,#406,.F.);
#220=ORIENTED_EDGE('',*,*,#407,.T.);
#221=ORIENTED_EDGE('',*,*,#403,.T.);
#222=ORIENTED_EDGE('',*,*,#408,.F.);
#223=ORIENTED_EDGE('',*,*,#395,.F.);
#224=ORIENTED_EDGE('',*,*,#409,.T.);
#225=ORIENTED_EDGE('',*,*,#406,.T.);
#226=ORIENTED_EDGE('',*,*,#410,.F.);
#227=ORIENTED_EDGE('',*,*,#394,.F.);
#228=ORIENTED_EDGE('',*,*,#398,.F.);
#229=ORIENTED_EDGE('',*,*,#401,.F.);
#230=ORIENTED_EDGE('',*,*,#404,.F.);
#231=ORIENTED_EDGE('',*,*,#407,.F.);
#232=ORIENTED_EDGE('',*,*,#409,.F.);
#233=ORIENTED_EDGE('',*,*,#411,.T.);
#234=ORIENTED_EDGE('',*,*,#392,.T.);
#235=ORIENTED_EDGE('',*,*,#408,.T.);
#236=ORIENTED_EDGE('',*,*,#405,.T.);
#237=ORIENTED_EDGE('',*,*,#402,.T.);
#238=ORIENTED_EDGE('',*,*,#399,.T.);
#239=ORIENTED_EDGE('',*,*,#396,.T.);
#240=ORIENTED_EDGE('',*,*,#410,.T.);
#241=ORIENTED_EDGE('',*,*,#411,.F.);
#242=ORIENTED_EDGE('',*,*,#412,.T.);
#243=ORIENTED_EDGE('',*,*,#413,.F.);
#244=ORIENTED_EDGE('',*,*,#414,.F.);
#245=ORIENTED_EDGE('',*,*,#415,.T.);
#246=ORIENTED_EDGE('',*,*,#416,.T.);
#247=ORIENTED_EDGE('',*,*,#417,.F.);
#248=ORIENTED_EDGE('',*,*,#418,.F.);
#249=ORIENTED_EDGE('',*,*,#413,.T.);
#250=ORIENTED_EDGE('',*,*,#419,.T.);
#251=ORIENTED_EDGE('',*,*,#420,.F.);
#252=ORIENTED_EDGE('',*,*,#421,.F.);
#253=ORIENTED_EDGE('',*,*,#417,.T.);
#254=ORIENTED_EDGE('',*,*,#422,.T.);
#255=ORIENTED_EDGE('',*,*,#423,.F.);
#256=ORIENTED_EDGE('',*,*,#424,.F.);
#257=ORIENTED_EDGE('',*,*,#420,.T.);
#258=ORIENTED_EDGE('',*,*,#425,.T.);
#259=ORIENTED_EDGE('',*,*,#426,.F.);
#260=ORIENTED_EDGE('',*,*,#427,.F.);
#261=ORIENTED_EDGE('',*,*,#423,.T.);
#262=ORIENTED_EDGE('',*,*,#428,.T.);
#263=ORIENTED_EDGE('',*,*,#415,.F.);
#264=ORIENTED_EDGE('',*,*,#429,.F.);
#265=ORIENTED_EDGE('',*,*,#426,.T.);
#266=ORIENTED_EDGE('',*,*,#414,.T.);
#267=ORIENTED_EDGE('',*,*,#418,.T.);
#268=ORIENTED_EDGE('',*,*,#421,.T.);
#269=ORIENTED_EDGE('',*,*,#424,.T.);
#270=ORIENTED_EDGE('',*,*,#427,.T.);
#271=ORIENTED_EDGE('',*,*,#429,.T.);
#272=ORIENTED_EDGE('',*,*,#412,.F.);
#273=ORIENTED_EDGE('',*,*,#428,.F.);
#274=ORIENTED_EDGE('',*,*,#425,.F.);
#275=ORIENTED_EDGE('',*,*,#422,.F.);
#276=ORIENTED_EDGE('',*,*,#419,.F.);
#277=ORIENTED_EDGE('',*,*,#416,.F.);
#278=ORIENTED_EDGE('',*,*,#430,.F.);
#279=ORIENTED_EDGE('',*,*,#431,.T.);
#280=ORIENTED_EDGE('',*,*,#432,.F.);
#281=ORIENTED_EDGE('',*,*,#433,.T.);
#282=ORIENTED_EDGE('',*,*,#434,.T.);
#283=ORIENTED_EDGE('',*,*,#435,.T.);
#284=ORIENTED_EDGE('',*,*,#436,.F.);
#285=ORIENTED_EDGE('',*,*,#437,.T.);
#286=ORIENTED_EDGE('',*,*,#438,.F.);
#287=ORIENTED_EDGE('',*,*,#439,.T.);
#288=ORIENTED_EDGE('',*,*,#440,.F.);
#289=ORIENTED_EDGE('',*,*,#441,.T.);
#290=ORIENTED_EDGE('',*,*,#442,.F.);
#291=ORIENTED_EDGE('',*,*,#441,.F.);
#292=ORIENTED_EDGE('',*,*,#443,.T.);
#293=ORIENTED_EDGE('',*,*,#444,.T.);
#294=ORIENTED_EDGE('',*,*,#445,.T.);
#295=ORIENTED_EDGE('',*,*,#446,.T.);
#296=ORIENTED_EDGE('',*,*,#447,.F.);
#297=ORIENTED_EDGE('',*,*,#448,.F.);
#298=ORIENTED_EDGE('',*,*,#449,.F.);
#299=ORIENTED_EDGE('',*,*,#450,.T.);
#300=ORIENTED_EDGE('',*,*,#445,.F.);
#301=ORIENTED_EDGE('',*,*,#451,.F.);
#302=ORIENTED_EDGE('',*,*,#452,.F.);
#303=ORIENTED_EDGE('',*,*,#453,.T.);
#304=ORIENTED_EDGE('',*,*,#454,.F.);
#305=ORIENTED_EDGE('',*,*,#455,.F.);
#306=ORIENTED_EDGE('',*,*,#456,.T.);
#307=ORIENTED_EDGE('',*,*,#457,.T.);
#308=ORIENTED_EDGE('',*,*,#458,.T.);
#309=ORIENTED_EDGE('',*,*,#444,.F.);
#310=ORIENTED_EDGE('',*,*,#459,.T.);
#311=ORIENTED_EDGE('',*,*,#447,.T.);
#312=ORIENTED_EDGE('',*,*,#460,.F.);
#313=ORIENTED_EDGE('',*,*,#461,.F.);
#314=ORIENTED_EDGE('',*,*,#462,.F.);
#315=ORIENTED_EDGE('',*,*,#463,.T.);
#316=ORIENTED_EDGE('',*,*,#460,.T.);
#317=ORIENTED_EDGE('',*,*,#446,.F.);
#318=ORIENTED_EDGE('',*,*,#450,.F.);
#319=ORIENTED_EDGE('',*,*,#433,.F.);
#320=ORIENTED_EDGE('',*,*,#464,.T.);
#321=ORIENTED_EDGE('',*,*,#452,.T.);
#322=ORIENTED_EDGE('',*,*,#465,.F.);
#323=ORIENTED_EDGE('',*,*,#466,.F.);
#324=ORIENTED_EDGE('',*,*,#437,.F.);
#325=ORIENTED_EDGE('',*,*,#467,.T.);
#326=ORIENTED_EDGE('',*,*,#455,.T.);
#327=ORIENTED_EDGE('',*,*,#468,.F.);
#328=ORIENTED_EDGE('',*,*,#434,.F.);
#329=ORIENTED_EDGE('',*,*,#468,.T.);
#330=ORIENTED_EDGE('',*,*,#454,.T.);
#331=ORIENTED_EDGE('',*,*,#469,.F.);
#332=ORIENTED_EDGE('',*,*,#431,.F.);
#333=ORIENTED_EDGE('',*,*,#470,.F.);
#334=ORIENTED_EDGE('',*,*,#471,.F.);
#335=ORIENTED_EDGE('',*,*,#472,.T.);
#336=ORIENTED_EDGE('',*,*,#464,.F.);
#337=ORIENTED_EDGE('',*,*,#432,.T.);
#338=ORIENTED_EDGE('',*,*,#469,.T.);
#339=ORIENTED_EDGE('',*,*,#453,.F.);
#340=ORIENTED_EDGE('',*,*,#443,.F.);
#341=ORIENTED_EDGE('',*,*,#440,.T.);
#342=ORIENTED_EDGE('',*,*,#473,.F.);
#343=ORIENTED_EDGE('',*,*,#474,.T.);
#344=ORIENTED_EDGE('',*,*,#475,.T.);
#345=ORIENTED_EDGE('',*,*,#451,.T.);
#346=ORIENTED_EDGE('',*,*,#448,.T.);
#347=ORIENTED_EDGE('',*,*,#459,.F.);
#348=ORIENTED_EDGE('',*,*,#476,.F.);
#349=ORIENTED_EDGE('',*,*,#465,.T.);
#350=ORIENTED_EDGE('',*,*,#461,.T.);
#351=ORIENTED_EDGE('',*,*,#463,.F.);
#352=ORIENTED_EDGE('',*,*,#456,.F.);
#353=ORIENTED_EDGE('',*,*,#467,.F.);
#354=ORIENTED_EDGE('',*,*,#436,.T.);
#355=ORIENTED_EDGE('',*,*,#477,.T.);
#356=ORIENTED_EDGE('',*,*,#478,.T.);
#357=ORIENTED_EDGE('',*,*,#457,.F.);
#358=ORIENTED_EDGE('',*,*,#478,.F.);
#359=ORIENTED_EDGE('',*,*,#479,.T.);
#360=ORIENTED_EDGE('',*,*,#480,.T.);
#361=ORIENTED_EDGE('',*,*,#458,.F.);
#362=ORIENTED_EDGE('',*,*,#480,.F.);
#363=ORIENTED_EDGE('',*,*,#481,.T.);
#364=ORIENTED_EDGE('',*,*,#438,.T.);
#365=ORIENTED_EDGE('',*,*,#442,.T.);
#366=ORIENTED_EDGE('',*,*,#482,.F.);
#367=ORIENTED_EDGE('',*,*,#466,.T.);
#368=ORIENTED_EDGE('',*,*,#476,.T.);
#369=ORIENTED_EDGE('',*,*,#462,.T.);
#370=ORIENTED_EDGE('',*,*,#430,.T.);
#371=ORIENTED_EDGE('',*,*,#482,.T.);
#372=ORIENTED_EDGE('',*,*,#449,.T.);
#373=ORIENTED_EDGE('',*,*,#475,.F.);
#374=ORIENTED_EDGE('',*,*,#483,.F.);
#375=ORIENTED_EDGE('',*,*,#470,.T.);
#376=ORIENTED_EDGE('',*,*,#435,.F.);
#377=ORIENTED_EDGE('',*,*,#472,.F.);
#378=ORIENTED_EDGE('',*,*,#484,.T.);
#379=ORIENTED_EDGE('',*,*,#473,.T.);
#380=ORIENTED_EDGE('',*,*,#439,.F.);
#381=ORIENTED_EDGE('',*,*,#485,.F.);
#382=ORIENTED_EDGE('',*,*,#483,.T.);
#383=ORIENTED_EDGE('',*,*,#474,.F.);
#384=ORIENTED_EDGE('',*,*,#484,.F.);
#385=ORIENTED_EDGE('',*,*,#471,.T.);
#386=ORIENTED_EDGE('',*,*,#481,.F.);
#387=ORIENTED_EDGE('',*,*,#479,.F.);
#388=ORIENTED_EDGE('',*,*,#477,.F.);
#389=ORIENTED_EDGE('',*,*,#485,.T.);
#390=EDGE_CURVE('',#486,#486,#550,.F.);
#391=EDGE_CURVE('',#487,#487,#551,.T.);
#392=EDGE_CURVE('',#488,#489,#10,.T.);
#393=EDGE_CURVE('',#490,#488,#11,.T.);
#394=EDGE_CURVE('',#490,#491,#12,.T.);
#395=EDGE_CURVE('',#491,#489,#13,.T.);
#396=EDGE_CURVE('',#492,#488,#14,.T.);
#397=EDGE_CURVE('',#493,#492,#15,.T.);
#398=EDGE_CURVE('',#493,#490,#16,.T.);
#399=EDGE_CURVE('',#494,#492,#552,.T.);
#400=EDGE_CURVE('',#495,#494,#17,.T.);
#401=EDGE_CURVE('',#495,#493,#553,.T.);
#402=EDGE_CURVE('',#496,#494,#18,.T.);
#403=EDGE_CURVE('',#497,#496,#19,.T.);
#404=EDGE_CURVE('',#497,#495,#20,.T.);
#405=EDGE_CURVE('',#498,#496,#21,.T.);
#406=EDGE_CURVE('',#499,#498,#22,.T.);
#407=EDGE_CURVE('',#499,#497,#23,.T.);
#408=EDGE_CURVE('',#489,#498,#24,.T.);
#409=EDGE_CURVE('',#491,#499,#25,.T.);
#410=EDGE_CURVE('',#500,#500,#554,.T.);
#411=EDGE_CURVE('',#501,#501,#555,.T.);
#412=EDGE_CURVE('',#502,#503,#26,.T.);
#413=EDGE_CURVE('',#504,#503,#27,.T.);
#414=EDGE_CURVE('',#505,#504,#28,.T.);
#415=EDGE_CURVE('',#505,#502,#29,.T.);
#416=EDGE_CURVE('',#503,#506,#30,.T.);
#417=EDGE_CURVE('',#507,#506,#31,.T.);
#418=EDGE_CURVE('',#504,#507,#32,.T.);
#419=EDGE_CURVE('',#506,#508,#33,.T.);
#420=EDGE_CURVE('',#509,#508,#34,.T.);
#421=EDGE_CURVE('',#507,#509,#35,.T.);
#422=EDGE_CURVE('',#508,#510,#36,.T.);
#423=EDGE_CURVE('',#511,#510,#37,.T.);
#424=EDGE_CURVE('',#509,#511,#38,.T.);
#425=EDGE_CURVE('',#510,#512,#556,.T.);
#426=EDGE_CURVE('',#513,#512,#39,.T.);
#427=EDGE_CURVE('',#511,#513,#557,.T.);
#428=EDGE_CURVE('',#512,#502,#40,.T.);
#429=EDGE_CURVE('',#513,#505,#41,.T.);
#430=EDGE_CURVE('',#514,#515,#42,.T.);
#431=EDGE_CURVE('',#514,#516,#43,.T.);
#432=EDGE_CURVE('',#517,#516,#44,.T.);
#433=EDGE_CURVE('',#517,#515,#45,.T.);
#434=EDGE_CURVE('',#518,#519,#46,.T.);
#435=EDGE_CURVE('',#519,#520,#47,.T.);
#436=EDGE_CURVE('',#521,#520,#48,.T.);
#437=EDGE_CURVE('',#521,#518,#49,.T.);
#438=EDGE_CURVE('',#522,#523,#50,.T.);
#439=EDGE_CURVE('',#522,#524,#51,.T.);
#440=EDGE_CURVE('',#525,#524,#52,.T.);
#441=EDGE_CURVE('',#525,#523,#53,.T.);
#442=EDGE_CURVE('',#523,#526,#54,.T.);
#443=EDGE_CURVE('',#525,#527,#55,.T.);
#444=EDGE_CURVE('',#527,#526,#56,.T.);
#445=EDGE_CURVE('',#528,#529,#57,.T.);
#446=EDGE_CURVE('',#529,#530,#58,.T.);
#447=EDGE_CURVE('',#531,#530,#59,.T.);
#448=EDGE_CURVE('',#528,#531,#60,.T.);
#449=EDGE_CURVE('',#532,#533,#61,.T.);
#450=EDGE_CURVE('',#532,#529,#62,.T.);
#451=EDGE_CURVE('',#533,#528,#63,.T.);
#452=EDGE_CURVE('',#534,#535,#64,.T.);
#453=EDGE_CURVE('',#534,#536,#65,.T.);
#454=EDGE_CURVE('',#537,#536,#66,.T.);
#455=EDGE_CURVE('',#538,#537,#67,.T.);
#456=EDGE_CURVE('',#538,#539,#68,.T.);
#457=EDGE_CURVE('',#539,#540,#69,.T.);
#458=EDGE_CURVE('',#540,#526,#70,.T.);
#459=EDGE_CURVE('',#527,#531,#71,.T.);
#460=EDGE_CURVE('',#541,#530,#72,.T.);
#461=EDGE_CURVE('',#535,#541,#73,.T.);
#462=EDGE_CURVE('',#542,#532,#74,.T.);
#463=EDGE_CURVE('',#542,#541,#75,.T.);
#464=EDGE_CURVE('',#517,#534,#76,.T.);
#465=EDGE_CURVE('',#543,#535,#77,.T.);
#466=EDGE_CURVE('',#515,#543,#78,.T.);
#467=EDGE_CURVE('',#521,#538,#79,.T.);
#468=EDGE_CURVE('',#518,#537,#80,.T.);
#469=EDGE_CURVE('',#516,#536,#81,.T.);
#470=EDGE_CURVE('',#544,#514,#82,.T.);
#471=EDGE_CURVE('',#545,#544,#83,.T.);
#472=EDGE_CURVE('',#545,#519,#84,.T.);
#473=EDGE_CURVE('',#546,#524,#85,.T.);
#474=EDGE_CURVE('',#546,#547,#86,.T.);
#475=EDGE_CURVE('',#547,#533,#87,.T.);
#476=EDGE_CURVE('',#543,#542,#88,.T.);
#477=EDGE_CURVE('',#520,#548,#89,.T.);
#478=EDGE_CURVE('',#548,#539,#90,.T.);
#479=EDGE_CURVE('',#548,#549,#91,.T.);
#480=EDGE_CURVE('',#549,#540,#92,.T.);
#481=EDGE_CURVE('',#549,#522,#93,.T.);
#482=EDGE_CURVE('',#515,#532,#94,.T.);
#483=EDGE_CURVE('',#544,#547,#95,.T.);
#484=EDGE_CURVE('',#545,#546,#96,.T.);
#485=EDGE_CURVE('',#520,#522,#97,.T.);
#486=VERTEX_POINT('',#1029);
#487=VERTEX_POINT('',#1032);
#488=VERTEX_POINT('',#1037);
#489=VERTEX_POINT('',#1038);
#490=VERTEX_POINT('',#1040);
#491=VERTEX_POINT('',#1042);
#492=VERTEX_POINT('',#1046);
#493=VERTEX_POINT('',#1048);
#494=VERTEX_POINT('',#1052);
#495=VERTEX_POINT('',#1054);
#496=VERTEX_POINT('',#1058);
#497=VERTEX_POINT('',#1060);
#498=VERTEX_POINT('',#1064);
#499=VERTEX_POINT('',#1066);
#500=VERTEX_POINT('',#1073);
#501=VERTEX_POINT('',#1076);
#502=VERTEX_POINT('',#1081);
#503=VERTEX_POINT('',#1082);
#504=VERTEX_POINT('',#1084);
#505=VERTEX_POINT('',#1086);
#506=VERTEX_POINT('',#1090);
#507=VERTEX_POINT('',#1092);
#508=VERTEX_POINT('',#1096);
#509=VERTEX_POINT('',#1098);
#510=VERTEX_POINT('',#1102);
#511=VERTEX_POINT('',#1104);
#512=VERTEX_POINT('',#1108);
#513=VERTEX_POINT('',#1110);
#514=VERTEX_POINT('',#1120);
#515=VERTEX_POINT('',#1121);
#516=VERTEX_POINT('',#1123);
#517=VERTEX_POINT('',#1125);
#518=VERTEX_POINT('',#1129);
#519=VERTEX_POINT('',#1130);
#520=VERTEX_POINT('',#1132);
#521=VERTEX_POINT('',#1134);
#522=VERTEX_POINT('',#1138);
#523=VERTEX_POINT('',#1139);
#524=VERTEX_POINT('',#1141);
#525=VERTEX_POINT('',#1143);
#526=VERTEX_POINT('',#1147);
#527=VERTEX_POINT('',#1149);
#528=VERTEX_POINT('',#1153);
#529=VERTEX_POINT('',#1154);
#530=VERTEX_POINT('',#1156);
#531=VERTEX_POINT('',#1158);
#532=VERTEX_POINT('',#1162);
#533=VERTEX_POINT('',#1163);
#534=VERTEX_POINT('',#1168);
#535=VERTEX_POINT('',#1169);
#536=VERTEX_POINT('',#1171);
#537=VERTEX_POINT('',#1173);
#538=VERTEX_POINT('',#1175);
#539=VERTEX_POINT('',#1177);
#540=VERTEX_POINT('',#1179);
#541=VERTEX_POINT('',#1183);
#542=VERTEX_POINT('',#1187);
#543=VERTEX_POINT('',#1192);
#544=VERTEX_POINT('',#1200);
#545=VERTEX_POINT('',#1202);
#546=VERTEX_POINT('',#1207);
#547=VERTEX_POINT('',#1209);
#548=VERTEX_POINT('',#1215);
#549=VERTEX_POINT('',#1219);
#550=CIRCLE('',#778,3.75E-05);
#551=CIRCLE('',#780,3.75E-05);
#552=CIRCLE('',#786,0.0001);
#553=CIRCLE('',#787,0.0001);
#554=CIRCLE('',#792,3.75E-05);
#555=CIRCLE('',#794,3.75E-05);
#556=CIRCLE('',#802,0.0001);
#557=CIRCLE('',#803,0.0001);
#558=EDGE_LOOP('',(#198));
#559=EDGE_LOOP('',(#199));
#560=EDGE_LOOP('',(#200));
#561=EDGE_LOOP('',(#201));
#562=EDGE_LOOP('',(#202,#203,#204,#205));
#563=EDGE_LOOP('',(#206,#207,#208,#209));
#564=EDGE_LOOP('',(#210,#211,#212,#213));
#565=EDGE_LOOP('',(#214,#215,#216,#217));
#566=EDGE_LOOP('',(#218,#219,#220,#221));
#567=EDGE_LOOP('',(#222,#223,#224,#225));
#568=EDGE_LOOP('',(#226));
#569=EDGE_LOOP('',(#227,#228,#229,#230,#231,#232));
#570=EDGE_LOOP('',(#233));
#571=EDGE_LOOP('',(#234,#235,#236,#237,#238,#239));
#572=EDGE_LOOP('',(#240));
#573=EDGE_LOOP('',(#241));
#574=EDGE_LOOP('',(#242,#243,#244,#245));
#575=EDGE_LOOP('',(#246,#247,#248,#249));
#576=EDGE_LOOP('',(#250,#251,#252,#253));
#577=EDGE_LOOP('',(#254,#255,#256,#257));
#578=EDGE_LOOP('',(#258,#259,#260,#261));
#579=EDGE_LOOP('',(#262,#263,#264,#265));
#580=EDGE_LOOP('',(#266,#267,#268,#269,#270,#271));
#581=EDGE_LOOP('',(#272,#273,#274,#275,#276,#277));
#582=EDGE_LOOP('',(#278,#279,#280,#281));
#583=EDGE_LOOP('',(#282,#283,#284,#285));
#584=EDGE_LOOP('',(#286,#287,#288,#289));
#585=EDGE_LOOP('',(#290,#291,#292,#293));
#586=EDGE_LOOP('',(#294,#295,#296,#297));
#587=EDGE_LOOP('',(#298,#299,#300,#301));
#588=EDGE_LOOP('',(#302,#303,#304,#305,#306,#307,#308,#309,#310,#311,#312,#313));
#589=EDGE_LOOP('',(#314,#315,#316,#317,#318));
#590=EDGE_LOOP('',(#319,#320,#321,#322,#323));
#591=EDGE_LOOP('',(#324,#325,#326,#327));
#592=EDGE_LOOP('',(#328,#329,#330,#331,#332,#333,#334,#335));
#593=EDGE_LOOP('',(#336,#337,#338,#339));
#594=EDGE_LOOP('',(#340,#341,#342,#343,#344,#345,#346,#347));
#595=EDGE_LOOP('',(#348,#349,#350,#351));
#596=EDGE_LOOP('',(#352,#353,#354,#355,#356));
#597=EDGE_LOOP('',(#357,#358,#359,#360));
#598=EDGE_LOOP('',(#361,#362,#363,#364,#365));
#599=EDGE_LOOP('',(#366,#367,#368,#369));
#600=EDGE_LOOP('',(#370,#371,#372,#373,#374,#375));
#601=EDGE_LOOP('',(#376,#377,#378,#379,#380,#381));
#602=EDGE_LOOP('',(#382,#383,#384,#385));
#603=EDGE_LOOP('',(#386,#387,#388,#389));
#604=FACE_BOUND('',#558,.T.);
#605=FACE_BOUND('',#559,.T.);
#606=FACE_BOUND('',#560,.T.);
#607=FACE_BOUND('',#561,.T.);
#608=FACE_BOUND('',#562,.T.);
#609=FACE_BOUND('',#563,.T.);
#610=FACE_BOUND('',#564,.T.);
#611=FACE_BOUND('',#565,.T.);
#612=FACE_BOUND('',#566,.T.);
#613=FACE_BOUND('',#567,.T.);
#614=FACE_BOUND('',#568,.T.);
#615=FACE_BOUND('',#569,.T.);
#616=FACE_BOUND('',#570,.T.);
#617=FACE_BOUND('',#571,.T.);
#618=FACE_BOUND('',#572,.T.);
#619=FACE_BOUND('',#573,.T.);
#620=FACE_BOUND('',#574,.T.);
#621=FACE_BOUND('',#575,.T.);
#622=FACE_BOUND('',#576,.T.);
#623=FACE_BOUND('',#577,.T.);
#624=FACE_BOUND('',#578,.T.);
#625=FACE_BOUND('',#579,.T.);
#626=FACE_BOUND('',#580,.T.);
#627=FACE_BOUND('',#581,.T.);
#628=FACE_BOUND('',#582,.T.);
#629=FACE_BOUND('',#583,.T.);
#630=FACE_BOUND('',#584,.T.);
#631=FACE_BOUND('',#585,.T.);
#632=FACE_BOUND('',#586,.T.);
#633=FACE_BOUND('',#587,.T.);
#634=FACE_BOUND('',#588,.T.);
#635=FACE_BOUND('',#589,.T.);
#636=FACE_BOUND('',#590,.T.);
#637=FACE_BOUND('',#591,.T.);
#638=FACE_BOUND('',#592,.T.);
#639=FACE_BOUND('',#593,.T.);
#640=FACE_BOUND('',#594,.T.);
#641=FACE_BOUND('',#595,.T.);
#642=FACE_BOUND('',#596,.T.);
#643=FACE_BOUND('',#597,.T.);
#644=FACE_BOUND('',#598,.T.);
#645=FACE_BOUND('',#599,.T.);
#646=FACE_BOUND('',#600,.T.);
#647=FACE_BOUND('',#601,.T.);
#648=FACE_BOUND('',#602,.T.);
#649=FACE_BOUND('',#603,.T.);
#650=PLANE('',#777);
#651=PLANE('',#779);
#652=PLANE('',#783);
#653=PLANE('',#784);
#654=PLANE('',#788);
#655=PLANE('',#789);
#656=PLANE('',#790);
#657=PLANE('',#791);
#658=PLANE('',#793);
#659=PLANE('',#797);
#660=PLANE('',#798);
#661=PLANE('',#799);
#662=PLANE('',#800);
#663=PLANE('',#804);
#664=PLANE('',#805);
#665=PLANE('',#806);
#666=PLANE('',#808);
#667=PLANE('',#809);
#668=PLANE('',#810);
#669=PLANE('',#811);
#670=PLANE('',#812);
#671=PLANE('',#813);
#672=PLANE('',#814);
#673=PLANE('',#815);
#674=PLANE('',#816);
#675=PLANE('',#817);
#676=PLANE('',#818);
#677=PLANE('',#819);
#678=PLANE('',#820);
#679=PLANE('',#821);
#680=PLANE('',#822);
#681=PLANE('',#823);
#682=PLANE('',#824);
#683=PLANE('',#825);
#684=PLANE('',#826);
#685=PLANE('',#827);
#686=PLANE('',#828);
#687=PLANE('',#829);
#688=ADVANCED_FACE('',(#604),#650,.F.);
#689=ADVANCED_FACE('',(#605),#651,.T.);
#690=ADVANCED_FACE('',(#606,#607),#194,.T.);
#691=ADVANCED_FACE('',(#608),#652,.T.);
#692=ADVANCED_FACE('',(#609),#653,.T.);
#693=ADVANCED_FACE('',(#610),#195,.F.);
#694=ADVANCED_FACE('',(#611),#654,.T.);
#695=ADVANCED_FACE('',(#612),#655,.T.);
#696=ADVANCED_FACE('',(#613),#656,.T.);
#697=ADVANCED_FACE('',(#614,#615),#657,.T.);
#698=ADVANCED_FACE('',(#616,#617),#658,.F.);
#699=ADVANCED_FACE('',(#618,#619),#196,.F.);
#700=ADVANCED_FACE('',(#620),#659,.F.);
#701=ADVANCED_FACE('',(#621),#660,.F.);
#702=ADVANCED_FACE('',(#622),#661,.F.);
#703=ADVANCED_FACE('',(#623),#662,.F.);
#704=ADVANCED_FACE('',(#624),#197,.F.);
#705=ADVANCED_FACE('',(#625),#663,.F.);
#706=ADVANCED_FACE('',(#626),#664,.T.);
#707=ADVANCED_FACE('',(#627),#665,.F.);
#708=ADVANCED_FACE('',(#628),#666,.T.);
#709=ADVANCED_FACE('',(#629),#667,.T.);
#710=ADVANCED_FACE('',(#630),#668,.T.);
#711=ADVANCED_FACE('',(#631),#669,.F.);
#712=ADVANCED_FACE('',(#632),#670,.T.);
#713=ADVANCED_FACE('',(#633),#671,.T.);
#714=ADVANCED_FACE('',(#634),#672,.F.);
#715=ADVANCED_FACE('',(#635),#673,.F.);
#716=ADVANCED_FACE('',(#636),#674,.F.);
#717=ADVANCED_FACE('',(#637),#675,.F.);
#718=ADVANCED_FACE('',(#638),#676,.F.);
#719=ADVANCED_FACE('',(#639),#677,.T.);
#720=ADVANCED_FACE('',(#640),#678,.T.);
#721=ADVANCED_FACE('',(#641),#679,.F.);
#722=ADVANCED_FACE('',(#642),#680,.T.);
#723=ADVANCED_FACE('',(#643),#681,.T.);
#724=ADVANCED_FACE('',(#644),#682,.T.);
#725=ADVANCED_FACE('',(#645),#683,.F.);
#726=ADVANCED_FACE('',(#646),#684,.F.);
#727=ADVANCED_FACE('',(#647),#685,.T.);
#728=ADVANCED_FACE('',(#648),#686,.T.);
#729=ADVANCED_FACE('',(#649),#687,.F.);
#730=CLOSED_SHELL('',(#688,#689,#690));
#731=CLOSED_SHELL('',(#691,#692,#693,#694,#695,#696,#697,#698,#699));
#732=CLOSED_SHELL('',(#700,#701,#702,#703,#704,#705,#706,#707));
#733=CLOSED_SHELL('',(#708,#709,#710,#711,#712,#713,#714,#715,#716,#717,#718,#719,#720,#721,#722,#723,#724,#725,#726,#727,#728,#729));
#734=STYLED_ITEM('',(#738),#764);
#735=STYLED_ITEM('',(#739),#765);
#736=STYLED_ITEM('',(#740),#766);
#737=STYLED_ITEM('',(#741),#767);
#738=PRESENTATION_STYLE_ASSIGNMENT((#742));
#739=PRESENTATION_STYLE_ASSIGNMENT((#743));
#740=PRESENTATION_STYLE_ASSIGNMENT((#744));
#741=PRESENTATION_STYLE_ASSIGNMENT((#745));
#742=SURFACE_STYLE_USAGE(.BOTH.,#746);
#743=SURFACE_STYLE_USAGE(.BOTH.,#747);
#744=SURFACE_STYLE_USAGE(.BOTH.,#748);
#745=SURFACE_STYLE_USAGE(.BOTH.,#749);
#746=SURFACE_SIDE_STYLE('',(#750));
#747=SURFACE_SIDE_STYLE('',(#751));
#748=SURFACE_SIDE_STYLE('',(#752));
#749=SURFACE_SIDE_STYLE('',(#753));
#750=SURFACE_STYLE_FILL_AREA(#754);
#751=SURFACE_STYLE_FILL_AREA(#755);
#752=SURFACE_STYLE_FILL_AREA(#756);
#753=SURFACE_STYLE_FILL_AREA(#757);
#754=FILL_AREA_STYLE('',(#758));
#755=FILL_AREA_STYLE('',(#759));
#756=FILL_AREA_STYLE('',(#760));
#757=FILL_AREA_STYLE('',(#761));
#758=FILL_AREA_STYLE_COLOUR('',#762);
#759=FILL_AREA_STYLE_COLOUR('',#763);
#760=FILL_AREA_STYLE_COLOUR('',#763);
#761=FILL_AREA_STYLE_COLOUR('',#762);
#762=COLOUR_RGB('',0.870588235294118,0.870588235294118,0.870588235294118);
#763=COLOUR_RGB('',0.858823529411765,0.737254901960784,0.494117647058824);
#764=MANIFOLD_SOLID_BREP('Part 4',#730);
#765=MANIFOLD_SOLID_BREP('Part 1',#731);
#766=MANIFOLD_SOLID_BREP('Part 2',#732);
#767=MANIFOLD_SOLID_BREP('Part 3',#733);
#768=SHAPE_DEFINITION_REPRESENTATION(#1256,#772);
#769=SHAPE_DEFINITION_REPRESENTATION(#1257,#773);
#770=SHAPE_DEFINITION_REPRESENTATION(#1258,#774);
#771=SHAPE_DEFINITION_REPRESENTATION(#1259,#775);
#772=SHAPE_REPRESENTATION('Part 4',(#776),#1236);
#773=SHAPE_REPRESENTATION('Part 1',(#782),#1237);
#774=SHAPE_REPRESENTATION('Part 2',(#796),#1238);
#775=SHAPE_REPRESENTATION('Part 3',(#807),#1239);
#776=AXIS2_PLACEMENT_3D('',#1026,#830,#831);
#777=AXIS2_PLACEMENT_3D('',#1027,#832,#833);
#778=AXIS2_PLACEMENT_3D('',#1028,#834,#835);
#779=AXIS2_PLACEMENT_3D('',#1030,#836,#837);
#780=AXIS2_PLACEMENT_3D('',#1031,#838,#839);
#781=AXIS2_PLACEMENT_3D('',#1033,#840,#841);
#782=AXIS2_PLACEMENT_3D('',#1034,#842,#843);
#783=AXIS2_PLACEMENT_3D('',#1035,#844,#845);
#784=AXIS2_PLACEMENT_3D('',#1044,#850,#851);
#785=AXIS2_PLACEMENT_3D('',#1050,#855,#856);
#786=AXIS2_PLACEMENT_3D('',#1051,#857,#858);
#787=AXIS2_PLACEMENT_3D('',#1055,#860,#861);
#788=AXIS2_PLACEMENT_3D('',#1056,#862,#863);
#789=AXIS2_PLACEMENT_3D('',#1062,#867,#868);
#790=AXIS2_PLACEMENT_3D('',#1068,#872,#873);
#791=AXIS2_PLACEMENT_3D('',#1071,#876,#877);
#792=AXIS2_PLACEMENT_3D('',#1072,#878,#879);
#793=AXIS2_PLACEMENT_3D('',#1074,#880,#881);
#794=AXIS2_PLACEMENT_3D('',#1075,#882,#883);
#795=AXIS2_PLACEMENT_3D('',#1077,#884,#885);
#796=AXIS2_PLACEMENT_3D('',#1078,#886,#887);
#797=AXIS2_PLACEMENT_3D('',#1079,#888,#889);
#798=AXIS2_PLACEMENT_3D('',#1088,#894,#895);
#799=AXIS2_PLACEMENT_3D('',#1094,#899,#900);
#800=AXIS2_PLACEMENT_3D('',#1100,#904,#905);
#801=AXIS2_PLACEMENT_3D('',#1106,#909,#910);
#802=AXIS2_PLACEMENT_3D('',#1107,#911,#912);
#803=AXIS2_PLACEMENT_3D('',#1111,#914,#915);
#804=AXIS2_PLACEMENT_3D('',#1112,#916,#917);
#805=AXIS2_PLACEMENT_3D('',#1115,#920,#921);
#806=AXIS2_PLACEMENT_3D('',#1116,#922,#923);
#807=AXIS2_PLACEMENT_3D('',#1117,#924,#925);
#808=AXIS2_PLACEMENT_3D('',#1118,#926,#927);
#809=AXIS2_PLACEMENT_3D('',#1127,#932,#933);
#810=AXIS2_PLACEMENT_3D('',#1136,#938,#939);
#811=AXIS2_PLACEMENT_3D('',#1145,#944,#945);
#812=AXIS2_PLACEMENT_3D('',#1151,#949,#950);
#813=AXIS2_PLACEMENT_3D('',#1160,#955,#956);
#814=AXIS2_PLACEMENT_3D('',#1166,#960,#961);
#815=AXIS2_PLACEMENT_3D('',#1185,#972,#973);
#816=AXIS2_PLACEMENT_3D('',#1189,#976,#977);
#817=AXIS2_PLACEMENT_3D('',#1194,#981,#982);
#818=AXIS2_PLACEMENT_3D('',#1197,#985,#986);
#819=AXIS2_PLACEMENT_3D('',#1204,#991,#992);
#820=AXIS2_PLACEMENT_3D('',#1205,#993,#994);
#821=AXIS2_PLACEMENT_3D('',#1211,#998,#999);
#822=AXIS2_PLACEMENT_3D('',#1213,#1001,#1002);
#823=AXIS2_PLACEMENT_3D('',#1217,#1005,#1006);
#824=AXIS2_PLACEMENT_3D('',#1221,#1009,#1010);
#825=AXIS2_PLACEMENT_3D('',#1223,#1012,#1013);
#826=AXIS2_PLACEMENT_3D('',#1225,#1015,#1016);
#827=AXIS2_PLACEMENT_3D('',#1227,#1018,#1019);
#828=AXIS2_PLACEMENT_3D('',#1230,#1022,#1023);
#829=AXIS2_PLACEMENT_3D('',#1231,#1024,#1025);
#830=DIRECTION('',(0.,0.,1.));
#831=DIRECTION('',(1.,0.,0.));
#832=DIRECTION('',(0.,0.,1.));
#833=DIRECTION('',(1.,0.,0.));
#834=DIRECTION('',(0.,0.,1.));
#835=DIRECTION('',(1.,0.,0.));
#836=DIRECTION('',(0.,0.,1.));
#837=DIRECTION('',(1.,0.,0.));
#838=DIRECTION('',(0.,0.,1.));
#839=DIRECTION('',(1.,0.,0.));
#840=DIRECTION('',(0.,0.,1.));
#841=DIRECTION('',(1.,0.,0.));
#842=DIRECTION('',(0.,0.,1.));
#843=DIRECTION('',(1.,0.,0.));
#844=DIRECTION('',(-2.16840434497101E-16,1.,0.));
#845=DIRECTION('',(-1.,-2.16840434497101E-16,0.));
#846=DIRECTION('',(1.,2.16840434497101E-16,0.));
#847=DIRECTION('',(0.,0.,-1.));
#848=DIRECTION('',(1.,2.16840434497101E-16,0.));
#849=DIRECTION('',(0.,0.,-1.));
#850=DIRECTION('',(-1.,0.,0.));
#851=DIRECTION('',(0.,0.,1.));
#852=DIRECTION('',(0.,1.,0.));
#853=DIRECTION('',(0.,0.,-1.));
#854=DIRECTION('',(0.,1.,0.));
#855=DIRECTION('',(0.,0.,-1.));
#856=DIRECTION('',(-1.,0.,0.));
#857=DIRECTION('',(0.,0.,1.));
#858=DIRECTION('',(1.,0.,0.));
#859=DIRECTION('',(0.,0.,-1.));
#860=DIRECTION('',(0.,0.,1.));
#861=DIRECTION('',(1.,0.,0.));
#862=DIRECTION('',(-1.,0.,0.));
#863=DIRECTION('',(0.,0.,1.));
#864=DIRECTION('',(0.,1.,0.));
#865=DIRECTION('',(0.,0.,-1.));
#866=DIRECTION('',(0.,1.,0.));
#867=DIRECTION('',(2.16840434497101E-16,-1.,0.));
#868=DIRECTION('',(1.,2.16840434497101E-16,0.));
#869=DIRECTION('',(-1.,-2.16840434497101E-16,0.));
#870=DIRECTION('',(0.,0.,-1.));
#871=DIRECTION('',(-1.,-2.16840434497101E-16,0.));
#872=DIRECTION('',(1.,1.54886024640786E-16,0.));
#873=DIRECTION('',(-1.54886024640786E-16,1.,0.));
#874=DIRECTION('',(1.54886024640786E-16,-1.,0.));
#875=DIRECTION('',(1.54886024640786E-16,-1.,0.));
#876=DIRECTION('',(0.,0.,1.));
#877=DIRECTION('',(1.,0.,0.));
#878=DIRECTION('',(0.,0.,1.));
#879=DIRECTION('',(1.,0.,0.));
#880=DIRECTION('',(0.,0.,1.));
#881=DIRECTION('',(1.,0.,0.));
#882=DIRECTION('',(0.,0.,1.));
#883=DIRECTION('',(1.,0.,0.));
#884=DIRECTION('',(0.,0.,1.));
#885=DIRECTION('',(1.,0.,0.));
#886=DIRECTION('',(0.,0.,1.));
#887=DIRECTION('',(1.,0.,0.));
#888=DIRECTION('',(-4.33680868994202E-16,-1.,0.));
#889=DIRECTION('',(1.,-4.33680868994202E-16,0.));
#890=DIRECTION('',(-1.,4.33680868994202E-16,0.));
#891=DIRECTION('',(0.,0.,-1.));
#892=DIRECTION('',(-1.,4.33680868994202E-16,0.));
#893=DIRECTION('',(0.,0.,-1.));
#894=DIRECTION('',(1.,-3.09772049281573E-16,0.));
#895=DIRECTION('',(3.09772049281573E-16,1.,0.));
#896=DIRECTION('',(-3.09772049281573E-16,-1.,0.));
#897=DIRECTION('',(0.,0.,-1.));
#898=DIRECTION('',(-3.09772049281573E-16,-1.,0.));
#899=DIRECTION('',(2.16840434497101E-16,1.,0.));
#900=DIRECTION('',(-1.,2.16840434497101E-16,0.));
#901=DIRECTION('',(1.,-2.16840434497101E-16,0.));
#902=DIRECTION('',(0.,0.,-1.));
#903=DIRECTION('',(1.,-2.16840434497101E-16,0.));
#904=DIRECTION('',(-1.,0.,0.));
#905=DIRECTION('',(0.,0.,1.));
#906=DIRECTION('',(0.,1.,0.));
#907=DIRECTION('',(0.,0.,-1.));
#908=DIRECTION('',(0.,1.,0.));
#909=DIRECTION('',(0.,0.,-1.));
#910=DIRECTION('',(-1.,0.,0.));
#911=DIRECTION('',(0.,0.,-1.));
#912=DIRECTION('',(1.,0.,0.));
#913=DIRECTION('',(0.,0.,-1.));
#914=DIRECTION('',(0.,0.,-1.));
#915=DIRECTION('',(1.,0.,0.));
#916=DIRECTION('',(-1.,0.,0.));
#917=DIRECTION('',(0.,0.,1.));
#918=DIRECTION('',(0.,1.,0.));
#919=DIRECTION('',(0.,1.,0.));
#920=DIRECTION('',(0.,0.,1.));
#921=DIRECTION('',(1.,0.,0.));
#922=DIRECTION('',(0.,0.,1.));
#923=DIRECTION('',(1.,0.,0.));
#924=DIRECTION('',(0.,0.,1.));
#925=DIRECTION('',(1.,0.,0.));
#926=DIRECTION('',(0.,0.,1.));
#927=DIRECTION('',(1.,0.,0.));
#928=DIRECTION('',(0.,-1.,0.));
#929=DIRECTION('',(-1.,-2.16840434497101E-16,0.));
#930=DIRECTION('',(0.,1.,0.));
#931=DIRECTION('',(1.,3.61400724161834E-16,0.));
#932=DIRECTION('',(0.,0.,1.));
#933=DIRECTION('',(1.,0.,0.));
#934=DIRECTION('',(-1.,-2.16840434497101E-16,0.));
#935=DIRECTION('',(0.,-1.,0.));
#936=DIRECTION('',(-1.,4.33680868994202E-16,0.));
#937=DIRECTION('',(0.,1.,0.));
#938=DIRECTION('',(0.,0.,1.));
#939=DIRECTION('',(1.,0.,0.));
#940=DIRECTION('',(1.,-2.16840434497101E-16,0.));
#941=DIRECTION('',(0.,-1.,0.));
#942=DIRECTION('',(-1.,-2.16840434497101E-16,0.));
#943=DIRECTION('',(0.,1.,0.));
#944=DIRECTION('',(-1.,0.,0.));
#945=DIRECTION('',(0.,0.,1.));
#946=DIRECTION('',(0.,0.,-1.));
#947=DIRECTION('',(0.,0.,-1.));
#948=DIRECTION('',(0.,1.,0.));
#949=DIRECTION('',(-1.,0.,0.));
#950=DIRECTION('',(0.,0.,1.));
#951=DIRECTION('',(0.,1.,0.));
#952=DIRECTION('',(0.,0.,-1.));
#953=DIRECTION('',(0.,1.,0.));
#954=DIRECTION('',(0.,0.,-1.));
#955=DIRECTION('',(0.,0.,1.));
#956=DIRECTION('',(1.,0.,0.));
#957=DIRECTION('',(0.,-1.,0.));
#958=DIRECTION('',(-1.,-3.61400724161834E-16,0.));
#959=DIRECTION('',(-1.,-2.16840434497101E-16,0.));
#960=DIRECTION('',(0.,0.,1.));
#961=DIRECTION('',(1.,0.,0.));
#962=DIRECTION('',(1.,3.61400724161834E-16,0.));
#963=DIRECTION('',(0.,1.,0.));
#964=DIRECTION('',(-1.,-2.16840434497101E-16,0.));
#965=DIRECTION('',(0.,1.,0.));
#966=DIRECTION('',(-1.,4.33680868994202E-16,0.));
#967=DIRECTION('',(-3.09772049281573E-16,-1.,0.));
#968=DIRECTION('',(1.,-2.16840434497101E-16,0.));
#969=DIRECTION('',(-1.,-2.16840434497101E-16,0.));
#970=DIRECTION('',(-1.,-3.61400724161834E-16,0.));
#971=DIRECTION('',(1.54886024640786E-16,-1.,0.));
#972=DIRECTION('',(3.61400724161834E-16,-1.,0.));
#973=DIRECTION('',(1.,3.61400724161834E-16,0.));
#974=DIRECTION('',(-1.,-3.61400724161834E-16,0.));
#975=DIRECTION('',(0.,0.,-1.));
#976=DIRECTION('',(-3.61400724161834E-16,1.,0.));
#977=DIRECTION('',(-1.,-3.61400724161834E-16,0.));
#978=DIRECTION('',(0.,0.,-1.));
#979=DIRECTION('',(0.,0.,-1.));
#980=DIRECTION('',(1.,3.61400724161834E-16,0.));
#981=DIRECTION('',(-1.,0.,0.));
#982=DIRECTION('',(0.,0.,1.));
#983=DIRECTION('',(0.,0.,-1.));
#984=DIRECTION('',(0.,0.,-1.));
#985=DIRECTION('',(2.16840434497101E-16,-1.,0.));
#986=DIRECTION('',(1.,2.16840434497101E-16,0.));
#987=DIRECTION('',(0.,0.,-1.));
#988=DIRECTION('',(0.,0.,-1.));
#989=DIRECTION('',(-1.,-9.85638338623186E-17,0.));
#990=DIRECTION('',(0.,0.,-1.));
#991=DIRECTION('',(-1.,0.,0.));
#992=DIRECTION('',(0.,0.,1.));
#993=DIRECTION('',(2.16840434497101E-16,-1.,0.));
#994=DIRECTION('',(1.,2.16840434497101E-16,0.));
#995=DIRECTION('',(0.,0.,-1.));
#996=DIRECTION('',(-1.,-9.85638338623186E-17,0.));
#997=DIRECTION('',(0.,0.,-1.));
#998=DIRECTION('',(1.,1.54886024640786E-16,0.));
#999=DIRECTION('',(-1.54886024640786E-16,1.,0.));
#1000=DIRECTION('',(1.54886024640786E-16,-1.,0.));
#1001=DIRECTION('',(-4.33680868994202E-16,-1.,0.));
#1002=DIRECTION('',(1.,-4.33680868994202E-16,0.));
#1003=DIRECTION('',(-1.,4.33680868994202E-16,0.));
#1004=DIRECTION('',(0.,0.,-1.));
#1005=DIRECTION('',(1.,-3.09772049281573E-16,0.));
#1006=DIRECTION('',(3.09772049281573E-16,1.,0.));
#1007=DIRECTION('',(-3.09772049281573E-16,-1.,0.));
#1008=DIRECTION('',(0.,0.,-1.));
#1009=DIRECTION('',(2.16840434497101E-16,1.,0.));
#1010=DIRECTION('',(-1.,2.16840434497101E-16,0.));
#1011=DIRECTION('',(1.,-2.16840434497101E-16,0.));
#1012=DIRECTION('',(0.,0.,1.));
#1013=DIRECTION('',(1.,0.,0.));
#1014=DIRECTION('',(0.,-1.,0.));
#1015=DIRECTION('',(1.,0.,0.));
#1016=DIRECTION('',(0.,0.,-1.));
#1017=DIRECTION('',(0.,-1.,0.));
#1018=DIRECTION('',(1.,0.,0.));
#1019=DIRECTION('',(0.,0.,-1.));
#1020=DIRECTION('',(0.,-1.,0.));
#1021=DIRECTION('',(0.,-1.,0.));
#1022=DIRECTION('',(0.,0.,1.));
#1023=DIRECTION('',(1.,0.,0.));
#1024=DIRECTION('',(0.,0.,1.));
#1025=DIRECTION('',(1.,0.,0.));
#1026=CARTESIAN_POINT('',(0.,0.,0.));
#1027=CARTESIAN_POINT('',(-5.73703791363197E-05,0.,0.));
#1028=CARTESIAN_POINT('',(-0.000725,-0.000275,0.));
#1029=CARTESIAN_POINT('',(-0.0006875,-0.000275,0.));
#1030=CARTESIAN_POINT('',(-0.0006,0.,0.00012));
#1031=CARTESIAN_POINT('',(-0.000725,-0.000275,0.00012));
#1032=CARTESIAN_POINT('',(-0.0006875,-0.000275,0.00012));
#1033=CARTESIAN_POINT('',(-0.000725,-0.000275,-2.E-06));
#1034=CARTESIAN_POINT('',(0.,0.,0.));
#1035=CARTESIAN_POINT('',(-0.000675,0.00035,0.00012));
#1036=CARTESIAN_POINT('',(-0.000675,0.00035,0.));
#1037=CARTESIAN_POINT('',(-0.0008,0.00035,0.));
#1038=CARTESIAN_POINT('',(-0.0004,0.00035,0.));
#1039=CARTESIAN_POINT('',(-0.0008,0.00035,0.00012));
#1040=CARTESIAN_POINT('',(-0.0008,0.00035,0.00012));
#1041=CARTESIAN_POINT('',(-0.000675,0.00035,0.00012));
#1042=CARTESIAN_POINT('',(-0.0004,0.00035,0.00012));
#1043=CARTESIAN_POINT('',(-0.0004,0.00035,0.00012));
#1044=CARTESIAN_POINT('',(-0.0008,0.000225,0.00012));
#1045=CARTESIAN_POINT('',(-0.0008,0.000225,0.));
#1046=CARTESIAN_POINT('',(-0.0008,0.0001,0.));
#1047=CARTESIAN_POINT('',(-0.0008,0.0001,0.00012));
#1048=CARTESIAN_POINT('',(-0.0008,0.0001,0.00012));
#1049=CARTESIAN_POINT('',(-0.0008,0.000225,0.00012));
#1050=CARTESIAN_POINT('',(-0.0008,0.,0.00012));
#1051=CARTESIAN_POINT('',(-0.0008,0.,0.));
#1052=CARTESIAN_POINT('',(-0.0008,-0.0001,0.));
#1053=CARTESIAN_POINT('',(-0.0008,-0.0001,0.00012));
#1054=CARTESIAN_POINT('',(-0.0008,-0.0001,0.00012));
#1055=CARTESIAN_POINT('',(-0.0008,0.,0.00012));
#1056=CARTESIAN_POINT('',(-0.0008,-0.000225,0.00012));
#1057=CARTESIAN_POINT('',(-0.0008,-0.000225,0.));
#1058=CARTESIAN_POINT('',(-0.0008,-0.00035,0.));
#1059=CARTESIAN_POINT('',(-0.0008,-0.00035,0.00012));
#1060=CARTESIAN_POINT('',(-0.0008,-0.00035,0.00012));
#1061=CARTESIAN_POINT('',(-0.0008,-0.000225,0.00012));
#1062=CARTESIAN_POINT('',(-0.000675,-0.00035,0.00012));
#1063=CARTESIAN_POINT('',(-0.000675,-0.00035,0.));
#1064=CARTESIAN_POINT('',(-0.0004,-0.00035,0.));
#1065=CARTESIAN_POINT('',(-0.0004,-0.00035,0.00012));
#1066=CARTESIAN_POINT('',(-0.0004,-0.00035,0.00012));
#1067=CARTESIAN_POINT('',(-0.000675,-0.00035,0.00012));
#1068=CARTESIAN_POINT('',(-0.0004,0.,0.00012));
#1069=CARTESIAN_POINT('',(-0.0004,0.,0.));
#1070=CARTESIAN_POINT('',(-0.0004,0.,0.00012));
#1071=CARTESIAN_POINT('',(-5.73703791363197E-05,0.,0.00012));
#1072=CARTESIAN_POINT('',(-0.000725,-0.000275,0.00012));
#1073=CARTESIAN_POINT('',(-0.0006875,-0.000275,0.00012));
#1074=CARTESIAN_POINT('',(-5.73703791363197E-05,0.,0.));
#1075=CARTESIAN_POINT('',(-0.000725,-0.000275,0.));
#1076=CARTESIAN_POINT('',(-0.0006875,-0.000275,0.));
#1077=CARTESIAN_POINT('',(-0.000725,-0.000275,-0.02488));
#1078=CARTESIAN_POINT('',(0.,0.,0.));
#1079=CARTESIAN_POINT('',(0.000675,0.00035,0.00012));
#1080=CARTESIAN_POINT('',(0.000675,0.00035,0.));
#1081=CARTESIAN_POINT('',(0.0008,0.00035,0.));
#1082=CARTESIAN_POINT('',(0.0004,0.00035,0.));
#1083=CARTESIAN_POINT('',(0.0004,0.00035,0.00012));
#1084=CARTESIAN_POINT('',(0.0004,0.00035,0.00012));
#1085=CARTESIAN_POINT('',(0.000675,0.00035,0.00012));
#1086=CARTESIAN_POINT('',(0.0008,0.00035,0.00012));
#1087=CARTESIAN_POINT('',(0.0008,0.00035,0.00012));
#1088=CARTESIAN_POINT('',(0.0004,-5.42101086242752E-20,0.00012));
#1089=CARTESIAN_POINT('',(0.0004,-5.42101086242752E-20,0.));
#1090=CARTESIAN_POINT('',(0.0004,-0.00035,0.));
#1091=CARTESIAN_POINT('',(0.0004,-0.00035,0.00012));
#1092=CARTESIAN_POINT('',(0.0004,-0.00035,0.00012));
#1093=CARTESIAN_POINT('',(0.0004,-5.42101086242752E-20,0.00012));
#1094=CARTESIAN_POINT('',(0.000675,-0.00035,0.00012));
#1095=CARTESIAN_POINT('',(0.000675,-0.00035,0.));
#1096=CARTESIAN_POINT('',(0.0008,-0.00035,0.));
#1097=CARTESIAN_POINT('',(0.0008,-0.00035,0.00012));
#1098=CARTESIAN_POINT('',(0.0008,-0.00035,0.00012));
#1099=CARTESIAN_POINT('',(0.000675,-0.00035,0.00012));
#1100=CARTESIAN_POINT('',(0.0008,-0.000225,0.00012));
#1101=CARTESIAN_POINT('',(0.0008,-0.000225,0.));
#1102=CARTESIAN_POINT('',(0.0008,-0.0001,0.));
#1103=CARTESIAN_POINT('',(0.0008,-0.0001,0.00012));
#1104=CARTESIAN_POINT('',(0.0008,-0.0001,0.00012));
#1105=CARTESIAN_POINT('',(0.0008,-0.000225,0.00012));
#1106=CARTESIAN_POINT('',(0.0008,-1.0842021724855E-19,0.00012));
#1107=CARTESIAN_POINT('',(0.0008,-1.0842021724855E-19,0.));
#1108=CARTESIAN_POINT('',(0.0008,0.0001,0.));
#1109=CARTESIAN_POINT('',(0.0008,0.0001,0.00012));
#1110=CARTESIAN_POINT('',(0.0008,0.0001,0.00012));
#1111=CARTESIAN_POINT('',(0.0008,-1.0842021724855E-19,0.00012));
#1112=CARTESIAN_POINT('',(0.0008,0.000225,0.00012));
#1113=CARTESIAN_POINT('',(0.0008,0.000225,0.));
#1114=CARTESIAN_POINT('',(0.0008,0.000225,0.00012));
#1115=CARTESIAN_POINT('',(-5.73703791363197E-05,0.,0.00012));
#1116=CARTESIAN_POINT('',(-5.73703791363197E-05,0.,0.));
#1117=CARTESIAN_POINT('',(0.,0.,0.));
#1118=CARTESIAN_POINT('',(-5.73703791363197E-05,0.,0.00012));
#1119=CARTESIAN_POINT('',(-0.00055,-1.0842021724855E-19,0.00012));
#1120=CARTESIAN_POINT('',(-0.00055,0.0004,0.00012));
#1121=CARTESIAN_POINT('',(-0.00055,0.00035,0.00012));
#1122=CARTESIAN_POINT('',(0.000675,0.0004,0.00012));
#1123=CARTESIAN_POINT('',(-0.0008,0.0004,0.00012));
#1124=CARTESIAN_POINT('',(-0.0008,0.000375,0.00012));
#1125=CARTESIAN_POINT('',(-0.0008,0.00035,0.00012));
#1126=CARTESIAN_POINT('',(-0.000475,0.00035,0.00012));
#1127=CARTESIAN_POINT('',(-5.73703791363197E-05,0.,0.00012));
#1128=CARTESIAN_POINT('',(0.000675,0.0004,0.00012));
#1129=CARTESIAN_POINT('',(0.0008,0.0004,0.00012));
#1130=CARTESIAN_POINT('',(0.00055,0.0004,0.00012));
#1131=CARTESIAN_POINT('',(0.00055,0.000375,0.00012));
#1132=CARTESIAN_POINT('',(0.00055,0.00035,0.00012));
#1133=CARTESIAN_POINT('',(0.000675,0.00035,0.00012));
#1134=CARTESIAN_POINT('',(0.0008,0.00035,0.00012));
#1135=CARTESIAN_POINT('',(0.0008,0.000375,0.00012));
#1136=CARTESIAN_POINT('',(-5.73703791363197E-05,0.,0.00012));
#1137=CARTESIAN_POINT('',(0.000675,-0.00035,0.00012));
#1138=CARTESIAN_POINT('',(0.00055,-0.00035,0.00012));
#1139=CARTESIAN_POINT('',(0.0008,-0.00035,0.00012));
#1140=CARTESIAN_POINT('',(0.00055,0.000375,0.00012));
#1141=CARTESIAN_POINT('',(0.00055,-0.0004,0.00012));
#1142=CARTESIAN_POINT('',(0.000675,-0.0004,0.00012));
#1143=CARTESIAN_POINT('',(0.0008,-0.0004,0.00012));
#1144=CARTESIAN_POINT('',(0.0008,-0.000375,0.00012));
#1145=CARTESIAN_POINT('',(0.0008,-0.000375,0.000122));
#1146=CARTESIAN_POINT('',(0.0008,-0.00035,0.00012));
#1147=CARTESIAN_POINT('',(0.0008,-0.00035,0.));
#1148=CARTESIAN_POINT('',(0.0008,-0.0004,0.000122));
#1149=CARTESIAN_POINT('',(0.0008,-0.0004,0.));
#1150=CARTESIAN_POINT('',(0.0008,-0.000375,0.));
#1151=CARTESIAN_POINT('',(-0.0008,-0.000375,0.000122));
#1152=CARTESIAN_POINT('',(-0.0008,-0.000375,0.00012));
#1153=CARTESIAN_POINT('',(-0.0008,-0.0004,0.00012));
#1154=CARTESIAN_POINT('',(-0.0008,-0.00035,0.00012));
#1155=CARTESIAN_POINT('',(-0.0008,-0.00035,0.00012));
#1156=CARTESIAN_POINT('',(-0.0008,-0.00035,0.));
#1157=CARTESIAN_POINT('',(-0.0008,-0.000375,0.));
#1158=CARTESIAN_POINT('',(-0.0008,-0.0004,0.));
#1159=CARTESIAN_POINT('',(-0.0008,-0.0004,0.000122));
#1160=CARTESIAN_POINT('',(-5.73703791363197E-05,0.,0.00012));
#1161=CARTESIAN_POINT('',(-0.00055,-1.0842021724855E-19,0.00012));
#1162=CARTESIAN_POINT('',(-0.00055,-0.00035,0.00012));
#1163=CARTESIAN_POINT('',(-0.00055,-0.0004,0.00012));
#1164=CARTESIAN_POINT('',(-0.000475,-0.00035,0.00012));
#1165=CARTESIAN_POINT('',(0.000675,-0.0004,0.00012));
#1166=CARTESIAN_POINT('',(-5.73703791363197E-05,0.,0.));
#1167=CARTESIAN_POINT('',(-0.000475,0.00035,0.));
#1168=CARTESIAN_POINT('',(-0.0008,0.00035,0.));
#1169=CARTESIAN_POINT('',(-0.0004,0.00035,0.));
#1170=CARTESIAN_POINT('',(-0.0008,0.000375,0.));
#1171=CARTESIAN_POINT('',(-0.0008,0.0004,0.));
#1172=CARTESIAN_POINT('',(0.000675,0.0004,0.));
#1173=CARTESIAN_POINT('',(0.0008,0.0004,0.));
#1174=CARTESIAN_POINT('',(0.0008,0.000375,0.));
#1175=CARTESIAN_POINT('',(0.0008,0.00035,0.));
#1176=CARTESIAN_POINT('',(0.000675,0.00035,0.));
#1177=CARTESIAN_POINT('',(0.0004,0.00035,0.));
#1178=CARTESIAN_POINT('',(0.0004,-5.42101086242752E-20,0.));
#1179=CARTESIAN_POINT('',(0.0004,-0.00035,0.));
#1180=CARTESIAN_POINT('',(0.000675,-0.00035,0.));
#1181=CARTESIAN_POINT('',(0.000675,-0.0004,0.));
#1182=CARTESIAN_POINT('',(-0.000475,-0.00035,0.));
#1183=CARTESIAN_POINT('',(-0.0004,-0.00035,0.));
#1184=CARTESIAN_POINT('',(-0.0004,0.,0.));
#1185=CARTESIAN_POINT('',(-0.000475,-0.00035,0.000122));
#1186=CARTESIAN_POINT('',(-0.000475,-0.00035,0.00012));
#1187=CARTESIAN_POINT('',(-0.0004,-0.00035,0.00012));
#1188=CARTESIAN_POINT('',(-0.0004,-0.00035,0.000122));
#1189=CARTESIAN_POINT('',(-0.000475,0.00035,0.000122));
#1190=CARTESIAN_POINT('',(-0.0008,0.00035,0.00012));
#1191=CARTESIAN_POINT('',(-0.0004,0.00035,0.000122));
#1192=CARTESIAN_POINT('',(-0.0004,0.00035,0.00012));
#1193=CARTESIAN_POINT('',(-0.000475,0.00035,0.00012));
#1194=CARTESIAN_POINT('',(0.0008,0.000375,0.000122));
#1195=CARTESIAN_POINT('',(0.0008,0.00035,0.00012));
#1196=CARTESIAN_POINT('',(0.0008,0.0004,0.000122));
#1197=CARTESIAN_POINT('',(0.000675,0.0004,0.000122));
#1198=CARTESIAN_POINT('',(-0.0008,0.0004,0.000122));
#1199=CARTESIAN_POINT('',(-0.00055,0.0004,0.0008));
#1200=CARTESIAN_POINT('',(-0.00055,0.0004,0.0008));
#1201=CARTESIAN_POINT('',(0.,0.0004,0.0008));
#1202=CARTESIAN_POINT('',(0.00055,0.0004,0.0008));
#1203=CARTESIAN_POINT('',(0.00055,0.0004,0.0008));
#1204=CARTESIAN_POINT('',(-0.0008,0.000375,0.000122));
#1205=CARTESIAN_POINT('',(0.000675,-0.0004,0.000122));
#1206=CARTESIAN_POINT('',(0.00055,-0.0004,0.0008));
#1207=CARTESIAN_POINT('',(0.00055,-0.0004,0.0008));
#1208=CARTESIAN_POINT('',(0.,-0.0004,0.0008));
#1209=CARTESIAN_POINT('',(-0.00055,-0.0004,0.0008));
#1210=CARTESIAN_POINT('',(-0.00055,-0.0004,0.0008));
#1211=CARTESIAN_POINT('',(-0.0004,0.,0.000122));
#1212=CARTESIAN_POINT('',(-0.0004,0.,0.00012));
#1213=CARTESIAN_POINT('',(0.000675,0.00035,0.00012));
#1214=CARTESIAN_POINT('',(0.000675,0.00035,0.00012));
#1215=CARTESIAN_POINT('',(0.0004,0.00035,0.00012));
#1216=CARTESIAN_POINT('',(0.0004,0.00035,0.00012));
#1217=CARTESIAN_POINT('',(0.0004,-5.42101086242752E-20,0.00012));
#1218=CARTESIAN_POINT('',(0.0004,-5.42101086242752E-20,0.00012));
#1219=CARTESIAN_POINT('',(0.0004,-0.00035,0.00012));
#1220=CARTESIAN_POINT('',(0.0004,-0.00035,0.00012));
#1221=CARTESIAN_POINT('',(0.000675,-0.00035,0.00012));
#1222=CARTESIAN_POINT('',(0.000675,-0.00035,0.00012));
#1223=CARTESIAN_POINT('',(-5.73703791363197E-05,0.,0.00012));
#1224=CARTESIAN_POINT('',(-0.00055,-1.0842021724855E-19,0.00012));
#1225=CARTESIAN_POINT('',(-0.00055,-1.0842021724855E-19,0.0008));
#1226=CARTESIAN_POINT('',(-0.00055,-1.0842021724855E-19,0.0008));
#1227=CARTESIAN_POINT('',(0.00055,0.000375,0.0008));
#1228=CARTESIAN_POINT('',(0.00055,0.000375,0.0008));
#1229=CARTESIAN_POINT('',(0.00055,0.000375,0.00012));
#1230=CARTESIAN_POINT('',(-5.73703791363197E-05,0.,0.0008));
#1231=CARTESIAN_POINT('',(-5.73703791363197E-05,0.,0.00012));
#1232=MECHANICAL_DESIGN_GEOMETRIC_PRESENTATION_REPRESENTATION('',(#734),#1236);
#1233=MECHANICAL_DESIGN_GEOMETRIC_PRESENTATION_REPRESENTATION('',(#735),#1237);
#1234=MECHANICAL_DESIGN_GEOMETRIC_PRESENTATION_REPRESENTATION('',(#736),#1238);
#1235=MECHANICAL_DESIGN_GEOMETRIC_PRESENTATION_REPRESENTATION('',(#737),#1239);
#1236=(
GEOMETRIC_REPRESENTATION_CONTEXT(3)
GLOBAL_UNCERTAINTY_ASSIGNED_CONTEXT((#1240))
GLOBAL_UNIT_ASSIGNED_CONTEXT((#1252,#1248,#1244))
REPRESENTATION_CONTEXT('Part 4','TOP_LEVEL_ASSEMBLY_PART')
);
#1237=(
GEOMETRIC_REPRESENTATION_CONTEXT(3)
GLOBAL_UNCERTAINTY_ASSIGNED_CONTEXT((#1241))
GLOBAL_UNIT_ASSIGNED_CONTEXT((#1253,#1249,#1245))
REPRESENTATION_CONTEXT('Part 1','TOP_LEVEL_ASSEMBLY_PART')
);
#1238=(
GEOMETRIC_REPRESENTATION_CONTEXT(3)
GLOBAL_UNCERTAINTY_ASSIGNED_CONTEXT((#1242))
GLOBAL_UNIT_ASSIGNED_CONTEXT((#1254,#1250,#1246))
REPRESENTATION_CONTEXT('Part 2','TOP_LEVEL_ASSEMBLY_PART')
);
#1239=(
GEOMETRIC_REPRESENTATION_CONTEXT(3)
GLOBAL_UNCERTAINTY_ASSIGNED_CONTEXT((#1243))
GLOBAL_UNIT_ASSIGNED_CONTEXT((#1255,#1251,#1247))
REPRESENTATION_CONTEXT('Part 3','TOP_LEVEL_ASSEMBLY_PART')
);
#1240=UNCERTAINTY_MEASURE_WITH_UNIT(LENGTH_MEASURE(1.E-08),#1252,'DISTANCE_ACCURACY_VALUE','Maximum Tolerance applied to model');
#1241=UNCERTAINTY_MEASURE_WITH_UNIT(LENGTH_MEASURE(1.E-08),#1253,'DISTANCE_ACCURACY_VALUE','Maximum Tolerance applied to model');
#1242=UNCERTAINTY_MEASURE_WITH_UNIT(LENGTH_MEASURE(1.E-08),#1254,'DISTANCE_ACCURACY_VALUE','Maximum Tolerance applied to model');
#1243=UNCERTAINTY_MEASURE_WITH_UNIT(LENGTH_MEASURE(1.E-08),#1255,'DISTANCE_ACCURACY_VALUE','Maximum Tolerance applied to model');
#1244=(
NAMED_UNIT(*)
SI_UNIT($,.STERADIAN.)
SOLID_ANGLE_UNIT()
);
#1245=(
NAMED_UNIT(*)
SI_UNIT($,.STERADIAN.)
SOLID_ANGLE_UNIT()
);
#1246=(
NAMED_UNIT(*)
SI_UNIT($,.STERADIAN.)
SOLID_ANGLE_UNIT()
);
#1247=(
NAMED_UNIT(*)
SI_UNIT($,.STERADIAN.)
SOLID_ANGLE_UNIT()
);
#1248=(
NAMED_UNIT(*)
PLANE_ANGLE_UNIT()
SI_UNIT($,.RADIAN.)
);
#1249=(
NAMED_UNIT(*)
PLANE_ANGLE_UNIT()
SI_UNIT($,.RADIAN.)
);
#1250=(
NAMED_UNIT(*)
PLANE_ANGLE_UNIT()
SI_UNIT($,.RADIAN.)
);
#1251=(
NAMED_UNIT(*)
PLANE_ANGLE_UNIT()
SI_UNIT($,.RADIAN.)
);
#1252=(
LENGTH_UNIT()
NAMED_UNIT(*)
SI_UNIT($,.METRE.)
);
#1253=(
LENGTH_UNIT()
NAMED_UNIT(*)
SI_UNIT($,.METRE.)
);
#1254=(
LENGTH_UNIT()
NAMED_UNIT(*)
SI_UNIT($,.METRE.)
);
#1255=(
LENGTH_UNIT()
NAMED_UNIT(*)
SI_UNIT($,.METRE.)
);
#1256=PRODUCT_DEFINITION_SHAPE('','',#1260);
#1257=PRODUCT_DEFINITION_SHAPE('','',#1261);
#1258=PRODUCT_DEFINITION_SHAPE('','',#1262);
#1259=PRODUCT_DEFINITION_SHAPE('','',#1263);
#1260=PRODUCT_DEFINITION('','',#1268,#1264);
#1261=PRODUCT_DEFINITION('','',#1269,#1265);
#1262=PRODUCT_DEFINITION('','',#1270,#1266);
#1263=PRODUCT_DEFINITION('','',#1271,#1267);
#1264=PRODUCT_DEFINITION_CONTEXT('',#1292,'design');
#1265=PRODUCT_DEFINITION_CONTEXT('',#1293,'design');
#1266=PRODUCT_DEFINITION_CONTEXT('',#1294,'design');
#1267=PRODUCT_DEFINITION_CONTEXT('',#1295,'design');
#1268=PRODUCT_DEFINITION_FORMATION_WITH_SPECIFIED_SOURCE('','',#1276,.NOT_KNOWN.);
#1269=PRODUCT_DEFINITION_FORMATION_WITH_SPECIFIED_SOURCE('','',#1277,.NOT_KNOWN.);
#1270=PRODUCT_DEFINITION_FORMATION_WITH_SPECIFIED_SOURCE('','',#1278,.NOT_KNOWN.);
#1271=PRODUCT_DEFINITION_FORMATION_WITH_SPECIFIED_SOURCE('','',#1279,.NOT_KNOWN.);
#1272=PRODUCT_RELATED_PRODUCT_CATEGORY('','',(#1276));
#1273=PRODUCT_RELATED_PRODUCT_CATEGORY('','',(#1277));
#1274=PRODUCT_RELATED_PRODUCT_CATEGORY('','',(#1278));
#1275=PRODUCT_RELATED_PRODUCT_CATEGORY('','',(#1279));
#1276=PRODUCT('Part 4','Part 4','Part 4',(#1284));
#1277=PRODUCT('Part 1','Part 1','Part 1',(#1285));
#1278=PRODUCT('Part 2','Part 2','Part 2',(#1286));
#1279=PRODUCT('Part 3','Part 3','Part 3',(#1287));
#1280=PRODUCT_CATEGORY('','');
#1281=PRODUCT_CATEGORY('','');
#1282=PRODUCT_CATEGORY('','');
#1283=PRODUCT_CATEGORY('','');
#1284=PRODUCT_CONTEXT('',#1292,'mechanical');
#1285=PRODUCT_CONTEXT('',#1293,'mechanical');
#1286=PRODUCT_CONTEXT('',#1294,'mechanical');
#1287=PRODUCT_CONTEXT('',#1295,'mechanical');
#1288=APPLICATION_PROTOCOL_DEFINITION('international standard','ap242_managed_model_based_3d_engineering',2020,#1292);
#1289=APPLICATION_PROTOCOL_DEFINITION('international standard','ap242_managed_model_based_3d_engineering',2020,#1293);
#1290=APPLICATION_PROTOCOL_DEFINITION('international standard','ap242_managed_model_based_3d_engineering',2020,#1294);
#1291=APPLICATION_PROTOCOL_DEFINITION('international standard','ap242_managed_model_based_3d_engineering',2020,#1295);
#1292=APPLICATION_CONTEXT('managed model based 3d engineering');
#1293=APPLICATION_CONTEXT('managed model based 3d engineering');
#1294=APPLICATION_CONTEXT('managed model based 3d engineering');
#1295=APPLICATION_CONTEXT('managed model based 3d engineering');
ENDSEC;
END-ISO-10303-21;
