ISO-10303-21;
HEADER;
/* Generated by software containing ST-Developer
 * from STEP Tools, Inc. (www.steptools.com) 
 */
/* OPTION: using custom renumber hook */

FILE_DESCRIPTION(
/* description */ ('STEP AP242 Edition 2',
'CAx-IF Rec.Pracs.---Representation and Presentation of Product Manufa
cturing Information (PMI)---4.0---2014-10-13',
'CAx-IF Rec.Pracs.---3D Tessellated Geometry---0.4---2014-09-14','2;1',
'CAx-IF Rec.Pracs.---User Defined Attributes---1.5---2016-08-15'),
/* implementation_level */ '2;1');

FILE_NAME(
/* name */ 'SOT',
/* time_stamp */ '2026-08-27T09:21:41Z',
/* author */ (''),
/* organization */ (''),
/* preprocessor_version */ 'ST-DEVELOPER v20',
/* originating_system */ 'ONSHAPE BY PTC INC, 1.219',
/* authorisation */ '  ');

FILE_SCHEMA (('AP242_MANAGED_MODEL_BASED_3D_ENGINEERING_MIM_LF { 1 0 10303 442 3 1 4 }'));
ENDSEC;

DATA;
#10=SHAPE_REPRESENTATION_RELATIONSHIP('','',#1087,#15);
#11=SHAPE_REPRESENTATION_RELATIONSHIP('','',#1088,#16);
#12=SHAPE_REPRESENTATION_RELATIONSHIP('','',#1089,#17);
#13=SHAPE_REPRESENTATION_RELATIONSHIP('','',#1090,#18);
#14=SHAPE_REPRESENTATION_RELATIONSHIP('','',#1091,#19);
#15=ADVANCED_BREP_SHAPE_REPRESENTATION('',(#1077),#1789);
#16=ADVANCED_BREP_SHAPE_REPRESENTATION('',(#1078),#1790);
#17=ADVANCED_BREP_SHAPE_REPRESENTATION('',(#1079),#1791);
#18=ADVANCED_BREP_SHAPE_REPRESENTATION('',(#1080),#1792);
#19=ADVANCED_BREP_SHAPE_REPRESENTATION('',(#1081),#1793);
#20=CYLINDRICAL_SURFACE('',#1108,0.00015);
#21=CYLINDRICAL_SURFACE('',#1114,0.000175);
#22=CYLINDRICAL_SURFACE('',#1118,2.5E-5);
#23=CYLINDRICAL_SURFACE('',#1124,0.000175);
#24=CYLINDRICAL_SURFACE('',#1128,2.5E-5);
#25=CYLINDRICAL_SURFACE('',#1137,0.000175);
#26=CYLINDRICAL_SURFACE('',#1141,2.5E-5);
#27=CYLINDRICAL_SURFACE('',#1147,0.000175);
#28=CYLINDRICAL_SURFACE('',#1151,2.5E-5);
#29=CYLINDRICAL_SURFACE('',#1160,0.000175);
#30=CYLINDRICAL_SURFACE('',#1164,2.5E-5);
#31=CYLINDRICAL_SURFACE('',#1170,0.000175);
#32=CYLINDRICAL_SURFACE('',#1174,2.5E-5);
#33=CYLINDRICAL_SURFACE('',#1183,0.00015);
#34=CIRCLE('',#1095,0.00015);
#35=CIRCLE('',#1109,0.00015);
#36=CIRCLE('',#1115,0.000175);
#37=CIRCLE('',#1116,0.000175);
#38=CIRCLE('',#1119,2.5E-5);
#39=CIRCLE('',#1120,2.5E-5);
#40=CIRCLE('',#1125,0.000175);
#41=CIRCLE('',#1126,0.000175);
#42=CIRCLE('',#1129,2.5E-5);
#43=CIRCLE('',#1130,2.5E-5);
#44=CIRCLE('',#1138,0.000175);
#45=CIRCLE('',#1139,0.000175);
#46=CIRCLE('',#1142,2.5E-5);
#47=CIRCLE('',#1143,2.5E-5);
#48=CIRCLE('',#1148,0.000175);
#49=CIRCLE('',#1149,0.000175);
#50=CIRCLE('',#1152,2.5E-5);
#51=CIRCLE('',#1153,2.5E-5);
#52=CIRCLE('',#1161,0.000175);
#53=CIRCLE('',#1162,0.000175);
#54=CIRCLE('',#1165,2.5E-5);
#55=CIRCLE('',#1166,2.5E-5);
#56=CIRCLE('',#1171,0.000175);
#57=CIRCLE('',#1172,0.000175);
#58=CIRCLE('',#1175,2.5E-5);
#59=CIRCLE('',#1176,2.5E-5);
#60=CIRCLE('',#1182,0.00015);
#61=CIRCLE('',#1184,0.00015);
#62=ORIENTED_EDGE('',*,*,#342,.F.);
#63=ORIENTED_EDGE('',*,*,#343,.F.);
#64=ORIENTED_EDGE('',*,*,#344,.T.);
#65=ORIENTED_EDGE('',*,*,#345,.T.);
#66=ORIENTED_EDGE('',*,*,#346,.F.);
#67=ORIENTED_EDGE('',*,*,#347,.F.);
#68=ORIENTED_EDGE('',*,*,#348,.T.);
#69=ORIENTED_EDGE('',*,*,#349,.T.);
#70=ORIENTED_EDGE('',*,*,#350,.F.);
#71=ORIENTED_EDGE('',*,*,#343,.T.);
#72=ORIENTED_EDGE('',*,*,#351,.T.);
#73=ORIENTED_EDGE('',*,*,#352,.F.);
#74=ORIENTED_EDGE('',*,*,#353,.F.);
#75=ORIENTED_EDGE('',*,*,#348,.F.);
#76=ORIENTED_EDGE('',*,*,#354,.T.);
#77=ORIENTED_EDGE('',*,*,#355,.T.);
#78=ORIENTED_EDGE('',*,*,#356,.F.);
#79=ORIENTED_EDGE('',*,*,#357,.F.);
#80=ORIENTED_EDGE('',*,*,#350,.T.);
#81=ORIENTED_EDGE('',*,*,#358,.T.);
#82=ORIENTED_EDGE('',*,*,#359,.F.);
#83=ORIENTED_EDGE('',*,*,#360,.F.);
#84=ORIENTED_EDGE('',*,*,#345,.F.);
#85=ORIENTED_EDGE('',*,*,#361,.T.);
#86=ORIENTED_EDGE('',*,*,#362,.T.);
#87=ORIENTED_EDGE('',*,*,#363,.T.);
#88=ORIENTED_EDGE('',*,*,#364,.T.);
#89=ORIENTED_EDGE('',*,*,#365,.F.);
#90=ORIENTED_EDGE('',*,*,#366,.F.);
#91=ORIENTED_EDGE('',*,*,#367,.F.);
#92=ORIENTED_EDGE('',*,*,#368,.T.);
#93=ORIENTED_EDGE('',*,*,#369,.T.);
#94=ORIENTED_EDGE('',*,*,#370,.F.);
#95=ORIENTED_EDGE('',*,*,#367,.T.);
#96=ORIENTED_EDGE('',*,*,#355,.F.);
#97=ORIENTED_EDGE('',*,*,#363,.F.);
#98=ORIENTED_EDGE('',*,*,#352,.T.);
#99=ORIENTED_EDGE('',*,*,#369,.F.);
#100=ORIENTED_EDGE('',*,*,#362,.F.);
#101=ORIENTED_EDGE('',*,*,#365,.T.);
#102=ORIENTED_EDGE('',*,*,#359,.T.);
#103=ORIENTED_EDGE('',*,*,#353,.T.);
#104=ORIENTED_EDGE('',*,*,#366,.T.);
#105=ORIENTED_EDGE('',*,*,#361,.F.);
#106=ORIENTED_EDGE('',*,*,#344,.F.);
#107=ORIENTED_EDGE('',*,*,#342,.T.);
#108=ORIENTED_EDGE('',*,*,#360,.T.);
#109=ORIENTED_EDGE('',*,*,#368,.F.);
#110=ORIENTED_EDGE('',*,*,#351,.F.);
#111=ORIENTED_EDGE('',*,*,#356,.T.);
#112=ORIENTED_EDGE('',*,*,#370,.T.);
#113=ORIENTED_EDGE('',*,*,#358,.F.);
#114=ORIENTED_EDGE('',*,*,#349,.F.);
#115=ORIENTED_EDGE('',*,*,#347,.T.);
#116=ORIENTED_EDGE('',*,*,#357,.T.);
#117=ORIENTED_EDGE('',*,*,#364,.F.);
#118=ORIENTED_EDGE('',*,*,#354,.F.);
#119=ORIENTED_EDGE('',*,*,#371,.F.);
#120=ORIENTED_EDGE('',*,*,#346,.T.);
#121=ORIENTED_EDGE('',*,*,#371,.T.);
#122=ORIENTED_EDGE('',*,*,#372,.F.);
#123=ORIENTED_EDGE('',*,*,#373,.F.);
#124=ORIENTED_EDGE('',*,*,#374,.T.);
#125=ORIENTED_EDGE('',*,*,#375,.T.);
#126=ORIENTED_EDGE('',*,*,#376,.F.);
#127=ORIENTED_EDGE('',*,*,#377,.F.);
#128=ORIENTED_EDGE('',*,*,#378,.T.);
#129=ORIENTED_EDGE('',*,*,#373,.T.);
#130=ORIENTED_EDGE('',*,*,#379,.T.);
#131=ORIENTED_EDGE('',*,*,#380,.F.);
#132=ORIENTED_EDGE('',*,*,#381,.F.);
#133=ORIENTED_EDGE('',*,*,#377,.T.);
#134=ORIENTED_EDGE('',*,*,#382,.F.);
#135=ORIENTED_EDGE('',*,*,#383,.F.);
#136=ORIENTED_EDGE('',*,*,#384,.T.);
#137=ORIENTED_EDGE('',*,*,#380,.T.);
#138=ORIENTED_EDGE('',*,*,#385,.F.);
#139=ORIENTED_EDGE('',*,*,#386,.F.);
#140=ORIENTED_EDGE('',*,*,#387,.T.);
#141=ORIENTED_EDGE('',*,*,#383,.T.);
#142=ORIENTED_EDGE('',*,*,#388,.F.);
#143=ORIENTED_EDGE('',*,*,#389,.F.);
#144=ORIENTED_EDGE('',*,*,#390,.T.);
#145=ORIENTED_EDGE('',*,*,#386,.T.);
#146=ORIENTED_EDGE('',*,*,#391,.T.);
#147=ORIENTED_EDGE('',*,*,#392,.F.);
#148=ORIENTED_EDGE('',*,*,#393,.F.);
#149=ORIENTED_EDGE('',*,*,#389,.T.);
#150=ORIENTED_EDGE('',*,*,#394,.T.);
#151=ORIENTED_EDGE('',*,*,#395,.F.);
#152=ORIENTED_EDGE('',*,*,#396,.F.);
#153=ORIENTED_EDGE('',*,*,#392,.T.);
#154=ORIENTED_EDGE('',*,*,#397,.T.);
#155=ORIENTED_EDGE('',*,*,#398,.F.);
#156=ORIENTED_EDGE('',*,*,#399,.F.);
#157=ORIENTED_EDGE('',*,*,#395,.T.);
#158=ORIENTED_EDGE('',*,*,#400,.T.);
#159=ORIENTED_EDGE('',*,*,#401,.F.);
#160=ORIENTED_EDGE('',*,*,#402,.F.);
#161=ORIENTED_EDGE('',*,*,#398,.T.);
#162=ORIENTED_EDGE('',*,*,#403,.F.);
#163=ORIENTED_EDGE('',*,*,#404,.F.);
#164=ORIENTED_EDGE('',*,*,#405,.T.);
#165=ORIENTED_EDGE('',*,*,#401,.T.);
#166=ORIENTED_EDGE('',*,*,#406,.T.);
#167=ORIENTED_EDGE('',*,*,#375,.F.);
#168=ORIENTED_EDGE('',*,*,#407,.F.);
#169=ORIENTED_EDGE('',*,*,#404,.T.);
#170=ORIENTED_EDGE('',*,*,#374,.F.);
#171=ORIENTED_EDGE('',*,*,#378,.F.);
#172=ORIENTED_EDGE('',*,*,#381,.T.);
#173=ORIENTED_EDGE('',*,*,#384,.F.);
#174=ORIENTED_EDGE('',*,*,#387,.F.);
#175=ORIENTED_EDGE('',*,*,#390,.F.);
#176=ORIENTED_EDGE('',*,*,#393,.T.);
#177=ORIENTED_EDGE('',*,*,#396,.T.);
#178=ORIENTED_EDGE('',*,*,#399,.T.);
#179=ORIENTED_EDGE('',*,*,#402,.T.);
#180=ORIENTED_EDGE('',*,*,#405,.F.);
#181=ORIENTED_EDGE('',*,*,#407,.T.);
#182=ORIENTED_EDGE('',*,*,#372,.T.);
#183=ORIENTED_EDGE('',*,*,#406,.F.);
#184=ORIENTED_EDGE('',*,*,#403,.T.);
#185=ORIENTED_EDGE('',*,*,#400,.F.);
#186=ORIENTED_EDGE('',*,*,#397,.F.);
#187=ORIENTED_EDGE('',*,*,#394,.F.);
#188=ORIENTED_EDGE('',*,*,#391,.F.);
#189=ORIENTED_EDGE('',*,*,#388,.T.);
#190=ORIENTED_EDGE('',*,*,#385,.T.);
#191=ORIENTED_EDGE('',*,*,#382,.T.);
#192=ORIENTED_EDGE('',*,*,#379,.F.);
#193=ORIENTED_EDGE('',*,*,#376,.T.);
#194=ORIENTED_EDGE('',*,*,#408,.F.);
#195=ORIENTED_EDGE('',*,*,#409,.F.);
#196=ORIENTED_EDGE('',*,*,#410,.T.);
#197=ORIENTED_EDGE('',*,*,#411,.T.);
#198=ORIENTED_EDGE('',*,*,#412,.F.);
#199=ORIENTED_EDGE('',*,*,#413,.F.);
#200=ORIENTED_EDGE('',*,*,#414,.T.);
#201=ORIENTED_EDGE('',*,*,#409,.T.);
#202=ORIENTED_EDGE('',*,*,#415,.T.);
#203=ORIENTED_EDGE('',*,*,#416,.F.);
#204=ORIENTED_EDGE('',*,*,#417,.F.);
#205=ORIENTED_EDGE('',*,*,#413,.T.);
#206=ORIENTED_EDGE('',*,*,#418,.F.);
#207=ORIENTED_EDGE('',*,*,#419,.F.);
#208=ORIENTED_EDGE('',*,*,#420,.T.);
#209=ORIENTED_EDGE('',*,*,#416,.T.);
#210=ORIENTED_EDGE('',*,*,#421,.F.);
#211=ORIENTED_EDGE('',*,*,#422,.F.);
#212=ORIENTED_EDGE('',*,*,#423,.T.);
#213=ORIENTED_EDGE('',*,*,#419,.T.);
#214=ORIENTED_EDGE('',*,*,#424,.F.);
#215=ORIENTED_EDGE('',*,*,#425,.F.);
#216=ORIENTED_EDGE('',*,*,#426,.T.);
#217=ORIENTED_EDGE('',*,*,#422,.T.);
#218=ORIENTED_EDGE('',*,*,#427,.T.);
#219=ORIENTED_EDGE('',*,*,#428,.F.);
#220=ORIENTED_EDGE('',*,*,#429,.F.);
#221=ORIENTED_EDGE('',*,*,#425,.T.);
#222=ORIENTED_EDGE('',*,*,#430,.T.);
#223=ORIENTED_EDGE('',*,*,#431,.F.);
#224=ORIENTED_EDGE('',*,*,#432,.F.);
#225=ORIENTED_EDGE('',*,*,#428,.T.);
#226=ORIENTED_EDGE('',*,*,#433,.T.);
#227=ORIENTED_EDGE('',*,*,#434,.F.);
#228=ORIENTED_EDGE('',*,*,#435,.F.);
#229=ORIENTED_EDGE('',*,*,#431,.T.);
#230=ORIENTED_EDGE('',*,*,#436,.T.);
#231=ORIENTED_EDGE('',*,*,#437,.F.);
#232=ORIENTED_EDGE('',*,*,#438,.F.);
#233=ORIENTED_EDGE('',*,*,#434,.T.);
#234=ORIENTED_EDGE('',*,*,#439,.F.);
#235=ORIENTED_EDGE('',*,*,#440,.F.);
#236=ORIENTED_EDGE('',*,*,#441,.T.);
#237=ORIENTED_EDGE('',*,*,#437,.T.);
#238=ORIENTED_EDGE('',*,*,#442,.T.);
#239=ORIENTED_EDGE('',*,*,#411,.F.);
#240=ORIENTED_EDGE('',*,*,#443,.F.);
#241=ORIENTED_EDGE('',*,*,#440,.T.);
#242=ORIENTED_EDGE('',*,*,#410,.F.);
#243=ORIENTED_EDGE('',*,*,#414,.F.);
#244=ORIENTED_EDGE('',*,*,#417,.T.);
#245=ORIENTED_EDGE('',*,*,#420,.F.);
#246=ORIENTED_EDGE('',*,*,#423,.F.);
#247=ORIENTED_EDGE('',*,*,#426,.F.);
#248=ORIENTED_EDGE('',*,*,#429,.T.);
#249=ORIENTED_EDGE('',*,*,#432,.T.);
#250=ORIENTED_EDGE('',*,*,#435,.T.);
#251=ORIENTED_EDGE('',*,*,#438,.T.);
#252=ORIENTED_EDGE('',*,*,#441,.F.);
#253=ORIENTED_EDGE('',*,*,#443,.T.);
#254=ORIENTED_EDGE('',*,*,#408,.T.);
#255=ORIENTED_EDGE('',*,*,#442,.F.);
#256=ORIENTED_EDGE('',*,*,#439,.T.);
#257=ORIENTED_EDGE('',*,*,#436,.F.);
#258=ORIENTED_EDGE('',*,*,#433,.F.);
#259=ORIENTED_EDGE('',*,*,#430,.F.);
#260=ORIENTED_EDGE('',*,*,#427,.F.);
#261=ORIENTED_EDGE('',*,*,#424,.T.);
#262=ORIENTED_EDGE('',*,*,#421,.T.);
#263=ORIENTED_EDGE('',*,*,#418,.T.);
#264=ORIENTED_EDGE('',*,*,#415,.F.);
#265=ORIENTED_EDGE('',*,*,#412,.T.);
#266=ORIENTED_EDGE('',*,*,#444,.T.);
#267=ORIENTED_EDGE('',*,*,#445,.F.);
#268=ORIENTED_EDGE('',*,*,#446,.F.);
#269=ORIENTED_EDGE('',*,*,#447,.T.);
#270=ORIENTED_EDGE('',*,*,#448,.T.);
#271=ORIENTED_EDGE('',*,*,#447,.F.);
#272=ORIENTED_EDGE('',*,*,#449,.F.);
#273=ORIENTED_EDGE('',*,*,#450,.T.);
#274=ORIENTED_EDGE('',*,*,#451,.F.);
#275=ORIENTED_EDGE('',*,*,#450,.F.);
#276=ORIENTED_EDGE('',*,*,#452,.T.);
#277=ORIENTED_EDGE('',*,*,#453,.T.);
#278=ORIENTED_EDGE('',*,*,#454,.T.);
#279=ORIENTED_EDGE('',*,*,#453,.F.);
#280=ORIENTED_EDGE('',*,*,#455,.F.);
#281=ORIENTED_EDGE('',*,*,#456,.T.);
#282=ORIENTED_EDGE('',*,*,#457,.T.);
#283=ORIENTED_EDGE('',*,*,#456,.F.);
#284=ORIENTED_EDGE('',*,*,#458,.F.);
#285=ORIENTED_EDGE('',*,*,#459,.T.);
#286=ORIENTED_EDGE('',*,*,#460,.T.);
#287=ORIENTED_EDGE('',*,*,#459,.F.);
#288=ORIENTED_EDGE('',*,*,#461,.F.);
#289=ORIENTED_EDGE('',*,*,#462,.T.);
#290=ORIENTED_EDGE('',*,*,#463,.F.);
#291=ORIENTED_EDGE('',*,*,#462,.F.);
#292=ORIENTED_EDGE('',*,*,#464,.T.);
#293=ORIENTED_EDGE('',*,*,#465,.T.);
#294=ORIENTED_EDGE('',*,*,#466,.F.);
#295=ORIENTED_EDGE('',*,*,#465,.F.);
#296=ORIENTED_EDGE('',*,*,#467,.T.);
#297=ORIENTED_EDGE('',*,*,#468,.T.);
#298=ORIENTED_EDGE('',*,*,#469,.F.);
#299=ORIENTED_EDGE('',*,*,#468,.F.);
#300=ORIENTED_EDGE('',*,*,#470,.T.);
#301=ORIENTED_EDGE('',*,*,#471,.T.);
#302=ORIENTED_EDGE('',*,*,#472,.F.);
#303=ORIENTED_EDGE('',*,*,#471,.F.);
#304=ORIENTED_EDGE('',*,*,#473,.T.);
#305=ORIENTED_EDGE('',*,*,#474,.T.);
#306=ORIENTED_EDGE('',*,*,#475,.T.);
#307=ORIENTED_EDGE('',*,*,#474,.F.);
#308=ORIENTED_EDGE('',*,*,#476,.F.);
#309=ORIENTED_EDGE('',*,*,#477,.T.);
#310=ORIENTED_EDGE('',*,*,#478,.F.);
#311=ORIENTED_EDGE('',*,*,#477,.F.);
#312=ORIENTED_EDGE('',*,*,#479,.T.);
#313=ORIENTED_EDGE('',*,*,#445,.T.);
#314=ORIENTED_EDGE('',*,*,#446,.T.);
#315=ORIENTED_EDGE('',*,*,#479,.F.);
#316=ORIENTED_EDGE('',*,*,#476,.T.);
#317=ORIENTED_EDGE('',*,*,#473,.F.);
#318=ORIENTED_EDGE('',*,*,#470,.F.);
#319=ORIENTED_EDGE('',*,*,#467,.F.);
#320=ORIENTED_EDGE('',*,*,#464,.F.);
#321=ORIENTED_EDGE('',*,*,#461,.T.);
#322=ORIENTED_EDGE('',*,*,#458,.T.);
#323=ORIENTED_EDGE('',*,*,#455,.T.);
#324=ORIENTED_EDGE('',*,*,#452,.F.);
#325=ORIENTED_EDGE('',*,*,#449,.T.);
#326=ORIENTED_EDGE('',*,*,#444,.F.);
#327=ORIENTED_EDGE('',*,*,#448,.F.);
#328=ORIENTED_EDGE('',*,*,#451,.T.);
#329=ORIENTED_EDGE('',*,*,#454,.F.);
#330=ORIENTED_EDGE('',*,*,#457,.F.);
#331=ORIENTED_EDGE('',*,*,#460,.F.);
#332=ORIENTED_EDGE('',*,*,#463,.T.);
#333=ORIENTED_EDGE('',*,*,#466,.T.);
#334=ORIENTED_EDGE('',*,*,#469,.T.);
#335=ORIENTED_EDGE('',*,*,#472,.T.);
#336=ORIENTED_EDGE('',*,*,#475,.F.);
#337=ORIENTED_EDGE('',*,*,#478,.T.);
#338=ORIENTED_EDGE('',*,*,#480,.F.);
#339=ORIENTED_EDGE('',*,*,#480,.T.);
#340=ORIENTED_EDGE('',*,*,#481,.T.);
#341=ORIENTED_EDGE('',*,*,#481,.F.);
#342=EDGE_CURVE('',#482,#483,#574,.T.);
#343=EDGE_CURVE('',#484,#482,#575,.T.);
#344=EDGE_CURVE('',#484,#485,#576,.T.);
#345=EDGE_CURVE('',#485,#483,#577,.T.);
#346=EDGE_CURVE('',#486,#486,#34,.T.);
#347=EDGE_CURVE('',#487,#488,#578,.T.);
#348=EDGE_CURVE('',#487,#489,#579,.T.);
#349=EDGE_CURVE('',#489,#490,#580,.T.);
#350=EDGE_CURVE('',#488,#490,#581,.T.);
#351=EDGE_CURVE('',#482,#491,#582,.T.);
#352=EDGE_CURVE('',#492,#491,#583,.T.);
#353=EDGE_CURVE('',#484,#492,#584,.T.);
#354=EDGE_CURVE('',#487,#493,#585,.T.);
#355=EDGE_CURVE('',#493,#494,#586,.T.);
#356=EDGE_CURVE('',#489,#494,#587,.T.);
#357=EDGE_CURVE('',#488,#495,#588,.T.);
#358=EDGE_CURVE('',#490,#496,#589,.T.);
#359=EDGE_CURVE('',#495,#496,#590,.T.);
#360=EDGE_CURVE('',#483,#497,#591,.T.);
#361=EDGE_CURVE('',#485,#498,#592,.T.);
#362=EDGE_CURVE('',#498,#497,#593,.T.);
#363=EDGE_CURVE('',#492,#493,#594,.T.);
#364=EDGE_CURVE('',#493,#495,#595,.T.);
#365=EDGE_CURVE('',#498,#495,#596,.T.);
#366=EDGE_CURVE('',#492,#498,#597,.T.);
#367=EDGE_CURVE('',#491,#494,#598,.T.);
#368=EDGE_CURVE('',#491,#497,#599,.T.);
#369=EDGE_CURVE('',#497,#496,#600,.T.);
#370=EDGE_CURVE('',#494,#496,#601,.T.);
#371=EDGE_CURVE('',#499,#499,#35,.T.);
#372=EDGE_CURVE('',#500,#501,#602,.T.);
#373=EDGE_CURVE('',#502,#500,#603,.T.);
#374=EDGE_CURVE('',#502,#503,#604,.T.);
#375=EDGE_CURVE('',#503,#501,#605,.T.);
#376=EDGE_CURVE('',#504,#500,#606,.T.);
#377=EDGE_CURVE('',#505,#504,#607,.T.);
#378=EDGE_CURVE('',#505,#502,#608,.T.);
#379=EDGE_CURVE('',#504,#506,#36,.T.);
#380=EDGE_CURVE('',#507,#506,#609,.T.);
#381=EDGE_CURVE('',#505,#507,#37,.T.);
#382=EDGE_CURVE('',#508,#506,#610,.T.);
#383=EDGE_CURVE('',#509,#508,#611,.T.);
#384=EDGE_CURVE('',#509,#507,#612,.T.);
#385=EDGE_CURVE('',#510,#508,#38,.T.);
#386=EDGE_CURVE('',#511,#510,#613,.T.);
#387=EDGE_CURVE('',#511,#509,#39,.T.);
#388=EDGE_CURVE('',#512,#510,#614,.T.);
#389=EDGE_CURVE('',#513,#512,#615,.T.);
#390=EDGE_CURVE('',#513,#511,#616,.T.);
#391=EDGE_CURVE('',#512,#514,#617,.T.);
#392=EDGE_CURVE('',#515,#514,#618,.T.);
#393=EDGE_CURVE('',#513,#515,#619,.T.);
#394=EDGE_CURVE('',#514,#516,#620,.T.);
#395=EDGE_CURVE('',#517,#516,#621,.T.);
#396=EDGE_CURVE('',#515,#517,#622,.T.);
#397=EDGE_CURVE('',#516,#518,#40,.T.);
#398=EDGE_CURVE('',#519,#518,#623,.T.);
#399=EDGE_CURVE('',#517,#519,#41,.T.);
#400=EDGE_CURVE('',#518,#520,#624,.T.);
#401=EDGE_CURVE('',#521,#520,#625,.T.);
#402=EDGE_CURVE('',#519,#521,#626,.T.);
#403=EDGE_CURVE('',#522,#520,#42,.T.);
#404=EDGE_CURVE('',#523,#522,#627,.T.);
#405=EDGE_CURVE('',#523,#521,#43,.T.);
#406=EDGE_CURVE('',#522,#501,#628,.T.);
#407=EDGE_CURVE('',#523,#503,#629,.T.);
#408=EDGE_CURVE('',#524,#525,#630,.T.);
#409=EDGE_CURVE('',#526,#524,#631,.T.);
#410=EDGE_CURVE('',#526,#527,#632,.T.);
#411=EDGE_CURVE('',#527,#525,#633,.T.);
#412=EDGE_CURVE('',#528,#524,#634,.T.);
#413=EDGE_CURVE('',#529,#528,#635,.T.);
#414=EDGE_CURVE('',#529,#526,#636,.T.);
#415=EDGE_CURVE('',#528,#530,#44,.T.);
#416=EDGE_CURVE('',#531,#530,#637,.T.);
#417=EDGE_CURVE('',#529,#531,#45,.T.);
#418=EDGE_CURVE('',#532,#530,#638,.T.);
#419=EDGE_CURVE('',#533,#532,#639,.T.);
#420=EDGE_CURVE('',#533,#531,#640,.T.);
#421=EDGE_CURVE('',#534,#532,#46,.T.);
#422=EDGE_CURVE('',#535,#534,#641,.T.);
#423=EDGE_CURVE('',#535,#533,#47,.T.);
#424=EDGE_CURVE('',#536,#534,#642,.T.);
#425=EDGE_CURVE('',#537,#536,#643,.T.);
#426=EDGE_CURVE('',#537,#535,#644,.T.);
#427=EDGE_CURVE('',#536,#538,#645,.T.);
#428=EDGE_CURVE('',#539,#538,#646,.T.);
#429=EDGE_CURVE('',#537,#539,#647,.T.);
#430=EDGE_CURVE('',#538,#540,#648,.T.);
#431=EDGE_CURVE('',#541,#540,#649,.T.);
#432=EDGE_CURVE('',#539,#541,#650,.T.);
#433=EDGE_CURVE('',#540,#542,#48,.T.);
#434=EDGE_CURVE('',#543,#542,#651,.T.);
#435=EDGE_CURVE('',#541,#543,#49,.T.);
#436=EDGE_CURVE('',#542,#544,#652,.T.);
#437=EDGE_CURVE('',#545,#544,#653,.T.);
#438=EDGE_CURVE('',#543,#545,#654,.T.);
#439=EDGE_CURVE('',#546,#544,#50,.T.);
#440=EDGE_CURVE('',#547,#546,#655,.T.);
#441=EDGE_CURVE('',#547,#545,#51,.T.);
#442=EDGE_CURVE('',#546,#525,#656,.T.);
#443=EDGE_CURVE('',#547,#527,#657,.T.);
#444=EDGE_CURVE('',#548,#549,#658,.T.);
#445=EDGE_CURVE('',#550,#549,#659,.T.);
#446=EDGE_CURVE('',#551,#550,#660,.T.);
#447=EDGE_CURVE('',#551,#548,#661,.T.);
#448=EDGE_CURVE('',#552,#548,#662,.T.);
#449=EDGE_CURVE('',#553,#551,#663,.T.);
#450=EDGE_CURVE('',#553,#552,#664,.T.);
#451=EDGE_CURVE('',#552,#554,#52,.T.);
#452=EDGE_CURVE('',#553,#555,#53,.T.);
#453=EDGE_CURVE('',#555,#554,#665,.T.);
#454=EDGE_CURVE('',#556,#554,#666,.T.);
#455=EDGE_CURVE('',#557,#555,#667,.T.);
#456=EDGE_CURVE('',#557,#556,#668,.T.);
#457=EDGE_CURVE('',#558,#556,#54,.T.);
#458=EDGE_CURVE('',#559,#557,#55,.T.);
#459=EDGE_CURVE('',#559,#558,#669,.T.);
#460=EDGE_CURVE('',#560,#558,#670,.T.);
#461=EDGE_CURVE('',#561,#559,#671,.T.);
#462=EDGE_CURVE('',#561,#560,#672,.T.);
#463=EDGE_CURVE('',#560,#562,#673,.T.);
#464=EDGE_CURVE('',#561,#563,#674,.T.);
#465=EDGE_CURVE('',#563,#562,#675,.T.);
#466=EDGE_CURVE('',#562,#564,#676,.T.);
#467=EDGE_CURVE('',#563,#565,#677,.T.);
#468=EDGE_CURVE('',#565,#564,#678,.T.);
#469=EDGE_CURVE('',#564,#566,#56,.T.);
#470=EDGE_CURVE('',#565,#567,#57,.T.);
#471=EDGE_CURVE('',#567,#566,#679,.T.);
#472=EDGE_CURVE('',#566,#568,#680,.T.);
#473=EDGE_CURVE('',#567,#569,#681,.T.);
#474=EDGE_CURVE('',#569,#568,#682,.T.);
#475=EDGE_CURVE('',#570,#568,#58,.T.);
#476=EDGE_CURVE('',#571,#569,#59,.T.);
#477=EDGE_CURVE('',#571,#570,#683,.T.);
#478=EDGE_CURVE('',#570,#549,#684,.T.);
#479=EDGE_CURVE('',#571,#550,#685,.T.);
#480=EDGE_CURVE('',#572,#572,#60,.T.);
#481=EDGE_CURVE('',#573,#573,#61,.T.);
#482=VERTEX_POINT('',#1489);
#483=VERTEX_POINT('',#1490);
#484=VERTEX_POINT('',#1492);
#485=VERTEX_POINT('',#1494);
#486=VERTEX_POINT('',#1498);
#487=VERTEX_POINT('',#1500);
#488=VERTEX_POINT('',#1501);
#489=VERTEX_POINT('',#1503);
#490=VERTEX_POINT('',#1505);
#491=VERTEX_POINT('',#1509);
#492=VERTEX_POINT('',#1511);
#493=VERTEX_POINT('',#1515);
#494=VERTEX_POINT('',#1517);
#495=VERTEX_POINT('',#1521);
#496=VERTEX_POINT('',#1523);
#497=VERTEX_POINT('',#1527);
#498=VERTEX_POINT('',#1529);
#499=VERTEX_POINT('',#1549);
#500=VERTEX_POINT('',#1554);
#501=VERTEX_POINT('',#1555);
#502=VERTEX_POINT('',#1557);
#503=VERTEX_POINT('',#1559);
#504=VERTEX_POINT('',#1563);
#505=VERTEX_POINT('',#1565);
#506=VERTEX_POINT('',#1569);
#507=VERTEX_POINT('',#1571);
#508=VERTEX_POINT('',#1575);
#509=VERTEX_POINT('',#1577);
#510=VERTEX_POINT('',#1581);
#511=VERTEX_POINT('',#1583);
#512=VERTEX_POINT('',#1587);
#513=VERTEX_POINT('',#1589);
#514=VERTEX_POINT('',#1593);
#515=VERTEX_POINT('',#1595);
#516=VERTEX_POINT('',#1599);
#517=VERTEX_POINT('',#1601);
#518=VERTEX_POINT('',#1605);
#519=VERTEX_POINT('',#1607);
#520=VERTEX_POINT('',#1611);
#521=VERTEX_POINT('',#1613);
#522=VERTEX_POINT('',#1617);
#523=VERTEX_POINT('',#1619);
#524=VERTEX_POINT('',#1629);
#525=VERTEX_POINT('',#1630);
#526=VERTEX_POINT('',#1632);
#527=VERTEX_POINT('',#1634);
#528=VERTEX_POINT('',#1638);
#529=VERTEX_POINT('',#1640);
#530=VERTEX_POINT('',#1644);
#531=VERTEX_POINT('',#1646);
#532=VERTEX_POINT('',#1650);
#533=VERTEX_POINT('',#1652);
#534=VERTEX_POINT('',#1656);
#535=VERTEX_POINT('',#1658);
#536=VERTEX_POINT('',#1662);
#537=VERTEX_POINT('',#1664);
#538=VERTEX_POINT('',#1668);
#539=VERTEX_POINT('',#1670);
#540=VERTEX_POINT('',#1674);
#541=VERTEX_POINT('',#1676);
#542=VERTEX_POINT('',#1680);
#543=VERTEX_POINT('',#1682);
#544=VERTEX_POINT('',#1686);
#545=VERTEX_POINT('',#1688);
#546=VERTEX_POINT('',#1692);
#547=VERTEX_POINT('',#1694);
#548=VERTEX_POINT('',#1704);
#549=VERTEX_POINT('',#1705);
#550=VERTEX_POINT('',#1707);
#551=VERTEX_POINT('',#1709);
#552=VERTEX_POINT('',#1713);
#553=VERTEX_POINT('',#1715);
#554=VERTEX_POINT('',#1719);
#555=VERTEX_POINT('',#1721);
#556=VERTEX_POINT('',#1725);
#557=VERTEX_POINT('',#1727);
#558=VERTEX_POINT('',#1731);
#559=VERTEX_POINT('',#1733);
#560=VERTEX_POINT('',#1737);
#561=VERTEX_POINT('',#1739);
#562=VERTEX_POINT('',#1743);
#563=VERTEX_POINT('',#1745);
#564=VERTEX_POINT('',#1749);
#565=VERTEX_POINT('',#1751);
#566=VERTEX_POINT('',#1755);
#567=VERTEX_POINT('',#1757);
#568=VERTEX_POINT('',#1761);
#569=VERTEX_POINT('',#1763);
#570=VERTEX_POINT('',#1767);
#571=VERTEX_POINT('',#1769);
#572=VERTEX_POINT('',#1779);
#573=VERTEX_POINT('',#1782);
#574=LINE('',#1488,#686);
#575=LINE('',#1491,#687);
#576=LINE('',#1493,#688);
#577=LINE('',#1495,#689);
#578=LINE('',#1499,#690);
#579=LINE('',#1502,#691);
#580=LINE('',#1504,#692);
#581=LINE('',#1506,#693);
#582=LINE('',#1508,#694);
#583=LINE('',#1510,#695);
#584=LINE('',#1512,#696);
#585=LINE('',#1514,#697);
#586=LINE('',#1516,#698);
#587=LINE('',#1518,#699);
#588=LINE('',#1520,#700);
#589=LINE('',#1522,#701);
#590=LINE('',#1524,#702);
#591=LINE('',#1526,#703);
#592=LINE('',#1528,#704);
#593=LINE('',#1530,#705);
#594=LINE('',#1532,#706);
#595=LINE('',#1533,#707);
#596=LINE('',#1534,#708);
#597=LINE('',#1535,#709);
#598=LINE('',#1537,#710);
#599=LINE('',#1538,#711);
#600=LINE('',#1539,#712);
#601=LINE('',#1540,#713);
#602=LINE('',#1553,#714);
#603=LINE('',#1556,#715);
#604=LINE('',#1558,#716);
#605=LINE('',#1560,#717);
#606=LINE('',#1562,#718);
#607=LINE('',#1564,#719);
#608=LINE('',#1566,#720);
#609=LINE('',#1570,#721);
#610=LINE('',#1574,#722);
#611=LINE('',#1576,#723);
#612=LINE('',#1578,#724);
#613=LINE('',#1582,#725);
#614=LINE('',#1586,#726);
#615=LINE('',#1588,#727);
#616=LINE('',#1590,#728);
#617=LINE('',#1592,#729);
#618=LINE('',#1594,#730);
#619=LINE('',#1596,#731);
#620=LINE('',#1598,#732);
#621=LINE('',#1600,#733);
#622=LINE('',#1602,#734);
#623=LINE('',#1606,#735);
#624=LINE('',#1610,#736);
#625=LINE('',#1612,#737);
#626=LINE('',#1614,#738);
#627=LINE('',#1618,#739);
#628=LINE('',#1622,#740);
#629=LINE('',#1623,#741);
#630=LINE('',#1628,#742);
#631=LINE('',#1631,#743);
#632=LINE('',#1633,#744);
#633=LINE('',#1635,#745);
#634=LINE('',#1637,#746);
#635=LINE('',#1639,#747);
#636=LINE('',#1641,#748);
#637=LINE('',#1645,#749);
#638=LINE('',#1649,#750);
#639=LINE('',#1651,#751);
#640=LINE('',#1653,#752);
#641=LINE('',#1657,#753);
#642=LINE('',#1661,#754);
#643=LINE('',#1663,#755);
#644=LINE('',#1665,#756);
#645=LINE('',#1667,#757);
#646=LINE('',#1669,#758);
#647=LINE('',#1671,#759);
#648=LINE('',#1673,#760);
#649=LINE('',#1675,#761);
#650=LINE('',#1677,#762);
#651=LINE('',#1681,#763);
#652=LINE('',#1685,#764);
#653=LINE('',#1687,#765);
#654=LINE('',#1689,#766);
#655=LINE('',#1693,#767);
#656=LINE('',#1697,#768);
#657=LINE('',#1698,#769);
#658=LINE('',#1703,#770);
#659=LINE('',#1706,#771);
#660=LINE('',#1708,#772);
#661=LINE('',#1710,#773);
#662=LINE('',#1712,#774);
#663=LINE('',#1714,#775);
#664=LINE('',#1716,#776);
#665=LINE('',#1722,#777);
#666=LINE('',#1724,#778);
#667=LINE('',#1726,#779);
#668=LINE('',#1728,#780);
#669=LINE('',#1734,#781);
#670=LINE('',#1736,#782);
#671=LINE('',#1738,#783);
#672=LINE('',#1740,#784);
#673=LINE('',#1742,#785);
#674=LINE('',#1744,#786);
#675=LINE('',#1746,#787);
#676=LINE('',#1748,#788);
#677=LINE('',#1750,#789);
#678=LINE('',#1752,#790);
#679=LINE('',#1758,#791);
#680=LINE('',#1760,#792);
#681=LINE('',#1762,#793);
#682=LINE('',#1764,#794);
#683=LINE('',#1770,#795);
#684=LINE('',#1772,#796);
#685=LINE('',#1773,#797);
#686=VECTOR('',#1190,1.);
#687=VECTOR('',#1191,1.);
#688=VECTOR('',#1192,1.);
#689=VECTOR('',#1193,1.);
#690=VECTOR('',#1198,1.);
#691=VECTOR('',#1199,1.);
#692=VECTOR('',#1200,1.);
#693=VECTOR('',#1201,1.);
#694=VECTOR('',#1204,1.);
#695=VECTOR('',#1205,1.);
#696=VECTOR('',#1206,1.);
#697=VECTOR('',#1209,1.);
#698=VECTOR('',#1210,1.);
#699=VECTOR('',#1211,1.);
#700=VECTOR('',#1214,1.);
#701=VECTOR('',#1215,1.);
#702=VECTOR('',#1216,1.);
#703=VECTOR('',#1219,1.);
#704=VECTOR('',#1220,1.);
#705=VECTOR('',#1221,1.);
#706=VECTOR('',#1224,1.);
#707=VECTOR('',#1225,1.);
#708=VECTOR('',#1226,1.);
#709=VECTOR('',#1227,1.);
#710=VECTOR('',#1230,1.);
#711=VECTOR('',#1231,1.);
#712=VECTOR('',#1232,1.);
#713=VECTOR('',#1233,1.);
#714=VECTOR('',#1256,1.);
#715=VECTOR('',#1257,1.);
#716=VECTOR('',#1258,1.);
#717=VECTOR('',#1259,1.);
#718=VECTOR('',#1262,1.);
#719=VECTOR('',#1263,1.);
#720=VECTOR('',#1264,1.);
#721=VECTOR('',#1269,1.);
#722=VECTOR('',#1274,1.);
#723=VECTOR('',#1275,1.);
#724=VECTOR('',#1276,1.);
#725=VECTOR('',#1281,1.);
#726=VECTOR('',#1286,1.);
#727=VECTOR('',#1287,1.);
#728=VECTOR('',#1288,1.);
#729=VECTOR('',#1291,1.);
#730=VECTOR('',#1292,1.);
#731=VECTOR('',#1293,1.);
#732=VECTOR('',#1296,1.);
#733=VECTOR('',#1297,1.);
#734=VECTOR('',#1298,1.);
#735=VECTOR('',#1303,1.);
#736=VECTOR('',#1308,1.);
#737=VECTOR('',#1309,1.);
#738=VECTOR('',#1310,1.);
#739=VECTOR('',#1315,1.);
#740=VECTOR('',#1320,1.);
#741=VECTOR('',#1321,1.);
#742=VECTOR('',#1330,1.);
#743=VECTOR('',#1331,1.);
#744=VECTOR('',#1332,1.);
#745=VECTOR('',#1333,1.);
#746=VECTOR('',#1336,1.);
#747=VECTOR('',#1337,1.);
#748=VECTOR('',#1338,1.);
#749=VECTOR('',#1343,1.);
#750=VECTOR('',#1348,1.);
#751=VECTOR('',#1349,1.);
#752=VECTOR('',#1350,1.);
#753=VECTOR('',#1355,1.);
#754=VECTOR('',#1360,1.);
#755=VECTOR('',#1361,1.);
#756=VECTOR('',#1362,1.);
#757=VECTOR('',#1365,1.);
#758=VECTOR('',#1366,1.);
#759=VECTOR('',#1367,1.);
#760=VECTOR('',#1370,1.);
#761=VECTOR('',#1371,1.);
#762=VECTOR('',#1372,1.);
#763=VECTOR('',#1377,1.);
#764=VECTOR('',#1382,1.);
#765=VECTOR('',#1383,1.);
#766=VECTOR('',#1384,1.);
#767=VECTOR('',#1389,1.);
#768=VECTOR('',#1394,1.);
#769=VECTOR('',#1395,1.);
#770=VECTOR('',#1404,1.);
#771=VECTOR('',#1405,1.);
#772=VECTOR('',#1406,1.);
#773=VECTOR('',#1407,1.);
#774=VECTOR('',#1410,1.);
#775=VECTOR('',#1411,1.);
#776=VECTOR('',#1412,1.);
#777=VECTOR('',#1419,1.);
#778=VECTOR('',#1422,1.);
#779=VECTOR('',#1423,1.);
#780=VECTOR('',#1424,1.);
#781=VECTOR('',#1431,1.);
#782=VECTOR('',#1434,1.);
#783=VECTOR('',#1435,1.);
#784=VECTOR('',#1436,1.);
#785=VECTOR('',#1439,1.);
#786=VECTOR('',#1440,1.);
#787=VECTOR('',#1441,1.);
#788=VECTOR('',#1444,1.);
#789=VECTOR('',#1445,1.);
#790=VECTOR('',#1446,1.);
#791=VECTOR('',#1453,1.);
#792=VECTOR('',#1456,1.);
#793=VECTOR('',#1457,1.);
#794=VECTOR('',#1458,1.);
#795=VECTOR('',#1465,1.);
#796=VECTOR('',#1468,1.);
#797=VECTOR('',#1469,1.);
#798=EDGE_LOOP('',(#62,#63,#64,#65));
#799=EDGE_LOOP('',(#66));
#800=EDGE_LOOP('',(#67,#68,#69,#70));
#801=EDGE_LOOP('',(#71,#72,#73,#74));
#802=EDGE_LOOP('',(#75,#76,#77,#78));
#803=EDGE_LOOP('',(#79,#80,#81,#82));
#804=EDGE_LOOP('',(#83,#84,#85,#86));
#805=EDGE_LOOP('',(#87,#88,#89,#90));
#806=EDGE_LOOP('',(#91,#92,#93,#94));
#807=EDGE_LOOP('',(#95,#96,#97,#98));
#808=EDGE_LOOP('',(#99,#100,#101,#102));
#809=EDGE_LOOP('',(#103,#104,#105,#106));
#810=EDGE_LOOP('',(#107,#108,#109,#110));
#811=EDGE_LOOP('',(#111,#112,#113,#114));
#812=EDGE_LOOP('',(#115,#116,#117,#118));
#813=EDGE_LOOP('',(#119));
#814=EDGE_LOOP('',(#120));
#815=EDGE_LOOP('',(#121));
#816=EDGE_LOOP('',(#122,#123,#124,#125));
#817=EDGE_LOOP('',(#126,#127,#128,#129));
#818=EDGE_LOOP('',(#130,#131,#132,#133));
#819=EDGE_LOOP('',(#134,#135,#136,#137));
#820=EDGE_LOOP('',(#138,#139,#140,#141));
#821=EDGE_LOOP('',(#142,#143,#144,#145));
#822=EDGE_LOOP('',(#146,#147,#148,#149));
#823=EDGE_LOOP('',(#150,#151,#152,#153));
#824=EDGE_LOOP('',(#154,#155,#156,#157));
#825=EDGE_LOOP('',(#158,#159,#160,#161));
#826=EDGE_LOOP('',(#162,#163,#164,#165));
#827=EDGE_LOOP('',(#166,#167,#168,#169));
#828=EDGE_LOOP('',(#170,#171,#172,#173,#174,#175,#176,#177,#178,#179,#180,
#181));
#829=EDGE_LOOP('',(#182,#183,#184,#185,#186,#187,#188,#189,#190,#191,#192,
#193));
#830=EDGE_LOOP('',(#194,#195,#196,#197));
#831=EDGE_LOOP('',(#198,#199,#200,#201));
#832=EDGE_LOOP('',(#202,#203,#204,#205));
#833=EDGE_LOOP('',(#206,#207,#208,#209));
#834=EDGE_LOOP('',(#210,#211,#212,#213));
#835=EDGE_LOOP('',(#214,#215,#216,#217));
#836=EDGE_LOOP('',(#218,#219,#220,#221));
#837=EDGE_LOOP('',(#222,#223,#224,#225));
#838=EDGE_LOOP('',(#226,#227,#228,#229));
#839=EDGE_LOOP('',(#230,#231,#232,#233));
#840=EDGE_LOOP('',(#234,#235,#236,#237));
#841=EDGE_LOOP('',(#238,#239,#240,#241));
#842=EDGE_LOOP('',(#242,#243,#244,#245,#246,#247,#248,#249,#250,#251,#252,
#253));
#843=EDGE_LOOP('',(#254,#255,#256,#257,#258,#259,#260,#261,#262,#263,#264,
#265));
#844=EDGE_LOOP('',(#266,#267,#268,#269));
#845=EDGE_LOOP('',(#270,#271,#272,#273));
#846=EDGE_LOOP('',(#274,#275,#276,#277));
#847=EDGE_LOOP('',(#278,#279,#280,#281));
#848=EDGE_LOOP('',(#282,#283,#284,#285));
#849=EDGE_LOOP('',(#286,#287,#288,#289));
#850=EDGE_LOOP('',(#290,#291,#292,#293));
#851=EDGE_LOOP('',(#294,#295,#296,#297));
#852=EDGE_LOOP('',(#298,#299,#300,#301));
#853=EDGE_LOOP('',(#302,#303,#304,#305));
#854=EDGE_LOOP('',(#306,#307,#308,#309));
#855=EDGE_LOOP('',(#310,#311,#312,#313));
#856=EDGE_LOOP('',(#314,#315,#316,#317,#318,#319,#320,#321,#322,#323,#324,
#325));
#857=EDGE_LOOP('',(#326,#327,#328,#329,#330,#331,#332,#333,#334,#335,#336,
#337));
#858=EDGE_LOOP('',(#338));
#859=EDGE_LOOP('',(#339));
#860=EDGE_LOOP('',(#340));
#861=EDGE_LOOP('',(#341));
#862=FACE_BOUND('',#798,.T.);
#863=FACE_BOUND('',#799,.T.);
#864=FACE_BOUND('',#800,.T.);
#865=FACE_BOUND('',#801,.T.);
#866=FACE_BOUND('',#802,.T.);
#867=FACE_BOUND('',#803,.T.);
#868=FACE_BOUND('',#804,.T.);
#869=FACE_BOUND('',#805,.T.);
#870=FACE_BOUND('',#806,.T.);
#871=FACE_BOUND('',#807,.T.);
#872=FACE_BOUND('',#808,.T.);
#873=FACE_BOUND('',#809,.T.);
#874=FACE_BOUND('',#810,.T.);
#875=FACE_BOUND('',#811,.T.);
#876=FACE_BOUND('',#812,.T.);
#877=FACE_BOUND('',#813,.T.);
#878=FACE_BOUND('',#814,.T.);
#879=FACE_BOUND('',#815,.T.);
#880=FACE_BOUND('',#816,.T.);
#881=FACE_BOUND('',#817,.T.);
#882=FACE_BOUND('',#818,.T.);
#883=FACE_BOUND('',#819,.T.);
#884=FACE_BOUND('',#820,.T.);
#885=FACE_BOUND('',#821,.T.);
#886=FACE_BOUND('',#822,.T.);
#887=FACE_BOUND('',#823,.T.);
#888=FACE_BOUND('',#824,.T.);
#889=FACE_BOUND('',#825,.T.);
#890=FACE_BOUND('',#826,.T.);
#891=FACE_BOUND('',#827,.T.);
#892=FACE_BOUND('',#828,.T.);
#893=FACE_BOUND('',#829,.T.);
#894=FACE_BOUND('',#830,.T.);
#895=FACE_BOUND('',#831,.T.);
#896=FACE_BOUND('',#832,.T.);
#897=FACE_BOUND('',#833,.T.);
#898=FACE_BOUND('',#834,.T.);
#899=FACE_BOUND('',#835,.T.);
#900=FACE_BOUND('',#836,.T.);
#901=FACE_BOUND('',#837,.T.);
#902=FACE_BOUND('',#838,.T.);
#903=FACE_BOUND('',#839,.T.);
#904=FACE_BOUND('',#840,.T.);
#905=FACE_BOUND('',#841,.T.);
#906=FACE_BOUND('',#842,.T.);
#907=FACE_BOUND('',#843,.T.);
#908=FACE_BOUND('',#844,.T.);
#909=FACE_BOUND('',#845,.T.);
#910=FACE_BOUND('',#846,.T.);
#911=FACE_BOUND('',#847,.T.);
#912=FACE_BOUND('',#848,.T.);
#913=FACE_BOUND('',#849,.T.);
#914=FACE_BOUND('',#850,.T.);
#915=FACE_BOUND('',#851,.T.);
#916=FACE_BOUND('',#852,.T.);
#917=FACE_BOUND('',#853,.T.);
#918=FACE_BOUND('',#854,.T.);
#919=FACE_BOUND('',#855,.T.);
#920=FACE_BOUND('',#856,.T.);
#921=FACE_BOUND('',#857,.T.);
#922=FACE_BOUND('',#858,.T.);
#923=FACE_BOUND('',#859,.T.);
#924=FACE_BOUND('',#860,.T.);
#925=FACE_BOUND('',#861,.T.);
#926=PLANE('',#1093);
#927=PLANE('',#1094);
#928=PLANE('',#1096);
#929=PLANE('',#1097);
#930=PLANE('',#1098);
#931=PLANE('',#1099);
#932=PLANE('',#1100);
#933=PLANE('',#1101);
#934=PLANE('',#1102);
#935=PLANE('',#1103);
#936=PLANE('',#1104);
#937=PLANE('',#1105);
#938=PLANE('',#1106);
#939=PLANE('',#1107);
#940=PLANE('',#1110);
#941=PLANE('',#1112);
#942=PLANE('',#1113);
#943=PLANE('',#1117);
#944=PLANE('',#1121);
#945=PLANE('',#1122);
#946=PLANE('',#1123);
#947=PLANE('',#1127);
#948=PLANE('',#1131);
#949=PLANE('',#1132);
#950=PLANE('',#1133);
#951=PLANE('',#1135);
#952=PLANE('',#1136);
#953=PLANE('',#1140);
#954=PLANE('',#1144);
#955=PLANE('',#1145);
#956=PLANE('',#1146);
#957=PLANE('',#1150);
#958=PLANE('',#1154);
#959=PLANE('',#1155);
#960=PLANE('',#1156);
#961=PLANE('',#1158);
#962=PLANE('',#1159);
#963=PLANE('',#1163);
#964=PLANE('',#1167);
#965=PLANE('',#1168);
#966=PLANE('',#1169);
#967=PLANE('',#1173);
#968=PLANE('',#1177);
#969=PLANE('',#1178);
#970=PLANE('',#1179);
#971=PLANE('',#1181);
#972=PLANE('',#1185);
#973=ADVANCED_FACE('',(#862),#926,.T.);
#974=ADVANCED_FACE('',(#863,#864),#927,.F.);
#975=ADVANCED_FACE('',(#865),#928,.F.);
#976=ADVANCED_FACE('',(#866),#929,.F.);
#977=ADVANCED_FACE('',(#867),#930,.T.);
#978=ADVANCED_FACE('',(#868),#931,.T.);
#979=ADVANCED_FACE('',(#869),#932,.T.);
#980=ADVANCED_FACE('',(#870),#933,.F.);
#981=ADVANCED_FACE('',(#871),#934,.F.);
#982=ADVANCED_FACE('',(#872),#935,.T.);
#983=ADVANCED_FACE('',(#873),#936,.T.);
#984=ADVANCED_FACE('',(#874),#937,.F.);
#985=ADVANCED_FACE('',(#875),#938,.T.);
#986=ADVANCED_FACE('',(#876),#939,.F.);
#987=ADVANCED_FACE('',(#877,#878),#20,.F.);
#988=ADVANCED_FACE('',(#879),#940,.T.);
#989=ADVANCED_FACE('',(#880),#941,.T.);
#990=ADVANCED_FACE('',(#881),#942,.T.);
#991=ADVANCED_FACE('',(#882),#21,.T.);
#992=ADVANCED_FACE('',(#883),#943,.T.);
#993=ADVANCED_FACE('',(#884),#22,.F.);
#994=ADVANCED_FACE('',(#885),#944,.T.);
#995=ADVANCED_FACE('',(#886),#945,.F.);
#996=ADVANCED_FACE('',(#887),#946,.F.);
#997=ADVANCED_FACE('',(#888),#23,.T.);
#998=ADVANCED_FACE('',(#889),#947,.F.);
#999=ADVANCED_FACE('',(#890),#24,.F.);
#1000=ADVANCED_FACE('',(#891),#948,.F.);
#1001=ADVANCED_FACE('',(#892),#949,.T.);
#1002=ADVANCED_FACE('',(#893),#950,.F.);
#1003=ADVANCED_FACE('',(#894),#951,.T.);
#1004=ADVANCED_FACE('',(#895),#952,.T.);
#1005=ADVANCED_FACE('',(#896),#25,.T.);
#1006=ADVANCED_FACE('',(#897),#953,.T.);
#1007=ADVANCED_FACE('',(#898),#26,.F.);
#1008=ADVANCED_FACE('',(#899),#954,.T.);
#1009=ADVANCED_FACE('',(#900),#955,.F.);
#1010=ADVANCED_FACE('',(#901),#956,.F.);
#1011=ADVANCED_FACE('',(#902),#27,.T.);
#1012=ADVANCED_FACE('',(#903),#957,.F.);
#1013=ADVANCED_FACE('',(#904),#28,.F.);
#1014=ADVANCED_FACE('',(#905),#958,.F.);
#1015=ADVANCED_FACE('',(#906),#959,.T.);
#1016=ADVANCED_FACE('',(#907),#960,.F.);
#1017=ADVANCED_FACE('',(#908),#961,.T.);
#1018=ADVANCED_FACE('',(#909),#962,.T.);
#1019=ADVANCED_FACE('',(#910),#29,.T.);
#1020=ADVANCED_FACE('',(#911),#963,.T.);
#1021=ADVANCED_FACE('',(#912),#30,.F.);
#1022=ADVANCED_FACE('',(#913),#964,.T.);
#1023=ADVANCED_FACE('',(#914),#965,.F.);
#1024=ADVANCED_FACE('',(#915),#966,.F.);
#1025=ADVANCED_FACE('',(#916),#31,.T.);
#1026=ADVANCED_FACE('',(#917),#967,.F.);
#1027=ADVANCED_FACE('',(#918),#32,.F.);
#1028=ADVANCED_FACE('',(#919),#968,.F.);
#1029=ADVANCED_FACE('',(#920),#969,.T.);
#1030=ADVANCED_FACE('',(#921),#970,.F.);
#1031=ADVANCED_FACE('',(#922),#971,.F.);
#1032=ADVANCED_FACE('',(#923,#924),#33,.T.);
#1033=ADVANCED_FACE('',(#925),#972,.F.);
#1034=CLOSED_SHELL('',(#973,#974,#975,#976,#977,#978,#979,#980,#981,#982,
#983,#984,#985,#986,#987,#988));
#1035=CLOSED_SHELL('',(#989,#990,#991,#992,#993,#994,#995,#996,#997,#998,
#999,#1000,#1001,#1002));
#1036=CLOSED_SHELL('',(#1003,#1004,#1005,#1006,#1007,#1008,#1009,#1010,
#1011,#1012,#1013,#1014,#1015,#1016));
#1037=CLOSED_SHELL('',(#1017,#1018,#1019,#1020,#1021,#1022,#1023,#1024,
#1025,#1026,#1027,#1028,#1029,#1030));
#1038=CLOSED_SHELL('',(#1031,#1032,#1033));
#1039=STYLED_ITEM('',(#1044),#1077);
#1040=STYLED_ITEM('',(#1045),#1078);
#1041=STYLED_ITEM('',(#1046),#1079);
#1042=STYLED_ITEM('',(#1047),#1080);
#1043=STYLED_ITEM('',(#1048),#1081);
#1044=PRESENTATION_STYLE_ASSIGNMENT((#1049));
#1045=PRESENTATION_STYLE_ASSIGNMENT((#1050));
#1046=PRESENTATION_STYLE_ASSIGNMENT((#1051));
#1047=PRESENTATION_STYLE_ASSIGNMENT((#1052));
#1048=PRESENTATION_STYLE_ASSIGNMENT((#1053));
#1049=SURFACE_STYLE_USAGE(.BOTH.,#1054);
#1050=SURFACE_STYLE_USAGE(.BOTH.,#1055);
#1051=SURFACE_STYLE_USAGE(.BOTH.,#1056);
#1052=SURFACE_STYLE_USAGE(.BOTH.,#1057);
#1053=SURFACE_STYLE_USAGE(.BOTH.,#1058);
#1054=SURFACE_SIDE_STYLE('',(#1059));
#1055=SURFACE_SIDE_STYLE('',(#1060));
#1056=SURFACE_SIDE_STYLE('',(#1061));
#1057=SURFACE_SIDE_STYLE('',(#1062));
#1058=SURFACE_SIDE_STYLE('',(#1063));
#1059=SURFACE_STYLE_FILL_AREA(#1064);
#1060=SURFACE_STYLE_FILL_AREA(#1065);
#1061=SURFACE_STYLE_FILL_AREA(#1066);
#1062=SURFACE_STYLE_FILL_AREA(#1067);
#1063=SURFACE_STYLE_FILL_AREA(#1068);
#1064=FILL_AREA_STYLE('',(#1069));
#1065=FILL_AREA_STYLE('',(#1070));
#1066=FILL_AREA_STYLE('',(#1071));
#1067=FILL_AREA_STYLE('',(#1072));
#1068=FILL_AREA_STYLE('',(#1073));
#1069=FILL_AREA_STYLE_COLOUR('',#1074);
#1070=FILL_AREA_STYLE_COLOUR('',#1075);
#1071=FILL_AREA_STYLE_COLOUR('',#1075);
#1072=FILL_AREA_STYLE_COLOUR('',#1075);
#1073=FILL_AREA_STYLE_COLOUR('',#1076);
#1074=COLOUR_RGB('',0.2,0.2,0.2);
#1075=COLOUR_RGB('',0.8,0.8,0.8);
#1076=COLOUR_RGB('',0.870588235294118,0.870588235294118,0.870588235294118);
#1077=MANIFOLD_SOLID_BREP('Part 1',#1034);
#1078=MANIFOLD_SOLID_BREP('Part 3',#1035);
#1079=MANIFOLD_SOLID_BREP('Part 4',#1036);
#1080=MANIFOLD_SOLID_BREP('Part 8',#1037);
#1081=MANIFOLD_SOLID_BREP('Part 9',#1038);
#1082=SHAPE_DEFINITION_REPRESENTATION(#1814,#1087);
#1083=SHAPE_DEFINITION_REPRESENTATION(#1815,#1088);
#1084=SHAPE_DEFINITION_REPRESENTATION(#1816,#1089);
#1085=SHAPE_DEFINITION_REPRESENTATION(#1817,#1090);
#1086=SHAPE_DEFINITION_REPRESENTATION(#1818,#1091);
#1087=SHAPE_REPRESENTATION('Part 1',(#1092),#1789);
#1088=SHAPE_REPRESENTATION('Part 3',(#1111),#1790);
#1089=SHAPE_REPRESENTATION('Part 4',(#1134),#1791);
#1090=SHAPE_REPRESENTATION('Part 8',(#1157),#1792);
#1091=SHAPE_REPRESENTATION('Part 9',(#1180),#1793);
#1092=AXIS2_PLACEMENT_3D('',#1486,#1186,#1187);
#1093=AXIS2_PLACEMENT_3D('',#1487,#1188,#1189);
#1094=AXIS2_PLACEMENT_3D('',#1496,#1194,#1195);
#1095=AXIS2_PLACEMENT_3D('',#1497,#1196,#1197);
#1096=AXIS2_PLACEMENT_3D('',#1507,#1202,#1203);
#1097=AXIS2_PLACEMENT_3D('',#1513,#1207,#1208);
#1098=AXIS2_PLACEMENT_3D('',#1519,#1212,#1213);
#1099=AXIS2_PLACEMENT_3D('',#1525,#1217,#1218);
#1100=AXIS2_PLACEMENT_3D('',#1531,#1222,#1223);
#1101=AXIS2_PLACEMENT_3D('',#1536,#1228,#1229);
#1102=AXIS2_PLACEMENT_3D('',#1541,#1234,#1235);
#1103=AXIS2_PLACEMENT_3D('',#1542,#1236,#1237);
#1104=AXIS2_PLACEMENT_3D('',#1543,#1238,#1239);
#1105=AXIS2_PLACEMENT_3D('',#1544,#1240,#1241);
#1106=AXIS2_PLACEMENT_3D('',#1545,#1242,#1243);
#1107=AXIS2_PLACEMENT_3D('',#1546,#1244,#1245);
#1108=AXIS2_PLACEMENT_3D('',#1547,#1246,#1247);
#1109=AXIS2_PLACEMENT_3D('',#1548,#1248,#1249);
#1110=AXIS2_PLACEMENT_3D('',#1550,#1250,#1251);
#1111=AXIS2_PLACEMENT_3D('',#1551,#1252,#1253);
#1112=AXIS2_PLACEMENT_3D('',#1552,#1254,#1255);
#1113=AXIS2_PLACEMENT_3D('',#1561,#1260,#1261);
#1114=AXIS2_PLACEMENT_3D('',#1567,#1265,#1266);
#1115=AXIS2_PLACEMENT_3D('',#1568,#1267,#1268);
#1116=AXIS2_PLACEMENT_3D('',#1572,#1270,#1271);
#1117=AXIS2_PLACEMENT_3D('',#1573,#1272,#1273);
#1118=AXIS2_PLACEMENT_3D('',#1579,#1277,#1278);
#1119=AXIS2_PLACEMENT_3D('',#1580,#1279,#1280);
#1120=AXIS2_PLACEMENT_3D('',#1584,#1282,#1283);
#1121=AXIS2_PLACEMENT_3D('',#1585,#1284,#1285);
#1122=AXIS2_PLACEMENT_3D('',#1591,#1289,#1290);
#1123=AXIS2_PLACEMENT_3D('',#1597,#1294,#1295);
#1124=AXIS2_PLACEMENT_3D('',#1603,#1299,#1300);
#1125=AXIS2_PLACEMENT_3D('',#1604,#1301,#1302);
#1126=AXIS2_PLACEMENT_3D('',#1608,#1304,#1305);
#1127=AXIS2_PLACEMENT_3D('',#1609,#1306,#1307);
#1128=AXIS2_PLACEMENT_3D('',#1615,#1311,#1312);
#1129=AXIS2_PLACEMENT_3D('',#1616,#1313,#1314);
#1130=AXIS2_PLACEMENT_3D('',#1620,#1316,#1317);
#1131=AXIS2_PLACEMENT_3D('',#1621,#1318,#1319);
#1132=AXIS2_PLACEMENT_3D('',#1624,#1322,#1323);
#1133=AXIS2_PLACEMENT_3D('',#1625,#1324,#1325);
#1134=AXIS2_PLACEMENT_3D('',#1626,#1326,#1327);
#1135=AXIS2_PLACEMENT_3D('',#1627,#1328,#1329);
#1136=AXIS2_PLACEMENT_3D('',#1636,#1334,#1335);
#1137=AXIS2_PLACEMENT_3D('',#1642,#1339,#1340);
#1138=AXIS2_PLACEMENT_3D('',#1643,#1341,#1342);
#1139=AXIS2_PLACEMENT_3D('',#1647,#1344,#1345);
#1140=AXIS2_PLACEMENT_3D('',#1648,#1346,#1347);
#1141=AXIS2_PLACEMENT_3D('',#1654,#1351,#1352);
#1142=AXIS2_PLACEMENT_3D('',#1655,#1353,#1354);
#1143=AXIS2_PLACEMENT_3D('',#1659,#1356,#1357);
#1144=AXIS2_PLACEMENT_3D('',#1660,#1358,#1359);
#1145=AXIS2_PLACEMENT_3D('',#1666,#1363,#1364);
#1146=AXIS2_PLACEMENT_3D('',#1672,#1368,#1369);
#1147=AXIS2_PLACEMENT_3D('',#1678,#1373,#1374);
#1148=AXIS2_PLACEMENT_3D('',#1679,#1375,#1376);
#1149=AXIS2_PLACEMENT_3D('',#1683,#1378,#1379);
#1150=AXIS2_PLACEMENT_3D('',#1684,#1380,#1381);
#1151=AXIS2_PLACEMENT_3D('',#1690,#1385,#1386);
#1152=AXIS2_PLACEMENT_3D('',#1691,#1387,#1388);
#1153=AXIS2_PLACEMENT_3D('',#1695,#1390,#1391);
#1154=AXIS2_PLACEMENT_3D('',#1696,#1392,#1393);
#1155=AXIS2_PLACEMENT_3D('',#1699,#1396,#1397);
#1156=AXIS2_PLACEMENT_3D('',#1700,#1398,#1399);
#1157=AXIS2_PLACEMENT_3D('',#1701,#1400,#1401);
#1158=AXIS2_PLACEMENT_3D('',#1702,#1402,#1403);
#1159=AXIS2_PLACEMENT_3D('',#1711,#1408,#1409);
#1160=AXIS2_PLACEMENT_3D('',#1717,#1413,#1414);
#1161=AXIS2_PLACEMENT_3D('',#1718,#1415,#1416);
#1162=AXIS2_PLACEMENT_3D('',#1720,#1417,#1418);
#1163=AXIS2_PLACEMENT_3D('',#1723,#1420,#1421);
#1164=AXIS2_PLACEMENT_3D('',#1729,#1425,#1426);
#1165=AXIS2_PLACEMENT_3D('',#1730,#1427,#1428);
#1166=AXIS2_PLACEMENT_3D('',#1732,#1429,#1430);
#1167=AXIS2_PLACEMENT_3D('',#1735,#1432,#1433);
#1168=AXIS2_PLACEMENT_3D('',#1741,#1437,#1438);
#1169=AXIS2_PLACEMENT_3D('',#1747,#1442,#1443);
#1170=AXIS2_PLACEMENT_3D('',#1753,#1447,#1448);
#1171=AXIS2_PLACEMENT_3D('',#1754,#1449,#1450);
#1172=AXIS2_PLACEMENT_3D('',#1756,#1451,#1452);
#1173=AXIS2_PLACEMENT_3D('',#1759,#1454,#1455);
#1174=AXIS2_PLACEMENT_3D('',#1765,#1459,#1460);
#1175=AXIS2_PLACEMENT_3D('',#1766,#1461,#1462);
#1176=AXIS2_PLACEMENT_3D('',#1768,#1463,#1464);
#1177=AXIS2_PLACEMENT_3D('',#1771,#1466,#1467);
#1178=AXIS2_PLACEMENT_3D('',#1774,#1470,#1471);
#1179=AXIS2_PLACEMENT_3D('',#1775,#1472,#1473);
#1180=AXIS2_PLACEMENT_3D('',#1776,#1474,#1475);
#1181=AXIS2_PLACEMENT_3D('',#1777,#1476,#1477);
#1182=AXIS2_PLACEMENT_3D('',#1778,#1478,#1479);
#1183=AXIS2_PLACEMENT_3D('',#1780,#1480,#1481);
#1184=AXIS2_PLACEMENT_3D('',#1781,#1482,#1483);
#1185=AXIS2_PLACEMENT_3D('',#1783,#1484,#1485);
#1186=DIRECTION('',(0.,0.,1.));
#1187=DIRECTION('',(1.,0.,0.));
#1188=DIRECTION('',(1.16248612561482E-16,0.,-1.));
#1189=DIRECTION('',(-1.,0.,-1.16248612561482E-16));
#1190=DIRECTION('',(-1.,0.,0.));
#1191=DIRECTION('',(0.,1.,0.));
#1192=DIRECTION('',(-1.,0.,0.));
#1193=DIRECTION('',(0.,1.,0.));
#1194=DIRECTION('',(0.,0.,-1.));
#1195=DIRECTION('',(-1.,0.,0.));
#1196=DIRECTION('',(0.,0.,1.));
#1197=DIRECTION('',(1.,0.,0.));
#1198=DIRECTION('',(-1.,0.,0.));
#1199=DIRECTION('',(0.,1.,0.));
#1200=DIRECTION('',(-1.,0.,0.));
#1201=DIRECTION('',(0.,1.,0.));
#1202=DIRECTION('',(-0.984807753012208,0.,0.173648177666931));
#1203=DIRECTION('',(0.173648177666931,0.,0.984807753012208));
#1204=DIRECTION('',(0.171087869746036,0.171087869746036,0.970287525247814));
#1205=DIRECTION('',(0.,1.,0.));
#1206=DIRECTION('',(0.171087869746036,-0.171087869746036,0.970287525247814));
#1207=DIRECTION('',(-0.984807753012208,0.,-0.173648177666929));
#1208=DIRECTION('',(-0.173648177666929,0.,0.984807753012208));
#1209=DIRECTION('',(0.171087869746035,-0.171087869746036,-0.970287525247814));
#1210=DIRECTION('',(0.,1.,0.));
#1211=DIRECTION('',(0.171087869746035,0.171087869746035,-0.970287525247814));
#1212=DIRECTION('',(-0.984807753012208,0.,0.173648177666929));
#1213=DIRECTION('',(0.173648177666929,0.,0.984807753012208));
#1214=DIRECTION('',(-0.171087869746035,-0.171087869746036,-0.970287525247814));
#1215=DIRECTION('',(-0.171087869746035,0.171087869746035,-0.970287525247814));
#1216=DIRECTION('',(0.,1.,0.));
#1217=DIRECTION('',(-0.984807753012208,0.,-0.173648177666931));
#1218=DIRECTION('',(-0.173648177666931,0.,0.984807753012208));
#1219=DIRECTION('',(-0.171087869746037,0.171087869746036,0.970287525247814));
#1220=DIRECTION('',(-0.171087869746037,-0.171087869746036,0.970287525247814));
#1221=DIRECTION('',(0.,1.,0.));
#1222=DIRECTION('',(0.,-1.,0.));
#1223=DIRECTION('',(1.,0.,0.));
#1224=DIRECTION('',(0.,0.,1.));
#1225=DIRECTION('',(-1.,0.,0.));
#1226=DIRECTION('',(0.,0.,1.));
#1227=DIRECTION('',(-1.,0.,0.));
#1228=DIRECTION('',(0.,-1.,0.));
#1229=DIRECTION('',(1.,0.,0.));
#1230=DIRECTION('',(0.,0.,1.));
#1231=DIRECTION('',(-1.,0.,0.));
#1232=DIRECTION('',(0.,0.,1.));
#1233=DIRECTION('',(-1.,0.,0.));
#1234=DIRECTION('',(-1.,0.,0.));
#1235=DIRECTION('',(0.,0.,1.));
#1236=DIRECTION('',(-1.,0.,0.));
#1237=DIRECTION('',(0.,0.,1.));
#1238=DIRECTION('',(0.,-0.984807753012208,-0.17364817766693));
#1239=DIRECTION('',(0.,0.17364817766693,-0.984807753012208));
#1240=DIRECTION('',(0.,-0.984807753012208,0.173648177666931));
#1241=DIRECTION('',(0.,-0.173648177666931,-0.984807753012208));
#1242=DIRECTION('',(0.,0.984807753012208,0.17364817766693));
#1243=DIRECTION('',(0.,-0.17364817766693,0.984807753012208));
#1244=DIRECTION('',(0.,0.984807753012208,-0.17364817766693));
#1245=DIRECTION('',(0.,0.17364817766693,0.984807753012208));
#1246=DIRECTION('',(0.,0.,1.));
#1247=DIRECTION('',(1.,0.,0.));
#1248=DIRECTION('',(0.,0.,1.));
#1249=DIRECTION('',(1.,0.,0.));
#1250=DIRECTION('',(0.,0.,1.));
#1251=DIRECTION('',(1.,0.,0.));
#1252=DIRECTION('',(0.,0.,1.));
#1253=DIRECTION('',(1.,0.,0.));
#1254=DIRECTION('',(-1.,0.,0.));
#1255=DIRECTION('',(0.,0.,1.));
#1256=DIRECTION('',(0.,0.,1.));
#1257=DIRECTION('',(0.,1.,0.));
#1258=DIRECTION('',(0.,0.,1.));
#1259=DIRECTION('',(0.,1.,0.));
#1260=DIRECTION('',(1.22464679914735E-16,0.,-1.));
#1261=DIRECTION('',(-1.,0.,-1.22464679914735E-16));
#1262=DIRECTION('',(-1.,0.,-1.22464679914735E-16));
#1263=DIRECTION('',(0.,1.,0.));
#1264=DIRECTION('',(-1.,0.,-1.22464679914735E-16));
#1265=DIRECTION('',(0.,1.,0.));
#1266=DIRECTION('',(0.,0.,1.));
#1267=DIRECTION('',(0.,-1.,0.));
#1268=DIRECTION('',(0.,0.,-1.));
#1269=DIRECTION('',(0.,1.,0.));
#1270=DIRECTION('',(0.,-1.,0.));
#1271=DIRECTION('',(0.,0.,-1.));
#1272=DIRECTION('',(0.996194698091745,0.,-0.0871557427476582));
#1273=DIRECTION('',(-0.0871557427476582,0.,-0.996194698091746));
#1274=DIRECTION('',(-0.0871557427476582,0.,-0.996194698091746));
#1275=DIRECTION('',(0.,1.,0.));
#1276=DIRECTION('',(-0.0871557427476582,0.,-0.996194698091746));
#1277=DIRECTION('',(0.,1.,0.));
#1278=DIRECTION('',(0.,0.,1.));
#1279=DIRECTION('',(0.,-1.,0.));
#1280=DIRECTION('',(0.,0.,-1.));
#1281=DIRECTION('',(0.,1.,0.));
#1282=DIRECTION('',(0.,-1.,0.));
#1283=DIRECTION('',(0.,0.,-1.));
#1284=DIRECTION('',(0.,0.,-1.));
#1285=DIRECTION('',(-1.,0.,0.));
#1286=DIRECTION('',(-1.,0.,0.));
#1287=DIRECTION('',(0.,1.,0.));
#1288=DIRECTION('',(-1.,0.,0.));
#1289=DIRECTION('',(-1.,0.,0.));
#1290=DIRECTION('',(0.,0.,1.));
#1291=DIRECTION('',(0.,0.,1.));
#1292=DIRECTION('',(0.,1.,0.));
#1293=DIRECTION('',(0.,0.,1.));
#1294=DIRECTION('',(0.,0.,-1.));
#1295=DIRECTION('',(-1.,0.,0.));
#1296=DIRECTION('',(-1.,0.,0.));
#1297=DIRECTION('',(0.,1.,0.));
#1298=DIRECTION('',(-1.,0.,0.));
#1299=DIRECTION('',(0.,1.,0.));
#1300=DIRECTION('',(0.,0.,1.));
#1301=DIRECTION('',(0.,-1.,0.));
#1302=DIRECTION('',(0.,0.,-1.));
#1303=DIRECTION('',(0.,1.,0.));
#1304=DIRECTION('',(0.,-1.,0.));
#1305=DIRECTION('',(0.,0.,-1.));
#1306=DIRECTION('',(0.996194698091746,0.,-0.087155742747658));
#1307=DIRECTION('',(-0.087155742747658,0.,-0.996194698091746));
#1308=DIRECTION('',(-0.087155742747658,0.,-0.996194698091746));
#1309=DIRECTION('',(0.,1.,0.));
#1310=DIRECTION('',(-0.087155742747658,0.,-0.996194698091746));
#1311=DIRECTION('',(0.,1.,0.));
#1312=DIRECTION('',(0.,0.,1.));
#1313=DIRECTION('',(0.,-1.,0.));
#1314=DIRECTION('',(0.,0.,-1.));
#1315=DIRECTION('',(0.,1.,0.));
#1316=DIRECTION('',(0.,-1.,0.));
#1317=DIRECTION('',(0.,0.,-1.));
#1318=DIRECTION('',(1.20111416784561E-16,0.,-1.));
#1319=DIRECTION('',(-1.,0.,-1.20111416784561E-16));
#1320=DIRECTION('',(-1.,0.,-1.20111416784561E-16));
#1321=DIRECTION('',(-1.,0.,-1.20111416784561E-16));
#1322=DIRECTION('',(0.,-1.,0.));
#1323=DIRECTION('',(1.,0.,0.));
#1324=DIRECTION('',(0.,-1.,0.));
#1325=DIRECTION('',(1.,0.,0.));
#1326=DIRECTION('',(0.,0.,1.));
#1327=DIRECTION('',(1.,0.,0.));
#1328=DIRECTION('',(-1.,0.,0.));
#1329=DIRECTION('',(0.,0.,1.));
#1330=DIRECTION('',(0.,0.,1.));
#1331=DIRECTION('',(0.,1.,0.));
#1332=DIRECTION('',(0.,0.,1.));
#1333=DIRECTION('',(0.,1.,0.));
#1334=DIRECTION('',(1.22464679914735E-16,0.,-1.));
#1335=DIRECTION('',(-1.,0.,-1.22464679914735E-16));
#1336=DIRECTION('',(-1.,0.,-1.22464679914735E-16));
#1337=DIRECTION('',(0.,1.,0.));
#1338=DIRECTION('',(-1.,0.,-1.22464679914735E-16));
#1339=DIRECTION('',(0.,1.,0.));
#1340=DIRECTION('',(0.,0.,1.));
#1341=DIRECTION('',(0.,-1.,0.));
#1342=DIRECTION('',(0.,0.,-1.));
#1343=DIRECTION('',(0.,1.,0.));
#1344=DIRECTION('',(0.,-1.,0.));
#1345=DIRECTION('',(0.,0.,-1.));
#1346=DIRECTION('',(0.996194698091745,0.,-0.0871557427476582));
#1347=DIRECTION('',(-0.0871557427476582,0.,-0.996194698091746));
#1348=DIRECTION('',(-0.0871557427476582,0.,-0.996194698091746));
#1349=DIRECTION('',(0.,1.,0.));
#1350=DIRECTION('',(-0.0871557427476582,0.,-0.996194698091746));
#1351=DIRECTION('',(0.,1.,0.));
#1352=DIRECTION('',(0.,0.,1.));
#1353=DIRECTION('',(0.,-1.,0.));
#1354=DIRECTION('',(0.,0.,-1.));
#1355=DIRECTION('',(0.,1.,0.));
#1356=DIRECTION('',(0.,-1.,0.));
#1357=DIRECTION('',(0.,0.,-1.));
#1358=DIRECTION('',(0.,0.,-1.));
#1359=DIRECTION('',(-1.,0.,0.));
#1360=DIRECTION('',(-1.,0.,0.));
#1361=DIRECTION('',(0.,1.,0.));
#1362=DIRECTION('',(-1.,0.,0.));
#1363=DIRECTION('',(-1.,0.,0.));
#1364=DIRECTION('',(0.,0.,1.));
#1365=DIRECTION('',(0.,0.,1.));
#1366=DIRECTION('',(0.,1.,0.));
#1367=DIRECTION('',(0.,0.,1.));
#1368=DIRECTION('',(0.,0.,-1.));
#1369=DIRECTION('',(-1.,0.,0.));
#1370=DIRECTION('',(-1.,0.,0.));
#1371=DIRECTION('',(0.,1.,0.));
#1372=DIRECTION('',(-1.,0.,0.));
#1373=DIRECTION('',(0.,1.,0.));
#1374=DIRECTION('',(0.,0.,1.));
#1375=DIRECTION('',(0.,-1.,0.));
#1376=DIRECTION('',(0.,0.,-1.));
#1377=DIRECTION('',(0.,1.,0.));
#1378=DIRECTION('',(0.,-1.,0.));
#1379=DIRECTION('',(0.,0.,-1.));
#1380=DIRECTION('',(0.996194698091746,0.,-0.087155742747658));
#1381=DIRECTION('',(-0.087155742747658,0.,-0.996194698091746));
#1382=DIRECTION('',(-0.087155742747658,0.,-0.996194698091746));
#1383=DIRECTION('',(0.,1.,0.));
#1384=DIRECTION('',(-0.087155742747658,0.,-0.996194698091746));
#1385=DIRECTION('',(0.,1.,0.));
#1386=DIRECTION('',(0.,0.,1.));
#1387=DIRECTION('',(0.,-1.,0.));
#1388=DIRECTION('',(0.,0.,-1.));
#1389=DIRECTION('',(0.,1.,0.));
#1390=DIRECTION('',(0.,-1.,0.));
#1391=DIRECTION('',(0.,0.,-1.));
#1392=DIRECTION('',(1.20111416784561E-16,0.,-1.));
#1393=DIRECTION('',(-1.,0.,-1.20111416784561E-16));
#1394=DIRECTION('',(-1.,0.,-1.20111416784561E-16));
#1395=DIRECTION('',(-1.,0.,-1.20111416784561E-16));
#1396=DIRECTION('',(0.,-1.,0.));
#1397=DIRECTION('',(1.,0.,0.));
#1398=DIRECTION('',(0.,-1.,0.));
#1399=DIRECTION('',(1.,0.,0.));
#1400=DIRECTION('',(0.,0.,1.));
#1401=DIRECTION('',(1.,0.,0.));
#1402=DIRECTION('',(1.,0.,0.));
#1403=DIRECTION('',(0.,0.,1.));
#1404=DIRECTION('',(0.,0.,1.));
#1405=DIRECTION('',(0.,1.,0.));
#1406=DIRECTION('',(0.,0.,1.));
#1407=DIRECTION('',(0.,1.,0.));
#1408=DIRECTION('',(-1.22464679914735E-16,0.,-1.));
#1409=DIRECTION('',(1.,0.,-1.22464679914735E-16));
#1410=DIRECTION('',(1.,0.,-1.22464679914735E-16));
#1411=DIRECTION('',(1.,0.,-1.22464679914735E-16));
#1412=DIRECTION('',(0.,1.,0.));
#1413=DIRECTION('',(0.,1.,0.));
#1414=DIRECTION('',(0.,0.,1.));
#1415=DIRECTION('',(0.,1.,0.));
#1416=DIRECTION('',(0.,0.,-1.));
#1417=DIRECTION('',(0.,1.,0.));
#1418=DIRECTION('',(0.,0.,-1.));
#1419=DIRECTION('',(0.,1.,0.));
#1420=DIRECTION('',(-0.996194698091745,0.,-0.0871557427476582));
#1421=DIRECTION('',(0.0871557427476582,0.,-0.996194698091746));
#1422=DIRECTION('',(0.0871557427476582,0.,-0.996194698091746));
#1423=DIRECTION('',(0.0871557427476582,0.,-0.996194698091746));
#1424=DIRECTION('',(0.,1.,0.));
#1425=DIRECTION('',(0.,1.,0.));
#1426=DIRECTION('',(0.,0.,1.));
#1427=DIRECTION('',(0.,1.,0.));
#1428=DIRECTION('',(0.,0.,-1.));
#1429=DIRECTION('',(0.,1.,0.));
#1430=DIRECTION('',(0.,0.,-1.));
#1431=DIRECTION('',(0.,1.,0.));
#1432=DIRECTION('',(0.,0.,-1.));
#1433=DIRECTION('',(1.,0.,0.));
#1434=DIRECTION('',(1.,0.,0.));
#1435=DIRECTION('',(1.,0.,0.));
#1436=DIRECTION('',(0.,1.,0.));
#1437=DIRECTION('',(1.,0.,0.));
#1438=DIRECTION('',(0.,0.,1.));
#1439=DIRECTION('',(0.,0.,1.));
#1440=DIRECTION('',(0.,0.,1.));
#1441=DIRECTION('',(0.,1.,0.));
#1442=DIRECTION('',(0.,0.,-1.));
#1443=DIRECTION('',(1.,0.,0.));
#1444=DIRECTION('',(1.,0.,0.));
#1445=DIRECTION('',(1.,0.,0.));
#1446=DIRECTION('',(0.,1.,0.));
#1447=DIRECTION('',(0.,1.,0.));
#1448=DIRECTION('',(0.,0.,1.));
#1449=DIRECTION('',(0.,1.,0.));
#1450=DIRECTION('',(0.,0.,-1.));
#1451=DIRECTION('',(0.,1.,0.));
#1452=DIRECTION('',(0.,0.,-1.));
#1453=DIRECTION('',(0.,1.,0.));
#1454=DIRECTION('',(-0.996194698091746,0.,-0.087155742747658));
#1455=DIRECTION('',(0.087155742747658,0.,-0.996194698091746));
#1456=DIRECTION('',(0.087155742747658,0.,-0.996194698091746));
#1457=DIRECTION('',(0.087155742747658,0.,-0.996194698091746));
#1458=DIRECTION('',(0.,1.,0.));
#1459=DIRECTION('',(0.,1.,0.));
#1460=DIRECTION('',(0.,0.,1.));
#1461=DIRECTION('',(0.,1.,0.));
#1462=DIRECTION('',(0.,0.,-1.));
#1463=DIRECTION('',(0.,1.,0.));
#1464=DIRECTION('',(0.,0.,-1.));
#1465=DIRECTION('',(0.,1.,0.));
#1466=DIRECTION('',(-1.20111416784561E-16,0.,-1.));
#1467=DIRECTION('',(1.,0.,-1.20111416784561E-16));
#1468=DIRECTION('',(1.,0.,-1.20111416784561E-16));
#1469=DIRECTION('',(1.,0.,-1.20111416784561E-16));
#1470=DIRECTION('',(0.,-1.,0.));
#1471=DIRECTION('',(-1.,0.,0.));
#1472=DIRECTION('',(0.,-1.,0.));
#1473=DIRECTION('',(-1.,0.,0.));
#1474=DIRECTION('',(0.,0.,1.));
#1475=DIRECTION('',(1.,0.,0.));
#1476=DIRECTION('',(0.,0.,-1.));
#1477=DIRECTION('',(-1.,0.,0.));
#1478=DIRECTION('',(0.,0.,-1.));
#1479=DIRECTION('',(-1.,0.,0.));
#1480=DIRECTION('',(0.,0.,-1.));
#1481=DIRECTION('',(-1.,0.,0.));
#1482=DIRECTION('',(0.,0.,1.));
#1483=DIRECTION('',(1.,0.,0.));
#1484=DIRECTION('',(0.,0.,1.));
#1485=DIRECTION('',(1.,0.,0.));
#1486=CARTESIAN_POINT('',(0.,0.,0.));
#1487=CARTESIAN_POINT('',(-0.000349746810498089,-0.00145,9.99999999999985E-5));
#1488=CARTESIAN_POINT('',(0.00269998567332303,0.00134949362099617,0.0001));
#1489=CARTESIAN_POINT('',(0.000699493620996176,0.00134949362099617,0.0001));
#1490=CARTESIAN_POINT('',(-0.000699493620996176,0.00134949362099617,0.0001));
#1491=CARTESIAN_POINT('',(0.000699493620996176,-0.00145,0.0001));
#1492=CARTESIAN_POINT('',(0.000699493620996176,-0.00134949362099617,0.0001));
#1493=CARTESIAN_POINT('',(0.00269998567332303,-0.00134949362099617,0.0001));
#1494=CARTESIAN_POINT('',(-0.000699493620996175,-0.00134949362099617,0.0001));
#1495=CARTESIAN_POINT('',(-0.000699493620996176,-0.00145,0.0001));
#1496=CARTESIAN_POINT('',(0.000366497873665393,-0.00145,0.0012));
#1497=CARTESIAN_POINT('',(-0.000432995747330786,0.00108299574733078,0.0012));
#1498=CARTESIAN_POINT('',(-0.000282995747330786,0.00108299574733078,0.0012));
#1499=CARTESIAN_POINT('',(0.00269998567332303,-0.00138299574733078,0.0012));
#1500=CARTESIAN_POINT('',(0.000732995747330785,-0.00138299574733078,0.0012));
#1501=CARTESIAN_POINT('',(-0.000732995747330786,-0.00138299574733078,0.0012));
#1502=CARTESIAN_POINT('',(0.000732995747330785,-0.00145,0.0012));
#1503=CARTESIAN_POINT('',(0.000732995747330785,0.00138299574733078,0.0012));
#1504=CARTESIAN_POINT('',(0.00269998567332303,0.00138299574733078,0.0012));
#1505=CARTESIAN_POINT('',(-0.000732995747330786,0.00138299574733078,0.0012));
#1506=CARTESIAN_POINT('',(-0.000732995747330786,-0.00145,0.0012));
#1507=CARTESIAN_POINT('',(0.000749746810498089,-0.00145,0.000385));
#1508=CARTESIAN_POINT('',(0.000666331702976407,0.00131633170297641,-8.80705827691671E-5));
#1509=CARTESIAN_POINT('',(0.0008,0.00145,0.00067));
#1510=CARTESIAN_POINT('',(0.0008,-0.00145,0.00067));
#1511=CARTESIAN_POINT('',(0.0008,-0.00145,0.00067));
#1512=CARTESIAN_POINT('',(0.000751217774581693,-0.00140121777458169,0.000393342251864658));
#1513=CARTESIAN_POINT('',(0.000766497873665393,-0.00145,0.00101));
#1514=CARTESIAN_POINT('',(0.000767478516387796,-0.00141747851638779,0.0010044384987569));
#1515=CARTESIAN_POINT('',(0.0008,-0.00145,0.00082));
#1516=CARTESIAN_POINT('',(0.0008,-0.00145,0.00082));
#1517=CARTESIAN_POINT('',(0.0008,0.00145,0.00082));
#1518=CARTESIAN_POINT('',(0.000682592444782511,0.00133259244478251,0.00148585133339072));
#1519=CARTESIAN_POINT('',(-0.000766497873665394,-0.00145,0.00101));
#1520=CARTESIAN_POINT('',(-0.000767478516387797,-0.00141747851638779,0.0010044384987569));
#1521=CARTESIAN_POINT('',(-0.0008,-0.00145,0.00082));
#1522=CARTESIAN_POINT('',(-0.000682592444782512,0.00133259244478251,0.00148585133339072));
#1523=CARTESIAN_POINT('',(-0.0008,0.00145,0.00082));
#1524=CARTESIAN_POINT('',(-0.0008,-0.00145,0.00082));
#1525=CARTESIAN_POINT('',(-0.000749746810498088,-0.00145,0.000385));
#1526=CARTESIAN_POINT('',(-0.000666331702976407,0.00131633170297641,-8.80705827691671E-5));
#1527=CARTESIAN_POINT('',(-0.0008,0.00145,0.00067));
#1528=CARTESIAN_POINT('',(-0.000751217774581693,-0.00140121777458169,0.000393342251864658));
#1529=CARTESIAN_POINT('',(-0.0008,-0.00145,0.00067));
#1530=CARTESIAN_POINT('',(-0.0008,-0.00145,0.00067));
#1531=CARTESIAN_POINT('',(0.,-0.00145,0.0291804302757896));
#1532=CARTESIAN_POINT('',(0.0008,-0.00145,0.000745));
#1533=CARTESIAN_POINT('',(0.00269998567332303,-0.00145,0.00082));
#1534=CARTESIAN_POINT('',(-0.0008,-0.00145,0.000745));
#1535=CARTESIAN_POINT('',(0.00269998567332303,-0.00145,0.00067));
#1536=CARTESIAN_POINT('',(0.,0.00145,0.0291804302757896));
#1537=CARTESIAN_POINT('',(0.0008,0.00145,0.000745));
#1538=CARTESIAN_POINT('',(0.00269998567332303,0.00145,0.00067));
#1539=CARTESIAN_POINT('',(-0.0008,0.00145,0.000745));
#1540=CARTESIAN_POINT('',(0.00269998567332303,0.00145,0.00082));
#1541=CARTESIAN_POINT('',(0.0008,-0.00145,0.000745));
#1542=CARTESIAN_POINT('',(-0.0008,-0.00145,0.000745));
#1543=CARTESIAN_POINT('',(0.00269998567332303,-0.00139974681049809,0.000385));
#1544=CARTESIAN_POINT('',(0.00269998567332303,0.00139974681049809,0.000385));
#1545=CARTESIAN_POINT('',(0.00269998567332303,0.00141649787366539,0.00101));
#1546=CARTESIAN_POINT('',(0.00269998567332303,-0.00141649787366539,0.00101));
#1547=CARTESIAN_POINT('',(-0.000432995747330786,0.00108299574733078,0.0011));
#1548=CARTESIAN_POINT('',(-0.000432995747330786,0.00108299574733078,0.0011));
#1549=CARTESIAN_POINT('',(-0.000282995747330786,0.00108299574733078,0.0011));
#1550=CARTESIAN_POINT('',(-8.67361737988404E-19,0.,0.0011));
#1551=CARTESIAN_POINT('',(0.,0.,0.));
#1552=CARTESIAN_POINT('',(-0.0014,-0.00115,7.5E-5));
#1553=CARTESIAN_POINT('',(-0.0014,-0.00075,7.5E-5));
#1554=CARTESIAN_POINT('',(-0.0014,-0.00075,-4.47836777821581E-20));
#1555=CARTESIAN_POINT('',(-0.0014,-0.00075,0.00015));
#1556=CARTESIAN_POINT('',(-0.0014,-0.00115,-4.47836777821581E-20));
#1557=CARTESIAN_POINT('',(-0.0014,-0.00115,-4.47836777821581E-20));
#1558=CARTESIAN_POINT('',(-0.0014,-0.00115,7.5E-5));
#1559=CARTESIAN_POINT('',(-0.0014,-0.00115,0.00015));
#1560=CARTESIAN_POINT('',(-0.0014,-0.00115,0.00015));
#1561=CARTESIAN_POINT('',(-0.00128716703608303,-0.00115,-3.09656249722353E-20));
#1562=CARTESIAN_POINT('',(-0.00128716703608303,-0.00075,-3.09656249722353E-20));
#1563=CARTESIAN_POINT('',(-0.00117433407216606,-0.00075,-1.0842021724855E-19));
#1564=CARTESIAN_POINT('',(-0.00117433407216606,-0.00115,-1.0842021724855E-19));
#1565=CARTESIAN_POINT('',(-0.00117433407216606,-0.00115,-1.0842021724855E-19));
#1566=CARTESIAN_POINT('',(-0.00128716703608303,-0.00115,-3.09656249722353E-20));
#1567=CARTESIAN_POINT('',(-0.00117433407216606,-0.00115,0.000175));
#1568=CARTESIAN_POINT('',(-0.00117433407216606,-0.00075,0.000175));
#1569=CARTESIAN_POINT('',(-0.001,-0.00075,0.000159747745019159));
#1570=CARTESIAN_POINT('',(-0.001,-0.00115,0.000159747745019159));
#1571=CARTESIAN_POINT('',(-0.001,-0.00115,0.000159747745019159));
#1572=CARTESIAN_POINT('',(-0.00117433407216606,-0.00115,0.000175));
#1573=CARTESIAN_POINT('',(-0.000978677650126248,-0.00115,0.000403463319293926));
#1574=CARTESIAN_POINT('',(-0.000978677650126248,-0.00075,0.000403463319293926));
#1575=CARTESIAN_POINT('',(-0.000957355300252496,-0.00075,0.000647178893568692));
#1576=CARTESIAN_POINT('',(-0.000957355300252496,-0.00115,0.000647178893568692));
#1577=CARTESIAN_POINT('',(-0.000957355300252496,-0.00115,0.000647178893568692));
#1578=CARTESIAN_POINT('',(-0.000978677650126248,-0.00115,0.000403463319293926));
#1579=CARTESIAN_POINT('',(-0.000932450432800202,-0.00115,0.000645));
#1580=CARTESIAN_POINT('',(-0.000932450432800202,-0.00075,0.000645));
#1581=CARTESIAN_POINT('',(-0.000932450432800202,-0.00075,0.00067));
#1582=CARTESIAN_POINT('',(-0.000932450432800202,-0.00115,0.00067));
#1583=CARTESIAN_POINT('',(-0.000932450432800202,-0.00115,0.00067));
#1584=CARTESIAN_POINT('',(-0.000932450432800202,-0.00115,0.000645));
#1585=CARTESIAN_POINT('',(-0.000866225216400102,-0.00115,0.00067));
#1586=CARTESIAN_POINT('',(-0.000866225216400102,-0.00075,0.00067));
#1587=CARTESIAN_POINT('',(-0.0008,-0.00075,0.00067));
#1588=CARTESIAN_POINT('',(-0.0008,-0.00115,0.00067));
#1589=CARTESIAN_POINT('',(-0.0008,-0.00115,0.00067));
#1590=CARTESIAN_POINT('',(-0.000866225216400102,-0.00115,0.00067));
#1591=CARTESIAN_POINT('',(-0.0008,-0.00115,0.000745));
#1592=CARTESIAN_POINT('',(-0.0008,-0.00075,0.000745));
#1593=CARTESIAN_POINT('',(-0.0008,-0.00075,0.00082));
#1594=CARTESIAN_POINT('',(-0.0008,-0.00115,0.00082));
#1595=CARTESIAN_POINT('',(-0.0008,-0.00115,0.00082));
#1596=CARTESIAN_POINT('',(-0.0008,-0.00115,0.000745));
#1597=CARTESIAN_POINT('',(-0.000866225216400102,-0.00115,0.00082));
#1598=CARTESIAN_POINT('',(-0.000866225216400102,-0.00075,0.00082));
#1599=CARTESIAN_POINT('',(-0.000932450432800202,-0.00075,0.00082));
#1600=CARTESIAN_POINT('',(-0.000932450432800202,-0.00115,0.00082));
#1601=CARTESIAN_POINT('',(-0.000932450432800202,-0.00115,0.00082));
#1602=CARTESIAN_POINT('',(-0.000866225216400102,-0.00115,0.00082));
#1603=CARTESIAN_POINT('',(-0.000932450432800202,-0.00115,0.000645));
#1604=CARTESIAN_POINT('',(-0.000932450432800202,-0.00075,0.000645));
#1605=CARTESIAN_POINT('',(-0.00110678450496626,-0.00075,0.000660252254980841));
#1606=CARTESIAN_POINT('',(-0.00110678450496626,-0.00115,0.000660252254980841));
#1607=CARTESIAN_POINT('',(-0.00110678450496626,-0.00115,0.000660252254980841));
#1608=CARTESIAN_POINT('',(-0.000932450432800202,-0.00115,0.000645));
#1609=CARTESIAN_POINT('',(-0.00112810685484001,-0.00115,0.000416536680706075));
#1610=CARTESIAN_POINT('',(-0.00112810685484001,-0.00075,0.000416536680706075));
#1611=CARTESIAN_POINT('',(-0.00114942920471376,-0.00075,0.000172821106431309));
#1612=CARTESIAN_POINT('',(-0.00114942920471376,-0.00115,0.000172821106431309));
#1613=CARTESIAN_POINT('',(-0.00114942920471376,-0.00115,0.000172821106431309));
#1614=CARTESIAN_POINT('',(-0.00112810685484001,-0.00115,0.000416536680706075));
#1615=CARTESIAN_POINT('',(-0.00117433407216606,-0.00115,0.000175));
#1616=CARTESIAN_POINT('',(-0.00117433407216606,-0.00075,0.000175));
#1617=CARTESIAN_POINT('',(-0.00117433407216606,-0.00075,0.00015));
#1618=CARTESIAN_POINT('',(-0.00117433407216606,-0.00115,0.00015));
#1619=CARTESIAN_POINT('',(-0.00117433407216606,-0.00115,0.00015));
#1620=CARTESIAN_POINT('',(-0.00117433407216606,-0.00115,0.000175));
#1621=CARTESIAN_POINT('',(-0.00128716703608303,-0.00115,0.00015));
#1622=CARTESIAN_POINT('',(-0.00128716703608303,-0.00075,0.00015));
#1623=CARTESIAN_POINT('',(-0.00128716703608303,-0.00115,0.00015));
#1624=CARTESIAN_POINT('',(0.,-0.00115,0.00041));
#1625=CARTESIAN_POINT('',(0.,-0.00075,0.00041));
#1626=CARTESIAN_POINT('',(0.,0.,0.));
#1627=CARTESIAN_POINT('',(-0.0014,0.00075,7.5E-5));
#1628=CARTESIAN_POINT('',(-0.0014,0.00115,7.5E-5));
#1629=CARTESIAN_POINT('',(-0.0014,0.00115,-4.47836777821581E-20));
#1630=CARTESIAN_POINT('',(-0.0014,0.00115,0.00015));
#1631=CARTESIAN_POINT('',(-0.0014,0.00075,-4.47836777821581E-20));
#1632=CARTESIAN_POINT('',(-0.0014,0.00075,-4.47836777821581E-20));
#1633=CARTESIAN_POINT('',(-0.0014,0.00075,7.5E-5));
#1634=CARTESIAN_POINT('',(-0.0014,0.00075,0.00015));
#1635=CARTESIAN_POINT('',(-0.0014,0.00075,0.00015));
#1636=CARTESIAN_POINT('',(-0.00128716703608303,0.00075,-3.09656249722353E-20));
#1637=CARTESIAN_POINT('',(-0.00128716703608303,0.00115,-3.09656249722353E-20));
#1638=CARTESIAN_POINT('',(-0.00117433407216606,0.00115,-1.0842021724855E-19));
#1639=CARTESIAN_POINT('',(-0.00117433407216606,0.00075,-1.0842021724855E-19));
#1640=CARTESIAN_POINT('',(-0.00117433407216606,0.00075,-1.0842021724855E-19));
#1641=CARTESIAN_POINT('',(-0.00128716703608303,0.00075,-3.09656249722353E-20));
#1642=CARTESIAN_POINT('',(-0.00117433407216606,0.00075,0.000175));
#1643=CARTESIAN_POINT('',(-0.00117433407216606,0.00115,0.000175));
#1644=CARTESIAN_POINT('',(-0.001,0.00115,0.000159747745019159));
#1645=CARTESIAN_POINT('',(-0.001,0.00075,0.000159747745019159));
#1646=CARTESIAN_POINT('',(-0.001,0.00075,0.000159747745019159));
#1647=CARTESIAN_POINT('',(-0.00117433407216606,0.00075,0.000175));
#1648=CARTESIAN_POINT('',(-0.000978677650126248,0.00075,0.000403463319293926));
#1649=CARTESIAN_POINT('',(-0.000978677650126248,0.00115,0.000403463319293926));
#1650=CARTESIAN_POINT('',(-0.000957355300252496,0.00115,0.000647178893568692));
#1651=CARTESIAN_POINT('',(-0.000957355300252496,0.00075,0.000647178893568692));
#1652=CARTESIAN_POINT('',(-0.000957355300252496,0.00075,0.000647178893568692));
#1653=CARTESIAN_POINT('',(-0.000978677650126248,0.00075,0.000403463319293926));
#1654=CARTESIAN_POINT('',(-0.000932450432800202,0.00075,0.000645));
#1655=CARTESIAN_POINT('',(-0.000932450432800202,0.00115,0.000645));
#1656=CARTESIAN_POINT('',(-0.000932450432800202,0.00115,0.00067));
#1657=CARTESIAN_POINT('',(-0.000932450432800202,0.00075,0.00067));
#1658=CARTESIAN_POINT('',(-0.000932450432800202,0.00075,0.00067));
#1659=CARTESIAN_POINT('',(-0.000932450432800202,0.00075,0.000645));
#1660=CARTESIAN_POINT('',(-0.000866225216400102,0.00075,0.00067));
#1661=CARTESIAN_POINT('',(-0.000866225216400102,0.00115,0.00067));
#1662=CARTESIAN_POINT('',(-0.0008,0.00115,0.00067));
#1663=CARTESIAN_POINT('',(-0.0008,0.00075,0.00067));
#1664=CARTESIAN_POINT('',(-0.0008,0.00075,0.00067));
#1665=CARTESIAN_POINT('',(-0.000866225216400102,0.00075,0.00067));
#1666=CARTESIAN_POINT('',(-0.0008,0.00075,0.000745));
#1667=CARTESIAN_POINT('',(-0.0008,0.00115,0.000745));
#1668=CARTESIAN_POINT('',(-0.0008,0.00115,0.00082));
#1669=CARTESIAN_POINT('',(-0.0008,0.00075,0.00082));
#1670=CARTESIAN_POINT('',(-0.0008,0.00075,0.00082));
#1671=CARTESIAN_POINT('',(-0.0008,0.00075,0.000745));
#1672=CARTESIAN_POINT('',(-0.000866225216400102,0.00075,0.00082));
#1673=CARTESIAN_POINT('',(-0.000866225216400102,0.00115,0.00082));
#1674=CARTESIAN_POINT('',(-0.000932450432800202,0.00115,0.00082));
#1675=CARTESIAN_POINT('',(-0.000932450432800202,0.00075,0.00082));
#1676=CARTESIAN_POINT('',(-0.000932450432800202,0.00075,0.00082));
#1677=CARTESIAN_POINT('',(-0.000866225216400102,0.00075,0.00082));
#1678=CARTESIAN_POINT('',(-0.000932450432800202,0.00075,0.000645));
#1679=CARTESIAN_POINT('',(-0.000932450432800202,0.00115,0.000645));
#1680=CARTESIAN_POINT('',(-0.00110678450496626,0.00115,0.000660252254980841));
#1681=CARTESIAN_POINT('',(-0.00110678450496626,0.00075,0.000660252254980841));
#1682=CARTESIAN_POINT('',(-0.00110678450496626,0.00075,0.000660252254980841));
#1683=CARTESIAN_POINT('',(-0.000932450432800202,0.00075,0.000645));
#1684=CARTESIAN_POINT('',(-0.00112810685484001,0.00075,0.000416536680706075));
#1685=CARTESIAN_POINT('',(-0.00112810685484001,0.00115,0.000416536680706075));
#1686=CARTESIAN_POINT('',(-0.00114942920471376,0.00115,0.000172821106431309));
#1687=CARTESIAN_POINT('',(-0.00114942920471376,0.00075,0.000172821106431309));
#1688=CARTESIAN_POINT('',(-0.00114942920471376,0.00075,0.000172821106431309));
#1689=CARTESIAN_POINT('',(-0.00112810685484001,0.00075,0.000416536680706075));
#1690=CARTESIAN_POINT('',(-0.00117433407216606,0.00075,0.000175));
#1691=CARTESIAN_POINT('',(-0.00117433407216606,0.00115,0.000175));
#1692=CARTESIAN_POINT('',(-0.00117433407216606,0.00115,0.00015));
#1693=CARTESIAN_POINT('',(-0.00117433407216606,0.00075,0.00015));
#1694=CARTESIAN_POINT('',(-0.00117433407216606,0.00075,0.00015));
#1695=CARTESIAN_POINT('',(-0.00117433407216606,0.00075,0.000175));
#1696=CARTESIAN_POINT('',(-0.00128716703608303,0.00075,0.00015));
#1697=CARTESIAN_POINT('',(-0.00128716703608303,0.00115,0.00015));
#1698=CARTESIAN_POINT('',(-0.00128716703608303,0.00075,0.00015));
#1699=CARTESIAN_POINT('',(0.,0.00075,0.00041));
#1700=CARTESIAN_POINT('',(0.,0.00115,0.00041));
#1701=CARTESIAN_POINT('',(0.,0.,0.));
#1702=CARTESIAN_POINT('',(0.0014,-0.0002,7.5E-5));
#1703=CARTESIAN_POINT('',(0.0014,0.0002,7.5E-5));
#1704=CARTESIAN_POINT('',(0.0014,0.0002,-4.47836777821581E-20));
#1705=CARTESIAN_POINT('',(0.0014,0.0002,0.00015));
#1706=CARTESIAN_POINT('',(0.0014,-0.0002,0.00015));
#1707=CARTESIAN_POINT('',(0.0014,-0.0002,0.00015));
#1708=CARTESIAN_POINT('',(0.0014,-0.0002,7.5E-5));
#1709=CARTESIAN_POINT('',(0.0014,-0.0002,-4.47836777821581E-20));
#1710=CARTESIAN_POINT('',(0.0014,-0.0002,-4.47836777821581E-20));
#1711=CARTESIAN_POINT('',(0.00128716703608303,-0.0002,-3.09656249722353E-20));
#1712=CARTESIAN_POINT('',(0.00128716703608303,0.0002,-3.09656249722353E-20));
#1713=CARTESIAN_POINT('',(0.00117433407216606,0.0002,-1.0842021724855E-19));
#1714=CARTESIAN_POINT('',(0.00128716703608303,-0.0002,-3.09656249722353E-20));
#1715=CARTESIAN_POINT('',(0.00117433407216606,-0.0002,-1.0842021724855E-19));
#1716=CARTESIAN_POINT('',(0.00117433407216606,-0.0002,-1.0842021724855E-19));
#1717=CARTESIAN_POINT('',(0.00117433407216606,-0.0002,0.000175));
#1718=CARTESIAN_POINT('',(0.00117433407216606,0.0002,0.000175));
#1719=CARTESIAN_POINT('',(0.001,0.0002,0.000159747745019159));
#1720=CARTESIAN_POINT('',(0.00117433407216606,-0.0002,0.000175));
#1721=CARTESIAN_POINT('',(0.001,-0.0002,0.000159747745019159));
#1722=CARTESIAN_POINT('',(0.001,-0.0002,0.000159747745019159));
#1723=CARTESIAN_POINT('',(0.000978677650126248,-0.0002,0.000403463319293926));
#1724=CARTESIAN_POINT('',(0.000978677650126248,0.0002,0.000403463319293926));
#1725=CARTESIAN_POINT('',(0.000957355300252496,0.0002,0.000647178893568692));
#1726=CARTESIAN_POINT('',(0.000978677650126248,-0.0002,0.000403463319293926));
#1727=CARTESIAN_POINT('',(0.000957355300252496,-0.0002,0.000647178893568692));
#1728=CARTESIAN_POINT('',(0.000957355300252496,-0.0002,0.000647178893568692));
#1729=CARTESIAN_POINT('',(0.000932450432800202,-0.0002,0.000645));
#1730=CARTESIAN_POINT('',(0.000932450432800202,0.0002,0.000645));
#1731=CARTESIAN_POINT('',(0.000932450432800202,0.0002,0.00067));
#1732=CARTESIAN_POINT('',(0.000932450432800202,-0.0002,0.000645));
#1733=CARTESIAN_POINT('',(0.000932450432800202,-0.0002,0.00067));
#1734=CARTESIAN_POINT('',(0.000932450432800202,-0.0002,0.00067));
#1735=CARTESIAN_POINT('',(0.000866225216400102,-0.0002,0.00067));
#1736=CARTESIAN_POINT('',(0.000866225216400102,0.0002,0.00067));
#1737=CARTESIAN_POINT('',(0.0008,0.0002,0.00067));
#1738=CARTESIAN_POINT('',(0.000866225216400102,-0.0002,0.00067));
#1739=CARTESIAN_POINT('',(0.0008,-0.0002,0.00067));
#1740=CARTESIAN_POINT('',(0.0008,-0.0002,0.00067));
#1741=CARTESIAN_POINT('',(0.0008,-0.0002,0.000745));
#1742=CARTESIAN_POINT('',(0.0008,0.0002,0.000745));
#1743=CARTESIAN_POINT('',(0.0008,0.0002,0.00082));
#1744=CARTESIAN_POINT('',(0.0008,-0.0002,0.000745));
#1745=CARTESIAN_POINT('',(0.0008,-0.0002,0.00082));
#1746=CARTESIAN_POINT('',(0.0008,-0.0002,0.00082));
#1747=CARTESIAN_POINT('',(0.000866225216400102,-0.0002,0.00082));
#1748=CARTESIAN_POINT('',(0.000866225216400102,0.0002,0.00082));
#1749=CARTESIAN_POINT('',(0.000932450432800202,0.0002,0.00082));
#1750=CARTESIAN_POINT('',(0.000866225216400102,-0.0002,0.00082));
#1751=CARTESIAN_POINT('',(0.000932450432800202,-0.0002,0.00082));
#1752=CARTESIAN_POINT('',(0.000932450432800202,-0.0002,0.00082));
#1753=CARTESIAN_POINT('',(0.000932450432800202,-0.0002,0.000645));
#1754=CARTESIAN_POINT('',(0.000932450432800202,0.0002,0.000645));
#1755=CARTESIAN_POINT('',(0.00110678450496626,0.0002,0.000660252254980841));
#1756=CARTESIAN_POINT('',(0.000932450432800202,-0.0002,0.000645));
#1757=CARTESIAN_POINT('',(0.00110678450496626,-0.0002,0.000660252254980841));
#1758=CARTESIAN_POINT('',(0.00110678450496626,-0.0002,0.000660252254980841));
#1759=CARTESIAN_POINT('',(0.00112810685484001,-0.0002,0.000416536680706075));
#1760=CARTESIAN_POINT('',(0.00112810685484001,0.0002,0.000416536680706075));
#1761=CARTESIAN_POINT('',(0.00114942920471376,0.0002,0.000172821106431309));
#1762=CARTESIAN_POINT('',(0.00112810685484001,-0.0002,0.000416536680706075));
#1763=CARTESIAN_POINT('',(0.00114942920471376,-0.0002,0.000172821106431309));
#1764=CARTESIAN_POINT('',(0.00114942920471376,-0.0002,0.000172821106431309));
#1765=CARTESIAN_POINT('',(0.00117433407216606,-0.0002,0.000175));
#1766=CARTESIAN_POINT('',(0.00117433407216606,0.0002,0.000175));
#1767=CARTESIAN_POINT('',(0.00117433407216606,0.0002,0.00015));
#1768=CARTESIAN_POINT('',(0.00117433407216606,-0.0002,0.000175));
#1769=CARTESIAN_POINT('',(0.00117433407216606,-0.0002,0.00015));
#1770=CARTESIAN_POINT('',(0.00117433407216606,-0.0002,0.00015));
#1771=CARTESIAN_POINT('',(0.00128716703608303,-0.0002,0.00015));
#1772=CARTESIAN_POINT('',(0.00128716703608303,0.0002,0.00015));
#1773=CARTESIAN_POINT('',(0.00128716703608303,-0.0002,0.00015));
#1774=CARTESIAN_POINT('',(0.,-0.0002,0.00041));
#1775=CARTESIAN_POINT('',(0.,0.0002,0.00041));
#1776=CARTESIAN_POINT('',(0.,0.,0.));
#1777=CARTESIAN_POINT('',(0.000366497873665393,-0.00145,0.0012));
#1778=CARTESIAN_POINT('',(-0.000432995747330786,0.00108299574733078,0.0012));
#1779=CARTESIAN_POINT('',(-0.000582995747330786,0.00108299574733078,0.0012));
#1780=CARTESIAN_POINT('',(-0.000432995747330786,0.00108299574733078,0.001202));
#1781=CARTESIAN_POINT('',(-0.000432995747330786,0.00108299574733078,0.0011));
#1782=CARTESIAN_POINT('',(-0.000282995747330786,0.00108299574733078,0.0011));
#1783=CARTESIAN_POINT('',(-8.67361737988404E-19,0.,0.0011));
#1784=MECHANICAL_DESIGN_GEOMETRIC_PRESENTATION_REPRESENTATION('',(#1039),
#1789);
#1785=MECHANICAL_DESIGN_GEOMETRIC_PRESENTATION_REPRESENTATION('',(#1040),
#1790);
#1786=MECHANICAL_DESIGN_GEOMETRIC_PRESENTATION_REPRESENTATION('',(#1041),
#1791);
#1787=MECHANICAL_DESIGN_GEOMETRIC_PRESENTATION_REPRESENTATION('',(#1042),
#1792);
#1788=MECHANICAL_DESIGN_GEOMETRIC_PRESENTATION_REPRESENTATION('',(#1043),
#1793);
#1789=(
GEOMETRIC_REPRESENTATION_CONTEXT(3)
GLOBAL_UNCERTAINTY_ASSIGNED_CONTEXT((#1794))
GLOBAL_UNIT_ASSIGNED_CONTEXT((#1809,#1804,#1799))
REPRESENTATION_CONTEXT('Part 1','TOP_LEVEL_ASSEMBLY_PART')
);
#1790=(
GEOMETRIC_REPRESENTATION_CONTEXT(3)
GLOBAL_UNCERTAINTY_ASSIGNED_CONTEXT((#1795))
GLOBAL_UNIT_ASSIGNED_CONTEXT((#1810,#1805,#1800))
REPRESENTATION_CONTEXT('Part 3','TOP_LEVEL_ASSEMBLY_PART')
);
#1791=(
GEOMETRIC_REPRESENTATION_CONTEXT(3)
GLOBAL_UNCERTAINTY_ASSIGNED_CONTEXT((#1796))
GLOBAL_UNIT_ASSIGNED_CONTEXT((#1811,#1806,#1801))
REPRESENTATION_CONTEXT('Part 4','TOP_LEVEL_ASSEMBLY_PART')
);
#1792=(
GEOMETRIC_REPRESENTATION_CONTEXT(3)
GLOBAL_UNCERTAINTY_ASSIGNED_CONTEXT((#1797))
GLOBAL_UNIT_ASSIGNED_CONTEXT((#1812,#1807,#1802))
REPRESENTATION_CONTEXT('Part 8','TOP_LEVEL_ASSEMBLY_PART')
);
#1793=(
GEOMETRIC_REPRESENTATION_CONTEXT(3)
GLOBAL_UNCERTAINTY_ASSIGNED_CONTEXT((#1798))
GLOBAL_UNIT_ASSIGNED_CONTEXT((#1813,#1808,#1803))
REPRESENTATION_CONTEXT('Part 9','TOP_LEVEL_ASSEMBLY_PART')
);
#1794=UNCERTAINTY_MEASURE_WITH_UNIT(LENGTH_MEASURE(1.E-8),#1809,
'DISTANCE_ACCURACY_VALUE','Maximum Tolerance applied to model');
#1795=UNCERTAINTY_MEASURE_WITH_UNIT(LENGTH_MEASURE(1.E-8),#1810,
'DISTANCE_ACCURACY_VALUE','Maximum Tolerance applied to model');
#1796=UNCERTAINTY_MEASURE_WITH_UNIT(LENGTH_MEASURE(1.E-8),#1811,
'DISTANCE_ACCURACY_VALUE','Maximum Tolerance applied to model');
#1797=UNCERTAINTY_MEASURE_WITH_UNIT(LENGTH_MEASURE(1.E-8),#1812,
'DISTANCE_ACCURACY_VALUE','Maximum Tolerance applied to model');
#1798=UNCERTAINTY_MEASURE_WITH_UNIT(LENGTH_MEASURE(1.E-8),#1813,
'DISTANCE_ACCURACY_VALUE','Maximum Tolerance applied to model');
#1799=(
NAMED_UNIT(*)
SI_UNIT($,.STERADIAN.)
SOLID_ANGLE_UNIT()
);
#1800=(
NAMED_UNIT(*)
SI_UNIT($,.STERADIAN.)
SOLID_ANGLE_UNIT()
);
#1801=(
NAMED_UNIT(*)
SI_UNIT($,.STERADIAN.)
SOLID_ANGLE_UNIT()
);
#1802=(
NAMED_UNIT(*)
SI_UNIT($,.STERADIAN.)
SOLID_ANGLE_UNIT()
);
#1803=(
NAMED_UNIT(*)
SI_UNIT($,.STERADIAN.)
SOLID_ANGLE_UNIT()
);
#1804=(
NAMED_UNIT(*)
PLANE_ANGLE_UNIT()
SI_UNIT($,.RADIAN.)
);
#1805=(
NAMED_UNIT(*)
PLANE_ANGLE_UNIT()
SI_UNIT($,.RADIAN.)
);
#1806=(
NAMED_UNIT(*)
PLANE_ANGLE_UNIT()
SI_UNIT($,.RADIAN.)
);
#1807=(
NAMED_UNIT(*)
PLANE_ANGLE_UNIT()
SI_UNIT($,.RADIAN.)
);
#1808=(
NAMED_UNIT(*)
PLANE_ANGLE_UNIT()
SI_UNIT($,.RADIAN.)
);
#1809=(
LENGTH_UNIT()
NAMED_UNIT(*)
SI_UNIT($,.METRE.)
);
#1810=(
LENGTH_UNIT()
NAMED_UNIT(*)
SI_UNIT($,.METRE.)
);
#1811=(
LENGTH_UNIT()
NAMED_UNIT(*)
SI_UNIT($,.METRE.)
);
#1812=(
LENGTH_UNIT()
NAMED_UNIT(*)
SI_UNIT($,.METRE.)
);
#1813=(
LENGTH_UNIT()
NAMED_UNIT(*)
SI_UNIT($,.METRE.)
);
#1814=PRODUCT_DEFINITION_SHAPE('','',#1819);
#1815=PRODUCT_DEFINITION_SHAPE('','',#1820);
#1816=PRODUCT_DEFINITION_SHAPE('','',#1821);
#1817=PRODUCT_DEFINITION_SHAPE('','',#1822);
#1818=PRODUCT_DEFINITION_SHAPE('','',#1823);
#1819=PRODUCT_DEFINITION('','',#1829,#1824);
#1820=PRODUCT_DEFINITION('','',#1830,#1825);
#1821=PRODUCT_DEFINITION('','',#1831,#1826);
#1822=PRODUCT_DEFINITION('','',#1832,#1827);
#1823=PRODUCT_DEFINITION('','',#1833,#1828);
#1824=PRODUCT_DEFINITION_CONTEXT('',#1859,'design');
#1825=PRODUCT_DEFINITION_CONTEXT('',#1860,'design');
#1826=PRODUCT_DEFINITION_CONTEXT('',#1861,'design');
#1827=PRODUCT_DEFINITION_CONTEXT('',#1862,'design');
#1828=PRODUCT_DEFINITION_CONTEXT('',#1863,'design');
#1829=PRODUCT_DEFINITION_FORMATION_WITH_SPECIFIED_SOURCE('','',#1839,
 .NOT_KNOWN.);
#1830=PRODUCT_DEFINITION_FORMATION_WITH_SPECIFIED_SOURCE('','',#1840,
 .NOT_KNOWN.);
#1831=PRODUCT_DEFINITION_FORMATION_WITH_SPECIFIED_SOURCE('','',#1841,
 .NOT_KNOWN.);
#1832=PRODUCT_DEFINITION_FORMATION_WITH_SPECIFIED_SOURCE('','',#1842,
 .NOT_KNOWN.);
#1833=PRODUCT_DEFINITION_FORMATION_WITH_SPECIFIED_SOURCE('','',#1843,
 .NOT_KNOWN.);
#1834=PRODUCT_RELATED_PRODUCT_CATEGORY('','',(#1839));
#1835=PRODUCT_RELATED_PRODUCT_CATEGORY('','',(#1840));
#1836=PRODUCT_RELATED_PRODUCT_CATEGORY('','',(#1841));
#1837=PRODUCT_RELATED_PRODUCT_CATEGORY('','',(#1842));
#1838=PRODUCT_RELATED_PRODUCT_CATEGORY('','',(#1843));
#1839=PRODUCT('Part 1','Part 1','Part 1',(#1849));
#1840=PRODUCT('Part 3','Part 3','Part 3',(#1850));
#1841=PRODUCT('Part 4','Part 4','Part 4',(#1851));
#1842=PRODUCT('Part 8','Part 8','Part 8',(#1852));
#1843=PRODUCT('Part 9','Part 9','Part 9',(#1853));
#1844=PRODUCT_CATEGORY('','');
#1845=PRODUCT_CATEGORY('','');
#1846=PRODUCT_CATEGORY('','');
#1847=PRODUCT_CATEGORY('','');
#1848=PRODUCT_CATEGORY('','');
#1849=PRODUCT_CONTEXT('',#1859,'mechanical');
#1850=PRODUCT_CONTEXT('',#1860,'mechanical');
#1851=PRODUCT_CONTEXT('',#1861,'mechanical');
#1852=PRODUCT_CONTEXT('',#1862,'mechanical');
#1853=PRODUCT_CONTEXT('',#1863,'mechanical');
#1854=APPLICATION_PROTOCOL_DEFINITION('international standard',
'ap242_managed_model_based_3d_engineering',2020,#1859);
#1855=APPLICATION_PROTOCOL_DEFINITION('international standard',
'ap242_managed_model_based_3d_engineering',2020,#1860);
#1856=APPLICATION_PROTOCOL_DEFINITION('international standard',
'ap242_managed_model_based_3d_engineering',2020,#1861);
#1857=APPLICATION_PROTOCOL_DEFINITION('international standard',
'ap242_managed_model_based_3d_engineering',2020,#1862);
#1858=APPLICATION_PROTOCOL_DEFINITION('international standard',
'ap242_managed_model_based_3d_engineering',2020,#1863);
#1859=APPLICATION_CONTEXT('managed model based 3d engineering');
#1860=APPLICATION_CONTEXT('managed model based 3d engineering');
#1861=APPLICATION_CONTEXT('managed model based 3d engineering');
#1862=APPLICATION_CONTEXT('managed model based 3d engineering');
#1863=APPLICATION_CONTEXT('managed model based 3d engineering');
ENDSEC;
END-ISO-10303-21;
