ISO-10303-21;
HEADER;
/*Generated by software containing ST-Developer
 * from STEP Tools, Inc. (www.steptools.com) 
 */
/*OPTION: using custom renumber hook */
/*description */
/*implementation_level */
FILE_DESCRIPTION(('STEP AP242 Edition 2','STEP AP242 Edition 2''CAx-IF Rec.Pracs.---Representation and Presentation of Product Manufa
cturing Information (PMI)---4.0---2014-10-13','STEP AP242 Edition 2''CAx-IF Rec.Pracs.---Representation and Presentation of Product Manufa
cturing Information (PMI)---4.0---2014-10-13''CAx-IF Rec.Pracs.---3D Tessellated Geometry---0.4---2014-09-14','STEP AP242 Edition 2''CAx-IF Rec.Pracs.---Representation and Presentation of Product Manufa
cturing Information (PMI)---4.0---2014-10-13''CAx-IF Rec.Pracs.---3D Tessellated Geometry---0.4---2014-09-14''2;1','STEP AP242 Edition 2''CAx-IF Rec.Pracs.---Representation and Presentation of Product Manufa
cturing Information (PMI)---4.0---2014-10-13''CAx-IF Rec.Pracs.---3D Tessellated Geometry---0.4---2014-09-14''2;1''CAx-IF Rec.Pracs.---User Defined Attributes---1.5---2016-08-15'),'2;1');
/*name */
/*time_stamp */
/*author */
/*organization */
/*preprocessor_version */
/*originating_system */
/*authorisation */
FILE_NAME('/vol/tmp/translate-1327392864940020120/2-Pin-Header.step','2026-03-04T12:52:09',(''),(''),'ST-DEVELOPER v20','ONSHAPE BY PTC INC, 1.211','  ');
FILE_SCHEMA(('AP242_MANAGED_MODEL_BASED_3D_ENGINEERING_MIM_LF { 1 0 10303 442 3 1 4 }'));
ENDSEC;
DATA;
#10=SHAPE_REPRESENTATION_RELATIONSHIP('','',#1484,#13);
#11=SHAPE_REPRESENTATION_RELATIONSHIP('','',#1485,#14);
#12=SHAPE_REPRESENTATION_RELATIONSHIP('','',#1486,#15);
#13=ADVANCED_BREP_SHAPE_REPRESENTATION('',(#1478),#2342);
#14=ADVANCED_BREP_SHAPE_REPRESENTATION('',(#1479),#2343);
#15=ADVANCED_BREP_SHAPE_REPRESENTATION('',(#1480),#2344);
#16=ORIENTED_EDGE('',*,*,#408,.F.);
#17=ORIENTED_EDGE('',*,*,#409,.F.);
#18=ORIENTED_EDGE('',*,*,#410,.T.);
#19=ORIENTED_EDGE('',*,*,#411,.F.);
#20=ORIENTED_EDGE('',*,*,#412,.F.);
#21=ORIENTED_EDGE('',*,*,#413,.F.);
#22=ORIENTED_EDGE('',*,*,#408,.T.);
#23=ORIENTED_EDGE('',*,*,#414,.F.);
#24=ORIENTED_EDGE('',*,*,#415,.F.);
#25=ORIENTED_EDGE('',*,*,#416,.F.);
#26=ORIENTED_EDGE('',*,*,#412,.T.);
#27=ORIENTED_EDGE('',*,*,#417,.F.);
#28=ORIENTED_EDGE('',*,*,#410,.F.);
#29=ORIENTED_EDGE('',*,*,#418,.F.);
#30=ORIENTED_EDGE('',*,*,#415,.T.);
#31=ORIENTED_EDGE('',*,*,#419,.F.);
#32=ORIENTED_EDGE('',*,*,#420,.F.);
#33=ORIENTED_EDGE('',*,*,#421,.F.);
#34=ORIENTED_EDGE('',*,*,#422,.F.);
#35=ORIENTED_EDGE('',*,*,#423,.F.);
#36=ORIENTED_EDGE('',*,*,#424,.F.);
#37=ORIENTED_EDGE('',*,*,#425,.F.);
#38=ORIENTED_EDGE('',*,*,#426,.F.);
#39=ORIENTED_EDGE('',*,*,#427,.F.);
#40=ORIENTED_EDGE('',*,*,#428,.T.);
#41=ORIENTED_EDGE('',*,*,#414,.T.);
#42=ORIENTED_EDGE('',*,*,#429,.T.);
#43=ORIENTED_EDGE('',*,*,#425,.T.);
#44=ORIENTED_EDGE('',*,*,#429,.F.);
#45=ORIENTED_EDGE('',*,*,#411,.T.);
#46=ORIENTED_EDGE('',*,*,#430,.T.);
#47=ORIENTED_EDGE('',*,*,#426,.T.);
#48=ORIENTED_EDGE('',*,*,#428,.F.);
#49=ORIENTED_EDGE('',*,*,#424,.T.);
#50=ORIENTED_EDGE('',*,*,#431,.T.);
#51=ORIENTED_EDGE('',*,*,#417,.T.);
#52=ORIENTED_EDGE('',*,*,#430,.F.);
#53=ORIENTED_EDGE('',*,*,#419,.T.);
#54=ORIENTED_EDGE('',*,*,#431,.F.);
#55=ORIENTED_EDGE('',*,*,#427,.T.);
#56=ORIENTED_EDGE('',*,*,#432,.T.);
#57=ORIENTED_EDGE('',*,*,#421,.T.);
#58=ORIENTED_EDGE('',*,*,#433,.T.);
#59=ORIENTED_EDGE('',*,*,#413,.T.);
#60=ORIENTED_EDGE('',*,*,#433,.F.);
#61=ORIENTED_EDGE('',*,*,#420,.T.);
#62=ORIENTED_EDGE('',*,*,#434,.T.);
#63=ORIENTED_EDGE('',*,*,#409,.T.);
#64=ORIENTED_EDGE('',*,*,#432,.F.);
#65=ORIENTED_EDGE('',*,*,#416,.T.);
#66=ORIENTED_EDGE('',*,*,#435,.T.);
#67=ORIENTED_EDGE('',*,*,#422,.T.);
#68=ORIENTED_EDGE('',*,*,#434,.F.);
#69=ORIENTED_EDGE('',*,*,#423,.T.);
#70=ORIENTED_EDGE('',*,*,#435,.F.);
#71=ORIENTED_EDGE('',*,*,#418,.T.);
#72=ORIENTED_EDGE('',*,*,#436,.F.);
#73=ORIENTED_EDGE('',*,*,#437,.T.);
#74=ORIENTED_EDGE('',*,*,#438,.T.);
#75=ORIENTED_EDGE('',*,*,#439,.F.);
#76=ORIENTED_EDGE('',*,*,#440,.F.);
#77=ORIENTED_EDGE('',*,*,#441,.T.);
#78=ORIENTED_EDGE('',*,*,#442,.T.);
#79=ORIENTED_EDGE('',*,*,#443,.F.);
#80=ORIENTED_EDGE('',*,*,#444,.F.);
#81=ORIENTED_EDGE('',*,*,#445,.T.);
#82=ORIENTED_EDGE('',*,*,#446,.T.);
#83=ORIENTED_EDGE('',*,*,#447,.F.);
#84=ORIENTED_EDGE('',*,*,#448,.F.);
#85=ORIENTED_EDGE('',*,*,#449,.T.);
#86=ORIENTED_EDGE('',*,*,#450,.F.);
#87=ORIENTED_EDGE('',*,*,#451,.F.);
#88=ORIENTED_EDGE('',*,*,#452,.T.);
#89=ORIENTED_EDGE('',*,*,#453,.F.);
#90=ORIENTED_EDGE('',*,*,#454,.F.);
#91=ORIENTED_EDGE('',*,*,#455,.T.);
#92=ORIENTED_EDGE('',*,*,#456,.F.);
#93=ORIENTED_EDGE('',*,*,#457,.T.);
#94=ORIENTED_EDGE('',*,*,#458,.T.);
#95=ORIENTED_EDGE('',*,*,#459,.F.);
#96=ORIENTED_EDGE('',*,*,#460,.F.);
#97=ORIENTED_EDGE('',*,*,#461,.T.);
#98=ORIENTED_EDGE('',*,*,#462,.T.);
#99=ORIENTED_EDGE('',*,*,#463,.T.);
#100=ORIENTED_EDGE('',*,*,#461,.F.);
#101=ORIENTED_EDGE('',*,*,#464,.T.);
#102=ORIENTED_EDGE('',*,*,#436,.T.);
#103=ORIENTED_EDGE('',*,*,#465,.T.);
#104=ORIENTED_EDGE('',*,*,#466,.F.);
#105=ORIENTED_EDGE('',*,*,#454,.T.);
#106=ORIENTED_EDGE('',*,*,#467,.T.);
#107=ORIENTED_EDGE('',*,*,#468,.T.);
#108=ORIENTED_EDGE('',*,*,#469,.F.);
#109=ORIENTED_EDGE('',*,*,#470,.T.);
#110=ORIENTED_EDGE('',*,*,#441,.F.);
#111=ORIENTED_EDGE('',*,*,#471,.F.);
#112=ORIENTED_EDGE('',*,*,#456,.T.);
#113=ORIENTED_EDGE('',*,*,#440,.T.);
#114=ORIENTED_EDGE('',*,*,#472,.F.);
#115=ORIENTED_EDGE('',*,*,#457,.F.);
#116=ORIENTED_EDGE('',*,*,#471,.T.);
#117=ORIENTED_EDGE('',*,*,#443,.T.);
#118=ORIENTED_EDGE('',*,*,#473,.F.);
#119=ORIENTED_EDGE('',*,*,#458,.F.);
#120=ORIENTED_EDGE('',*,*,#472,.T.);
#121=ORIENTED_EDGE('',*,*,#473,.T.);
#122=ORIENTED_EDGE('',*,*,#442,.F.);
#123=ORIENTED_EDGE('',*,*,#470,.F.);
#124=ORIENTED_EDGE('',*,*,#459,.T.);
#125=ORIENTED_EDGE('',*,*,#474,.F.);
#126=ORIENTED_EDGE('',*,*,#475,.F.);
#127=ORIENTED_EDGE('',*,*,#468,.F.);
#128=ORIENTED_EDGE('',*,*,#476,.T.);
#129=ORIENTED_EDGE('',*,*,#477,.F.);
#130=ORIENTED_EDGE('',*,*,#465,.F.);
#131=ORIENTED_EDGE('',*,*,#439,.T.);
#132=ORIENTED_EDGE('',*,*,#478,.T.);
#133=ORIENTED_EDGE('',*,*,#479,.F.);
#134=ORIENTED_EDGE('',*,*,#480,.T.);
#135=ORIENTED_EDGE('',*,*,#481,.F.);
#136=ORIENTED_EDGE('',*,*,#482,.T.);
#137=ORIENTED_EDGE('',*,*,#451,.T.);
#138=ORIENTED_EDGE('',*,*,#483,.T.);
#139=ORIENTED_EDGE('',*,*,#484,.T.);
#140=ORIENTED_EDGE('',*,*,#485,.F.);
#141=ORIENTED_EDGE('',*,*,#462,.F.);
#142=ORIENTED_EDGE('',*,*,#469,.T.);
#143=ORIENTED_EDGE('',*,*,#475,.T.);
#144=ORIENTED_EDGE('',*,*,#486,.F.);
#145=ORIENTED_EDGE('',*,*,#487,.F.);
#146=ORIENTED_EDGE('',*,*,#463,.F.);
#147=ORIENTED_EDGE('',*,*,#485,.T.);
#148=ORIENTED_EDGE('',*,*,#488,.T.);
#149=ORIENTED_EDGE('',*,*,#489,.F.);
#150=ORIENTED_EDGE('',*,*,#448,.T.);
#151=ORIENTED_EDGE('',*,*,#490,.T.);
#152=ORIENTED_EDGE('',*,*,#481,.T.);
#153=ORIENTED_EDGE('',*,*,#491,.F.);
#154=ORIENTED_EDGE('',*,*,#484,.F.);
#155=ORIENTED_EDGE('',*,*,#492,.T.);
#156=ORIENTED_EDGE('',*,*,#493,.F.);
#157=ORIENTED_EDGE('',*,*,#488,.F.);
#158=ORIENTED_EDGE('',*,*,#492,.F.);
#159=ORIENTED_EDGE('',*,*,#483,.F.);
#160=ORIENTED_EDGE('',*,*,#450,.T.);
#161=ORIENTED_EDGE('',*,*,#494,.T.);
#162=ORIENTED_EDGE('',*,*,#474,.T.);
#163=ORIENTED_EDGE('',*,*,#495,.F.);
#164=ORIENTED_EDGE('',*,*,#452,.F.);
#165=ORIENTED_EDGE('',*,*,#486,.T.);
#166=ORIENTED_EDGE('',*,*,#476,.F.);
#167=ORIENTED_EDGE('',*,*,#467,.F.);
#168=ORIENTED_EDGE('',*,*,#453,.T.);
#169=ORIENTED_EDGE('',*,*,#495,.T.);
#170=ORIENTED_EDGE('',*,*,#477,.T.);
#171=ORIENTED_EDGE('',*,*,#496,.F.);
#172=ORIENTED_EDGE('',*,*,#455,.F.);
#173=ORIENTED_EDGE('',*,*,#466,.T.);
#174=ORIENTED_EDGE('',*,*,#478,.F.);
#175=ORIENTED_EDGE('',*,*,#438,.F.);
#176=ORIENTED_EDGE('',*,*,#444,.T.);
#177=ORIENTED_EDGE('',*,*,#496,.T.);
#178=ORIENTED_EDGE('',*,*,#497,.F.);
#179=ORIENTED_EDGE('',*,*,#498,.T.);
#180=ORIENTED_EDGE('',*,*,#491,.T.);
#181=ORIENTED_EDGE('',*,*,#480,.F.);
#182=ORIENTED_EDGE('',*,*,#479,.T.);
#183=ORIENTED_EDGE('',*,*,#499,.F.);
#184=ORIENTED_EDGE('',*,*,#446,.F.);
#185=ORIENTED_EDGE('',*,*,#497,.T.);
#186=ORIENTED_EDGE('',*,*,#482,.F.);
#187=ORIENTED_EDGE('',*,*,#490,.F.);
#188=ORIENTED_EDGE('',*,*,#447,.T.);
#189=ORIENTED_EDGE('',*,*,#499,.T.);
#190=ORIENTED_EDGE('',*,*,#493,.T.);
#191=ORIENTED_EDGE('',*,*,#494,.F.);
#192=ORIENTED_EDGE('',*,*,#449,.F.);
#193=ORIENTED_EDGE('',*,*,#489,.T.);
#194=ORIENTED_EDGE('',*,*,#500,.F.);
#195=ORIENTED_EDGE('',*,*,#501,.F.);
#196=ORIENTED_EDGE('',*,*,#502,.F.);
#197=ORIENTED_EDGE('',*,*,#487,.T.);
#198=ORIENTED_EDGE('',*,*,#502,.T.);
#199=ORIENTED_EDGE('',*,*,#503,.F.);
#200=ORIENTED_EDGE('',*,*,#504,.F.);
#201=ORIENTED_EDGE('',*,*,#460,.T.);
#202=ORIENTED_EDGE('',*,*,#445,.F.);
#203=ORIENTED_EDGE('',*,*,#437,.F.);
#204=ORIENTED_EDGE('',*,*,#505,.F.);
#205=ORIENTED_EDGE('',*,*,#506,.T.);
#206=ORIENTED_EDGE('',*,*,#500,.T.);
#207=ORIENTED_EDGE('',*,*,#498,.F.);
#208=ORIENTED_EDGE('',*,*,#504,.T.);
#209=ORIENTED_EDGE('',*,*,#507,.T.);
#210=ORIENTED_EDGE('',*,*,#505,.T.);
#211=ORIENTED_EDGE('',*,*,#464,.F.);
#212=ORIENTED_EDGE('',*,*,#508,.T.);
#213=ORIENTED_EDGE('',*,*,#509,.T.);
#214=ORIENTED_EDGE('',*,*,#510,.F.);
#215=ORIENTED_EDGE('',*,*,#511,.F.);
#216=ORIENTED_EDGE('',*,*,#512,.T.);
#217=ORIENTED_EDGE('',*,*,#513,.T.);
#218=ORIENTED_EDGE('',*,*,#514,.F.);
#219=ORIENTED_EDGE('',*,*,#515,.F.);
#220=ORIENTED_EDGE('',*,*,#516,.T.);
#221=ORIENTED_EDGE('',*,*,#517,.F.);
#222=ORIENTED_EDGE('',*,*,#518,.T.);
#223=ORIENTED_EDGE('',*,*,#519,.T.);
#224=ORIENTED_EDGE('',*,*,#520,.F.);
#225=ORIENTED_EDGE('',*,*,#521,.T.);
#226=ORIENTED_EDGE('',*,*,#522,.T.);
#227=ORIENTED_EDGE('',*,*,#523,.F.);
#228=ORIENTED_EDGE('',*,*,#524,.T.);
#229=ORIENTED_EDGE('',*,*,#525,.T.);
#230=ORIENTED_EDGE('',*,*,#526,.F.);
#231=ORIENTED_EDGE('',*,*,#527,.F.);
#232=ORIENTED_EDGE('',*,*,#528,.T.);
#233=ORIENTED_EDGE('',*,*,#529,.T.);
#234=ORIENTED_EDGE('',*,*,#530,.F.);
#235=ORIENTED_EDGE('',*,*,#531,.F.);
#236=ORIENTED_EDGE('',*,*,#532,.T.);
#237=ORIENTED_EDGE('',*,*,#533,.F.);
#238=ORIENTED_EDGE('',*,*,#534,.F.);
#239=ORIENTED_EDGE('',*,*,#535,.F.);
#240=ORIENTED_EDGE('',*,*,#535,.T.);
#241=ORIENTED_EDGE('',*,*,#536,.T.);
#242=ORIENTED_EDGE('',*,*,#537,.F.);
#243=ORIENTED_EDGE('',*,*,#538,.F.);
#244=ORIENTED_EDGE('',*,*,#518,.F.);
#245=ORIENTED_EDGE('',*,*,#539,.T.);
#246=ORIENTED_EDGE('',*,*,#540,.F.);
#247=ORIENTED_EDGE('',*,*,#508,.F.);
#248=ORIENTED_EDGE('',*,*,#541,.F.);
#249=ORIENTED_EDGE('',*,*,#542,.F.);
#250=ORIENTED_EDGE('',*,*,#528,.F.);
#251=ORIENTED_EDGE('',*,*,#543,.T.);
#252=ORIENTED_EDGE('',*,*,#515,.T.);
#253=ORIENTED_EDGE('',*,*,#512,.F.);
#254=ORIENTED_EDGE('',*,*,#543,.F.);
#255=ORIENTED_EDGE('',*,*,#531,.T.);
#256=ORIENTED_EDGE('',*,*,#544,.T.);
#257=ORIENTED_EDGE('',*,*,#513,.F.);
#258=ORIENTED_EDGE('',*,*,#544,.F.);
#259=ORIENTED_EDGE('',*,*,#530,.T.);
#260=ORIENTED_EDGE('',*,*,#545,.T.);
#261=ORIENTED_EDGE('',*,*,#545,.F.);
#262=ORIENTED_EDGE('',*,*,#529,.F.);
#263=ORIENTED_EDGE('',*,*,#542,.T.);
#264=ORIENTED_EDGE('',*,*,#514,.T.);
#265=ORIENTED_EDGE('',*,*,#546,.T.);
#266=ORIENTED_EDGE('',*,*,#547,.F.);
#267=ORIENTED_EDGE('',*,*,#537,.T.);
#268=ORIENTED_EDGE('',*,*,#548,.T.);
#269=ORIENTED_EDGE('',*,*,#549,.T.);
#270=ORIENTED_EDGE('',*,*,#550,.F.);
#271=ORIENTED_EDGE('',*,*,#509,.F.);
#272=ORIENTED_EDGE('',*,*,#540,.T.);
#273=ORIENTED_EDGE('',*,*,#551,.T.);
#274=ORIENTED_EDGE('',*,*,#552,.F.);
#275=ORIENTED_EDGE('',*,*,#553,.T.);
#276=ORIENTED_EDGE('',*,*,#554,.F.);
#277=ORIENTED_EDGE('',*,*,#521,.F.);
#278=ORIENTED_EDGE('',*,*,#555,.T.);
#279=ORIENTED_EDGE('',*,*,#548,.F.);
#280=ORIENTED_EDGE('',*,*,#536,.F.);
#281=ORIENTED_EDGE('',*,*,#534,.T.);
#282=ORIENTED_EDGE('',*,*,#556,.T.);
#283=ORIENTED_EDGE('',*,*,#557,.F.);
#284=ORIENTED_EDGE('',*,*,#558,.F.);
#285=ORIENTED_EDGE('',*,*,#559,.T.);
#286=ORIENTED_EDGE('',*,*,#560,.T.);
#287=ORIENTED_EDGE('',*,*,#553,.F.);
#288=ORIENTED_EDGE('',*,*,#561,.F.);
#289=ORIENTED_EDGE('',*,*,#524,.F.);
#290=ORIENTED_EDGE('',*,*,#562,.T.);
#291=ORIENTED_EDGE('',*,*,#563,.F.);
#292=ORIENTED_EDGE('',*,*,#556,.F.);
#293=ORIENTED_EDGE('',*,*,#533,.T.);
#294=ORIENTED_EDGE('',*,*,#557,.T.);
#295=ORIENTED_EDGE('',*,*,#563,.T.);
#296=ORIENTED_EDGE('',*,*,#564,.T.);
#297=ORIENTED_EDGE('',*,*,#565,.F.);
#298=ORIENTED_EDGE('',*,*,#565,.T.);
#299=ORIENTED_EDGE('',*,*,#566,.F.);
#300=ORIENTED_EDGE('',*,*,#522,.F.);
#301=ORIENTED_EDGE('',*,*,#558,.T.);
#302=ORIENTED_EDGE('',*,*,#546,.F.);
#303=ORIENTED_EDGE('',*,*,#555,.F.);
#304=ORIENTED_EDGE('',*,*,#520,.T.);
#305=ORIENTED_EDGE('',*,*,#567,.T.);
#306=ORIENTED_EDGE('',*,*,#547,.T.);
#307=ORIENTED_EDGE('',*,*,#567,.F.);
#308=ORIENTED_EDGE('',*,*,#519,.F.);
#309=ORIENTED_EDGE('',*,*,#538,.T.);
#310=ORIENTED_EDGE('',*,*,#549,.F.);
#311=ORIENTED_EDGE('',*,*,#539,.F.);
#312=ORIENTED_EDGE('',*,*,#517,.T.);
#313=ORIENTED_EDGE('',*,*,#568,.T.);
#314=ORIENTED_EDGE('',*,*,#550,.T.);
#315=ORIENTED_EDGE('',*,*,#568,.F.);
#316=ORIENTED_EDGE('',*,*,#516,.F.);
#317=ORIENTED_EDGE('',*,*,#510,.T.);
#318=ORIENTED_EDGE('',*,*,#569,.T.);
#319=ORIENTED_EDGE('',*,*,#554,.T.);
#320=ORIENTED_EDGE('',*,*,#560,.F.);
#321=ORIENTED_EDGE('',*,*,#570,.F.);
#322=ORIENTED_EDGE('',*,*,#551,.F.);
#323=ORIENTED_EDGE('',*,*,#569,.F.);
#324=ORIENTED_EDGE('',*,*,#526,.T.);
#325=ORIENTED_EDGE('',*,*,#571,.T.);
#326=ORIENTED_EDGE('',*,*,#552,.T.);
#327=ORIENTED_EDGE('',*,*,#571,.F.);
#328=ORIENTED_EDGE('',*,*,#525,.F.);
#329=ORIENTED_EDGE('',*,*,#561,.T.);
#330=ORIENTED_EDGE('',*,*,#564,.F.);
#331=ORIENTED_EDGE('',*,*,#562,.F.);
#332=ORIENTED_EDGE('',*,*,#523,.T.);
#333=ORIENTED_EDGE('',*,*,#566,.T.);
#334=ORIENTED_EDGE('',*,*,#572,.T.);
#335=ORIENTED_EDGE('',*,*,#559,.F.);
#336=ORIENTED_EDGE('',*,*,#573,.T.);
#337=ORIENTED_EDGE('',*,*,#501,.T.);
#338=ORIENTED_EDGE('',*,*,#573,.F.);
#339=ORIENTED_EDGE('',*,*,#532,.F.);
#340=ORIENTED_EDGE('',*,*,#574,.T.);
#341=ORIENTED_EDGE('',*,*,#503,.T.);
#342=ORIENTED_EDGE('',*,*,#527,.T.);
#343=ORIENTED_EDGE('',*,*,#570,.T.);
#344=ORIENTED_EDGE('',*,*,#572,.F.);
#345=ORIENTED_EDGE('',*,*,#506,.F.);
#346=ORIENTED_EDGE('',*,*,#575,.T.);
#347=ORIENTED_EDGE('',*,*,#511,.T.);
#348=ORIENTED_EDGE('',*,*,#574,.F.);
#349=ORIENTED_EDGE('',*,*,#541,.T.);
#350=ORIENTED_EDGE('',*,*,#575,.F.);
#351=ORIENTED_EDGE('',*,*,#507,.F.);
#352=ORIENTED_EDGE('',*,*,#576,.T.);
#353=ORIENTED_EDGE('',*,*,#577,.T.);
#354=ORIENTED_EDGE('',*,*,#578,.F.);
#355=ORIENTED_EDGE('',*,*,#579,.T.);
#356=ORIENTED_EDGE('',*,*,#580,.T.);
#357=ORIENTED_EDGE('',*,*,#581,.T.);
#358=ORIENTED_EDGE('',*,*,#576,.F.);
#359=ORIENTED_EDGE('',*,*,#582,.T.);
#360=ORIENTED_EDGE('',*,*,#583,.T.);
#361=ORIENTED_EDGE('',*,*,#584,.T.);
#362=ORIENTED_EDGE('',*,*,#580,.F.);
#363=ORIENTED_EDGE('',*,*,#585,.T.);
#364=ORIENTED_EDGE('',*,*,#578,.T.);
#365=ORIENTED_EDGE('',*,*,#586,.T.);
#366=ORIENTED_EDGE('',*,*,#583,.F.);
#367=ORIENTED_EDGE('',*,*,#587,.T.);
#368=ORIENTED_EDGE('',*,*,#588,.T.);
#369=ORIENTED_EDGE('',*,*,#589,.T.);
#370=ORIENTED_EDGE('',*,*,#590,.T.);
#371=ORIENTED_EDGE('',*,*,#591,.T.);
#372=ORIENTED_EDGE('',*,*,#592,.T.);
#373=ORIENTED_EDGE('',*,*,#593,.T.);
#374=ORIENTED_EDGE('',*,*,#594,.T.);
#375=ORIENTED_EDGE('',*,*,#595,.T.);
#376=ORIENTED_EDGE('',*,*,#596,.F.);
#377=ORIENTED_EDGE('',*,*,#595,.F.);
#378=ORIENTED_EDGE('',*,*,#597,.F.);
#379=ORIENTED_EDGE('',*,*,#581,.F.);
#380=ORIENTED_EDGE('',*,*,#597,.T.);
#381=ORIENTED_EDGE('',*,*,#594,.F.);
#382=ORIENTED_EDGE('',*,*,#598,.F.);
#383=ORIENTED_EDGE('',*,*,#577,.F.);
#384=ORIENTED_EDGE('',*,*,#596,.T.);
#385=ORIENTED_EDGE('',*,*,#584,.F.);
#386=ORIENTED_EDGE('',*,*,#599,.F.);
#387=ORIENTED_EDGE('',*,*,#592,.F.);
#388=ORIENTED_EDGE('',*,*,#598,.T.);
#389=ORIENTED_EDGE('',*,*,#593,.F.);
#390=ORIENTED_EDGE('',*,*,#599,.T.);
#391=ORIENTED_EDGE('',*,*,#586,.F.);
#392=ORIENTED_EDGE('',*,*,#600,.F.);
#393=ORIENTED_EDGE('',*,*,#582,.F.);
#394=ORIENTED_EDGE('',*,*,#601,.F.);
#395=ORIENTED_EDGE('',*,*,#591,.F.);
#396=ORIENTED_EDGE('',*,*,#601,.T.);
#397=ORIENTED_EDGE('',*,*,#579,.F.);
#398=ORIENTED_EDGE('',*,*,#602,.F.);
#399=ORIENTED_EDGE('',*,*,#588,.F.);
#400=ORIENTED_EDGE('',*,*,#600,.T.);
#401=ORIENTED_EDGE('',*,*,#590,.F.);
#402=ORIENTED_EDGE('',*,*,#603,.F.);
#403=ORIENTED_EDGE('',*,*,#585,.F.);
#404=ORIENTED_EDGE('',*,*,#602,.T.);
#405=ORIENTED_EDGE('',*,*,#587,.F.);
#406=ORIENTED_EDGE('',*,*,#603,.T.);
#407=ORIENTED_EDGE('',*,*,#589,.F.);
#408=EDGE_CURVE('',#604,#605,#724,.T.);
#409=EDGE_CURVE('',#606,#604,#725,.T.);
#410=EDGE_CURVE('',#606,#607,#726,.T.);
#411=EDGE_CURVE('',#605,#607,#727,.T.);
#412=EDGE_CURVE('',#608,#609,#728,.T.);
#413=EDGE_CURVE('',#604,#608,#729,.T.);
#414=EDGE_CURVE('',#609,#605,#730,.T.);
#415=EDGE_CURVE('',#610,#611,#731,.T.);
#416=EDGE_CURVE('',#608,#610,#732,.T.);
#417=EDGE_CURVE('',#611,#609,#733,.T.);
#418=EDGE_CURVE('',#610,#606,#734,.T.);
#419=EDGE_CURVE('',#607,#611,#735,.T.);
#420=EDGE_CURVE('',#612,#613,#736,.T.);
#421=EDGE_CURVE('',#614,#612,#737,.T.);
#422=EDGE_CURVE('',#615,#614,#738,.T.);
#423=EDGE_CURVE('',#613,#615,#739,.T.);
#424=EDGE_CURVE('',#616,#617,#740,.T.);
#425=EDGE_CURVE('',#618,#616,#741,.T.);
#426=EDGE_CURVE('',#619,#618,#742,.T.);
#427=EDGE_CURVE('',#617,#619,#743,.T.);
#428=EDGE_CURVE('',#616,#609,#744,.T.);
#429=EDGE_CURVE('',#605,#618,#745,.T.);
#430=EDGE_CURVE('',#607,#619,#746,.F.);
#431=EDGE_CURVE('',#617,#611,#747,.T.);
#432=EDGE_CURVE('',#608,#614,#748,.T.);
#433=EDGE_CURVE('',#612,#604,#749,.T.);
#434=EDGE_CURVE('',#613,#606,#750,.F.);
#435=EDGE_CURVE('',#610,#615,#751,.T.);
#436=EDGE_CURVE('',#620,#621,#752,.T.);
#437=EDGE_CURVE('',#620,#622,#753,.T.);
#438=EDGE_CURVE('',#622,#623,#754,.T.);
#439=EDGE_CURVE('',#621,#623,#755,.T.);
#440=EDGE_CURVE('',#624,#625,#756,.T.);
#441=EDGE_CURVE('',#624,#626,#757,.T.);
#442=EDGE_CURVE('',#626,#627,#758,.T.);
#443=EDGE_CURVE('',#625,#627,#759,.T.);
#444=EDGE_CURVE('',#622,#628,#760,.T.);
#445=EDGE_CURVE('',#622,#629,#761,.T.);
#446=EDGE_CURVE('',#629,#630,#762,.T.);
#447=EDGE_CURVE('',#631,#630,#763,.T.);
#448=EDGE_CURVE('',#632,#631,#764,.T.);
#449=EDGE_CURVE('',#632,#633,#765,.T.);
#450=EDGE_CURVE('',#634,#633,#766,.T.);
#451=EDGE_CURVE('',#635,#634,#767,.T.);
#452=EDGE_CURVE('',#635,#636,#768,.T.);
#453=EDGE_CURVE('',#637,#636,#769,.T.);
#454=EDGE_CURVE('',#638,#637,#770,.T.);
#455=EDGE_CURVE('',#638,#628,#771,.T.);
#456=EDGE_CURVE('',#639,#640,#772,.T.);
#457=EDGE_CURVE('',#639,#641,#773,.T.);
#458=EDGE_CURVE('',#641,#642,#774,.T.);
#459=EDGE_CURVE('',#640,#642,#775,.T.);
#460=EDGE_CURVE('',#643,#644,#776,.T.);
#461=EDGE_CURVE('',#643,#645,#777,.T.);
#462=EDGE_CURVE('',#645,#646,#778,.T.);
#463=EDGE_CURVE('',#646,#644,#779,.T.);
#464=EDGE_CURVE('',#643,#620,#780,.T.);
#465=EDGE_CURVE('',#621,#647,#781,.T.);
#466=EDGE_CURVE('',#638,#647,#782,.T.);
#467=EDGE_CURVE('',#637,#648,#783,.T.);
#468=EDGE_CURVE('',#648,#649,#784,.T.);
#469=EDGE_CURVE('',#645,#649,#785,.T.);
#470=EDGE_CURVE('',#640,#626,#786,.T.);
#471=EDGE_CURVE('',#639,#624,#787,.T.);
#472=EDGE_CURVE('',#641,#625,#788,.T.);
#473=EDGE_CURVE('',#642,#627,#789,.T.);
#474=EDGE_CURVE('',#650,#651,#790,.T.);
#475=EDGE_CURVE('',#649,#650,#791,.T.);
#476=EDGE_CURVE('',#648,#651,#792,.T.);
#477=EDGE_CURVE('',#647,#652,#793,.T.);
#478=EDGE_CURVE('',#623,#652,#794,.T.);
#479=EDGE_CURVE('',#653,#654,#795,.T.);
#480=EDGE_CURVE('',#653,#655,#796,.T.);
#481=EDGE_CURVE('',#656,#655,#797,.T.);
#482=EDGE_CURVE('',#656,#654,#798,.T.);
#483=EDGE_CURVE('',#634,#657,#799,.T.);
#484=EDGE_CURVE('',#657,#658,#800,.T.);
#485=EDGE_CURVE('',#646,#658,#801,.T.);
#486=EDGE_CURVE('',#635,#650,#802,.T.);
#487=EDGE_CURVE('',#644,#659,#803,.T.);
#488=EDGE_CURVE('',#658,#660,#804,.T.);
#489=EDGE_CURVE('',#632,#660,#805,.T.);
#490=EDGE_CURVE('',#631,#656,#806,.T.);
#491=EDGE_CURVE('',#659,#655,#807,.T.);
#492=EDGE_CURVE('',#657,#661,#808,.T.);
#493=EDGE_CURVE('',#660,#661,#809,.T.);
#494=EDGE_CURVE('',#633,#661,#810,.T.);
#495=EDGE_CURVE('',#636,#651,#811,.T.);
#496=EDGE_CURVE('',#628,#652,#812,.T.);
#497=EDGE_CURVE('',#629,#653,#813,.T.);
#498=EDGE_CURVE('',#629,#659,#814,.T.);
#499=EDGE_CURVE('',#630,#654,#815,.T.);
#500=EDGE_CURVE('',#662,#659,#816,.T.);
#501=EDGE_CURVE('',#663,#662,#817,.T.);
#502=EDGE_CURVE('',#644,#663,#818,.F.);
#503=EDGE_CURVE('',#664,#663,#819,.T.);
#504=EDGE_CURVE('',#643,#664,#820,.F.);
#505=EDGE_CURVE('',#665,#620,#821,.F.);
#506=EDGE_CURVE('',#665,#662,#822,.T.);
#507=EDGE_CURVE('',#664,#665,#823,.T.);
#508=EDGE_CURVE('',#666,#667,#824,.T.);
#509=EDGE_CURVE('',#667,#668,#825,.T.);
#510=EDGE_CURVE('',#669,#668,#826,.T.);
#511=EDGE_CURVE('',#666,#669,#827,.T.);
#512=EDGE_CURVE('',#670,#671,#828,.T.);
#513=EDGE_CURVE('',#671,#672,#829,.T.);
#514=EDGE_CURVE('',#673,#672,#830,.T.);
#515=EDGE_CURVE('',#670,#673,#831,.T.);
#516=EDGE_CURVE('',#669,#674,#832,.T.);
#517=EDGE_CURVE('',#675,#674,#833,.T.);
#518=EDGE_CURVE('',#675,#676,#834,.T.);
#519=EDGE_CURVE('',#676,#677,#835,.T.);
#520=EDGE_CURVE('',#678,#677,#836,.T.);
#521=EDGE_CURVE('',#678,#679,#837,.T.);
#522=EDGE_CURVE('',#679,#680,#838,.T.);
#523=EDGE_CURVE('',#681,#680,#839,.T.);
#524=EDGE_CURVE('',#681,#682,#840,.T.);
#525=EDGE_CURVE('',#682,#683,#841,.T.);
#526=EDGE_CURVE('',#684,#683,#842,.T.);
#527=EDGE_CURVE('',#669,#684,#843,.T.);
#528=EDGE_CURVE('',#685,#686,#844,.T.);
#529=EDGE_CURVE('',#686,#687,#845,.T.);
#530=EDGE_CURVE('',#688,#687,#846,.T.);
#531=EDGE_CURVE('',#685,#688,#847,.T.);
#532=EDGE_CURVE('',#689,#690,#848,.T.);
#533=EDGE_CURVE('',#691,#690,#849,.T.);
#534=EDGE_CURVE('',#692,#691,#850,.T.);
#535=EDGE_CURVE('',#689,#692,#851,.T.);
#536=EDGE_CURVE('',#692,#693,#852,.T.);
#537=EDGE_CURVE('',#694,#693,#853,.T.);
#538=EDGE_CURVE('',#676,#694,#854,.T.);
#539=EDGE_CURVE('',#675,#695,#855,.T.);
#540=EDGE_CURVE('',#667,#695,#856,.T.);
#541=EDGE_CURVE('',#689,#666,#857,.T.);
#542=EDGE_CURVE('',#686,#673,#858,.T.);
#543=EDGE_CURVE('',#685,#670,#859,.T.);
#544=EDGE_CURVE('',#688,#671,#860,.T.);
#545=EDGE_CURVE('',#687,#672,#861,.T.);
#546=EDGE_CURVE('',#696,#697,#862,.T.);
#547=EDGE_CURVE('',#694,#697,#863,.T.);
#548=EDGE_CURVE('',#693,#696,#864,.T.);
#549=EDGE_CURVE('',#695,#698,#865,.T.);
#550=EDGE_CURVE('',#668,#698,#866,.T.);
#551=EDGE_CURVE('',#699,#700,#867,.T.);
#552=EDGE_CURVE('',#701,#700,#868,.T.);
#553=EDGE_CURVE('',#701,#702,#869,.T.);
#554=EDGE_CURVE('',#699,#702,#870,.T.);
#555=EDGE_CURVE('',#678,#696,#871,.T.);
#556=EDGE_CURVE('',#691,#703,#872,.T.);
#557=EDGE_CURVE('',#704,#703,#873,.T.);
#558=EDGE_CURVE('',#679,#704,#874,.T.);
#559=EDGE_CURVE('',#690,#705,#875,.T.);
#560=EDGE_CURVE('',#705,#702,#876,.T.);
#561=EDGE_CURVE('',#682,#701,#877,.T.);
#562=EDGE_CURVE('',#681,#706,#878,.T.);
#563=EDGE_CURVE('',#703,#706,#879,.T.);
#564=EDGE_CURVE('',#706,#707,#880,.T.);
#565=EDGE_CURVE('',#704,#707,#881,.T.);
#566=EDGE_CURVE('',#680,#707,#882,.T.);
#567=EDGE_CURVE('',#677,#697,#883,.T.);
#568=EDGE_CURVE('',#674,#698,#884,.T.);
#569=EDGE_CURVE('',#684,#699,#885,.T.);
#570=EDGE_CURVE('',#684,#705,#886,.T.);
#571=EDGE_CURVE('',#683,#700,#887,.T.);
#572=EDGE_CURVE('',#662,#705,#888,.T.);
#573=EDGE_CURVE('',#690,#663,#889,.F.);
#574=EDGE_CURVE('',#689,#664,#890,.F.);
#575=EDGE_CURVE('',#665,#666,#891,.F.);
#576=EDGE_CURVE('',#708,#709,#892,.T.);
#577=EDGE_CURVE('',#709,#710,#893,.T.);
#578=EDGE_CURVE('',#711,#710,#894,.T.);
#579=EDGE_CURVE('',#711,#708,#895,.T.);
#580=EDGE_CURVE('',#712,#713,#896,.T.);
#581=EDGE_CURVE('',#713,#709,#897,.T.);
#582=EDGE_CURVE('',#708,#712,#898,.T.);
#583=EDGE_CURVE('',#714,#715,#899,.T.);
#584=EDGE_CURVE('',#715,#713,#900,.T.);
#585=EDGE_CURVE('',#712,#714,#901,.T.);
#586=EDGE_CURVE('',#710,#715,#902,.T.);
#587=EDGE_CURVE('',#714,#711,#903,.T.);
#588=EDGE_CURVE('',#716,#717,#904,.T.);
#589=EDGE_CURVE('',#717,#718,#905,.T.);
#590=EDGE_CURVE('',#718,#719,#906,.T.);
#591=EDGE_CURVE('',#719,#716,#907,.T.);
#592=EDGE_CURVE('',#720,#721,#908,.T.);
#593=EDGE_CURVE('',#721,#722,#909,.T.);
#594=EDGE_CURVE('',#722,#723,#910,.T.);
#595=EDGE_CURVE('',#723,#720,#911,.T.);
#596=EDGE_CURVE('',#720,#713,#912,.T.);
#597=EDGE_CURVE('',#709,#723,#913,.T.);
#598=EDGE_CURVE('',#710,#722,#914,.F.);
#599=EDGE_CURVE('',#721,#715,#915,.T.);
#600=EDGE_CURVE('',#712,#719,#916,.T.);
#601=EDGE_CURVE('',#716,#708,#917,.T.);
#602=EDGE_CURVE('',#717,#711,#918,.F.);
#603=EDGE_CURVE('',#714,#718,#919,.T.);
#604=VERTEX_POINT('',#1941);
#605=VERTEX_POINT('',#1942);
#606=VERTEX_POINT('',#1944);
#607=VERTEX_POINT('',#1946);
#608=VERTEX_POINT('',#1950);
#609=VERTEX_POINT('',#1951);
#610=VERTEX_POINT('',#1956);
#611=VERTEX_POINT('',#1957);
#612=VERTEX_POINT('',#1965);
#613=VERTEX_POINT('',#1966);
#614=VERTEX_POINT('',#1968);
#615=VERTEX_POINT('',#1970);
#616=VERTEX_POINT('',#1974);
#617=VERTEX_POINT('',#1975);
#618=VERTEX_POINT('',#1977);
#619=VERTEX_POINT('',#1979);
#620=VERTEX_POINT('',#2000);
#621=VERTEX_POINT('',#2001);
#622=VERTEX_POINT('',#2003);
#623=VERTEX_POINT('',#2005);
#624=VERTEX_POINT('',#2009);
#625=VERTEX_POINT('',#2010);
#626=VERTEX_POINT('',#2012);
#627=VERTEX_POINT('',#2014);
#628=VERTEX_POINT('',#2017);
#629=VERTEX_POINT('',#2019);
#630=VERTEX_POINT('',#2021);
#631=VERTEX_POINT('',#2023);
#632=VERTEX_POINT('',#2025);
#633=VERTEX_POINT('',#2027);
#634=VERTEX_POINT('',#2029);
#635=VERTEX_POINT('',#2031);
#636=VERTEX_POINT('',#2033);
#637=VERTEX_POINT('',#2035);
#638=VERTEX_POINT('',#2037);
#639=VERTEX_POINT('',#2041);
#640=VERTEX_POINT('',#2042);
#641=VERTEX_POINT('',#2044);
#642=VERTEX_POINT('',#2046);
#643=VERTEX_POINT('',#2049);
#644=VERTEX_POINT('',#2050);
#645=VERTEX_POINT('',#2052);
#646=VERTEX_POINT('',#2054);
#647=VERTEX_POINT('',#2059);
#648=VERTEX_POINT('',#2062);
#649=VERTEX_POINT('',#2064);
#650=VERTEX_POINT('',#2076);
#651=VERTEX_POINT('',#2077);
#652=VERTEX_POINT('',#2082);
#653=VERTEX_POINT('',#2086);
#654=VERTEX_POINT('',#2087);
#655=VERTEX_POINT('',#2089);
#656=VERTEX_POINT('',#2091);
#657=VERTEX_POINT('',#2095);
#658=VERTEX_POINT('',#2097);
#659=VERTEX_POINT('',#2102);
#660=VERTEX_POINT('',#2104);
#661=VERTEX_POINT('',#2110);
#662=VERTEX_POINT('',#2129);
#663=VERTEX_POINT('',#2131);
#664=VERTEX_POINT('',#2135);
#665=VERTEX_POINT('',#2139);
#666=VERTEX_POINT('',#2145);
#667=VERTEX_POINT('',#2146);
#668=VERTEX_POINT('',#2148);
#669=VERTEX_POINT('',#2150);
#670=VERTEX_POINT('',#2154);
#671=VERTEX_POINT('',#2155);
#672=VERTEX_POINT('',#2157);
#673=VERTEX_POINT('',#2159);
#674=VERTEX_POINT('',#2162);
#675=VERTEX_POINT('',#2164);
#676=VERTEX_POINT('',#2166);
#677=VERTEX_POINT('',#2168);
#678=VERTEX_POINT('',#2170);
#679=VERTEX_POINT('',#2172);
#680=VERTEX_POINT('',#2174);
#681=VERTEX_POINT('',#2176);
#682=VERTEX_POINT('',#2178);
#683=VERTEX_POINT('',#2180);
#684=VERTEX_POINT('',#2182);
#685=VERTEX_POINT('',#2186);
#686=VERTEX_POINT('',#2187);
#687=VERTEX_POINT('',#2189);
#688=VERTEX_POINT('',#2191);
#689=VERTEX_POINT('',#2194);
#690=VERTEX_POINT('',#2195);
#691=VERTEX_POINT('',#2197);
#692=VERTEX_POINT('',#2199);
#693=VERTEX_POINT('',#2203);
#694=VERTEX_POINT('',#2205);
#695=VERTEX_POINT('',#2208);
#696=VERTEX_POINT('',#2221);
#697=VERTEX_POINT('',#2222);
#698=VERTEX_POINT('',#2227);
#699=VERTEX_POINT('',#2231);
#700=VERTEX_POINT('',#2232);
#701=VERTEX_POINT('',#2234);
#702=VERTEX_POINT('',#2236);
#703=VERTEX_POINT('',#2241);
#704=VERTEX_POINT('',#2243);
#705=VERTEX_POINT('',#2247);
#706=VERTEX_POINT('',#2251);
#707=VERTEX_POINT('',#2255);
#708=VERTEX_POINT('',#2283);
#709=VERTEX_POINT('',#2284);
#710=VERTEX_POINT('',#2286);
#711=VERTEX_POINT('',#2288);
#712=VERTEX_POINT('',#2292);
#713=VERTEX_POINT('',#2293);
#714=VERTEX_POINT('',#2298);
#715=VERTEX_POINT('',#2299);
#716=VERTEX_POINT('',#2307);
#717=VERTEX_POINT('',#2308);
#718=VERTEX_POINT('',#2310);
#719=VERTEX_POINT('',#2312);
#720=VERTEX_POINT('',#2316);
#721=VERTEX_POINT('',#2317);
#722=VERTEX_POINT('',#2319);
#723=VERTEX_POINT('',#2321);
#724=LINE('',#1940,#920);
#725=LINE('',#1943,#921);
#726=LINE('',#1945,#922);
#727=LINE('',#1947,#923);
#728=LINE('',#1949,#924);
#729=LINE('',#1952,#925);
#730=LINE('',#1953,#926);
#731=LINE('',#1955,#927);
#732=LINE('',#1958,#928);
#733=LINE('',#1959,#929);
#734=LINE('',#1961,#930);
#735=LINE('',#1962,#931);
#736=LINE('',#1964,#932);
#737=LINE('',#1967,#933);
#738=LINE('',#1969,#934);
#739=LINE('',#1971,#935);
#740=LINE('',#1973,#936);
#741=LINE('',#1976,#937);
#742=LINE('',#1978,#938);
#743=LINE('',#1980,#939);
#744=LINE('',#1982,#940);
#745=LINE('',#1983,#941);
#746=LINE('',#1985,#942);
#747=LINE('',#1987,#943);
#748=LINE('',#1990,#944);
#749=LINE('',#1991,#945);
#750=LINE('',#1993,#946);
#751=LINE('',#1995,#947);
#752=LINE('',#1999,#948);
#753=LINE('',#2002,#949);
#754=LINE('',#2004,#950);
#755=LINE('',#2006,#951);
#756=LINE('',#2008,#952);
#757=LINE('',#2011,#953);
#758=LINE('',#2013,#954);
#759=LINE('',#2015,#955);
#760=LINE('',#2016,#956);
#761=LINE('',#2018,#957);
#762=LINE('',#2020,#958);
#763=LINE('',#2022,#959);
#764=LINE('',#2024,#960);
#765=LINE('',#2026,#961);
#766=LINE('',#2028,#962);
#767=LINE('',#2030,#963);
#768=LINE('',#2032,#964);
#769=LINE('',#2034,#965);
#770=LINE('',#2036,#966);
#771=LINE('',#2038,#967);
#772=LINE('',#2040,#968);
#773=LINE('',#2043,#969);
#774=LINE('',#2045,#970);
#775=LINE('',#2047,#971);
#776=LINE('',#2048,#972);
#777=LINE('',#2051,#973);
#778=LINE('',#2053,#974);
#779=LINE('',#2055,#975);
#780=LINE('',#2057,#976);
#781=LINE('',#2058,#977);
#782=LINE('',#2060,#978);
#783=LINE('',#2061,#979);
#784=LINE('',#2063,#980);
#785=LINE('',#2065,#981);
#786=LINE('',#2067,#982);
#787=LINE('',#2068,#983);
#788=LINE('',#2070,#984);
#789=LINE('',#2072,#985);
#790=LINE('',#2075,#986);
#791=LINE('',#2078,#987);
#792=LINE('',#2079,#988);
#793=LINE('',#2081,#989);
#794=LINE('',#2083,#990);
#795=LINE('',#2085,#991);
#796=LINE('',#2088,#992);
#797=LINE('',#2090,#993);
#798=LINE('',#2092,#994);
#799=LINE('',#2094,#995);
#800=LINE('',#2096,#996);
#801=LINE('',#2098,#997);
#802=LINE('',#2099,#998);
#803=LINE('',#2101,#999);
#804=LINE('',#2103,#1000);
#805=LINE('',#2105,#1001);
#806=LINE('',#2106,#1002);
#807=LINE('',#2107,#1003);
#808=LINE('',#2109,#1004);
#809=LINE('',#2111,#1005);
#810=LINE('',#2113,#1006);
#811=LINE('',#2115,#1007);
#812=LINE('',#2118,#1008);
#813=LINE('',#2121,#1009);
#814=LINE('',#2122,#1010);
#815=LINE('',#2124,#1011);
#816=LINE('',#2128,#1012);
#817=LINE('',#2130,#1013);
#818=LINE('',#2132,#1014);
#819=LINE('',#2134,#1015);
#820=LINE('',#2136,#1016);
#821=LINE('',#2138,#1017);
#822=LINE('',#2140,#1018);
#823=LINE('',#2142,#1019);
#824=LINE('',#2144,#1020);
#825=LINE('',#2147,#1021);
#826=LINE('',#2149,#1022);
#827=LINE('',#2151,#1023);
#828=LINE('',#2153,#1024);
#829=LINE('',#2156,#1025);
#830=LINE('',#2158,#1026);
#831=LINE('',#2160,#1027);
#832=LINE('',#2161,#1028);
#833=LINE('',#2163,#1029);
#834=LINE('',#2165,#1030);
#835=LINE('',#2167,#1031);
#836=LINE('',#2169,#1032);
#837=LINE('',#2171,#1033);
#838=LINE('',#2173,#1034);
#839=LINE('',#2175,#1035);
#840=LINE('',#2177,#1036);
#841=LINE('',#2179,#1037);
#842=LINE('',#2181,#1038);
#843=LINE('',#2183,#1039);
#844=LINE('',#2185,#1040);
#845=LINE('',#2188,#1041);
#846=LINE('',#2190,#1042);
#847=LINE('',#2192,#1043);
#848=LINE('',#2193,#1044);
#849=LINE('',#2196,#1045);
#850=LINE('',#2198,#1046);
#851=LINE('',#2200,#1047);
#852=LINE('',#2202,#1048);
#853=LINE('',#2204,#1049);
#854=LINE('',#2206,#1050);
#855=LINE('',#2207,#1051);
#856=LINE('',#2209,#1052);
#857=LINE('',#2210,#1053);
#858=LINE('',#2212,#1054);
#859=LINE('',#2213,#1055);
#860=LINE('',#2215,#1056);
#861=LINE('',#2217,#1057);
#862=LINE('',#2220,#1058);
#863=LINE('',#2223,#1059);
#864=LINE('',#2224,#1060);
#865=LINE('',#2226,#1061);
#866=LINE('',#2228,#1062);
#867=LINE('',#2230,#1063);
#868=LINE('',#2233,#1064);
#869=LINE('',#2235,#1065);
#870=LINE('',#2237,#1066);
#871=LINE('',#2239,#1067);
#872=LINE('',#2240,#1068);
#873=LINE('',#2242,#1069);
#874=LINE('',#2244,#1070);
#875=LINE('',#2246,#1071);
#876=LINE('',#2248,#1072);
#877=LINE('',#2249,#1073);
#878=LINE('',#2250,#1074);
#879=LINE('',#2252,#1075);
#880=LINE('',#2254,#1076);
#881=LINE('',#2256,#1077);
#882=LINE('',#2258,#1078);
#883=LINE('',#2260,#1079);
#884=LINE('',#2263,#1080);
#885=LINE('',#2266,#1081);
#886=LINE('',#2267,#1082);
#887=LINE('',#2269,#1083);
#888=LINE('',#2273,#1084);
#889=LINE('',#2274,#1085);
#890=LINE('',#2276,#1086);
#891=LINE('',#2278,#1087);
#892=LINE('',#2282,#1088);
#893=LINE('',#2285,#1089);
#894=LINE('',#2287,#1090);
#895=LINE('',#2289,#1091);
#896=LINE('',#2291,#1092);
#897=LINE('',#2294,#1093);
#898=LINE('',#2295,#1094);
#899=LINE('',#2297,#1095);
#900=LINE('',#2300,#1096);
#901=LINE('',#2301,#1097);
#902=LINE('',#2303,#1098);
#903=LINE('',#2304,#1099);
#904=LINE('',#2306,#1100);
#905=LINE('',#2309,#1101);
#906=LINE('',#2311,#1102);
#907=LINE('',#2313,#1103);
#908=LINE('',#2315,#1104);
#909=LINE('',#2318,#1105);
#910=LINE('',#2320,#1106);
#911=LINE('',#2322,#1107);
#912=LINE('',#2324,#1108);
#913=LINE('',#2325,#1109);
#914=LINE('',#2327,#1110);
#915=LINE('',#2329,#1111);
#916=LINE('',#2332,#1112);
#917=LINE('',#2333,#1113);
#918=LINE('',#2335,#1114);
#919=LINE('',#2337,#1115);
#920=VECTOR('',#1576,1.);
#921=VECTOR('',#1577,1.);
#922=VECTOR('',#1578,1.);
#923=VECTOR('',#1579,1.);
#924=VECTOR('',#1582,1.);
#925=VECTOR('',#1583,1.);
#926=VECTOR('',#1584,1.);
#927=VECTOR('',#1587,1.);
#928=VECTOR('',#1588,1.);
#929=VECTOR('',#1589,1.);
#930=VECTOR('',#1592,1.);
#931=VECTOR('',#1593,1.);
#932=VECTOR('',#1596,1.);
#933=VECTOR('',#1597,1.);
#934=VECTOR('',#1598,1.);
#935=VECTOR('',#1599,1.);
#936=VECTOR('',#1602,1.);
#937=VECTOR('',#1603,1.);
#938=VECTOR('',#1604,1.);
#939=VECTOR('',#1605,1.);
#940=VECTOR('',#1608,1.);
#941=VECTOR('',#1609,1.);
#942=VECTOR('',#1612,1.);
#943=VECTOR('',#1615,1.);
#944=VECTOR('',#1620,1.);
#945=VECTOR('',#1621,1.);
#946=VECTOR('',#1624,1.);
#947=VECTOR('',#1627,1.);
#948=VECTOR('',#1634,1.);
#949=VECTOR('',#1635,1.);
#950=VECTOR('',#1636,1.);
#951=VECTOR('',#1637,1.);
#952=VECTOR('',#1640,1.);
#953=VECTOR('',#1641,1.);
#954=VECTOR('',#1642,1.);
#955=VECTOR('',#1643,1.);
#956=VECTOR('',#1644,1.);
#957=VECTOR('',#1645,1.);
#958=VECTOR('',#1646,1.);
#959=VECTOR('',#1647,1.);
#960=VECTOR('',#1648,1.);
#961=VECTOR('',#1649,1.);
#962=VECTOR('',#1650,1.);
#963=VECTOR('',#1651,1.);
#964=VECTOR('',#1652,1.);
#965=VECTOR('',#1653,1.);
#966=VECTOR('',#1654,1.);
#967=VECTOR('',#1655,1.);
#968=VECTOR('',#1658,1.);
#969=VECTOR('',#1659,1.);
#970=VECTOR('',#1660,1.);
#971=VECTOR('',#1661,1.);
#972=VECTOR('',#1662,1.);
#973=VECTOR('',#1663,1.);
#974=VECTOR('',#1664,1.);
#975=VECTOR('',#1665,1.);
#976=VECTOR('',#1668,1.);
#977=VECTOR('',#1669,1.);
#978=VECTOR('',#1670,1.);
#979=VECTOR('',#1671,1.);
#980=VECTOR('',#1672,1.);
#981=VECTOR('',#1673,1.);
#982=VECTOR('',#1676,1.);
#983=VECTOR('',#1677,1.);
#984=VECTOR('',#1680,1.);
#985=VECTOR('',#1683,1.);
#986=VECTOR('',#1688,1.);
#987=VECTOR('',#1689,1.);
#988=VECTOR('',#1690,1.);
#989=VECTOR('',#1693,1.);
#990=VECTOR('',#1694,1.);
#991=VECTOR('',#1697,1.);
#992=VECTOR('',#1698,1.);
#993=VECTOR('',#1699,1.);
#994=VECTOR('',#1700,1.);
#995=VECTOR('',#1703,1.);
#996=VECTOR('',#1704,1.);
#997=VECTOR('',#1705,1.);
#998=VECTOR('',#1706,1.);
#999=VECTOR('',#1709,1.);
#1000=VECTOR('',#1710,1.);
#1001=VECTOR('',#1711,1.);
#1002=VECTOR('',#1712,1.);
#1003=VECTOR('',#1713,1.);
#1004=VECTOR('',#1716,1.);
#1005=VECTOR('',#1717,1.);
#1006=VECTOR('',#1720,1.);
#1007=VECTOR('',#1723,1.);
#1008=VECTOR('',#1728,1.);
#1009=VECTOR('',#1733,1.);
#1010=VECTOR('',#1734,1.);
#1011=VECTOR('',#1737,1.);
#1012=VECTOR('',#1744,1.);
#1013=VECTOR('',#1745,1.);
#1014=VECTOR('',#1746,1.);
#1015=VECTOR('',#1749,1.);
#1016=VECTOR('',#1750,1.);
#1017=VECTOR('',#1753,1.);
#1018=VECTOR('',#1754,1.);
#1019=VECTOR('',#1757,1.);
#1020=VECTOR('',#1760,1.);
#1021=VECTOR('',#1761,1.);
#1022=VECTOR('',#1762,1.);
#1023=VECTOR('',#1763,1.);
#1024=VECTOR('',#1766,1.);
#1025=VECTOR('',#1767,1.);
#1026=VECTOR('',#1768,1.);
#1027=VECTOR('',#1769,1.);
#1028=VECTOR('',#1770,1.);
#1029=VECTOR('',#1771,1.);
#1030=VECTOR('',#1772,1.);
#1031=VECTOR('',#1773,1.);
#1032=VECTOR('',#1774,1.);
#1033=VECTOR('',#1775,1.);
#1034=VECTOR('',#1776,1.);
#1035=VECTOR('',#1777,1.);
#1036=VECTOR('',#1778,1.);
#1037=VECTOR('',#1779,1.);
#1038=VECTOR('',#1780,1.);
#1039=VECTOR('',#1781,1.);
#1040=VECTOR('',#1784,1.);
#1041=VECTOR('',#1785,1.);
#1042=VECTOR('',#1786,1.);
#1043=VECTOR('',#1787,1.);
#1044=VECTOR('',#1788,1.);
#1045=VECTOR('',#1789,1.);
#1046=VECTOR('',#1790,1.);
#1047=VECTOR('',#1791,1.);
#1048=VECTOR('',#1794,1.);
#1049=VECTOR('',#1795,1.);
#1050=VECTOR('',#1796,1.);
#1051=VECTOR('',#1797,1.);
#1052=VECTOR('',#1798,1.);
#1053=VECTOR('',#1799,1.);
#1054=VECTOR('',#1802,1.);
#1055=VECTOR('',#1803,1.);
#1056=VECTOR('',#1806,1.);
#1057=VECTOR('',#1809,1.);
#1058=VECTOR('',#1814,1.);
#1059=VECTOR('',#1815,1.);
#1060=VECTOR('',#1816,1.);
#1061=VECTOR('',#1819,1.);
#1062=VECTOR('',#1820,1.);
#1063=VECTOR('',#1823,1.);
#1064=VECTOR('',#1824,1.);
#1065=VECTOR('',#1825,1.);
#1066=VECTOR('',#1826,1.);
#1067=VECTOR('',#1829,1.);
#1068=VECTOR('',#1830,1.);
#1069=VECTOR('',#1831,1.);
#1070=VECTOR('',#1832,1.);
#1071=VECTOR('',#1835,1.);
#1072=VECTOR('',#1836,1.);
#1073=VECTOR('',#1837,1.);
#1074=VECTOR('',#1838,1.);
#1075=VECTOR('',#1839,1.);
#1076=VECTOR('',#1842,1.);
#1077=VECTOR('',#1843,1.);
#1078=VECTOR('',#1846,1.);
#1079=VECTOR('',#1849,1.);
#1080=VECTOR('',#1854,1.);
#1081=VECTOR('',#1859,1.);
#1082=VECTOR('',#1860,1.);
#1083=VECTOR('',#1863,1.);
#1084=VECTOR('',#1870,1.);
#1085=VECTOR('',#1871,1.);
#1086=VECTOR('',#1874,1.);
#1087=VECTOR('',#1877,1.);
#1088=VECTOR('',#1884,1.);
#1089=VECTOR('',#1885,1.);
#1090=VECTOR('',#1886,1.);
#1091=VECTOR('',#1887,1.);
#1092=VECTOR('',#1890,1.);
#1093=VECTOR('',#1891,1.);
#1094=VECTOR('',#1892,1.);
#1095=VECTOR('',#1895,1.);
#1096=VECTOR('',#1896,1.);
#1097=VECTOR('',#1897,1.);
#1098=VECTOR('',#1900,1.);
#1099=VECTOR('',#1901,1.);
#1100=VECTOR('',#1904,1.);
#1101=VECTOR('',#1905,1.);
#1102=VECTOR('',#1906,1.);
#1103=VECTOR('',#1907,1.);
#1104=VECTOR('',#1910,1.);
#1105=VECTOR('',#1911,1.);
#1106=VECTOR('',#1912,1.);
#1107=VECTOR('',#1913,1.);
#1108=VECTOR('',#1916,1.);
#1109=VECTOR('',#1917,1.);
#1110=VECTOR('',#1920,1.);
#1111=VECTOR('',#1923,1.);
#1112=VECTOR('',#1928,1.);
#1113=VECTOR('',#1929,1.);
#1114=VECTOR('',#1932,1.);
#1115=VECTOR('',#1935,1.);
#1116=EDGE_LOOP('',(#16,#17,#18,#19));
#1117=EDGE_LOOP('',(#20,#21,#22,#23));
#1118=EDGE_LOOP('',(#24,#25,#26,#27));
#1119=EDGE_LOOP('',(#28,#29,#30,#31));
#1120=EDGE_LOOP('',(#32,#33,#34,#35));
#1121=EDGE_LOOP('',(#36,#37,#38,#39));
#1122=EDGE_LOOP('',(#40,#41,#42,#43));
#1123=EDGE_LOOP('',(#44,#45,#46,#47));
#1124=EDGE_LOOP('',(#48,#49,#50,#51));
#1125=EDGE_LOOP('',(#52,#53,#54,#55));
#1126=EDGE_LOOP('',(#56,#57,#58,#59));
#1127=EDGE_LOOP('',(#60,#61,#62,#63));
#1128=EDGE_LOOP('',(#64,#65,#66,#67));
#1129=EDGE_LOOP('',(#68,#69,#70,#71));
#1130=EDGE_LOOP('',(#72,#73,#74,#75));
#1131=EDGE_LOOP('',(#76,#77,#78,#79));
#1132=EDGE_LOOP('',(#80,#81,#82,#83,#84,#85,#86,#87,#88,#89,#90,#91));
#1133=EDGE_LOOP('',(#92,#93,#94,#95));
#1134=EDGE_LOOP('',(#96,#97,#98,#99));
#1135=EDGE_LOOP('',(#100,#101,#102,#103,#104,#105,#106,#107,#108));
#1136=EDGE_LOOP('',(#109,#110,#111,#112));
#1137=EDGE_LOOP('',(#113,#114,#115,#116));
#1138=EDGE_LOOP('',(#117,#118,#119,#120));
#1139=EDGE_LOOP('',(#121,#122,#123,#124));
#1140=EDGE_LOOP('',(#125,#126,#127,#128));
#1141=EDGE_LOOP('',(#129,#130,#131,#132));
#1142=EDGE_LOOP('',(#133,#134,#135,#136));
#1143=EDGE_LOOP('',(#137,#138,#139,#140,#141,#142,#143,#144));
#1144=EDGE_LOOP('',(#145,#146,#147,#148,#149,#150,#151,#152,#153));
#1145=EDGE_LOOP('',(#154,#155,#156,#157));
#1146=EDGE_LOOP('',(#158,#159,#160,#161));
#1147=EDGE_LOOP('',(#162,#163,#164,#165));
#1148=EDGE_LOOP('',(#166,#167,#168,#169));
#1149=EDGE_LOOP('',(#170,#171,#172,#173));
#1150=EDGE_LOOP('',(#174,#175,#176,#177));
#1151=EDGE_LOOP('',(#178,#179,#180,#181));
#1152=EDGE_LOOP('',(#182,#183,#184,#185));
#1153=EDGE_LOOP('',(#186,#187,#188,#189));
#1154=EDGE_LOOP('',(#190,#191,#192,#193));
#1155=EDGE_LOOP('',(#194,#195,#196,#197));
#1156=EDGE_LOOP('',(#198,#199,#200,#201));
#1157=EDGE_LOOP('',(#202,#203,#204,#205,#206,#207));
#1158=EDGE_LOOP('',(#208,#209,#210,#211));
#1159=EDGE_LOOP('',(#212,#213,#214,#215));
#1160=EDGE_LOOP('',(#216,#217,#218,#219));
#1161=EDGE_LOOP('',(#220,#221,#222,#223,#224,#225,#226,#227,#228,#229,#230,#231));
#1162=EDGE_LOOP('',(#232,#233,#234,#235));
#1163=EDGE_LOOP('',(#236,#237,#238,#239));
#1164=EDGE_LOOP('',(#240,#241,#242,#243,#244,#245,#246,#247,#248));
#1165=EDGE_LOOP('',(#249,#250,#251,#252));
#1166=EDGE_LOOP('',(#253,#254,#255,#256));
#1167=EDGE_LOOP('',(#257,#258,#259,#260));
#1168=EDGE_LOOP('',(#261,#262,#263,#264));
#1169=EDGE_LOOP('',(#265,#266,#267,#268));
#1170=EDGE_LOOP('',(#269,#270,#271,#272));
#1171=EDGE_LOOP('',(#273,#274,#275,#276));
#1172=EDGE_LOOP('',(#277,#278,#279,#280,#281,#282,#283,#284));
#1173=EDGE_LOOP('',(#285,#286,#287,#288,#289,#290,#291,#292,#293));
#1174=EDGE_LOOP('',(#294,#295,#296,#297));
#1175=EDGE_LOOP('',(#298,#299,#300,#301));
#1176=EDGE_LOOP('',(#302,#303,#304,#305));
#1177=EDGE_LOOP('',(#306,#307,#308,#309));
#1178=EDGE_LOOP('',(#310,#311,#312,#313));
#1179=EDGE_LOOP('',(#314,#315,#316,#317));
#1180=EDGE_LOOP('',(#318,#319,#320,#321));
#1181=EDGE_LOOP('',(#322,#323,#324,#325));
#1182=EDGE_LOOP('',(#326,#327,#328,#329));
#1183=EDGE_LOOP('',(#330,#331,#332,#333));
#1184=EDGE_LOOP('',(#334,#335,#336,#337));
#1185=EDGE_LOOP('',(#338,#339,#340,#341));
#1186=EDGE_LOOP('',(#342,#343,#344,#345,#346,#347));
#1187=EDGE_LOOP('',(#348,#349,#350,#351));
#1188=EDGE_LOOP('',(#352,#353,#354,#355));
#1189=EDGE_LOOP('',(#356,#357,#358,#359));
#1190=EDGE_LOOP('',(#360,#361,#362,#363));
#1191=EDGE_LOOP('',(#364,#365,#366,#367));
#1192=EDGE_LOOP('',(#368,#369,#370,#371));
#1193=EDGE_LOOP('',(#372,#373,#374,#375));
#1194=EDGE_LOOP('',(#376,#377,#378,#379));
#1195=EDGE_LOOP('',(#380,#381,#382,#383));
#1196=EDGE_LOOP('',(#384,#385,#386,#387));
#1197=EDGE_LOOP('',(#388,#389,#390,#391));
#1198=EDGE_LOOP('',(#392,#393,#394,#395));
#1199=EDGE_LOOP('',(#396,#397,#398,#399));
#1200=EDGE_LOOP('',(#400,#401,#402,#403));
#1201=EDGE_LOOP('',(#404,#405,#406,#407));
#1202=FACE_BOUND('',#1116,.T.);
#1203=FACE_BOUND('',#1117,.T.);
#1204=FACE_BOUND('',#1118,.T.);
#1205=FACE_BOUND('',#1119,.T.);
#1206=FACE_BOUND('',#1120,.T.);
#1207=FACE_BOUND('',#1121,.T.);
#1208=FACE_BOUND('',#1122,.T.);
#1209=FACE_BOUND('',#1123,.T.);
#1210=FACE_BOUND('',#1124,.T.);
#1211=FACE_BOUND('',#1125,.T.);
#1212=FACE_BOUND('',#1126,.T.);
#1213=FACE_BOUND('',#1127,.T.);
#1214=FACE_BOUND('',#1128,.T.);
#1215=FACE_BOUND('',#1129,.T.);
#1216=FACE_BOUND('',#1130,.T.);
#1217=FACE_BOUND('',#1131,.T.);
#1218=FACE_BOUND('',#1132,.T.);
#1219=FACE_BOUND('',#1133,.T.);
#1220=FACE_BOUND('',#1134,.T.);
#1221=FACE_BOUND('',#1135,.T.);
#1222=FACE_BOUND('',#1136,.T.);
#1223=FACE_BOUND('',#1137,.T.);
#1224=FACE_BOUND('',#1138,.T.);
#1225=FACE_BOUND('',#1139,.T.);
#1226=FACE_BOUND('',#1140,.T.);
#1227=FACE_BOUND('',#1141,.T.);
#1228=FACE_BOUND('',#1142,.T.);
#1229=FACE_BOUND('',#1143,.T.);
#1230=FACE_BOUND('',#1144,.T.);
#1231=FACE_BOUND('',#1145,.T.);
#1232=FACE_BOUND('',#1146,.T.);
#1233=FACE_BOUND('',#1147,.T.);
#1234=FACE_BOUND('',#1148,.T.);
#1235=FACE_BOUND('',#1149,.T.);
#1236=FACE_BOUND('',#1150,.T.);
#1237=FACE_BOUND('',#1151,.T.);
#1238=FACE_BOUND('',#1152,.T.);
#1239=FACE_BOUND('',#1153,.T.);
#1240=FACE_BOUND('',#1154,.T.);
#1241=FACE_BOUND('',#1155,.T.);
#1242=FACE_BOUND('',#1156,.T.);
#1243=FACE_BOUND('',#1157,.T.);
#1244=FACE_BOUND('',#1158,.T.);
#1245=FACE_BOUND('',#1159,.T.);
#1246=FACE_BOUND('',#1160,.T.);
#1247=FACE_BOUND('',#1161,.T.);
#1248=FACE_BOUND('',#1162,.T.);
#1249=FACE_BOUND('',#1163,.T.);
#1250=FACE_BOUND('',#1164,.T.);
#1251=FACE_BOUND('',#1165,.T.);
#1252=FACE_BOUND('',#1166,.T.);
#1253=FACE_BOUND('',#1167,.T.);
#1254=FACE_BOUND('',#1168,.T.);
#1255=FACE_BOUND('',#1169,.T.);
#1256=FACE_BOUND('',#1170,.T.);
#1257=FACE_BOUND('',#1171,.T.);
#1258=FACE_BOUND('',#1172,.T.);
#1259=FACE_BOUND('',#1173,.T.);
#1260=FACE_BOUND('',#1174,.T.);
#1261=FACE_BOUND('',#1175,.T.);
#1262=FACE_BOUND('',#1176,.T.);
#1263=FACE_BOUND('',#1177,.T.);
#1264=FACE_BOUND('',#1178,.T.);
#1265=FACE_BOUND('',#1179,.T.);
#1266=FACE_BOUND('',#1180,.T.);
#1267=FACE_BOUND('',#1181,.T.);
#1268=FACE_BOUND('',#1182,.T.);
#1269=FACE_BOUND('',#1183,.T.);
#1270=FACE_BOUND('',#1184,.T.);
#1271=FACE_BOUND('',#1185,.T.);
#1272=FACE_BOUND('',#1186,.T.);
#1273=FACE_BOUND('',#1187,.T.);
#1274=FACE_BOUND('',#1188,.T.);
#1275=FACE_BOUND('',#1189,.T.);
#1276=FACE_BOUND('',#1190,.T.);
#1277=FACE_BOUND('',#1191,.T.);
#1278=FACE_BOUND('',#1192,.T.);
#1279=FACE_BOUND('',#1193,.T.);
#1280=FACE_BOUND('',#1194,.T.);
#1281=FACE_BOUND('',#1195,.T.);
#1282=FACE_BOUND('',#1196,.T.);
#1283=FACE_BOUND('',#1197,.T.);
#1284=FACE_BOUND('',#1198,.T.);
#1285=FACE_BOUND('',#1199,.T.);
#1286=FACE_BOUND('',#1200,.T.);
#1287=FACE_BOUND('',#1201,.T.);
#1288=PLANE('',#1488);
#1289=PLANE('',#1489);
#1290=PLANE('',#1490);
#1291=PLANE('',#1491);
#1292=PLANE('',#1492);
#1293=PLANE('',#1493);
#1294=PLANE('',#1494);
#1295=PLANE('',#1495);
#1296=PLANE('',#1496);
#1297=PLANE('',#1497);
#1298=PLANE('',#1498);
#1299=PLANE('',#1499);
#1300=PLANE('',#1500);
#1301=PLANE('',#1501);
#1302=PLANE('',#1503);
#1303=PLANE('',#1504);
#1304=PLANE('',#1505);
#1305=PLANE('',#1506);
#1306=PLANE('',#1507);
#1307=PLANE('',#1508);
#1308=PLANE('',#1509);
#1309=PLANE('',#1510);
#1310=PLANE('',#1511);
#1311=PLANE('',#1512);
#1312=PLANE('',#1513);
#1313=PLANE('',#1514);
#1314=PLANE('',#1515);
#1315=PLANE('',#1516);
#1316=PLANE('',#1517);
#1317=PLANE('',#1518);
#1318=PLANE('',#1519);
#1319=PLANE('',#1520);
#1320=PLANE('',#1521);
#1321=PLANE('',#1522);
#1322=PLANE('',#1523);
#1323=PLANE('',#1524);
#1324=PLANE('',#1525);
#1325=PLANE('',#1526);
#1326=PLANE('',#1527);
#1327=PLANE('',#1528);
#1328=PLANE('',#1529);
#1329=PLANE('',#1530);
#1330=PLANE('',#1531);
#1331=PLANE('',#1532);
#1332=PLANE('',#1533);
#1333=PLANE('',#1534);
#1334=PLANE('',#1535);
#1335=PLANE('',#1536);
#1336=PLANE('',#1537);
#1337=PLANE('',#1538);
#1338=PLANE('',#1539);
#1339=PLANE('',#1540);
#1340=PLANE('',#1541);
#1341=PLANE('',#1542);
#1342=PLANE('',#1543);
#1343=PLANE('',#1544);
#1344=PLANE('',#1545);
#1345=PLANE('',#1546);
#1346=PLANE('',#1547);
#1347=PLANE('',#1548);
#1348=PLANE('',#1549);
#1349=PLANE('',#1550);
#1350=PLANE('',#1551);
#1351=PLANE('',#1552);
#1352=PLANE('',#1553);
#1353=PLANE('',#1554);
#1354=PLANE('',#1555);
#1355=PLANE('',#1556);
#1356=PLANE('',#1558);
#1357=PLANE('',#1559);
#1358=PLANE('',#1560);
#1359=PLANE('',#1561);
#1360=PLANE('',#1562);
#1361=PLANE('',#1563);
#1362=PLANE('',#1564);
#1363=PLANE('',#1565);
#1364=PLANE('',#1566);
#1365=PLANE('',#1567);
#1366=PLANE('',#1568);
#1367=PLANE('',#1569);
#1368=PLANE('',#1570);
#1369=PLANE('',#1571);
#1370=ADVANCED_FACE('',(#1202),#1288,.F.);
#1371=ADVANCED_FACE('',(#1203),#1289,.T.);
#1372=ADVANCED_FACE('',(#1204),#1290,.T.);
#1373=ADVANCED_FACE('',(#1205),#1291,.F.);
#1374=ADVANCED_FACE('',(#1206),#1292,.F.);
#1375=ADVANCED_FACE('',(#1207),#1293,.T.);
#1376=ADVANCED_FACE('',(#1208),#1294,.F.);
#1377=ADVANCED_FACE('',(#1209),#1295,.T.);
#1378=ADVANCED_FACE('',(#1210),#1296,.F.);
#1379=ADVANCED_FACE('',(#1211),#1297,.T.);
#1380=ADVANCED_FACE('',(#1212),#1298,.T.);
#1381=ADVANCED_FACE('',(#1213),#1299,.F.);
#1382=ADVANCED_FACE('',(#1214),#1300,.T.);
#1383=ADVANCED_FACE('',(#1215),#1301,.F.);
#1384=ADVANCED_FACE('',(#1216),#1302,.T.);
#1385=ADVANCED_FACE('',(#1217,#1218),#1303,.T.);
#1386=ADVANCED_FACE('',(#1219,#1220),#1304,.T.);
#1387=ADVANCED_FACE('',(#1221),#1305,.F.);
#1388=ADVANCED_FACE('',(#1222),#1306,.T.);
#1389=ADVANCED_FACE('',(#1223),#1307,.F.);
#1390=ADVANCED_FACE('',(#1224),#1308,.F.);
#1391=ADVANCED_FACE('',(#1225),#1309,.T.);
#1392=ADVANCED_FACE('',(#1226),#1310,.F.);
#1393=ADVANCED_FACE('',(#1227),#1311,.F.);
#1394=ADVANCED_FACE('',(#1228),#1312,.F.);
#1395=ADVANCED_FACE('',(#1229),#1313,.F.);
#1396=ADVANCED_FACE('',(#1230),#1314,.F.);
#1397=ADVANCED_FACE('',(#1231),#1315,.F.);
#1398=ADVANCED_FACE('',(#1232),#1316,.T.);
#1399=ADVANCED_FACE('',(#1233),#1317,.F.);
#1400=ADVANCED_FACE('',(#1234),#1318,.T.);
#1401=ADVANCED_FACE('',(#1235),#1319,.F.);
#1402=ADVANCED_FACE('',(#1236),#1320,.T.);
#1403=ADVANCED_FACE('',(#1237),#1321,.T.);
#1404=ADVANCED_FACE('',(#1238),#1322,.F.);
#1405=ADVANCED_FACE('',(#1239),#1323,.T.);
#1406=ADVANCED_FACE('',(#1240),#1324,.F.);
#1407=ADVANCED_FACE('',(#1241),#1325,.T.);
#1408=ADVANCED_FACE('',(#1242),#1326,.T.);
#1409=ADVANCED_FACE('',(#1243),#1327,.T.);
#1410=ADVANCED_FACE('',(#1244),#1328,.T.);
#1411=ADVANCED_FACE('',(#1245),#1329,.T.);
#1412=ADVANCED_FACE('',(#1246,#1247),#1330,.T.);
#1413=ADVANCED_FACE('',(#1248,#1249),#1331,.T.);
#1414=ADVANCED_FACE('',(#1250),#1332,.F.);
#1415=ADVANCED_FACE('',(#1251),#1333,.T.);
#1416=ADVANCED_FACE('',(#1252),#1334,.F.);
#1417=ADVANCED_FACE('',(#1253),#1335,.F.);
#1418=ADVANCED_FACE('',(#1254),#1336,.T.);
#1419=ADVANCED_FACE('',(#1255),#1337,.F.);
#1420=ADVANCED_FACE('',(#1256),#1338,.F.);
#1421=ADVANCED_FACE('',(#1257),#1339,.F.);
#1422=ADVANCED_FACE('',(#1258),#1340,.F.);
#1423=ADVANCED_FACE('',(#1259),#1341,.F.);
#1424=ADVANCED_FACE('',(#1260),#1342,.F.);
#1425=ADVANCED_FACE('',(#1261),#1343,.T.);
#1426=ADVANCED_FACE('',(#1262),#1344,.F.);
#1427=ADVANCED_FACE('',(#1263),#1345,.T.);
#1428=ADVANCED_FACE('',(#1264),#1346,.F.);
#1429=ADVANCED_FACE('',(#1265),#1347,.T.);
#1430=ADVANCED_FACE('',(#1266),#1348,.T.);
#1431=ADVANCED_FACE('',(#1267),#1349,.F.);
#1432=ADVANCED_FACE('',(#1268),#1350,.T.);
#1433=ADVANCED_FACE('',(#1269),#1351,.F.);
#1434=ADVANCED_FACE('',(#1270),#1352,.T.);
#1435=ADVANCED_FACE('',(#1271),#1353,.T.);
#1436=ADVANCED_FACE('',(#1272),#1354,.T.);
#1437=ADVANCED_FACE('',(#1273),#1355,.T.);
#1438=ADVANCED_FACE('',(#1274),#1356,.F.);
#1439=ADVANCED_FACE('',(#1275),#1357,.T.);
#1440=ADVANCED_FACE('',(#1276),#1358,.T.);
#1441=ADVANCED_FACE('',(#1277),#1359,.F.);
#1442=ADVANCED_FACE('',(#1278),#1360,.F.);
#1443=ADVANCED_FACE('',(#1279),#1361,.T.);
#1444=ADVANCED_FACE('',(#1280),#1362,.F.);
#1445=ADVANCED_FACE('',(#1281),#1363,.T.);
#1446=ADVANCED_FACE('',(#1282),#1364,.F.);
#1447=ADVANCED_FACE('',(#1283),#1365,.T.);
#1448=ADVANCED_FACE('',(#1284),#1366,.T.);
#1449=ADVANCED_FACE('',(#1285),#1367,.F.);
#1450=ADVANCED_FACE('',(#1286),#1368,.T.);
#1451=ADVANCED_FACE('',(#1287),#1369,.F.);
#1452=CLOSED_SHELL('',(#1370,#1371,#1372,#1373,#1374,#1375,#1376,#1377,#1378,#1379,#1380,#1381,#1382,#1383));
#1453=CLOSED_SHELL('',(#1384,#1385,#1386,#1387,#1388,#1389,#1390,#1391,#1392,#1393,#1394,#1395,#1396,#1397,#1398,#1399,#1400,#1401,#1402,#1403,#1404,#1405,#1406,#1407,#1408,#1409,#1410,#1411,#1412,#1413,#1414,#1415,#1416,#1417,#1418,#1419,#1420,#1421,#1422,#1423,#1424,#1425,#1426,#1427,#1428,#1429,#1430,#1431,#1432,#1433,#1434,#1435,#1436,#1437));
#1454=CLOSED_SHELL('',(#1438,#1439,#1440,#1441,#1442,#1443,#1444,#1445,#1446,#1447,#1448,#1449,#1450,#1451));
#1455=STYLED_ITEM('',(#1458),#1478);
#1456=STYLED_ITEM('',(#1459),#1479);
#1457=STYLED_ITEM('',(#1460),#1480);
#1458=PRESENTATION_STYLE_ASSIGNMENT((#1461));
#1459=PRESENTATION_STYLE_ASSIGNMENT((#1462));
#1460=PRESENTATION_STYLE_ASSIGNMENT((#1463));
#1461=SURFACE_STYLE_USAGE(.BOTH.,#1464);
#1462=SURFACE_STYLE_USAGE(.BOTH.,#1465);
#1463=SURFACE_STYLE_USAGE(.BOTH.,#1466);
#1464=SURFACE_SIDE_STYLE('',(#1467));
#1465=SURFACE_SIDE_STYLE('',(#1468));
#1466=SURFACE_SIDE_STYLE('',(#1469));
#1467=SURFACE_STYLE_FILL_AREA(#1470);
#1468=SURFACE_STYLE_FILL_AREA(#1471);
#1469=SURFACE_STYLE_FILL_AREA(#1472);
#1470=FILL_AREA_STYLE('',(#1473));
#1471=FILL_AREA_STYLE('',(#1474));
#1472=FILL_AREA_STYLE('',(#1475));
#1473=FILL_AREA_STYLE_COLOUR('',#1476);
#1474=FILL_AREA_STYLE_COLOUR('',#1477);
#1475=FILL_AREA_STYLE_COLOUR('',#1476);
#1476=COLOUR_RGB('',0.858823529411765,0.737254901960784,0.494117647058824);
#1477=COLOUR_RGB('',0.301960784313725,0.301960784313725,0.301960784313725);
#1478=MANIFOLD_SOLID_BREP('Part 3',#1452);
#1479=MANIFOLD_SOLID_BREP('Part 1',#1453);
#1480=MANIFOLD_SOLID_BREP('Part 2',#1454);
#1481=SHAPE_DEFINITION_REPRESENTATION(#2357,#1484);
#1482=SHAPE_DEFINITION_REPRESENTATION(#2358,#1485);
#1483=SHAPE_DEFINITION_REPRESENTATION(#2359,#1486);
#1484=SHAPE_REPRESENTATION('Part 3',(#1487),#2342);
#1485=SHAPE_REPRESENTATION('Part 1',(#1502),#2343);
#1486=SHAPE_REPRESENTATION('Part 2',(#1557),#2344);
#1487=AXIS2_PLACEMENT_3D('',#1938,#1572,#1573);
#1488=AXIS2_PLACEMENT_3D('',#1939,#1574,#1575);
#1489=AXIS2_PLACEMENT_3D('',#1948,#1580,#1581);
#1490=AXIS2_PLACEMENT_3D('',#1954,#1585,#1586);
#1491=AXIS2_PLACEMENT_3D('',#1960,#1590,#1591);
#1492=AXIS2_PLACEMENT_3D('',#1963,#1594,#1595);
#1493=AXIS2_PLACEMENT_3D('',#1972,#1600,#1601);
#1494=AXIS2_PLACEMENT_3D('',#1981,#1606,#1607);
#1495=AXIS2_PLACEMENT_3D('',#1984,#1610,#1611);
#1496=AXIS2_PLACEMENT_3D('',#1986,#1613,#1614);
#1497=AXIS2_PLACEMENT_3D('',#1988,#1616,#1617);
#1498=AXIS2_PLACEMENT_3D('',#1989,#1618,#1619);
#1499=AXIS2_PLACEMENT_3D('',#1992,#1622,#1623);
#1500=AXIS2_PLACEMENT_3D('',#1994,#1625,#1626);
#1501=AXIS2_PLACEMENT_3D('',#1996,#1628,#1629);
#1502=AXIS2_PLACEMENT_3D('',#1997,#1630,#1631);
#1503=AXIS2_PLACEMENT_3D('',#1998,#1632,#1633);
#1504=AXIS2_PLACEMENT_3D('',#2007,#1638,#1639);
#1505=AXIS2_PLACEMENT_3D('',#2039,#1656,#1657);
#1506=AXIS2_PLACEMENT_3D('',#2056,#1666,#1667);
#1507=AXIS2_PLACEMENT_3D('',#2066,#1674,#1675);
#1508=AXIS2_PLACEMENT_3D('',#2069,#1678,#1679);
#1509=AXIS2_PLACEMENT_3D('',#2071,#1681,#1682);
#1510=AXIS2_PLACEMENT_3D('',#2073,#1684,#1685);
#1511=AXIS2_PLACEMENT_3D('',#2074,#1686,#1687);
#1512=AXIS2_PLACEMENT_3D('',#2080,#1691,#1692);
#1513=AXIS2_PLACEMENT_3D('',#2084,#1695,#1696);
#1514=AXIS2_PLACEMENT_3D('',#2093,#1701,#1702);
#1515=AXIS2_PLACEMENT_3D('',#2100,#1707,#1708);
#1516=AXIS2_PLACEMENT_3D('',#2108,#1714,#1715);
#1517=AXIS2_PLACEMENT_3D('',#2112,#1718,#1719);
#1518=AXIS2_PLACEMENT_3D('',#2114,#1721,#1722);
#1519=AXIS2_PLACEMENT_3D('',#2116,#1724,#1725);
#1520=AXIS2_PLACEMENT_3D('',#2117,#1726,#1727);
#1521=AXIS2_PLACEMENT_3D('',#2119,#1729,#1730);
#1522=AXIS2_PLACEMENT_3D('',#2120,#1731,#1732);
#1523=AXIS2_PLACEMENT_3D('',#2123,#1735,#1736);
#1524=AXIS2_PLACEMENT_3D('',#2125,#1738,#1739);
#1525=AXIS2_PLACEMENT_3D('',#2126,#1740,#1741);
#1526=AXIS2_PLACEMENT_3D('',#2127,#1742,#1743);
#1527=AXIS2_PLACEMENT_3D('',#2133,#1747,#1748);
#1528=AXIS2_PLACEMENT_3D('',#2137,#1751,#1752);
#1529=AXIS2_PLACEMENT_3D('',#2141,#1755,#1756);
#1530=AXIS2_PLACEMENT_3D('',#2143,#1758,#1759);
#1531=AXIS2_PLACEMENT_3D('',#2152,#1764,#1765);
#1532=AXIS2_PLACEMENT_3D('',#2184,#1782,#1783);
#1533=AXIS2_PLACEMENT_3D('',#2201,#1792,#1793);
#1534=AXIS2_PLACEMENT_3D('',#2211,#1800,#1801);
#1535=AXIS2_PLACEMENT_3D('',#2214,#1804,#1805);
#1536=AXIS2_PLACEMENT_3D('',#2216,#1807,#1808);
#1537=AXIS2_PLACEMENT_3D('',#2218,#1810,#1811);
#1538=AXIS2_PLACEMENT_3D('',#2219,#1812,#1813);
#1539=AXIS2_PLACEMENT_3D('',#2225,#1817,#1818);
#1540=AXIS2_PLACEMENT_3D('',#2229,#1821,#1822);
#1541=AXIS2_PLACEMENT_3D('',#2238,#1827,#1828);
#1542=AXIS2_PLACEMENT_3D('',#2245,#1833,#1834);
#1543=AXIS2_PLACEMENT_3D('',#2253,#1840,#1841);
#1544=AXIS2_PLACEMENT_3D('',#2257,#1844,#1845);
#1545=AXIS2_PLACEMENT_3D('',#2259,#1847,#1848);
#1546=AXIS2_PLACEMENT_3D('',#2261,#1850,#1851);
#1547=AXIS2_PLACEMENT_3D('',#2262,#1852,#1853);
#1548=AXIS2_PLACEMENT_3D('',#2264,#1855,#1856);
#1549=AXIS2_PLACEMENT_3D('',#2265,#1857,#1858);
#1550=AXIS2_PLACEMENT_3D('',#2268,#1861,#1862);
#1551=AXIS2_PLACEMENT_3D('',#2270,#1864,#1865);
#1552=AXIS2_PLACEMENT_3D('',#2271,#1866,#1867);
#1553=AXIS2_PLACEMENT_3D('',#2272,#1868,#1869);
#1554=AXIS2_PLACEMENT_3D('',#2275,#1872,#1873);
#1555=AXIS2_PLACEMENT_3D('',#2277,#1875,#1876);
#1556=AXIS2_PLACEMENT_3D('',#2279,#1878,#1879);
#1557=AXIS2_PLACEMENT_3D('',#2280,#1880,#1881);
#1558=AXIS2_PLACEMENT_3D('',#2281,#1882,#1883);
#1559=AXIS2_PLACEMENT_3D('',#2290,#1888,#1889);
#1560=AXIS2_PLACEMENT_3D('',#2296,#1893,#1894);
#1561=AXIS2_PLACEMENT_3D('',#2302,#1898,#1899);
#1562=AXIS2_PLACEMENT_3D('',#2305,#1902,#1903);
#1563=AXIS2_PLACEMENT_3D('',#2314,#1908,#1909);
#1564=AXIS2_PLACEMENT_3D('',#2323,#1914,#1915);
#1565=AXIS2_PLACEMENT_3D('',#2326,#1918,#1919);
#1566=AXIS2_PLACEMENT_3D('',#2328,#1921,#1922);
#1567=AXIS2_PLACEMENT_3D('',#2330,#1924,#1925);
#1568=AXIS2_PLACEMENT_3D('',#2331,#1926,#1927);
#1569=AXIS2_PLACEMENT_3D('',#2334,#1930,#1931);
#1570=AXIS2_PLACEMENT_3D('',#2336,#1933,#1934);
#1571=AXIS2_PLACEMENT_3D('',#2338,#1936,#1937);
#1572=DIRECTION('',(0.,0.,1.));
#1573=DIRECTION('',(1.,0.,0.));
#1574=DIRECTION('',(0.,-1.,0.));
#1575=DIRECTION('',(0.,0.,-1.));
#1576=DIRECTION('',(0.,0.,1.));
#1577=DIRECTION('',(1.,0.,0.));
#1578=DIRECTION('',(0.,0.,1.));
#1579=DIRECTION('',(-1.,0.,0.));
#1580=DIRECTION('',(1.,3.3881317890172E-16,0.));
#1581=DIRECTION('',(3.3881317890172E-16,-1.,0.));
#1582=DIRECTION('',(0.,0.,1.));
#1583=DIRECTION('',(3.3881317890172E-16,-1.,0.));
#1584=DIRECTION('',(-3.3881317890172E-16,1.,0.));
#1585=DIRECTION('',(0.,-1.,0.));
#1586=DIRECTION('',(0.,0.,-1.));
#1587=DIRECTION('',(0.,0.,1.));
#1588=DIRECTION('',(-1.,0.,0.));
#1589=DIRECTION('',(1.,0.,0.));
#1590=DIRECTION('',(1.,1.6940658945086E-16,0.));
#1591=DIRECTION('',(1.6940658945086E-16,-1.,0.));
#1592=DIRECTION('',(-1.6940658945086E-16,1.,0.));
#1593=DIRECTION('',(1.6940658945086E-16,-1.,0.));
#1594=DIRECTION('',(0.,0.,1.));
#1595=DIRECTION('',(-1.,0.,0.));
#1596=DIRECTION('',(-1.,0.,0.));
#1597=DIRECTION('',(-3.3881317890172E-16,1.,0.));
#1598=DIRECTION('',(1.,0.,0.));
#1599=DIRECTION('',(1.6940658945086E-16,-1.,0.));
#1600=DIRECTION('',(0.,0.,1.));
#1601=DIRECTION('',(-1.,0.,0.));
#1602=DIRECTION('',(-1.,0.,0.));
#1603=DIRECTION('',(3.3881317890172E-16,-1.,0.));
#1604=DIRECTION('',(1.,0.,0.));
#1605=DIRECTION('',(-1.6940658945086E-16,1.,0.));
#1606=DIRECTION('',(-0.866138304740651,-2.93459072397727E-16,-0.499804398801163));
#1607=DIRECTION('',(3.3881317890172E-16,-1.,0.));
#1608=DIRECTION('',(0.44707361824939,-0.44707361824939,-0.774758258898089));
#1609=DIRECTION('',(-0.44707361824939,-0.44707361824939,0.774758258898089));
#1610=DIRECTION('',(0.,0.866138304740651,0.499804398801163));
#1611=DIRECTION('',(1.,0.,0.));
#1612=DIRECTION('',(-0.44707361824939,0.44707361824939,-0.774758258898089));
#1613=DIRECTION('',(0.,0.866138304740651,-0.499804398801163));
#1614=DIRECTION('',(-1.,0.,0.));
#1615=DIRECTION('',(-0.44707361824939,-0.44707361824939,-0.774758258898089));
#1616=DIRECTION('',(-0.866138304740651,-1.46729536198863E-16,0.499804398801163));
#1617=DIRECTION('',(-1.6940658945086E-16,1.,0.));
#1618=DIRECTION('',(0.866138304740651,2.93459072397727E-16,-0.499804398801162));
#1619=DIRECTION('',(-3.3881317890172E-16,1.,0.));
#1620=DIRECTION('',(-0.447073618249389,0.447073618249389,-0.77475825889809));
#1621=DIRECTION('',(0.447073618249389,0.447073618249389,0.77475825889809));
#1622=DIRECTION('',(0.,-0.866138304740651,0.499804398801162));
#1623=DIRECTION('',(-1.,0.,0.));
#1624=DIRECTION('',(0.447073618249389,-0.447073618249389,-0.77475825889809));
#1625=DIRECTION('',(0.,-0.866138304740651,-0.499804398801162));
#1626=DIRECTION('',(1.,0.,0.));
#1627=DIRECTION('',(0.447073618249389,0.447073618249389,-0.77475825889809));
#1628=DIRECTION('',(0.866138304740651,1.46729536198863E-16,0.499804398801162));
#1629=DIRECTION('',(1.6940658945086E-16,-1.,0.));
#1630=DIRECTION('',(0.,0.,1.));
#1631=DIRECTION('',(1.,0.,0.));
#1632=DIRECTION('',(1.,0.,0.));
#1633=DIRECTION('',(0.,0.,-1.));
#1634=DIRECTION('',(0.,0.,-1.));
#1635=DIRECTION('',(0.,-1.,0.));
#1636=DIRECTION('',(0.,0.,-1.));
#1637=DIRECTION('',(0.,-1.,0.));
#1638=DIRECTION('',(0.,0.,-1.));
#1639=DIRECTION('',(1.,0.,0.));
#1640=DIRECTION('',(1.,0.,0.));
#1641=DIRECTION('',(-3.3881317890172E-16,-1.,0.));
#1642=DIRECTION('',(1.,0.,0.));
#1643=DIRECTION('',(-1.6940658945086E-16,-1.,0.));
#1644=DIRECTION('',(-1.,0.,0.));
#1645=DIRECTION('',(0.,-1.,0.));
#1646=DIRECTION('',(-1.,0.,0.));
#1647=DIRECTION('',(5.02177940011813E-16,1.,0.));
#1648=DIRECTION('',(1.,1.70740499604017E-16,0.));
#1649=DIRECTION('',(0.,1.,0.));
#1650=DIRECTION('',(1.,0.,0.));
#1651=DIRECTION('',(0.,-1.,0.));
#1652=DIRECTION('',(1.,0.,0.));
#1653=DIRECTION('',(0.,-1.,0.));
#1654=DIRECTION('',(-1.,0.,0.));
#1655=DIRECTION('',(0.,-1.,0.));
#1656=DIRECTION('',(0.,0.,1.));
#1657=DIRECTION('',(1.,0.,0.));
#1658=DIRECTION('',(-3.3881317890172E-16,-1.,0.));
#1659=DIRECTION('',(1.,0.,0.));
#1660=DIRECTION('',(-1.6940658945086E-16,-1.,0.));
#1661=DIRECTION('',(1.,0.,0.));
#1662=DIRECTION('',(1.70740499604017E-16,-1.,0.));
#1663=DIRECTION('',(-1.,0.,0.));
#1664=DIRECTION('',(0.,-1.,0.));
#1665=DIRECTION('',(1.,1.70740499604017E-16,0.));
#1666=DIRECTION('',(0.,-1.,0.));
#1667=DIRECTION('',(0.,0.,-1.));
#1668=DIRECTION('',(0.,0.,-1.));
#1669=DIRECTION('',(-1.,0.,0.));
#1670=DIRECTION('',(0.,0.,-1.));
#1671=DIRECTION('',(0.,0.,-1.));
#1672=DIRECTION('',(-1.,0.,0.));
#1673=DIRECTION('',(0.,0.,-1.));
#1674=DIRECTION('',(1.,-3.3881317890172E-16,0.));
#1675=DIRECTION('',(3.3881317890172E-16,1.,0.));
#1676=DIRECTION('',(0.,0.,-1.));
#1677=DIRECTION('',(0.,0.,-1.));
#1678=DIRECTION('',(0.,1.,0.));
#1679=DIRECTION('',(0.,0.,1.));
#1680=DIRECTION('',(0.,0.,-1.));
#1681=DIRECTION('',(1.,-1.6940658945086E-16,0.));
#1682=DIRECTION('',(1.6940658945086E-16,1.,0.));
#1683=DIRECTION('',(0.,0.,-1.));
#1684=DIRECTION('',(0.,1.,0.));
#1685=DIRECTION('',(0.,0.,1.));
#1686=DIRECTION('',(0.,0.,1.));
#1687=DIRECTION('',(1.,0.,0.));
#1688=DIRECTION('',(1.,0.,0.));
#1689=DIRECTION('',(0.,-1.,0.));
#1690=DIRECTION('',(0.,-1.,0.));
#1691=DIRECTION('',(0.,0.,1.));
#1692=DIRECTION('',(1.,0.,0.));
#1693=DIRECTION('',(0.,-1.,0.));
#1694=DIRECTION('',(-1.,0.,0.));
#1695=DIRECTION('',(0.,0.,1.));
#1696=DIRECTION('',(1.,0.,0.));
#1697=DIRECTION('',(-1.,0.,0.));
#1698=DIRECTION('',(0.,-1.,0.));
#1699=DIRECTION('',(1.,1.70740499604017E-16,0.));
#1700=DIRECTION('',(5.02177940011813E-16,1.,0.));
#1701=DIRECTION('',(1.,0.,0.));
#1702=DIRECTION('',(0.,0.,-1.));
#1703=DIRECTION('',(0.,0.,-1.));
#1704=DIRECTION('',(0.,-1.,0.));
#1705=DIRECTION('',(0.,0.,-1.));
#1706=DIRECTION('',(0.,0.,-1.));
#1707=DIRECTION('',(-1.70740499604017E-16,1.,0.));
#1708=DIRECTION('',(-1.,-1.70740499604017E-16,0.));
#1709=DIRECTION('',(0.,0.,-1.));
#1710=DIRECTION('',(1.,1.70740499604017E-16,0.));
#1711=DIRECTION('',(0.,0.,-1.));
#1712=DIRECTION('',(0.,0.,-1.));
#1713=DIRECTION('',(0.,0.,-1.));
#1714=DIRECTION('',(0.,0.,1.));
#1715=DIRECTION('',(1.,0.,0.));
#1716=DIRECTION('',(1.,0.,0.));
#1717=DIRECTION('',(0.,1.,0.));
#1718=DIRECTION('',(0.,1.,0.));
#1719=DIRECTION('',(0.,0.,1.));
#1720=DIRECTION('',(0.,0.,-1.));
#1721=DIRECTION('',(0.,1.,0.));
#1722=DIRECTION('',(0.,0.,1.));
#1723=DIRECTION('',(0.,0.,-1.));
#1724=DIRECTION('',(1.,0.,0.));
#1725=DIRECTION('',(0.,0.,-1.));
#1726=DIRECTION('',(1.,0.,0.));
#1727=DIRECTION('',(0.,0.,-1.));
#1728=DIRECTION('',(0.,0.,-1.));
#1729=DIRECTION('',(0.,-1.,0.));
#1730=DIRECTION('',(0.,0.,-1.));
#1731=DIRECTION('',(1.,0.,0.));
#1732=DIRECTION('',(0.,0.,-1.));
#1733=DIRECTION('',(0.,0.,-1.));
#1734=DIRECTION('',(0.,-1.,0.));
#1735=DIRECTION('',(0.,-1.,0.));
#1736=DIRECTION('',(0.,0.,-1.));
#1737=DIRECTION('',(0.,0.,-1.));
#1738=DIRECTION('',(-1.,5.02177940011813E-16,0.));
#1739=DIRECTION('',(-5.02177940011813E-16,-1.,0.));
#1740=DIRECTION('',(-1.,0.,0.));
#1741=DIRECTION('',(0.,0.,1.));
#1742=DIRECTION('',(0.707106781186548,-0.707106781186548,0.));
#1743=DIRECTION('',(0.,0.,-1.));
#1744=DIRECTION('',(-0.577350269189626,-0.577350269189626,-0.577350269189626));
#1745=DIRECTION('',(0.,0.,-1.));
#1746=DIRECTION('',(-0.577350269189626,-0.577350269189626,0.577350269189626));
#1747=DIRECTION('',(0.707106781186548,0.,0.707106781186547));
#1748=DIRECTION('',(0.,-1.,0.));
#1749=DIRECTION('',(0.,-1.,0.));
#1750=DIRECTION('',(-0.577350269189626,0.577350269189626,0.577350269189626));
#1751=DIRECTION('',(0.707106781186548,0.,-0.707106781186548));
#1752=DIRECTION('',(0.,1.,0.));
#1753=DIRECTION('',(0.577350269189626,-0.577350269189626,0.577350269189626));
#1754=DIRECTION('',(0.,-1.,0.));
#1755=DIRECTION('',(0.707106781186548,0.707106781186548,0.));
#1756=DIRECTION('',(0.,0.,1.));
#1757=DIRECTION('',(0.,0.,-1.));
#1758=DIRECTION('',(-1.,0.,0.));
#1759=DIRECTION('',(0.,0.,-1.));
#1760=DIRECTION('',(0.,0.,-1.));
#1761=DIRECTION('',(0.,-1.,0.));
#1762=DIRECTION('',(0.,0.,-1.));
#1763=DIRECTION('',(0.,-1.,0.));
#1764=DIRECTION('',(0.,0.,-1.));
#1765=DIRECTION('',(-1.,0.,0.));
#1766=DIRECTION('',(-1.,0.,0.));
#1767=DIRECTION('',(1.6940658945086E-16,-1.,0.));
#1768=DIRECTION('',(-1.,0.,0.));
#1769=DIRECTION('',(3.3881317890172E-16,-1.,0.));
#1770=DIRECTION('',(1.,0.,0.));
#1771=DIRECTION('',(0.,-1.,0.));
#1772=DIRECTION('',(1.,0.,0.));
#1773=DIRECTION('',(0.,-1.,0.));
#1774=DIRECTION('',(-1.,0.,0.));
#1775=DIRECTION('',(0.,-1.,0.));
#1776=DIRECTION('',(-1.,0.,0.));
#1777=DIRECTION('',(0.,1.,0.));
#1778=DIRECTION('',(-1.,1.70740499604017E-16,0.));
#1779=DIRECTION('',(-5.02177940011813E-16,1.,0.));
#1780=DIRECTION('',(1.,0.,0.));
#1781=DIRECTION('',(0.,-1.,0.));
#1782=DIRECTION('',(0.,0.,1.));
#1783=DIRECTION('',(-1.,0.,0.));
#1784=DIRECTION('',(3.3881317890172E-16,-1.,0.));
#1785=DIRECTION('',(-1.,0.,0.));
#1786=DIRECTION('',(1.6940658945086E-16,-1.,0.));
#1787=DIRECTION('',(-1.,0.,0.));
#1788=DIRECTION('',(-1.70740499604017E-16,-1.,0.));
#1789=DIRECTION('',(-1.,1.70740499604017E-16,0.));
#1790=DIRECTION('',(0.,-1.,0.));
#1791=DIRECTION('',(1.,0.,0.));
#1792=DIRECTION('',(0.,-1.,0.));
#1793=DIRECTION('',(0.,0.,-1.));
#1794=DIRECTION('',(0.,0.,-1.));
#1795=DIRECTION('',(1.,0.,0.));
#1796=DIRECTION('',(0.,0.,-1.));
#1797=DIRECTION('',(0.,0.,-1.));
#1798=DIRECTION('',(1.,0.,0.));
#1799=DIRECTION('',(0.,0.,-1.));
#1800=DIRECTION('',(-1.,-3.3881317890172E-16,0.));
#1801=DIRECTION('',(-3.3881317890172E-16,1.,0.));
#1802=DIRECTION('',(0.,0.,-1.));
#1803=DIRECTION('',(0.,0.,-1.));
#1804=DIRECTION('',(0.,1.,0.));
#1805=DIRECTION('',(0.,0.,1.));
#1806=DIRECTION('',(0.,0.,-1.));
#1807=DIRECTION('',(-1.,-1.6940658945086E-16,0.));
#1808=DIRECTION('',(-1.6940658945086E-16,1.,0.));
#1809=DIRECTION('',(0.,0.,-1.));
#1810=DIRECTION('',(0.,1.,0.));
#1811=DIRECTION('',(0.,0.,1.));
#1812=DIRECTION('',(0.,0.,1.));
#1813=DIRECTION('',(-1.,0.,0.));
#1814=DIRECTION('',(-1.,0.,0.));
#1815=DIRECTION('',(0.,-1.,0.));
#1816=DIRECTION('',(0.,-1.,0.));
#1817=DIRECTION('',(0.,0.,1.));
#1818=DIRECTION('',(-1.,0.,0.));
#1819=DIRECTION('',(0.,-1.,0.));
#1820=DIRECTION('',(1.,0.,0.));
#1821=DIRECTION('',(0.,0.,1.));
#1822=DIRECTION('',(-1.,0.,0.));
#1823=DIRECTION('',(1.,0.,0.));
#1824=DIRECTION('',(-5.02177940011813E-16,1.,0.));
#1825=DIRECTION('',(-1.,1.70740499604017E-16,0.));
#1826=DIRECTION('',(0.,-1.,0.));
#1827=DIRECTION('',(-1.,0.,0.));
#1828=DIRECTION('',(0.,0.,-1.));
#1829=DIRECTION('',(0.,0.,-1.));
#1830=DIRECTION('',(0.,0.,-1.));
#1831=DIRECTION('',(0.,-1.,0.));
#1832=DIRECTION('',(0.,0.,-1.));
#1833=DIRECTION('',(1.70740499604017E-16,1.,0.));
#1834=DIRECTION('',(1.,-1.70740499604017E-16,0.));
#1835=DIRECTION('',(0.,0.,-1.));
#1836=DIRECTION('',(0.,0.,-1.));
#1837=DIRECTION('',(0.,0.,-1.));
#1838=DIRECTION('',(0.,0.,-1.));
#1839=DIRECTION('',(-1.,1.70740499604017E-16,0.));
#1840=DIRECTION('',(0.,0.,1.));
#1841=DIRECTION('',(-1.,0.,0.));
#1842=DIRECTION('',(0.,1.,0.));
#1843=DIRECTION('',(-1.,0.,0.));
#1844=DIRECTION('',(0.,1.,0.));
#1845=DIRECTION('',(0.,0.,1.));
#1846=DIRECTION('',(0.,0.,-1.));
#1847=DIRECTION('',(0.,1.,0.));
#1848=DIRECTION('',(0.,0.,1.));
#1849=DIRECTION('',(0.,0.,-1.));
#1850=DIRECTION('',(-1.,0.,0.));
#1851=DIRECTION('',(0.,0.,-1.));
#1852=DIRECTION('',(-1.,0.,0.));
#1853=DIRECTION('',(0.,0.,-1.));
#1854=DIRECTION('',(0.,0.,-1.));
#1855=DIRECTION('',(0.,-1.,0.));
#1856=DIRECTION('',(0.,0.,-1.));
#1857=DIRECTION('',(-1.,0.,0.));
#1858=DIRECTION('',(0.,0.,-1.));
#1859=DIRECTION('',(0.,0.,-1.));
#1860=DIRECTION('',(0.,-1.,0.));
#1861=DIRECTION('',(0.,-1.,0.));
#1862=DIRECTION('',(0.,0.,-1.));
#1863=DIRECTION('',(0.,0.,-1.));
#1864=DIRECTION('',(1.,5.02177940011813E-16,0.));
#1865=DIRECTION('',(5.02177940011813E-16,-1.,0.));
#1866=DIRECTION('',(1.,0.,0.));
#1867=DIRECTION('',(0.,0.,1.));
#1868=DIRECTION('',(-0.707106781186548,-0.707106781186548,0.));
#1869=DIRECTION('',(0.,0.,-1.));
#1870=DIRECTION('',(0.577350269189626,-0.577350269189626,-0.577350269189626));
#1871=DIRECTION('',(0.577350269189626,-0.577350269189626,0.577350269189626));
#1872=DIRECTION('',(-0.707106781186548,0.,0.707106781186547));
#1873=DIRECTION('',(0.,-1.,0.));
#1874=DIRECTION('',(0.577350269189626,0.577350269189626,0.577350269189626));
#1875=DIRECTION('',(-0.707106781186548,0.,-0.707106781186548));
#1876=DIRECTION('',(0.,1.,0.));
#1877=DIRECTION('',(-0.577350269189626,-0.577350269189626,0.577350269189626));
#1878=DIRECTION('',(-0.707106781186548,0.707106781186548,0.));
#1879=DIRECTION('',(0.,0.,1.));
#1880=DIRECTION('',(0.,0.,1.));
#1881=DIRECTION('',(1.,0.,0.));
#1882=DIRECTION('',(0.,-1.,0.));
#1883=DIRECTION('',(0.,0.,-1.));
#1884=DIRECTION('',(0.,0.,1.));
#1885=DIRECTION('',(1.,0.,0.));
#1886=DIRECTION('',(0.,0.,1.));
#1887=DIRECTION('',(-1.,0.,0.));
#1888=DIRECTION('',(-1.,3.3881317890172E-16,0.));
#1889=DIRECTION('',(-3.3881317890172E-16,-1.,0.));
#1890=DIRECTION('',(0.,0.,1.));
#1891=DIRECTION('',(3.3881317890172E-16,1.,0.));
#1892=DIRECTION('',(-3.3881317890172E-16,-1.,0.));
#1893=DIRECTION('',(0.,-1.,0.));
#1894=DIRECTION('',(0.,0.,-1.));
#1895=DIRECTION('',(0.,0.,1.));
#1896=DIRECTION('',(-1.,0.,0.));
#1897=DIRECTION('',(1.,0.,0.));
#1898=DIRECTION('',(-1.,1.6940658945086E-16,0.));
#1899=DIRECTION('',(-1.6940658945086E-16,-1.,0.));
#1900=DIRECTION('',(-1.6940658945086E-16,-1.,0.));
#1901=DIRECTION('',(1.6940658945086E-16,1.,0.));
#1902=DIRECTION('',(0.,0.,1.));
#1903=DIRECTION('',(1.,0.,0.));
#1904=DIRECTION('',(1.,0.,0.));
#1905=DIRECTION('',(-1.6940658945086E-16,-1.,0.));
#1906=DIRECTION('',(-1.,0.,0.));
#1907=DIRECTION('',(3.3881317890172E-16,1.,0.));
#1908=DIRECTION('',(0.,0.,1.));
#1909=DIRECTION('',(1.,0.,0.));
#1910=DIRECTION('',(1.,0.,0.));
#1911=DIRECTION('',(1.6940658945086E-16,1.,0.));
#1912=DIRECTION('',(-1.,0.,0.));
#1913=DIRECTION('',(-3.3881317890172E-16,-1.,0.));
#1914=DIRECTION('',(0.866138304740651,-2.93459072397727E-16,-0.499804398801163));
#1915=DIRECTION('',(-3.3881317890172E-16,-1.,0.));
#1916=DIRECTION('',(-0.44707361824939,-0.44707361824939,-0.774758258898089));
#1917=DIRECTION('',(0.44707361824939,-0.44707361824939,0.774758258898089));
#1918=DIRECTION('',(0.,0.866138304740651,0.499804398801163));
#1919=DIRECTION('',(-1.,0.,0.));
#1920=DIRECTION('',(0.44707361824939,0.44707361824939,-0.774758258898089));
#1921=DIRECTION('',(0.,0.866138304740651,-0.499804398801163));
#1922=DIRECTION('',(1.,0.,0.));
#1923=DIRECTION('',(0.44707361824939,-0.44707361824939,-0.774758258898089));
#1924=DIRECTION('',(0.866138304740651,-1.46729536198863E-16,0.499804398801163));
#1925=DIRECTION('',(1.6940658945086E-16,1.,0.));
#1926=DIRECTION('',(-0.866138304740651,2.93459072397727E-16,-0.499804398801162));
#1927=DIRECTION('',(3.3881317890172E-16,1.,0.));
#1928=DIRECTION('',(0.447073618249389,0.447073618249389,-0.77475825889809));
#1929=DIRECTION('',(-0.447073618249389,0.447073618249389,0.77475825889809));
#1930=DIRECTION('',(0.,-0.866138304740651,0.499804398801162));
#1931=DIRECTION('',(1.,0.,0.));
#1932=DIRECTION('',(-0.447073618249389,-0.447073618249389,-0.77475825889809));
#1933=DIRECTION('',(0.,-0.866138304740651,-0.499804398801162));
#1934=DIRECTION('',(-1.,0.,0.));
#1935=DIRECTION('',(-0.447073618249389,0.447073618249389,-0.77475825889809));
#1936=DIRECTION('',(-0.866138304740651,1.46729536198863E-16,0.499804398801162));
#1937=DIRECTION('',(-1.6940658945086E-16,-1.,0.));
#1938=CARTESIAN_POINT('',(0.,0.,0.));
#1939=CARTESIAN_POINT('',(0.00127,0.00032,-0.00254));
#1940=CARTESIAN_POINT('',(0.00159,0.00032,-0.00254));
#1941=CARTESIAN_POINT('',(0.00159,0.00032,-0.002235));
#1942=CARTESIAN_POINT('',(0.00159,0.00032,0.008077));
#1943=CARTESIAN_POINT('',(0.00127,0.00032,-0.002235));
#1944=CARTESIAN_POINT('',(0.00095,0.00032,-0.002235));
#1945=CARTESIAN_POINT('',(0.00095,0.00032,-0.00254));
#1946=CARTESIAN_POINT('',(0.00095,0.00032,0.008077));
#1947=CARTESIAN_POINT('',(0.00095,0.00032,0.008077));
#1948=CARTESIAN_POINT('',(0.00159,2.71050543121376E-20,-0.00254));
#1949=CARTESIAN_POINT('',(0.00159,-0.00032,-0.00254));
#1950=CARTESIAN_POINT('',(0.00159,-0.00032,-0.002235));
#1951=CARTESIAN_POINT('',(0.00159,-0.00032,0.008077));
#1952=CARTESIAN_POINT('',(0.00159,-0.00032,-0.002235));
#1953=CARTESIAN_POINT('',(0.00159,2.71050543121376E-20,0.008077));
#1954=CARTESIAN_POINT('',(0.00127,-0.00032,-0.00254));
#1955=CARTESIAN_POINT('',(0.00095,-0.00032,-0.00254));
#1956=CARTESIAN_POINT('',(0.00095,-0.00032,-0.002235));
#1957=CARTESIAN_POINT('',(0.00095,-0.00032,0.008077));
#1958=CARTESIAN_POINT('',(0.00095,-0.00032,-0.002235));
#1959=CARTESIAN_POINT('',(0.00127,-0.00032,0.008077));
#1960=CARTESIAN_POINT('',(0.00095,-2.71050543121376E-20,-0.00254));
#1961=CARTESIAN_POINT('',(0.00095,-2.71050543121376E-20,-0.002235));
#1962=CARTESIAN_POINT('',(0.00095,-0.00032,0.008077));
#1963=CARTESIAN_POINT('',(0.00127,0.,-0.00254));
#1964=CARTESIAN_POINT('',(0.00127,0.000144,-0.00254));
#1965=CARTESIAN_POINT('',(0.001414,0.000144,-0.00254));
#1966=CARTESIAN_POINT('',(0.001126,0.000144,-0.00254));
#1967=CARTESIAN_POINT('',(0.001414,0.00032,-0.00254));
#1968=CARTESIAN_POINT('',(0.001414,-0.000144,-0.00254));
#1969=CARTESIAN_POINT('',(0.00159,-0.000144,-0.00254));
#1970=CARTESIAN_POINT('',(0.001126,-0.000144,-0.00254));
#1971=CARTESIAN_POINT('',(0.001126,-2.43945488809238E-20,-0.00254));
#1972=CARTESIAN_POINT('',(0.00127,0.,0.008382));
#1973=CARTESIAN_POINT('',(0.00127,-0.000144,0.008382));
#1974=CARTESIAN_POINT('',(0.001414,-0.000144,0.008382));
#1975=CARTESIAN_POINT('',(0.001126,-0.000144,0.008382));
#1976=CARTESIAN_POINT('',(0.001414,4.87890977618481E-20,0.008382));
#1977=CARTESIAN_POINT('',(0.001414,0.000144,0.008382));
#1978=CARTESIAN_POINT('',(0.00159,0.000144,0.008382));
#1979=CARTESIAN_POINT('',(0.001126,0.000144,0.008382));
#1980=CARTESIAN_POINT('',(0.001126,0.00032,0.008382));
#1981=CARTESIAN_POINT('',(0.001414,4.8789097761848E-20,0.008382));
#1982=CARTESIAN_POINT('',(0.00138521802590062,-0.000115218025900617,0.00843187785284268));
#1983=CARTESIAN_POINT('',(0.00138521802590062,0.000115218025900617,0.00843187785284268));
#1984=CARTESIAN_POINT('',(0.00127,0.00032,0.008077));
#1985=CARTESIAN_POINT('',(0.00101395994244307,0.000256040057556928,0.00818783967298373));
#1986=CARTESIAN_POINT('',(0.00127,-0.000144,0.008382));
#1987=CARTESIAN_POINT('',(0.00115478197409938,-0.000115218025900618,0.00843187785284268));
#1988=CARTESIAN_POINT('',(0.00095,-2.71050543121376E-20,0.008077));
#1989=CARTESIAN_POINT('',(0.00159,2.71050543121376E-20,-0.002235));
#1990=CARTESIAN_POINT('',(0.00152604005755693,-0.000256040057556928,-0.00234583967298373));
#1991=CARTESIAN_POINT('',(0.00152604005755693,0.000256040057556928,-0.00234583967298373));
#1992=CARTESIAN_POINT('',(0.00127,0.000144,-0.00254));
#1993=CARTESIAN_POINT('',(0.00115478197409938,0.000115218025900618,-0.00258987785284268));
#1994=CARTESIAN_POINT('',(0.00127,-0.00032,-0.002235));
#1995=CARTESIAN_POINT('',(0.00101395994244307,-0.000256040057556928,-0.00234583967298373));
#1996=CARTESIAN_POINT('',(0.001126,-2.43945488809238E-20,-0.00254));
#1997=CARTESIAN_POINT('',(0.,0.,0.));
#1998=CARTESIAN_POINT('',(-0.000254,0.0010541,0.000508));
#1999=CARTESIAN_POINT('',(-0.000254,0.00127,0.000508));
#2000=CARTESIAN_POINT('',(-0.000254,0.00127,0.000508));
#2001=CARTESIAN_POINT('',(-0.000254,0.00127,0.));
#2002=CARTESIAN_POINT('',(-0.000254,-0.001016,0.000508));
#2003=CARTESIAN_POINT('',(-0.000254,0.0008382,0.000508));
#2004=CARTESIAN_POINT('',(-0.000254,0.0008382,0.000508));
#2005=CARTESIAN_POINT('',(-0.000254,0.0008382,0.));
#2006=CARTESIAN_POINT('',(-0.000254,0.0010541,0.));
#2007=CARTESIAN_POINT('',(-0.00127,0.,0.000508));
#2008=CARTESIAN_POINT('',(-0.00127,0.00032,0.000508));
#2009=CARTESIAN_POINT('',(-0.00159,0.00032,0.000508));
#2010=CARTESIAN_POINT('',(-0.00095,0.00032,0.000508));
#2011=CARTESIAN_POINT('',(-0.00159,2.71050543121376E-20,0.000508));
#2012=CARTESIAN_POINT('',(-0.00159,-0.00032,0.000508));
#2013=CARTESIAN_POINT('',(-0.00127,-0.00032,0.000508));
#2014=CARTESIAN_POINT('',(-0.00095,-0.00032,0.000508));
#2015=CARTESIAN_POINT('',(-0.00095,-2.71050543121376E-20,0.000508));
#2016=CARTESIAN_POINT('',(-0.0004699,0.0008382,0.000508));
#2017=CARTESIAN_POINT('',(-0.0006858,0.0008382,0.000508));
#2018=CARTESIAN_POINT('',(-0.000254,0.,0.000508));
#2019=CARTESIAN_POINT('',(-0.000254,-0.0008382,0.000508));
#2020=CARTESIAN_POINT('',(-0.0004699,-0.0008382,0.000508));
#2021=CARTESIAN_POINT('',(-0.0006858,-0.0008382,0.000508));
#2022=CARTESIAN_POINT('',(-0.0006858,-0.0010541,0.000508));
#2023=CARTESIAN_POINT('',(-0.0006858,-0.00127,0.000508));
#2024=CARTESIAN_POINT('',(-0.00127,-0.00127,0.000508));
#2025=CARTESIAN_POINT('',(-0.0021082,-0.00127,0.000508));
#2026=CARTESIAN_POINT('',(-0.0021082,-0.0010541,0.000508));
#2027=CARTESIAN_POINT('',(-0.0021082,-0.0008382,0.000508));
#2028=CARTESIAN_POINT('',(-0.0023241,-0.0008382,0.000508));
#2029=CARTESIAN_POINT('',(-0.00254,-0.0008382,0.000508));
#2030=CARTESIAN_POINT('',(-0.00254,-2.16840434497101E-19,0.000508));
#2031=CARTESIAN_POINT('',(-0.00254,0.0008382,0.000508));
#2032=CARTESIAN_POINT('',(-0.0023241,0.0008382,0.000508));
#2033=CARTESIAN_POINT('',(-0.0021082,0.0008382,0.000508));
#2034=CARTESIAN_POINT('',(-0.0021082,0.0010541,0.000508));
#2035=CARTESIAN_POINT('',(-0.0021082,0.00127,0.000508));
#2036=CARTESIAN_POINT('',(-0.00127,0.00127,0.000508));
#2037=CARTESIAN_POINT('',(-0.0006858,0.00127,0.000508));
#2038=CARTESIAN_POINT('',(-0.0006858,0.0010541,0.000508));
#2039=CARTESIAN_POINT('',(-0.00127,0.,0.00254));
#2040=CARTESIAN_POINT('',(-0.00159,2.71050543121376E-20,0.00254));
#2041=CARTESIAN_POINT('',(-0.00159,0.00032,0.00254));
#2042=CARTESIAN_POINT('',(-0.00159,-0.00032,0.00254));
#2043=CARTESIAN_POINT('',(-0.00127,0.00032,0.00254));
#2044=CARTESIAN_POINT('',(-0.00095,0.00032,0.00254));
#2045=CARTESIAN_POINT('',(-0.00095,-2.71050543121376E-20,0.00254));
#2046=CARTESIAN_POINT('',(-0.00095,-0.00032,0.00254));
#2047=CARTESIAN_POINT('',(-0.00127,-0.00032,0.00254));
#2048=CARTESIAN_POINT('',(-0.000254,-0.001016,0.00254));
#2049=CARTESIAN_POINT('',(-0.000254,0.00127,0.00254));
#2050=CARTESIAN_POINT('',(-0.000254,-0.00127,0.00254));
#2051=CARTESIAN_POINT('',(-0.00127,0.00127,0.00254));
#2052=CARTESIAN_POINT('',(-0.00254,0.00127,0.00254));
#2053=CARTESIAN_POINT('',(-0.00254,-2.16840434497101E-19,0.00254));
#2054=CARTESIAN_POINT('',(-0.00254,-0.00127,0.00254));
#2055=CARTESIAN_POINT('',(-0.00127,-0.00127,0.00254));
#2056=CARTESIAN_POINT('',(-0.00127,0.00127,0.00254));
#2057=CARTESIAN_POINT('',(-0.000254,0.00127,0.000508));
#2058=CARTESIAN_POINT('',(-0.00127,0.00127,0.));
#2059=CARTESIAN_POINT('',(-0.0006858,0.00127,0.));
#2060=CARTESIAN_POINT('',(-0.0006858,0.00127,0.000508));
#2061=CARTESIAN_POINT('',(-0.0021082,0.00127,0.000508));
#2062=CARTESIAN_POINT('',(-0.0021082,0.00127,0.));
#2063=CARTESIAN_POINT('',(-0.00127,0.00127,0.));
#2064=CARTESIAN_POINT('',(-0.00254,0.00127,0.));
#2065=CARTESIAN_POINT('',(-0.00254,0.00127,0.00254));
#2066=CARTESIAN_POINT('',(-0.00159,2.71050543121376E-20,0.00254));
#2067=CARTESIAN_POINT('',(-0.00159,-0.00032,0.00254));
#2068=CARTESIAN_POINT('',(-0.00159,0.00032,0.00254));
#2069=CARTESIAN_POINT('',(-0.00127,0.00032,0.00254));
#2070=CARTESIAN_POINT('',(-0.00095,0.00032,0.00254));
#2071=CARTESIAN_POINT('',(-0.00095,-2.71050543121376E-20,0.00254));
#2072=CARTESIAN_POINT('',(-0.00095,-0.00032,0.00254));
#2073=CARTESIAN_POINT('',(-0.00127,-0.00032,0.00254));
#2074=CARTESIAN_POINT('',(-0.00127,0.,0.));
#2075=CARTESIAN_POINT('',(-0.0023241,0.0008382,0.));
#2076=CARTESIAN_POINT('',(-0.00254,0.0008382,0.));
#2077=CARTESIAN_POINT('',(-0.0021082,0.0008382,0.));
#2078=CARTESIAN_POINT('',(-0.00254,-2.16840434497101E-19,0.));
#2079=CARTESIAN_POINT('',(-0.0021082,0.0010541,0.));
#2080=CARTESIAN_POINT('',(-0.00127,0.,0.));
#2081=CARTESIAN_POINT('',(-0.0006858,0.0010541,0.));
#2082=CARTESIAN_POINT('',(-0.0006858,0.0008382,0.));
#2083=CARTESIAN_POINT('',(-0.0004699,0.0008382,0.));
#2084=CARTESIAN_POINT('',(-0.00127,0.,0.));
#2085=CARTESIAN_POINT('',(-0.0004699,-0.0008382,0.));
#2086=CARTESIAN_POINT('',(-0.000254,-0.0008382,0.));
#2087=CARTESIAN_POINT('',(-0.0006858,-0.0008382,0.));
#2088=CARTESIAN_POINT('',(-0.000254,-0.0010541,0.));
#2089=CARTESIAN_POINT('',(-0.000254,-0.00127,0.));
#2090=CARTESIAN_POINT('',(-0.00127,-0.00127,0.));
#2091=CARTESIAN_POINT('',(-0.0006858,-0.00127,0.));
#2092=CARTESIAN_POINT('',(-0.0006858,-0.0010541,0.));
#2093=CARTESIAN_POINT('',(-0.00254,-2.16840434497101E-19,0.00254));
#2094=CARTESIAN_POINT('',(-0.00254,-0.0008382,0.000508));
#2095=CARTESIAN_POINT('',(-0.00254,-0.0008382,0.));
#2096=CARTESIAN_POINT('',(-0.00254,-2.16840434497101E-19,0.));
#2097=CARTESIAN_POINT('',(-0.00254,-0.00127,0.));
#2098=CARTESIAN_POINT('',(-0.00254,-0.00127,0.00254));
#2099=CARTESIAN_POINT('',(-0.00254,0.0008382,0.000508));
#2100=CARTESIAN_POINT('',(-0.00127,-0.00127,0.00254));
#2101=CARTESIAN_POINT('',(-0.000254,-0.00127,0.000508));
#2102=CARTESIAN_POINT('',(-0.000254,-0.00127,0.000508));
#2103=CARTESIAN_POINT('',(-0.00127,-0.00127,0.));
#2104=CARTESIAN_POINT('',(-0.0021082,-0.00127,0.));
#2105=CARTESIAN_POINT('',(-0.0021082,-0.00127,0.000508));
#2106=CARTESIAN_POINT('',(-0.0006858,-0.00127,0.000508));
#2107=CARTESIAN_POINT('',(-0.000254,-0.00127,0.000508));
#2108=CARTESIAN_POINT('',(-0.00127,0.,0.));
#2109=CARTESIAN_POINT('',(-0.0023241,-0.0008382,0.));
#2110=CARTESIAN_POINT('',(-0.0021082,-0.0008382,0.));
#2111=CARTESIAN_POINT('',(-0.0021082,-0.0010541,0.));
#2112=CARTESIAN_POINT('',(-0.0023241,-0.0008382,0.000508));
#2113=CARTESIAN_POINT('',(-0.0021082,-0.0008382,0.000508));
#2114=CARTESIAN_POINT('',(-0.0023241,0.0008382,0.000508));
#2115=CARTESIAN_POINT('',(-0.0021082,0.0008382,0.000508));
#2116=CARTESIAN_POINT('',(-0.0021082,0.0010541,0.000508));
#2117=CARTESIAN_POINT('',(-0.0006858,0.0010541,0.000508));
#2118=CARTESIAN_POINT('',(-0.0006858,0.0008382,0.000508));
#2119=CARTESIAN_POINT('',(-0.0004699,0.0008382,0.000508));
#2120=CARTESIAN_POINT('',(-0.000254,0.0010541,0.000508));
#2121=CARTESIAN_POINT('',(-0.000254,-0.0008382,0.000508));
#2122=CARTESIAN_POINT('',(-0.000254,-0.001016,0.000508));
#2123=CARTESIAN_POINT('',(-0.0004699,-0.0008382,0.000508));
#2124=CARTESIAN_POINT('',(-0.0006858,-0.0008382,0.000508));
#2125=CARTESIAN_POINT('',(-0.0006858,-0.0010541,0.000508));
#2126=CARTESIAN_POINT('',(-0.0021082,-0.0010541,0.000508));
#2127=CARTESIAN_POINT('',(-0.000254,-0.00127,0.000508));
#2128=CARTESIAN_POINT('',(0.0005207,-0.0004953,0.0012827));
#2129=CARTESIAN_POINT('',(-3.90312782094782E-19,-0.001016,0.000762));
#2130=CARTESIAN_POINT('',(3.90312782094782E-19,-0.001016,0.00254));
#2131=CARTESIAN_POINT('',(3.90312782094782E-19,-0.001016,0.002286));
#2132=CARTESIAN_POINT('',(0.000423333333333334,-0.000592666666666666,0.00186266666666667));
#2133=CARTESIAN_POINT('',(-0.000254,0.0010541,0.00254));
#2134=CARTESIAN_POINT('',(0.,2.16840434497101E-19,0.002286));
#2135=CARTESIAN_POINT('',(0.,0.001016,0.002286));
#2136=CARTESIAN_POINT('',(-0.000182033333333333,0.00119803333333333,0.00246803333333334));
#2137=CARTESIAN_POINT('',(-0.000254,0.0010541,0.000508));
#2138=CARTESIAN_POINT('',(-0.000182033333333333,0.00119803333333333,0.000579966666666667));
#2139=CARTESIAN_POINT('',(0.,0.001016,0.000762));
#2140=CARTESIAN_POINT('',(0.,2.16840434497101E-19,0.000762));
#2141=CARTESIAN_POINT('',(-0.000254,0.00127,0.000508));
#2142=CARTESIAN_POINT('',(0.,0.001016,0.00254));
#2143=CARTESIAN_POINT('',(0.000254,0.0010541,0.000508));
#2144=CARTESIAN_POINT('',(0.000254,0.00127,0.000508));
#2145=CARTESIAN_POINT('',(0.000254,0.00127,0.000508));
#2146=CARTESIAN_POINT('',(0.000254,0.00127,0.));
#2147=CARTESIAN_POINT('',(0.000254,0.0010541,0.));
#2148=CARTESIAN_POINT('',(0.000254,0.0008382,0.));
#2149=CARTESIAN_POINT('',(0.000254,0.0008382,0.000508));
#2150=CARTESIAN_POINT('',(0.000254,0.0008382,0.000508));
#2151=CARTESIAN_POINT('',(0.000254,-0.001016,0.000508));
#2152=CARTESIAN_POINT('',(0.00127,0.,0.000508));
#2153=CARTESIAN_POINT('',(0.00127,0.00032,0.000508));
#2154=CARTESIAN_POINT('',(0.00159,0.00032,0.000508));
#2155=CARTESIAN_POINT('',(0.00095,0.00032,0.000508));
#2156=CARTESIAN_POINT('',(0.00095,-2.71050543121376E-20,0.000508));
#2157=CARTESIAN_POINT('',(0.00095,-0.00032,0.000508));
#2158=CARTESIAN_POINT('',(0.00127,-0.00032,0.000508));
#2159=CARTESIAN_POINT('',(0.00159,-0.00032,0.000508));
#2160=CARTESIAN_POINT('',(0.00159,2.71050543121376E-20,0.000508));
#2161=CARTESIAN_POINT('',(0.0004699,0.0008382,0.000508));
#2162=CARTESIAN_POINT('',(0.0006858,0.0008382,0.000508));
#2163=CARTESIAN_POINT('',(0.0006858,0.0010541,0.000508));
#2164=CARTESIAN_POINT('',(0.0006858,0.00127,0.000508));
#2165=CARTESIAN_POINT('',(0.00127,0.00127,0.000508));
#2166=CARTESIAN_POINT('',(0.0021082,0.00127,0.000508));
#2167=CARTESIAN_POINT('',(0.0021082,0.0010541,0.000508));
#2168=CARTESIAN_POINT('',(0.0021082,0.0008382,0.000508));
#2169=CARTESIAN_POINT('',(0.0023241,0.0008382,0.000508));
#2170=CARTESIAN_POINT('',(0.00254,0.0008382,0.000508));
#2171=CARTESIAN_POINT('',(0.00254,-2.16840434497101E-19,0.000508));
#2172=CARTESIAN_POINT('',(0.00254,-0.0008382,0.000508));
#2173=CARTESIAN_POINT('',(0.0023241,-0.0008382,0.000508));
#2174=CARTESIAN_POINT('',(0.0021082,-0.0008382,0.000508));
#2175=CARTESIAN_POINT('',(0.0021082,-0.0010541,0.000508));
#2176=CARTESIAN_POINT('',(0.0021082,-0.00127,0.000508));
#2177=CARTESIAN_POINT('',(0.00127,-0.00127,0.000508));
#2178=CARTESIAN_POINT('',(0.0006858,-0.00127,0.000508));
#2179=CARTESIAN_POINT('',(0.0006858,-0.0010541,0.000508));
#2180=CARTESIAN_POINT('',(0.0006858,-0.0008382,0.000508));
#2181=CARTESIAN_POINT('',(0.0004699,-0.0008382,0.000508));
#2182=CARTESIAN_POINT('',(0.000254,-0.0008382,0.000508));
#2183=CARTESIAN_POINT('',(0.000254,0.,0.000508));
#2184=CARTESIAN_POINT('',(0.00127,0.,0.00254));
#2185=CARTESIAN_POINT('',(0.00159,2.71050543121376E-20,0.00254));
#2186=CARTESIAN_POINT('',(0.00159,0.00032,0.00254));
#2187=CARTESIAN_POINT('',(0.00159,-0.00032,0.00254));
#2188=CARTESIAN_POINT('',(0.00127,-0.00032,0.00254));
#2189=CARTESIAN_POINT('',(0.00095,-0.00032,0.00254));
#2190=CARTESIAN_POINT('',(0.00095,-2.71050543121376E-20,0.00254));
#2191=CARTESIAN_POINT('',(0.00095,0.00032,0.00254));
#2192=CARTESIAN_POINT('',(0.00127,0.00032,0.00254));
#2193=CARTESIAN_POINT('',(0.000254,-0.001016,0.00254));
#2194=CARTESIAN_POINT('',(0.000254,0.00127,0.00254));
#2195=CARTESIAN_POINT('',(0.000254,-0.00127,0.00254));
#2196=CARTESIAN_POINT('',(0.00127,-0.00127,0.00254));
#2197=CARTESIAN_POINT('',(0.00254,-0.00127,0.00254));
#2198=CARTESIAN_POINT('',(0.00254,-2.16840434497101E-19,0.00254));
#2199=CARTESIAN_POINT('',(0.00254,0.00127,0.00254));
#2200=CARTESIAN_POINT('',(0.00127,0.00127,0.00254));
#2201=CARTESIAN_POINT('',(0.00127,0.00127,0.00254));
#2202=CARTESIAN_POINT('',(0.00254,0.00127,0.00254));
#2203=CARTESIAN_POINT('',(0.00254,0.00127,0.));
#2204=CARTESIAN_POINT('',(0.00127,0.00127,0.));
#2205=CARTESIAN_POINT('',(0.0021082,0.00127,0.));
#2206=CARTESIAN_POINT('',(0.0021082,0.00127,0.000508));
#2207=CARTESIAN_POINT('',(0.0006858,0.00127,0.000508));
#2208=CARTESIAN_POINT('',(0.0006858,0.00127,0.));
#2209=CARTESIAN_POINT('',(0.00127,0.00127,0.));
#2210=CARTESIAN_POINT('',(0.000254,0.00127,0.000508));
#2211=CARTESIAN_POINT('',(0.00159,2.71050543121376E-20,0.00254));
#2212=CARTESIAN_POINT('',(0.00159,-0.00032,0.00254));
#2213=CARTESIAN_POINT('',(0.00159,0.00032,0.00254));
#2214=CARTESIAN_POINT('',(0.00127,0.00032,0.00254));
#2215=CARTESIAN_POINT('',(0.00095,0.00032,0.00254));
#2216=CARTESIAN_POINT('',(0.00095,-2.71050543121376E-20,0.00254));
#2217=CARTESIAN_POINT('',(0.00095,-0.00032,0.00254));
#2218=CARTESIAN_POINT('',(0.00127,-0.00032,0.00254));
#2219=CARTESIAN_POINT('',(0.00127,0.,0.));
#2220=CARTESIAN_POINT('',(0.0023241,0.0008382,0.));
#2221=CARTESIAN_POINT('',(0.00254,0.0008382,0.));
#2222=CARTESIAN_POINT('',(0.0021082,0.0008382,0.));
#2223=CARTESIAN_POINT('',(0.0021082,0.0010541,0.));
#2224=CARTESIAN_POINT('',(0.00254,-2.16840434497101E-19,0.));
#2225=CARTESIAN_POINT('',(0.00127,0.,0.));
#2226=CARTESIAN_POINT('',(0.0006858,0.0010541,0.));
#2227=CARTESIAN_POINT('',(0.0006858,0.0008382,0.));
#2228=CARTESIAN_POINT('',(0.0004699,0.0008382,0.));
#2229=CARTESIAN_POINT('',(0.00127,0.,0.));
#2230=CARTESIAN_POINT('',(0.0004699,-0.0008382,0.));
#2231=CARTESIAN_POINT('',(0.000254,-0.0008382,0.));
#2232=CARTESIAN_POINT('',(0.0006858,-0.0008382,0.));
#2233=CARTESIAN_POINT('',(0.0006858,-0.0010541,0.));
#2234=CARTESIAN_POINT('',(0.0006858,-0.00127,0.));
#2235=CARTESIAN_POINT('',(0.00127,-0.00127,0.));
#2236=CARTESIAN_POINT('',(0.000254,-0.00127,0.));
#2237=CARTESIAN_POINT('',(0.000254,-0.0010541,0.));
#2238=CARTESIAN_POINT('',(0.00254,-2.16840434497101E-19,0.00254));
#2239=CARTESIAN_POINT('',(0.00254,0.0008382,0.000508));
#2240=CARTESIAN_POINT('',(0.00254,-0.00127,0.00254));
#2241=CARTESIAN_POINT('',(0.00254,-0.00127,0.));
#2242=CARTESIAN_POINT('',(0.00254,-2.16840434497101E-19,0.));
#2243=CARTESIAN_POINT('',(0.00254,-0.0008382,0.));
#2244=CARTESIAN_POINT('',(0.00254,-0.0008382,0.000508));
#2245=CARTESIAN_POINT('',(0.00127,-0.00127,0.00254));
#2246=CARTESIAN_POINT('',(0.000254,-0.00127,0.000508));
#2247=CARTESIAN_POINT('',(0.000254,-0.00127,0.000508));
#2248=CARTESIAN_POINT('',(0.000254,-0.00127,0.000508));
#2249=CARTESIAN_POINT('',(0.0006858,-0.00127,0.000508));
#2250=CARTESIAN_POINT('',(0.0021082,-0.00127,0.000508));
#2251=CARTESIAN_POINT('',(0.0021082,-0.00127,0.));
#2252=CARTESIAN_POINT('',(0.00127,-0.00127,0.));
#2253=CARTESIAN_POINT('',(0.00127,0.,0.));
#2254=CARTESIAN_POINT('',(0.0021082,-0.0010541,0.));
#2255=CARTESIAN_POINT('',(0.0021082,-0.0008382,0.));
#2256=CARTESIAN_POINT('',(0.0023241,-0.0008382,0.));
#2257=CARTESIAN_POINT('',(0.0023241,-0.0008382,0.000508));
#2258=CARTESIAN_POINT('',(0.0021082,-0.0008382,0.000508));
#2259=CARTESIAN_POINT('',(0.0023241,0.0008382,0.000508));
#2260=CARTESIAN_POINT('',(0.0021082,0.0008382,0.000508));
#2261=CARTESIAN_POINT('',(0.0021082,0.0010541,0.000508));
#2262=CARTESIAN_POINT('',(0.0006858,0.0010541,0.000508));
#2263=CARTESIAN_POINT('',(0.0006858,0.0008382,0.000508));
#2264=CARTESIAN_POINT('',(0.0004699,0.0008382,0.000508));
#2265=CARTESIAN_POINT('',(0.000254,0.0010541,0.000508));
#2266=CARTESIAN_POINT('',(0.000254,-0.0008382,0.000508));
#2267=CARTESIAN_POINT('',(0.000254,-0.001016,0.000508));
#2268=CARTESIAN_POINT('',(0.0004699,-0.0008382,0.000508));
#2269=CARTESIAN_POINT('',(0.0006858,-0.0008382,0.000508));
#2270=CARTESIAN_POINT('',(0.0006858,-0.0010541,0.000508));
#2271=CARTESIAN_POINT('',(0.0021082,-0.0010541,0.000508));
#2272=CARTESIAN_POINT('',(0.000254,-0.00127,0.000508));
#2273=CARTESIAN_POINT('',(-0.0005207,-0.0004953,0.0012827));
#2274=CARTESIAN_POINT('',(-0.000423333333333334,-0.000592666666666666,0.00186266666666667));
#2275=CARTESIAN_POINT('',(0.000254,0.0010541,0.00254));
#2276=CARTESIAN_POINT('',(0.000182033333333333,0.00119803333333333,0.00246803333333334));
#2277=CARTESIAN_POINT('',(0.000254,0.0010541,0.000508));
#2278=CARTESIAN_POINT('',(0.000182033333333333,0.00119803333333333,0.000579966666666667));
#2279=CARTESIAN_POINT('',(0.000254,0.00127,0.000508));
#2280=CARTESIAN_POINT('',(0.,0.,0.));
#2281=CARTESIAN_POINT('',(-0.00127,0.00032,-0.00254));
#2282=CARTESIAN_POINT('',(-0.00159,0.00032,-0.00254));
#2283=CARTESIAN_POINT('',(-0.00159,0.00032,-0.002235));
#2284=CARTESIAN_POINT('',(-0.00159,0.00032,0.008077));
#2285=CARTESIAN_POINT('',(-0.00095,0.00032,0.008077));
#2286=CARTESIAN_POINT('',(-0.00095,0.00032,0.008077));
#2287=CARTESIAN_POINT('',(-0.00095,0.00032,-0.00254));
#2288=CARTESIAN_POINT('',(-0.00095,0.00032,-0.002235));
#2289=CARTESIAN_POINT('',(-0.00127,0.00032,-0.002235));
#2290=CARTESIAN_POINT('',(-0.00159,2.71050543121376E-20,-0.00254));
#2291=CARTESIAN_POINT('',(-0.00159,-0.00032,-0.00254));
#2292=CARTESIAN_POINT('',(-0.00159,-0.00032,-0.002235));
#2293=CARTESIAN_POINT('',(-0.00159,-0.00032,0.008077));
#2294=CARTESIAN_POINT('',(-0.00159,2.71050543121376E-20,0.008077));
#2295=CARTESIAN_POINT('',(-0.00159,-0.00032,-0.002235));
#2296=CARTESIAN_POINT('',(-0.00127,-0.00032,-0.00254));
#2297=CARTESIAN_POINT('',(-0.00095,-0.00032,-0.00254));
#2298=CARTESIAN_POINT('',(-0.00095,-0.00032,-0.002235));
#2299=CARTESIAN_POINT('',(-0.00095,-0.00032,0.008077));
#2300=CARTESIAN_POINT('',(-0.00127,-0.00032,0.008077));
#2301=CARTESIAN_POINT('',(-0.00095,-0.00032,-0.002235));
#2302=CARTESIAN_POINT('',(-0.00095,-2.71050543121376E-20,-0.00254));
#2303=CARTESIAN_POINT('',(-0.00095,-0.00032,0.008077));
#2304=CARTESIAN_POINT('',(-0.00095,-2.71050543121376E-20,-0.002235));
#2305=CARTESIAN_POINT('',(-0.00127,0.,-0.00254));
#2306=CARTESIAN_POINT('',(-0.00127,0.000144,-0.00254));
#2307=CARTESIAN_POINT('',(-0.001414,0.000144,-0.00254));
#2308=CARTESIAN_POINT('',(-0.001126,0.000144,-0.00254));
#2309=CARTESIAN_POINT('',(-0.001126,-2.43945488809238E-20,-0.00254));
#2310=CARTESIAN_POINT('',(-0.001126,-0.000144,-0.00254));
#2311=CARTESIAN_POINT('',(-0.00159,-0.000144,-0.00254));
#2312=CARTESIAN_POINT('',(-0.001414,-0.000144,-0.00254));
#2313=CARTESIAN_POINT('',(-0.001414,0.00032,-0.00254));
#2314=CARTESIAN_POINT('',(-0.00127,0.,0.008382));
#2315=CARTESIAN_POINT('',(-0.00127,-0.000144,0.008382));
#2316=CARTESIAN_POINT('',(-0.001414,-0.000144,0.008382));
#2317=CARTESIAN_POINT('',(-0.001126,-0.000144,0.008382));
#2318=CARTESIAN_POINT('',(-0.001126,0.00032,0.008382));
#2319=CARTESIAN_POINT('',(-0.001126,0.000144,0.008382));
#2320=CARTESIAN_POINT('',(-0.00159,0.000144,0.008382));
#2321=CARTESIAN_POINT('',(-0.001414,0.000144,0.008382));
#2322=CARTESIAN_POINT('',(-0.001414,4.87890977618481E-20,0.008382));
#2323=CARTESIAN_POINT('',(-0.001414,4.8789097761848E-20,0.008382));
#2324=CARTESIAN_POINT('',(-0.00138521802590062,-0.000115218025900617,0.00843187785284268));
#2325=CARTESIAN_POINT('',(-0.00138521802590062,0.000115218025900617,0.00843187785284268));
#2326=CARTESIAN_POINT('',(-0.00127,0.00032,0.008077));
#2327=CARTESIAN_POINT('',(-0.00101395994244307,0.000256040057556928,0.00818783967298373));
#2328=CARTESIAN_POINT('',(-0.00127,-0.000144,0.008382));
#2329=CARTESIAN_POINT('',(-0.00115478197409938,-0.000115218025900618,0.00843187785284268));
#2330=CARTESIAN_POINT('',(-0.00095,-2.71050543121376E-20,0.008077));
#2331=CARTESIAN_POINT('',(-0.00159,2.71050543121376E-20,-0.002235));
#2332=CARTESIAN_POINT('',(-0.00152604005755693,-0.000256040057556928,-0.00234583967298373));
#2333=CARTESIAN_POINT('',(-0.00152604005755693,0.000256040057556928,-0.00234583967298373));
#2334=CARTESIAN_POINT('',(-0.00127,0.000144,-0.00254));
#2335=CARTESIAN_POINT('',(-0.00115478197409938,0.000115218025900618,-0.00258987785284268));
#2336=CARTESIAN_POINT('',(-0.00127,-0.00032,-0.002235));
#2337=CARTESIAN_POINT('',(-0.00101395994244307,-0.000256040057556928,-0.00234583967298373));
#2338=CARTESIAN_POINT('',(-0.001126,-2.43945488809238E-20,-0.00254));
#2339=MECHANICAL_DESIGN_GEOMETRIC_PRESENTATION_REPRESENTATION('',(#1455),#2342);
#2340=MECHANICAL_DESIGN_GEOMETRIC_PRESENTATION_REPRESENTATION('',(#1456),#2343);
#2341=MECHANICAL_DESIGN_GEOMETRIC_PRESENTATION_REPRESENTATION('',(#1457),#2344);
#2342=(
GEOMETRIC_REPRESENTATION_CONTEXT(3)
GLOBAL_UNCERTAINTY_ASSIGNED_CONTEXT((#2345))
GLOBAL_UNIT_ASSIGNED_CONTEXT((#2354,#2351,#2348))
REPRESENTATION_CONTEXT('Part 3','TOP_LEVEL_ASSEMBLY_PART')
);
#2343=(
GEOMETRIC_REPRESENTATION_CONTEXT(3)
GLOBAL_UNCERTAINTY_ASSIGNED_CONTEXT((#2346))
GLOBAL_UNIT_ASSIGNED_CONTEXT((#2355,#2352,#2349))
REPRESENTATION_CONTEXT('Part 1','TOP_LEVEL_ASSEMBLY_PART')
);
#2344=(
GEOMETRIC_REPRESENTATION_CONTEXT(3)
GLOBAL_UNCERTAINTY_ASSIGNED_CONTEXT((#2347))
GLOBAL_UNIT_ASSIGNED_CONTEXT((#2356,#2353,#2350))
REPRESENTATION_CONTEXT('Part 2','TOP_LEVEL_ASSEMBLY_PART')
);
#2345=UNCERTAINTY_MEASURE_WITH_UNIT(LENGTH_MEASURE(1.E-08),#2354,'DISTANCE_ACCURACY_VALUE','Maximum Tolerance applied to model');
#2346=UNCERTAINTY_MEASURE_WITH_UNIT(LENGTH_MEASURE(1.E-08),#2355,'DISTANCE_ACCURACY_VALUE','Maximum Tolerance applied to model');
#2347=UNCERTAINTY_MEASURE_WITH_UNIT(LENGTH_MEASURE(1.E-08),#2356,'DISTANCE_ACCURACY_VALUE','Maximum Tolerance applied to model');
#2348=(
NAMED_UNIT(*)
SI_UNIT($,.STERADIAN.)
SOLID_ANGLE_UNIT()
);
#2349=(
NAMED_UNIT(*)
SI_UNIT($,.STERADIAN.)
SOLID_ANGLE_UNIT()
);
#2350=(
NAMED_UNIT(*)
SI_UNIT($,.STERADIAN.)
SOLID_ANGLE_UNIT()
);
#2351=(
NAMED_UNIT(*)
PLANE_ANGLE_UNIT()
SI_UNIT($,.RADIAN.)
);
#2352=(
NAMED_UNIT(*)
PLANE_ANGLE_UNIT()
SI_UNIT($,.RADIAN.)
);
#2353=(
NAMED_UNIT(*)
PLANE_ANGLE_UNIT()
SI_UNIT($,.RADIAN.)
);
#2354=(
LENGTH_UNIT()
NAMED_UNIT(*)
SI_UNIT($,.METRE.)
);
#2355=(
LENGTH_UNIT()
NAMED_UNIT(*)
SI_UNIT($,.METRE.)
);
#2356=(
LENGTH_UNIT()
NAMED_UNIT(*)
SI_UNIT($,.METRE.)
);
#2357=PRODUCT_DEFINITION_SHAPE('','',#2360);
#2358=PRODUCT_DEFINITION_SHAPE('','',#2361);
#2359=PRODUCT_DEFINITION_SHAPE('','',#2362);
#2360=PRODUCT_DEFINITION('','',#2366,#2363);
#2361=PRODUCT_DEFINITION('','',#2367,#2364);
#2362=PRODUCT_DEFINITION('','',#2368,#2365);
#2363=PRODUCT_DEFINITION_CONTEXT('',#2384,'design');
#2364=PRODUCT_DEFINITION_CONTEXT('',#2385,'design');
#2365=PRODUCT_DEFINITION_CONTEXT('',#2386,'design');
#2366=PRODUCT_DEFINITION_FORMATION_WITH_SPECIFIED_SOURCE('','',#2372,.NOT_KNOWN.);
#2367=PRODUCT_DEFINITION_FORMATION_WITH_SPECIFIED_SOURCE('','',#2373,.NOT_KNOWN.);
#2368=PRODUCT_DEFINITION_FORMATION_WITH_SPECIFIED_SOURCE('','',#2374,.NOT_KNOWN.);
#2369=PRODUCT_RELATED_PRODUCT_CATEGORY('','',(#2372));
#2370=PRODUCT_RELATED_PRODUCT_CATEGORY('','',(#2373));
#2371=PRODUCT_RELATED_PRODUCT_CATEGORY('','',(#2374));
#2372=PRODUCT('Part 3','Part 3','Part 3',(#2378));
#2373=PRODUCT('Part 1','Part 1','Part 1',(#2379));
#2374=PRODUCT('Part 2','Part 2','Part 2',(#2380));
#2375=PRODUCT_CATEGORY('','');
#2376=PRODUCT_CATEGORY('','');
#2377=PRODUCT_CATEGORY('','');
#2378=PRODUCT_CONTEXT('',#2384,'mechanical');
#2379=PRODUCT_CONTEXT('',#2385,'mechanical');
#2380=PRODUCT_CONTEXT('',#2386,'mechanical');
#2381=APPLICATION_PROTOCOL_DEFINITION('international standard','ap242_managed_model_based_3d_engineering',2020,#2384);
#2382=APPLICATION_PROTOCOL_DEFINITION('international standard','ap242_managed_model_based_3d_engineering',2020,#2385);
#2383=APPLICATION_PROTOCOL_DEFINITION('international standard','ap242_managed_model_based_3d_engineering',2020,#2386);
#2384=APPLICATION_CONTEXT('managed model based 3d engineering');
#2385=APPLICATION_CONTEXT('managed model based 3d engineering');
#2386=APPLICATION_CONTEXT('managed model based 3d engineering');
ENDSEC;
END-ISO-10303-21;
