ISO-10303-21;
HEADER;
/*Generated by software containing ST-Developer
 * from STEP Tools, Inc. (www.steptools.com) 
 */
/*OPTION: using custom renumber hook */
/*description */
/*implementation_level */
FILE_DESCRIPTION(('STEP AP242 Edition 2','STEP AP242 Edition 2''CAx-IF Rec.Pracs.---Representation and Presentation of Product Manufa
cturing Information (PMI)---4.0---2014-10-13','STEP AP242 Edition 2''CAx-IF Rec.Pracs.---Representation and Presentation of Product Manufa
cturing Information (PMI)---4.0---2014-10-13''CAx-IF Rec.Pracs.---3D Tessellated Geometry---0.4---2014-09-14','STEP AP242 Edition 2''CAx-IF Rec.Pracs.---Representation and Presentation of Product Manufa
cturing Information (PMI)---4.0---2014-10-13''CAx-IF Rec.Pracs.---3D Tessellated Geometry---0.4---2014-09-14''2;1','STEP AP242 Edition 2''CAx-IF Rec.Pracs.---Representation and Presentation of Product Manufa
cturing Information (PMI)---4.0---2014-10-13''CAx-IF Rec.Pracs.---3D Tessellated Geometry---0.4---2014-09-14''2;1''CAx-IF Rec.Pracs.---User Defined Attributes---1.5---2016-08-15'),'2;1');
/*name */
/*time_stamp */
/*author */
/*organization */
/*preprocessor_version */
/*originating_system */
/*authorisation */
FILE_NAME('/vol/tmp/translate-3754713732629738409/DFN1006-3.step','2026-03-12T11:47:10',(''),(''),'ST-DEVELOPER v20','ONSHAPE BY PTC INC, 1.211','  ');
FILE_SCHEMA(('AP242_MANAGED_MODEL_BASED_3D_ENGINEERING_MIM_LF { 1 0 10303 442 3 1 4 }'));
ENDSEC;
DATA;
#10=LINE('',#1015,#94);
#11=LINE('',#1018,#95);
#12=LINE('',#1020,#96);
#13=LINE('',#1022,#97);
#14=LINE('',#1024,#98);
#15=LINE('',#1026,#99);
#16=LINE('',#1028,#100);
#17=LINE('',#1030,#101);
#18=LINE('',#1032,#102);
#19=LINE('',#1034,#103);
#20=LINE('',#1036,#104);
#21=LINE('',#1037,#105);
#22=LINE('',#1042,#106);
#23=LINE('',#1045,#107);
#24=LINE('',#1047,#108);
#25=LINE('',#1049,#109);
#26=LINE('',#1051,#110);
#27=LINE('',#1053,#111);
#28=LINE('',#1055,#112);
#29=LINE('',#1057,#113);
#30=LINE('',#1059,#114);
#31=LINE('',#1061,#115);
#32=LINE('',#1063,#116);
#33=LINE('',#1064,#117);
#34=LINE('',#1069,#118);
#35=LINE('',#1072,#119);
#36=LINE('',#1074,#120);
#37=LINE('',#1076,#121);
#38=LINE('',#1078,#122);
#39=LINE('',#1080,#123);
#40=LINE('',#1082,#124);
#41=LINE('',#1084,#125);
#42=LINE('',#1086,#126);
#43=LINE('',#1088,#127);
#44=LINE('',#1090,#128);
#45=LINE('',#1091,#129);
#46=LINE('',#1096,#130);
#47=LINE('',#1099,#131);
#48=LINE('',#1101,#132);
#49=LINE('',#1103,#133);
#50=LINE('',#1104,#134);
#51=LINE('',#1107,#135);
#52=LINE('',#1109,#136);
#53=LINE('',#1111,#137);
#54=LINE('',#1112,#138);
#55=LINE('',#1115,#139);
#56=LINE('',#1117,#140);
#57=LINE('',#1119,#141);
#58=LINE('',#1120,#142);
#59=LINE('',#1123,#143);
#60=LINE('',#1125,#144);
#61=LINE('',#1127,#145);
#62=LINE('',#1129,#146);
#63=LINE('',#1131,#147);
#64=LINE('',#1133,#148);
#65=LINE('',#1135,#149);
#66=LINE('',#1137,#150);
#67=LINE('',#1139,#151);
#68=LINE('',#1141,#152);
#69=LINE('',#1143,#153);
#70=LINE('',#1152,#154);
#71=LINE('',#1154,#155);
#72=LINE('',#1156,#156);
#73=LINE('',#1158,#157);
#74=LINE('',#1160,#158);
#75=LINE('',#1162,#159);
#76=LINE('',#1164,#160);
#77=LINE('',#1166,#161);
#78=LINE('',#1169,#162);
#79=LINE('',#1171,#163);
#80=LINE('',#1173,#164);
#81=LINE('',#1175,#165);
#82=LINE('',#1177,#166);
#83=LINE('',#1179,#167);
#84=LINE('',#1181,#168);
#85=LINE('',#1183,#169);
#86=LINE('',#1186,#170);
#87=LINE('',#1188,#171);
#88=LINE('',#1190,#172);
#89=LINE('',#1192,#173);
#90=LINE('',#1194,#174);
#91=LINE('',#1196,#175);
#92=LINE('',#1198,#176);
#93=LINE('',#1200,#177);
#94=VECTOR('',#831,1.);
#95=VECTOR('',#832,1.);
#96=VECTOR('',#833,1.);
#97=VECTOR('',#834,1.);
#98=VECTOR('',#837,1.);
#99=VECTOR('',#838,1.);
#100=VECTOR('',#839,1.);
#101=VECTOR('',#842,1.);
#102=VECTOR('',#843,1.);
#103=VECTOR('',#844,1.);
#104=VECTOR('',#847,1.);
#105=VECTOR('',#848,1.);
#106=VECTOR('',#857,1.);
#107=VECTOR('',#858,1.);
#108=VECTOR('',#859,1.);
#109=VECTOR('',#860,1.);
#110=VECTOR('',#863,1.);
#111=VECTOR('',#864,1.);
#112=VECTOR('',#865,1.);
#113=VECTOR('',#868,1.);
#114=VECTOR('',#869,1.);
#115=VECTOR('',#870,1.);
#116=VECTOR('',#873,1.);
#117=VECTOR('',#874,1.);
#118=VECTOR('',#883,1.);
#119=VECTOR('',#884,1.);
#120=VECTOR('',#885,1.);
#121=VECTOR('',#886,1.);
#122=VECTOR('',#889,1.);
#123=VECTOR('',#890,1.);
#124=VECTOR('',#891,1.);
#125=VECTOR('',#894,1.);
#126=VECTOR('',#895,1.);
#127=VECTOR('',#896,1.);
#128=VECTOR('',#899,1.);
#129=VECTOR('',#900,1.);
#130=VECTOR('',#909,1.);
#131=VECTOR('',#910,1.);
#132=VECTOR('',#911,1.);
#133=VECTOR('',#912,1.);
#134=VECTOR('',#913,1.);
#135=VECTOR('',#914,1.);
#136=VECTOR('',#915,1.);
#137=VECTOR('',#916,1.);
#138=VECTOR('',#917,1.);
#139=VECTOR('',#918,1.);
#140=VECTOR('',#919,1.);
#141=VECTOR('',#920,1.);
#142=VECTOR('',#921,1.);
#143=VECTOR('',#922,1.);
#144=VECTOR('',#923,1.);
#145=VECTOR('',#924,1.);
#146=VECTOR('',#927,1.);
#147=VECTOR('',#928,1.);
#148=VECTOR('',#929,1.);
#149=VECTOR('',#932,1.);
#150=VECTOR('',#933,1.);
#151=VECTOR('',#936,1.);
#152=VECTOR('',#937,1.);
#153=VECTOR('',#940,1.);
#154=VECTOR('',#953,1.);
#155=VECTOR('',#954,1.);
#156=VECTOR('',#955,1.);
#157=VECTOR('',#958,1.);
#158=VECTOR('',#959,1.);
#159=VECTOR('',#962,1.);
#160=VECTOR('',#963,1.);
#161=VECTOR('',#966,1.);
#162=VECTOR('',#971,1.);
#163=VECTOR('',#972,1.);
#164=VECTOR('',#973,1.);
#165=VECTOR('',#976,1.);
#166=VECTOR('',#977,1.);
#167=VECTOR('',#980,1.);
#168=VECTOR('',#981,1.);
#169=VECTOR('',#984,1.);
#170=VECTOR('',#989,1.);
#171=VECTOR('',#990,1.);
#172=VECTOR('',#991,1.);
#173=VECTOR('',#994,1.);
#174=VECTOR('',#995,1.);
#175=VECTOR('',#998,1.);
#176=VECTOR('',#999,1.);
#177=VECTOR('',#1002,1.);
#178=SHAPE_REPRESENTATION_RELATIONSHIP('','',#757,#183);
#179=SHAPE_REPRESENTATION_RELATIONSHIP('','',#758,#184);
#180=SHAPE_REPRESENTATION_RELATIONSHIP('','',#759,#185);
#181=SHAPE_REPRESENTATION_RELATIONSHIP('','',#760,#186);
#182=SHAPE_REPRESENTATION_RELATIONSHIP('','',#761,#187);
#183=ADVANCED_BREP_SHAPE_REPRESENTATION('',(#747),#1207);
#184=ADVANCED_BREP_SHAPE_REPRESENTATION('',(#748),#1208);
#185=ADVANCED_BREP_SHAPE_REPRESENTATION('',(#749),#1209);
#186=ADVANCED_BREP_SHAPE_REPRESENTATION('',(#750),#1210);
#187=ADVANCED_BREP_SHAPE_REPRESENTATION('',(#751),#1211);
#188=PLANE('',#766);
#189=PLANE('',#767);
#190=PLANE('',#769);
#191=PLANE('',#770);
#192=PLANE('',#771);
#193=PLANE('',#772);
#194=PLANE('',#773);
#195=PLANE('',#774);
#196=PLANE('',#776);
#197=PLANE('',#777);
#198=PLANE('',#778);
#199=PLANE('',#779);
#200=PLANE('',#780);
#201=PLANE('',#781);
#202=PLANE('',#783);
#203=PLANE('',#784);
#204=PLANE('',#785);
#205=PLANE('',#786);
#206=PLANE('',#787);
#207=PLANE('',#788);
#208=PLANE('',#790);
#209=PLANE('',#791);
#210=PLANE('',#792);
#211=PLANE('',#793);
#212=PLANE('',#794);
#213=PLANE('',#795);
#214=PLANE('',#799);
#215=PLANE('',#800);
#216=PLANE('',#801);
#217=PLANE('',#802);
#218=PLANE('',#803);
#219=PLANE('',#804);
#220=PLANE('',#805);
#221=PLANE('',#806);
#222=PLANE('',#807);
#223=PLANE('',#808);
#224=PLANE('',#809);
#225=PLANE('',#810);
#226=PLANE('',#811);
#227=PLANE('',#812);
#228=PLANE('',#813);
#229=PLANE('',#814);
#230=ORIENTED_EDGE('',*,*,#406,.F.);
#231=ORIENTED_EDGE('',*,*,#407,.T.);
#232=ORIENTED_EDGE('',*,*,#406,.T.);
#233=ORIENTED_EDGE('',*,*,#407,.F.);
#234=ORIENTED_EDGE('',*,*,#408,.F.);
#235=ORIENTED_EDGE('',*,*,#409,.F.);
#236=ORIENTED_EDGE('',*,*,#410,.T.);
#237=ORIENTED_EDGE('',*,*,#411,.T.);
#238=ORIENTED_EDGE('',*,*,#412,.T.);
#239=ORIENTED_EDGE('',*,*,#413,.F.);
#240=ORIENTED_EDGE('',*,*,#414,.F.);
#241=ORIENTED_EDGE('',*,*,#409,.T.);
#242=ORIENTED_EDGE('',*,*,#415,.T.);
#243=ORIENTED_EDGE('',*,*,#416,.F.);
#244=ORIENTED_EDGE('',*,*,#417,.F.);
#245=ORIENTED_EDGE('',*,*,#413,.T.);
#246=ORIENTED_EDGE('',*,*,#418,.F.);
#247=ORIENTED_EDGE('',*,*,#411,.F.);
#248=ORIENTED_EDGE('',*,*,#419,.T.);
#249=ORIENTED_EDGE('',*,*,#416,.T.);
#250=ORIENTED_EDGE('',*,*,#410,.F.);
#251=ORIENTED_EDGE('',*,*,#414,.T.);
#252=ORIENTED_EDGE('',*,*,#417,.T.);
#253=ORIENTED_EDGE('',*,*,#419,.F.);
#254=ORIENTED_EDGE('',*,*,#408,.T.);
#255=ORIENTED_EDGE('',*,*,#418,.T.);
#256=ORIENTED_EDGE('',*,*,#415,.F.);
#257=ORIENTED_EDGE('',*,*,#412,.F.);
#258=ORIENTED_EDGE('',*,*,#420,.T.);
#259=ORIENTED_EDGE('',*,*,#421,.F.);
#260=ORIENTED_EDGE('',*,*,#422,.F.);
#261=ORIENTED_EDGE('',*,*,#423,.T.);
#262=ORIENTED_EDGE('',*,*,#424,.T.);
#263=ORIENTED_EDGE('',*,*,#425,.F.);
#264=ORIENTED_EDGE('',*,*,#426,.F.);
#265=ORIENTED_EDGE('',*,*,#421,.T.);
#266=ORIENTED_EDGE('',*,*,#427,.F.);
#267=ORIENTED_EDGE('',*,*,#428,.F.);
#268=ORIENTED_EDGE('',*,*,#429,.T.);
#269=ORIENTED_EDGE('',*,*,#425,.T.);
#270=ORIENTED_EDGE('',*,*,#430,.F.);
#271=ORIENTED_EDGE('',*,*,#423,.F.);
#272=ORIENTED_EDGE('',*,*,#431,.T.);
#273=ORIENTED_EDGE('',*,*,#428,.T.);
#274=ORIENTED_EDGE('',*,*,#422,.T.);
#275=ORIENTED_EDGE('',*,*,#426,.T.);
#276=ORIENTED_EDGE('',*,*,#429,.F.);
#277=ORIENTED_EDGE('',*,*,#431,.F.);
#278=ORIENTED_EDGE('',*,*,#420,.F.);
#279=ORIENTED_EDGE('',*,*,#430,.T.);
#280=ORIENTED_EDGE('',*,*,#427,.T.);
#281=ORIENTED_EDGE('',*,*,#424,.F.);
#282=ORIENTED_EDGE('',*,*,#432,.F.);
#283=ORIENTED_EDGE('',*,*,#433,.F.);
#284=ORIENTED_EDGE('',*,*,#434,.T.);
#285=ORIENTED_EDGE('',*,*,#435,.T.);
#286=ORIENTED_EDGE('',*,*,#436,.T.);
#287=ORIENTED_EDGE('',*,*,#437,.F.);
#288=ORIENTED_EDGE('',*,*,#438,.F.);
#289=ORIENTED_EDGE('',*,*,#433,.T.);
#290=ORIENTED_EDGE('',*,*,#439,.T.);
#291=ORIENTED_EDGE('',*,*,#440,.F.);
#292=ORIENTED_EDGE('',*,*,#441,.F.);
#293=ORIENTED_EDGE('',*,*,#437,.T.);
#294=ORIENTED_EDGE('',*,*,#442,.F.);
#295=ORIENTED_EDGE('',*,*,#435,.F.);
#296=ORIENTED_EDGE('',*,*,#443,.T.);
#297=ORIENTED_EDGE('',*,*,#440,.T.);
#298=ORIENTED_EDGE('',*,*,#434,.F.);
#299=ORIENTED_EDGE('',*,*,#438,.T.);
#300=ORIENTED_EDGE('',*,*,#441,.T.);
#301=ORIENTED_EDGE('',*,*,#443,.F.);
#302=ORIENTED_EDGE('',*,*,#432,.T.);
#303=ORIENTED_EDGE('',*,*,#442,.T.);
#304=ORIENTED_EDGE('',*,*,#439,.F.);
#305=ORIENTED_EDGE('',*,*,#436,.F.);
#306=ORIENTED_EDGE('',*,*,#444,.F.);
#307=ORIENTED_EDGE('',*,*,#445,.F.);
#308=ORIENTED_EDGE('',*,*,#446,.T.);
#309=ORIENTED_EDGE('',*,*,#447,.T.);
#310=ORIENTED_EDGE('',*,*,#448,.T.);
#311=ORIENTED_EDGE('',*,*,#449,.T.);
#312=ORIENTED_EDGE('',*,*,#450,.F.);
#313=ORIENTED_EDGE('',*,*,#451,.F.);
#314=ORIENTED_EDGE('',*,*,#452,.F.);
#315=ORIENTED_EDGE('',*,*,#453,.F.);
#316=ORIENTED_EDGE('',*,*,#454,.T.);
#317=ORIENTED_EDGE('',*,*,#455,.T.);
#318=ORIENTED_EDGE('',*,*,#456,.T.);
#319=ORIENTED_EDGE('',*,*,#457,.T.);
#320=ORIENTED_EDGE('',*,*,#458,.F.);
#321=ORIENTED_EDGE('',*,*,#459,.F.);
#322=ORIENTED_EDGE('',*,*,#448,.F.);
#323=ORIENTED_EDGE('',*,*,#460,.F.);
#324=ORIENTED_EDGE('',*,*,#461,.T.);
#325=ORIENTED_EDGE('',*,*,#462,.T.);
#326=ORIENTED_EDGE('',*,*,#451,.T.);
#327=ORIENTED_EDGE('',*,*,#463,.F.);
#328=ORIENTED_EDGE('',*,*,#464,.F.);
#329=ORIENTED_EDGE('',*,*,#460,.T.);
#330=ORIENTED_EDGE('',*,*,#450,.T.);
#331=ORIENTED_EDGE('',*,*,#465,.F.);
#332=ORIENTED_EDGE('',*,*,#466,.F.);
#333=ORIENTED_EDGE('',*,*,#463,.T.);
#334=ORIENTED_EDGE('',*,*,#449,.F.);
#335=ORIENTED_EDGE('',*,*,#462,.F.);
#336=ORIENTED_EDGE('',*,*,#467,.T.);
#337=ORIENTED_EDGE('',*,*,#465,.T.);
#338=ORIENTED_EDGE('',*,*,#468,.F.);
#339=ORIENTED_EDGE('',*,*,#461,.F.);
#340=ORIENTED_EDGE('',*,*,#464,.T.);
#341=ORIENTED_EDGE('',*,*,#466,.T.);
#342=ORIENTED_EDGE('',*,*,#467,.F.);
#343=ORIENTED_EDGE('',*,*,#469,.F.);
#344=ORIENTED_EDGE('',*,*,#468,.T.);
#345=ORIENTED_EDGE('',*,*,#469,.T.);
#346=ORIENTED_EDGE('',*,*,#453,.T.);
#347=ORIENTED_EDGE('',*,*,#470,.F.);
#348=ORIENTED_EDGE('',*,*,#471,.F.);
#349=ORIENTED_EDGE('',*,*,#472,.T.);
#350=ORIENTED_EDGE('',*,*,#454,.F.);
#351=ORIENTED_EDGE('',*,*,#472,.F.);
#352=ORIENTED_EDGE('',*,*,#473,.T.);
#353=ORIENTED_EDGE('',*,*,#474,.T.);
#354=ORIENTED_EDGE('',*,*,#455,.F.);
#355=ORIENTED_EDGE('',*,*,#474,.F.);
#356=ORIENTED_EDGE('',*,*,#475,.T.);
#357=ORIENTED_EDGE('',*,*,#476,.T.);
#358=ORIENTED_EDGE('',*,*,#452,.T.);
#359=ORIENTED_EDGE('',*,*,#476,.F.);
#360=ORIENTED_EDGE('',*,*,#477,.F.);
#361=ORIENTED_EDGE('',*,*,#470,.T.);
#362=ORIENTED_EDGE('',*,*,#471,.T.);
#363=ORIENTED_EDGE('',*,*,#477,.T.);
#364=ORIENTED_EDGE('',*,*,#475,.F.);
#365=ORIENTED_EDGE('',*,*,#473,.F.);
#366=ORIENTED_EDGE('',*,*,#456,.F.);
#367=ORIENTED_EDGE('',*,*,#478,.F.);
#368=ORIENTED_EDGE('',*,*,#479,.T.);
#369=ORIENTED_EDGE('',*,*,#480,.T.);
#370=ORIENTED_EDGE('',*,*,#457,.F.);
#371=ORIENTED_EDGE('',*,*,#480,.F.);
#372=ORIENTED_EDGE('',*,*,#481,.T.);
#373=ORIENTED_EDGE('',*,*,#482,.T.);
#374=ORIENTED_EDGE('',*,*,#458,.T.);
#375=ORIENTED_EDGE('',*,*,#482,.F.);
#376=ORIENTED_EDGE('',*,*,#483,.F.);
#377=ORIENTED_EDGE('',*,*,#484,.T.);
#378=ORIENTED_EDGE('',*,*,#459,.T.);
#379=ORIENTED_EDGE('',*,*,#484,.F.);
#380=ORIENTED_EDGE('',*,*,#485,.F.);
#381=ORIENTED_EDGE('',*,*,#478,.T.);
#382=ORIENTED_EDGE('',*,*,#479,.F.);
#383=ORIENTED_EDGE('',*,*,#485,.T.);
#384=ORIENTED_EDGE('',*,*,#483,.T.);
#385=ORIENTED_EDGE('',*,*,#481,.F.);
#386=ORIENTED_EDGE('',*,*,#445,.T.);
#387=ORIENTED_EDGE('',*,*,#486,.F.);
#388=ORIENTED_EDGE('',*,*,#487,.F.);
#389=ORIENTED_EDGE('',*,*,#488,.T.);
#390=ORIENTED_EDGE('',*,*,#446,.F.);
#391=ORIENTED_EDGE('',*,*,#488,.F.);
#392=ORIENTED_EDGE('',*,*,#489,.T.);
#393=ORIENTED_EDGE('',*,*,#490,.T.);
#394=ORIENTED_EDGE('',*,*,#447,.F.);
#395=ORIENTED_EDGE('',*,*,#490,.F.);
#396=ORIENTED_EDGE('',*,*,#491,.T.);
#397=ORIENTED_EDGE('',*,*,#492,.T.);
#398=ORIENTED_EDGE('',*,*,#444,.T.);
#399=ORIENTED_EDGE('',*,*,#492,.F.);
#400=ORIENTED_EDGE('',*,*,#493,.F.);
#401=ORIENTED_EDGE('',*,*,#486,.T.);
#402=ORIENTED_EDGE('',*,*,#487,.T.);
#403=ORIENTED_EDGE('',*,*,#493,.T.);
#404=ORIENTED_EDGE('',*,*,#491,.F.);
#405=ORIENTED_EDGE('',*,*,#489,.F.);
#406=EDGE_CURVE('',#494,#494,#554,.T.);
#407=EDGE_CURVE('',#495,#495,#555,.T.);
#408=EDGE_CURVE('',#496,#497,#10,.T.);
#409=EDGE_CURVE('',#498,#496,#11,.T.);
#410=EDGE_CURVE('',#498,#499,#12,.T.);
#411=EDGE_CURVE('',#499,#497,#13,.T.);
#412=EDGE_CURVE('',#496,#500,#14,.T.);
#413=EDGE_CURVE('',#501,#500,#15,.T.);
#414=EDGE_CURVE('',#498,#501,#16,.T.);
#415=EDGE_CURVE('',#500,#502,#17,.T.);
#416=EDGE_CURVE('',#503,#502,#18,.T.);
#417=EDGE_CURVE('',#501,#503,#19,.T.);
#418=EDGE_CURVE('',#497,#502,#20,.T.);
#419=EDGE_CURVE('',#499,#503,#21,.T.);
#420=EDGE_CURVE('',#504,#505,#22,.T.);
#421=EDGE_CURVE('',#506,#505,#23,.T.);
#422=EDGE_CURVE('',#507,#506,#24,.T.);
#423=EDGE_CURVE('',#507,#504,#25,.T.);
#424=EDGE_CURVE('',#505,#508,#26,.T.);
#425=EDGE_CURVE('',#509,#508,#27,.T.);
#426=EDGE_CURVE('',#506,#509,#28,.T.);
#427=EDGE_CURVE('',#510,#508,#29,.T.);
#428=EDGE_CURVE('',#511,#510,#30,.T.);
#429=EDGE_CURVE('',#511,#509,#31,.T.);
#430=EDGE_CURVE('',#504,#510,#32,.T.);
#431=EDGE_CURVE('',#507,#511,#33,.T.);
#432=EDGE_CURVE('',#512,#513,#34,.T.);
#433=EDGE_CURVE('',#514,#512,#35,.T.);
#434=EDGE_CURVE('',#514,#515,#36,.T.);
#435=EDGE_CURVE('',#515,#513,#37,.T.);
#436=EDGE_CURVE('',#512,#516,#38,.T.);
#437=EDGE_CURVE('',#517,#516,#39,.T.);
#438=EDGE_CURVE('',#514,#517,#40,.T.);
#439=EDGE_CURVE('',#516,#518,#41,.T.);
#440=EDGE_CURVE('',#519,#518,#42,.T.);
#441=EDGE_CURVE('',#517,#519,#43,.T.);
#442=EDGE_CURVE('',#513,#518,#44,.T.);
#443=EDGE_CURVE('',#515,#519,#45,.T.);
#444=EDGE_CURVE('',#520,#521,#46,.T.);
#445=EDGE_CURVE('',#522,#520,#47,.T.);
#446=EDGE_CURVE('',#522,#523,#48,.T.);
#447=EDGE_CURVE('',#523,#521,#49,.T.);
#448=EDGE_CURVE('',#524,#525,#50,.T.);
#449=EDGE_CURVE('',#525,#526,#51,.T.);
#450=EDGE_CURVE('',#527,#526,#52,.T.);
#451=EDGE_CURVE('',#524,#527,#53,.T.);
#452=EDGE_CURVE('',#528,#529,#54,.T.);
#453=EDGE_CURVE('',#530,#528,#55,.T.);
#454=EDGE_CURVE('',#530,#531,#56,.T.);
#455=EDGE_CURVE('',#531,#529,#57,.T.);
#456=EDGE_CURVE('',#532,#533,#58,.T.);
#457=EDGE_CURVE('',#533,#534,#59,.T.);
#458=EDGE_CURVE('',#535,#534,#60,.T.);
#459=EDGE_CURVE('',#532,#535,#61,.T.);
#460=EDGE_CURVE('',#536,#524,#62,.T.);
#461=EDGE_CURVE('',#536,#537,#63,.T.);
#462=EDGE_CURVE('',#537,#525,#64,.T.);
#463=EDGE_CURVE('',#538,#527,#65,.T.);
#464=EDGE_CURVE('',#536,#538,#66,.T.);
#465=EDGE_CURVE('',#539,#526,#67,.T.);
#466=EDGE_CURVE('',#538,#539,#68,.T.);
#467=EDGE_CURVE('',#537,#539,#69,.T.);
#468=EDGE_CURVE('',#540,#540,#556,.T.);
#469=EDGE_CURVE('',#541,#541,#557,.T.);
#470=EDGE_CURVE('',#542,#528,#70,.T.);
#471=EDGE_CURVE('',#543,#542,#71,.T.);
#472=EDGE_CURVE('',#543,#530,#72,.T.);
#473=EDGE_CURVE('',#543,#544,#73,.T.);
#474=EDGE_CURVE('',#544,#531,#74,.T.);
#475=EDGE_CURVE('',#544,#545,#75,.T.);
#476=EDGE_CURVE('',#545,#529,#76,.T.);
#477=EDGE_CURVE('',#542,#545,#77,.T.);
#478=EDGE_CURVE('',#546,#532,#78,.T.);
#479=EDGE_CURVE('',#546,#547,#79,.T.);
#480=EDGE_CURVE('',#547,#533,#80,.T.);
#481=EDGE_CURVE('',#547,#548,#81,.T.);
#482=EDGE_CURVE('',#548,#534,#82,.T.);
#483=EDGE_CURVE('',#549,#548,#83,.T.);
#484=EDGE_CURVE('',#549,#535,#84,.T.);
#485=EDGE_CURVE('',#546,#549,#85,.T.);
#486=EDGE_CURVE('',#550,#520,#86,.T.);
#487=EDGE_CURVE('',#551,#550,#87,.T.);
#488=EDGE_CURVE('',#551,#522,#88,.T.);
#489=EDGE_CURVE('',#551,#552,#89,.T.);
#490=EDGE_CURVE('',#552,#523,#90,.T.);
#491=EDGE_CURVE('',#552,#553,#91,.T.);
#492=EDGE_CURVE('',#553,#521,#92,.T.);
#493=EDGE_CURVE('',#550,#553,#93,.T.);
#494=VERTEX_POINT('',#1008);
#495=VERTEX_POINT('',#1010);
#496=VERTEX_POINT('',#1016);
#497=VERTEX_POINT('',#1017);
#498=VERTEX_POINT('',#1019);
#499=VERTEX_POINT('',#1021);
#500=VERTEX_POINT('',#1025);
#501=VERTEX_POINT('',#1027);
#502=VERTEX_POINT('',#1031);
#503=VERTEX_POINT('',#1033);
#504=VERTEX_POINT('',#1043);
#505=VERTEX_POINT('',#1044);
#506=VERTEX_POINT('',#1046);
#507=VERTEX_POINT('',#1048);
#508=VERTEX_POINT('',#1052);
#509=VERTEX_POINT('',#1054);
#510=VERTEX_POINT('',#1058);
#511=VERTEX_POINT('',#1060);
#512=VERTEX_POINT('',#1070);
#513=VERTEX_POINT('',#1071);
#514=VERTEX_POINT('',#1073);
#515=VERTEX_POINT('',#1075);
#516=VERTEX_POINT('',#1079);
#517=VERTEX_POINT('',#1081);
#518=VERTEX_POINT('',#1085);
#519=VERTEX_POINT('',#1087);
#520=VERTEX_POINT('',#1097);
#521=VERTEX_POINT('',#1098);
#522=VERTEX_POINT('',#1100);
#523=VERTEX_POINT('',#1102);
#524=VERTEX_POINT('',#1105);
#525=VERTEX_POINT('',#1106);
#526=VERTEX_POINT('',#1108);
#527=VERTEX_POINT('',#1110);
#528=VERTEX_POINT('',#1113);
#529=VERTEX_POINT('',#1114);
#530=VERTEX_POINT('',#1116);
#531=VERTEX_POINT('',#1118);
#532=VERTEX_POINT('',#1121);
#533=VERTEX_POINT('',#1122);
#534=VERTEX_POINT('',#1124);
#535=VERTEX_POINT('',#1126);
#536=VERTEX_POINT('',#1130);
#537=VERTEX_POINT('',#1132);
#538=VERTEX_POINT('',#1136);
#539=VERTEX_POINT('',#1140);
#540=VERTEX_POINT('',#1146);
#541=VERTEX_POINT('',#1149);
#542=VERTEX_POINT('',#1153);
#543=VERTEX_POINT('',#1155);
#544=VERTEX_POINT('',#1159);
#545=VERTEX_POINT('',#1163);
#546=VERTEX_POINT('',#1170);
#547=VERTEX_POINT('',#1172);
#548=VERTEX_POINT('',#1176);
#549=VERTEX_POINT('',#1180);
#550=VERTEX_POINT('',#1187);
#551=VERTEX_POINT('',#1189);
#552=VERTEX_POINT('',#1193);
#553=VERTEX_POINT('',#1197);
#554=CIRCLE('',#764,7.5E-05);
#555=CIRCLE('',#765,7.5E-05);
#556=CIRCLE('',#796,7.5E-05);
#557=CIRCLE('',#798,7.5E-05);
#558=EDGE_LOOP('',(#230));
#559=EDGE_LOOP('',(#231));
#560=EDGE_LOOP('',(#232));
#561=EDGE_LOOP('',(#233));
#562=EDGE_LOOP('',(#234,#235,#236,#237));
#563=EDGE_LOOP('',(#238,#239,#240,#241));
#564=EDGE_LOOP('',(#242,#243,#244,#245));
#565=EDGE_LOOP('',(#246,#247,#248,#249));
#566=EDGE_LOOP('',(#250,#251,#252,#253));
#567=EDGE_LOOP('',(#254,#255,#256,#257));
#568=EDGE_LOOP('',(#258,#259,#260,#261));
#569=EDGE_LOOP('',(#262,#263,#264,#265));
#570=EDGE_LOOP('',(#266,#267,#268,#269));
#571=EDGE_LOOP('',(#270,#271,#272,#273));
#572=EDGE_LOOP('',(#274,#275,#276,#277));
#573=EDGE_LOOP('',(#278,#279,#280,#281));
#574=EDGE_LOOP('',(#282,#283,#284,#285));
#575=EDGE_LOOP('',(#286,#287,#288,#289));
#576=EDGE_LOOP('',(#290,#291,#292,#293));
#577=EDGE_LOOP('',(#294,#295,#296,#297));
#578=EDGE_LOOP('',(#298,#299,#300,#301));
#579=EDGE_LOOP('',(#302,#303,#304,#305));
#580=EDGE_LOOP('',(#306,#307,#308,#309));
#581=EDGE_LOOP('',(#310,#311,#312,#313));
#582=EDGE_LOOP('',(#314,#315,#316,#317));
#583=EDGE_LOOP('',(#318,#319,#320,#321));
#584=EDGE_LOOP('',(#322,#323,#324,#325));
#585=EDGE_LOOP('',(#326,#327,#328,#329));
#586=EDGE_LOOP('',(#330,#331,#332,#333));
#587=EDGE_LOOP('',(#334,#335,#336,#337));
#588=EDGE_LOOP('',(#338));
#589=EDGE_LOOP('',(#339,#340,#341,#342));
#590=EDGE_LOOP('',(#343));
#591=EDGE_LOOP('',(#344));
#592=EDGE_LOOP('',(#345));
#593=EDGE_LOOP('',(#346,#347,#348,#349));
#594=EDGE_LOOP('',(#350,#351,#352,#353));
#595=EDGE_LOOP('',(#354,#355,#356,#357));
#596=EDGE_LOOP('',(#358,#359,#360,#361));
#597=EDGE_LOOP('',(#362,#363,#364,#365));
#598=EDGE_LOOP('',(#366,#367,#368,#369));
#599=EDGE_LOOP('',(#370,#371,#372,#373));
#600=EDGE_LOOP('',(#374,#375,#376,#377));
#601=EDGE_LOOP('',(#378,#379,#380,#381));
#602=EDGE_LOOP('',(#382,#383,#384,#385));
#603=EDGE_LOOP('',(#386,#387,#388,#389));
#604=EDGE_LOOP('',(#390,#391,#392,#393));
#605=EDGE_LOOP('',(#394,#395,#396,#397));
#606=EDGE_LOOP('',(#398,#399,#400,#401));
#607=EDGE_LOOP('',(#402,#403,#404,#405));
#608=FACE_BOUND('',#558,.T.);
#609=FACE_BOUND('',#559,.T.);
#610=FACE_BOUND('',#560,.T.);
#611=FACE_BOUND('',#561,.T.);
#612=FACE_BOUND('',#562,.T.);
#613=FACE_BOUND('',#563,.T.);
#614=FACE_BOUND('',#564,.T.);
#615=FACE_BOUND('',#565,.T.);
#616=FACE_BOUND('',#566,.T.);
#617=FACE_BOUND('',#567,.T.);
#618=FACE_BOUND('',#568,.T.);
#619=FACE_BOUND('',#569,.T.);
#620=FACE_BOUND('',#570,.T.);
#621=FACE_BOUND('',#571,.T.);
#622=FACE_BOUND('',#572,.T.);
#623=FACE_BOUND('',#573,.T.);
#624=FACE_BOUND('',#574,.T.);
#625=FACE_BOUND('',#575,.T.);
#626=FACE_BOUND('',#576,.T.);
#627=FACE_BOUND('',#577,.T.);
#628=FACE_BOUND('',#578,.T.);
#629=FACE_BOUND('',#579,.T.);
#630=FACE_BOUND('',#580,.T.);
#631=FACE_BOUND('',#581,.T.);
#632=FACE_BOUND('',#582,.T.);
#633=FACE_BOUND('',#583,.T.);
#634=FACE_BOUND('',#584,.T.);
#635=FACE_BOUND('',#585,.T.);
#636=FACE_BOUND('',#586,.T.);
#637=FACE_BOUND('',#587,.T.);
#638=FACE_BOUND('',#588,.T.);
#639=FACE_BOUND('',#589,.T.);
#640=FACE_BOUND('',#590,.T.);
#641=FACE_BOUND('',#591,.T.);
#642=FACE_BOUND('',#592,.T.);
#643=FACE_BOUND('',#593,.T.);
#644=FACE_BOUND('',#594,.T.);
#645=FACE_BOUND('',#595,.T.);
#646=FACE_BOUND('',#596,.T.);
#647=FACE_BOUND('',#597,.T.);
#648=FACE_BOUND('',#598,.T.);
#649=FACE_BOUND('',#599,.T.);
#650=FACE_BOUND('',#600,.T.);
#651=FACE_BOUND('',#601,.T.);
#652=FACE_BOUND('',#602,.T.);
#653=FACE_BOUND('',#603,.T.);
#654=FACE_BOUND('',#604,.T.);
#655=FACE_BOUND('',#605,.T.);
#656=FACE_BOUND('',#606,.T.);
#657=FACE_BOUND('',#607,.T.);
#658=CYLINDRICAL_SURFACE('',#763,7.5E-05);
#659=CYLINDRICAL_SURFACE('',#797,7.5E-05);
#660=ADVANCED_FACE('',(#608,#609),#658,.T.);
#661=ADVANCED_FACE('',(#610),#188,.T.);
#662=ADVANCED_FACE('',(#611),#189,.F.);
#663=ADVANCED_FACE('',(#612),#190,.T.);
#664=ADVANCED_FACE('',(#613),#191,.F.);
#665=ADVANCED_FACE('',(#614),#192,.F.);
#666=ADVANCED_FACE('',(#615),#193,.T.);
#667=ADVANCED_FACE('',(#616),#194,.T.);
#668=ADVANCED_FACE('',(#617),#195,.F.);
#669=ADVANCED_FACE('',(#618),#196,.F.);
#670=ADVANCED_FACE('',(#619),#197,.F.);
#671=ADVANCED_FACE('',(#620),#198,.T.);
#672=ADVANCED_FACE('',(#621),#199,.T.);
#673=ADVANCED_FACE('',(#622),#200,.T.);
#674=ADVANCED_FACE('',(#623),#201,.F.);
#675=ADVANCED_FACE('',(#624),#202,.T.);
#676=ADVANCED_FACE('',(#625),#203,.F.);
#677=ADVANCED_FACE('',(#626),#204,.F.);
#678=ADVANCED_FACE('',(#627),#205,.T.);
#679=ADVANCED_FACE('',(#628),#206,.T.);
#680=ADVANCED_FACE('',(#629),#207,.F.);
#681=ADVANCED_FACE('',(#630,#631,#632,#633),#208,.F.);
#682=ADVANCED_FACE('',(#634),#209,.T.);
#683=ADVANCED_FACE('',(#635),#210,.F.);
#684=ADVANCED_FACE('',(#636),#211,.F.);
#685=ADVANCED_FACE('',(#637),#212,.T.);
#686=ADVANCED_FACE('',(#638,#639),#213,.T.);
#687=ADVANCED_FACE('',(#640,#641),#659,.F.);
#688=ADVANCED_FACE('',(#642),#214,.T.);
#689=ADVANCED_FACE('',(#643),#215,.F.);
#690=ADVANCED_FACE('',(#644),#216,.T.);
#691=ADVANCED_FACE('',(#645),#217,.T.);
#692=ADVANCED_FACE('',(#646),#218,.F.);
#693=ADVANCED_FACE('',(#647),#219,.F.);
#694=ADVANCED_FACE('',(#648),#220,.T.);
#695=ADVANCED_FACE('',(#649),#221,.T.);
#696=ADVANCED_FACE('',(#650),#222,.F.);
#697=ADVANCED_FACE('',(#651),#223,.F.);
#698=ADVANCED_FACE('',(#652),#224,.F.);
#699=ADVANCED_FACE('',(#653),#225,.F.);
#700=ADVANCED_FACE('',(#654),#226,.T.);
#701=ADVANCED_FACE('',(#655),#227,.T.);
#702=ADVANCED_FACE('',(#656),#228,.F.);
#703=ADVANCED_FACE('',(#657),#229,.F.);
#704=CLOSED_SHELL('',(#660,#661,#662));
#705=CLOSED_SHELL('',(#663,#664,#665,#666,#667,#668));
#706=CLOSED_SHELL('',(#669,#670,#671,#672,#673,#674));
#707=CLOSED_SHELL('',(#675,#676,#677,#678,#679,#680));
#708=CLOSED_SHELL('',(#681,#682,#683,#684,#685,#686,#687,#688,#689,#690,#691,#692,#693,#694,#695,#696,#697,#698,#699,#700,#701,#702,#703));
#709=STYLED_ITEM('',(#714),#747);
#710=STYLED_ITEM('',(#715),#748);
#711=STYLED_ITEM('',(#716),#749);
#712=STYLED_ITEM('',(#717),#750);
#713=STYLED_ITEM('',(#718),#751);
#714=PRESENTATION_STYLE_ASSIGNMENT((#719));
#715=PRESENTATION_STYLE_ASSIGNMENT((#720));
#716=PRESENTATION_STYLE_ASSIGNMENT((#721));
#717=PRESENTATION_STYLE_ASSIGNMENT((#722));
#718=PRESENTATION_STYLE_ASSIGNMENT((#723));
#719=SURFACE_STYLE_USAGE(.BOTH.,#724);
#720=SURFACE_STYLE_USAGE(.BOTH.,#725);
#721=SURFACE_STYLE_USAGE(.BOTH.,#726);
#722=SURFACE_STYLE_USAGE(.BOTH.,#727);
#723=SURFACE_STYLE_USAGE(.BOTH.,#728);
#724=SURFACE_SIDE_STYLE('',(#729));
#725=SURFACE_SIDE_STYLE('',(#730));
#726=SURFACE_SIDE_STYLE('',(#731));
#727=SURFACE_SIDE_STYLE('',(#732));
#728=SURFACE_SIDE_STYLE('',(#733));
#729=SURFACE_STYLE_FILL_AREA(#734);
#730=SURFACE_STYLE_FILL_AREA(#735);
#731=SURFACE_STYLE_FILL_AREA(#736);
#732=SURFACE_STYLE_FILL_AREA(#737);
#733=SURFACE_STYLE_FILL_AREA(#738);
#734=FILL_AREA_STYLE('',(#739));
#735=FILL_AREA_STYLE('',(#740));
#736=FILL_AREA_STYLE('',(#741));
#737=FILL_AREA_STYLE('',(#742));
#738=FILL_AREA_STYLE('',(#743));
#739=FILL_AREA_STYLE_COLOUR('',#744);
#740=FILL_AREA_STYLE_COLOUR('',#745);
#741=FILL_AREA_STYLE_COLOUR('',#745);
#742=FILL_AREA_STYLE_COLOUR('',#745);
#743=FILL_AREA_STYLE_COLOUR('',#746);
#744=COLOUR_RGB('',0.870588235294118,0.870588235294118,0.870588235294118);
#745=COLOUR_RGB('',0.8,0.8,0.8);
#746=COLOUR_RGB('',0.2,0.2,0.2);
#747=MANIFOLD_SOLID_BREP('Part 5',#704);
#748=MANIFOLD_SOLID_BREP('Part 1',#705);
#749=MANIFOLD_SOLID_BREP('Part 2',#706);
#750=MANIFOLD_SOLID_BREP('Part 3',#707);
#751=MANIFOLD_SOLID_BREP('Part 4',#708);
#752=SHAPE_DEFINITION_REPRESENTATION(#1232,#757);
#753=SHAPE_DEFINITION_REPRESENTATION(#1233,#758);
#754=SHAPE_DEFINITION_REPRESENTATION(#1234,#759);
#755=SHAPE_DEFINITION_REPRESENTATION(#1235,#760);
#756=SHAPE_DEFINITION_REPRESENTATION(#1236,#761);
#757=SHAPE_REPRESENTATION('Part 5',(#762),#1207);
#758=SHAPE_REPRESENTATION('Part 1',(#768),#1208);
#759=SHAPE_REPRESENTATION('Part 2',(#775),#1209);
#760=SHAPE_REPRESENTATION('Part 3',(#782),#1210);
#761=SHAPE_REPRESENTATION('Part 4',(#789),#1211);
#762=AXIS2_PLACEMENT_3D('',#1005,#815,#816);
#763=AXIS2_PLACEMENT_3D('',#1006,#817,#818);
#764=AXIS2_PLACEMENT_3D('',#1007,#819,#820);
#765=AXIS2_PLACEMENT_3D('',#1009,#821,#822);
#766=AXIS2_PLACEMENT_3D('',#1011,#823,#824);
#767=AXIS2_PLACEMENT_3D('',#1012,#825,#826);
#768=AXIS2_PLACEMENT_3D('',#1013,#827,#828);
#769=AXIS2_PLACEMENT_3D('',#1014,#829,#830);
#770=AXIS2_PLACEMENT_3D('',#1023,#835,#836);
#771=AXIS2_PLACEMENT_3D('',#1029,#840,#841);
#772=AXIS2_PLACEMENT_3D('',#1035,#845,#846);
#773=AXIS2_PLACEMENT_3D('',#1038,#849,#850);
#774=AXIS2_PLACEMENT_3D('',#1039,#851,#852);
#775=AXIS2_PLACEMENT_3D('',#1040,#853,#854);
#776=AXIS2_PLACEMENT_3D('',#1041,#855,#856);
#777=AXIS2_PLACEMENT_3D('',#1050,#861,#862);
#778=AXIS2_PLACEMENT_3D('',#1056,#866,#867);
#779=AXIS2_PLACEMENT_3D('',#1062,#871,#872);
#780=AXIS2_PLACEMENT_3D('',#1065,#875,#876);
#781=AXIS2_PLACEMENT_3D('',#1066,#877,#878);
#782=AXIS2_PLACEMENT_3D('',#1067,#879,#880);
#783=AXIS2_PLACEMENT_3D('',#1068,#881,#882);
#784=AXIS2_PLACEMENT_3D('',#1077,#887,#888);
#785=AXIS2_PLACEMENT_3D('',#1083,#892,#893);
#786=AXIS2_PLACEMENT_3D('',#1089,#897,#898);
#787=AXIS2_PLACEMENT_3D('',#1092,#901,#902);
#788=AXIS2_PLACEMENT_3D('',#1093,#903,#904);
#789=AXIS2_PLACEMENT_3D('',#1094,#905,#906);
#790=AXIS2_PLACEMENT_3D('',#1095,#907,#908);
#791=AXIS2_PLACEMENT_3D('',#1128,#925,#926);
#792=AXIS2_PLACEMENT_3D('',#1134,#930,#931);
#793=AXIS2_PLACEMENT_3D('',#1138,#934,#935);
#794=AXIS2_PLACEMENT_3D('',#1142,#938,#939);
#795=AXIS2_PLACEMENT_3D('',#1144,#941,#942);
#796=AXIS2_PLACEMENT_3D('',#1145,#943,#944);
#797=AXIS2_PLACEMENT_3D('',#1147,#945,#946);
#798=AXIS2_PLACEMENT_3D('',#1148,#947,#948);
#799=AXIS2_PLACEMENT_3D('',#1150,#949,#950);
#800=AXIS2_PLACEMENT_3D('',#1151,#951,#952);
#801=AXIS2_PLACEMENT_3D('',#1157,#956,#957);
#802=AXIS2_PLACEMENT_3D('',#1161,#960,#961);
#803=AXIS2_PLACEMENT_3D('',#1165,#964,#965);
#804=AXIS2_PLACEMENT_3D('',#1167,#967,#968);
#805=AXIS2_PLACEMENT_3D('',#1168,#969,#970);
#806=AXIS2_PLACEMENT_3D('',#1174,#974,#975);
#807=AXIS2_PLACEMENT_3D('',#1178,#978,#979);
#808=AXIS2_PLACEMENT_3D('',#1182,#982,#983);
#809=AXIS2_PLACEMENT_3D('',#1184,#985,#986);
#810=AXIS2_PLACEMENT_3D('',#1185,#987,#988);
#811=AXIS2_PLACEMENT_3D('',#1191,#992,#993);
#812=AXIS2_PLACEMENT_3D('',#1195,#996,#997);
#813=AXIS2_PLACEMENT_3D('',#1199,#1000,#1001);
#814=AXIS2_PLACEMENT_3D('',#1201,#1003,#1004);
#815=DIRECTION('',(0.,0.,1.));
#816=DIRECTION('',(1.,0.,0.));
#817=DIRECTION('',(0.,0.,-1.));
#818=DIRECTION('',(-1.,0.,0.));
#819=DIRECTION('',(0.,0.,1.));
#820=DIRECTION('',(1.,0.,0.));
#821=DIRECTION('',(0.,0.,1.));
#822=DIRECTION('',(1.,0.,0.));
#823=DIRECTION('',(0.,0.,1.));
#824=DIRECTION('',(1.,0.,0.));
#825=DIRECTION('',(0.,0.,1.));
#826=DIRECTION('',(1.,0.,0.));
#827=DIRECTION('',(0.,0.,1.));
#828=DIRECTION('',(1.,0.,0.));
#829=DIRECTION('',(-1.0842021724855E-16,-1.,0.));
#830=DIRECTION('',(1.,-1.0842021724855E-16,0.));
#831=DIRECTION('',(-1.,1.0842021724855E-16,0.));
#832=DIRECTION('',(0.,0.,-1.));
#833=DIRECTION('',(-1.,1.0842021724855E-16,0.));
#834=DIRECTION('',(0.,0.,-1.));
#835=DIRECTION('',(-1.,3.61400724161835E-16,0.));
#836=DIRECTION('',(-3.61400724161835E-16,-1.,0.));
#837=DIRECTION('',(3.61400724161835E-16,1.,0.));
#838=DIRECTION('',(0.,0.,-1.));
#839=DIRECTION('',(3.61400724161835E-16,1.,0.));
#840=DIRECTION('',(0.,-1.,0.));
#841=DIRECTION('',(0.,0.,-1.));
#842=DIRECTION('',(-1.,0.,0.));
#843=DIRECTION('',(0.,0.,-1.));
#844=DIRECTION('',(-1.,0.,0.));
#845=DIRECTION('',(-1.,3.61400724161835E-16,0.));
#846=DIRECTION('',(-3.61400724161835E-16,-1.,0.));
#847=DIRECTION('',(3.61400724161835E-16,1.,0.));
#848=DIRECTION('',(3.61400724161835E-16,1.,0.));
#849=DIRECTION('',(0.,0.,1.));
#850=DIRECTION('',(1.,0.,0.));
#851=DIRECTION('',(0.,0.,1.));
#852=DIRECTION('',(1.,0.,0.));
#853=DIRECTION('',(0.,0.,1.));
#854=DIRECTION('',(1.,0.,0.));
#855=DIRECTION('',(4.33680868994202E-16,-1.,0.));
#856=DIRECTION('',(1.,4.33680868994202E-16,0.));
#857=DIRECTION('',(-1.,-4.33680868994202E-16,0.));
#858=DIRECTION('',(0.,0.,-1.));
#859=DIRECTION('',(-1.,-4.33680868994202E-16,0.));
#860=DIRECTION('',(0.,0.,-1.));
#861=DIRECTION('',(1.,7.2280144832367E-16,0.));
#862=DIRECTION('',(-7.2280144832367E-16,1.,0.));
#863=DIRECTION('',(7.2280144832367E-16,-1.,0.));
#864=DIRECTION('',(0.,0.,-1.));
#865=DIRECTION('',(7.2280144832367E-16,-1.,0.));
#866=DIRECTION('',(4.33680868994202E-16,-1.,0.));
#867=DIRECTION('',(1.,4.33680868994202E-16,0.));
#868=DIRECTION('',(-1.,-4.33680868994202E-16,0.));
#869=DIRECTION('',(0.,0.,-1.));
#870=DIRECTION('',(-1.,-4.33680868994202E-16,0.));
#871=DIRECTION('',(1.,5.42101086242753E-16,0.));
#872=DIRECTION('',(-5.42101086242753E-16,1.,0.));
#873=DIRECTION('',(5.42101086242753E-16,-1.,0.));
#874=DIRECTION('',(5.42101086242753E-16,-1.,0.));
#875=DIRECTION('',(0.,0.,1.));
#876=DIRECTION('',(1.,0.,0.));
#877=DIRECTION('',(0.,0.,1.));
#878=DIRECTION('',(1.,0.,0.));
#879=DIRECTION('',(0.,0.,1.));
#880=DIRECTION('',(1.,0.,0.));
#881=DIRECTION('',(1.,0.,0.));
#882=DIRECTION('',(0.,0.,-1.));
#883=DIRECTION('',(0.,-1.,0.));
#884=DIRECTION('',(0.,0.,-1.));
#885=DIRECTION('',(0.,-1.,0.));
#886=DIRECTION('',(0.,0.,-1.));
#887=DIRECTION('',(0.,-1.,0.));
#888=DIRECTION('',(0.,0.,-1.));
#889=DIRECTION('',(-1.,0.,0.));
#890=DIRECTION('',(0.,0.,-1.));
#891=DIRECTION('',(-1.,0.,0.));
#892=DIRECTION('',(1.,1.0842021724855E-16,0.));
#893=DIRECTION('',(-1.0842021724855E-16,1.,0.));
#894=DIRECTION('',(1.0842021724855E-16,-1.,0.));
#895=DIRECTION('',(0.,0.,-1.));
#896=DIRECTION('',(1.0842021724855E-16,-1.,0.));
#897=DIRECTION('',(0.,-1.,0.));
#898=DIRECTION('',(0.,0.,-1.));
#899=DIRECTION('',(-1.,0.,0.));
#900=DIRECTION('',(-1.,0.,0.));
#901=DIRECTION('',(0.,0.,1.));
#902=DIRECTION('',(1.,0.,0.));
#903=DIRECTION('',(0.,0.,1.));
#904=DIRECTION('',(1.,0.,0.));
#905=DIRECTION('',(0.,0.,1.));
#906=DIRECTION('',(1.,0.,0.));
#907=DIRECTION('',(0.,0.,1.));
#908=DIRECTION('',(1.,0.,0.));
#909=DIRECTION('',(-1.,0.,0.));
#910=DIRECTION('',(0.,-1.,0.));
#911=DIRECTION('',(-1.,0.,0.));
#912=DIRECTION('',(1.0842021724855E-16,-1.,0.));
#913=DIRECTION('',(-1.,-1.0842021724855E-16,0.));
#914=DIRECTION('',(0.,1.,0.));
#915=DIRECTION('',(-1.,0.,0.));
#916=DIRECTION('',(0.,1.,0.));
#917=DIRECTION('',(3.61400724161835E-16,1.,0.));
#918=DIRECTION('',(-1.,1.0842021724855E-16,0.));
#919=DIRECTION('',(3.61400724161835E-16,1.,0.));
#920=DIRECTION('',(-1.,0.,0.));
#921=DIRECTION('',(-1.,-4.33680868994202E-16,0.));
#922=DIRECTION('',(7.2280144832367E-16,-1.,0.));
#923=DIRECTION('',(-1.,-4.33680868994202E-16,0.));
#924=DIRECTION('',(5.42101086242753E-16,-1.,0.));
#925=DIRECTION('',(1.0842021724855E-16,-1.,0.));
#926=DIRECTION('',(1.,1.0842021724855E-16,0.));
#927=DIRECTION('',(0.,0.,-1.));
#928=DIRECTION('',(-1.,-1.0842021724855E-16,0.));
#929=DIRECTION('',(0.,0.,-1.));
#930=DIRECTION('',(-1.,0.,0.));
#931=DIRECTION('',(0.,0.,1.));
#932=DIRECTION('',(0.,0.,-1.));
#933=DIRECTION('',(0.,1.,0.));
#934=DIRECTION('',(0.,-1.,0.));
#935=DIRECTION('',(0.,0.,-1.));
#936=DIRECTION('',(0.,0.,-1.));
#937=DIRECTION('',(-1.,0.,0.));
#938=DIRECTION('',(-1.,0.,0.));
#939=DIRECTION('',(0.,0.,1.));
#940=DIRECTION('',(0.,1.,0.));
#941=DIRECTION('',(0.,0.,1.));
#942=DIRECTION('',(1.,0.,0.));
#943=DIRECTION('',(0.,0.,1.));
#944=DIRECTION('',(1.,0.,0.));
#945=DIRECTION('',(0.,0.,1.));
#946=DIRECTION('',(1.,0.,0.));
#947=DIRECTION('',(0.,0.,1.));
#948=DIRECTION('',(1.,0.,0.));
#949=DIRECTION('',(0.,0.,1.));
#950=DIRECTION('',(1.,0.,0.));
#951=DIRECTION('',(-1.0842021724855E-16,-1.,0.));
#952=DIRECTION('',(1.,-1.0842021724855E-16,0.));
#953=DIRECTION('',(0.,0.,-1.));
#954=DIRECTION('',(-1.,1.0842021724855E-16,0.));
#955=DIRECTION('',(0.,0.,-1.));
#956=DIRECTION('',(-1.,3.61400724161835E-16,0.));
#957=DIRECTION('',(-3.61400724161835E-16,-1.,0.));
#958=DIRECTION('',(3.61400724161835E-16,1.,0.));
#959=DIRECTION('',(0.,0.,-1.));
#960=DIRECTION('',(0.,-1.,0.));
#961=DIRECTION('',(0.,0.,-1.));
#962=DIRECTION('',(-1.,0.,0.));
#963=DIRECTION('',(0.,0.,-1.));
#964=DIRECTION('',(-1.,3.61400724161835E-16,0.));
#965=DIRECTION('',(-3.61400724161835E-16,-1.,0.));
#966=DIRECTION('',(3.61400724161835E-16,1.,0.));
#967=DIRECTION('',(0.,0.,1.));
#968=DIRECTION('',(1.,0.,0.));
#969=DIRECTION('',(4.33680868994202E-16,-1.,0.));
#970=DIRECTION('',(1.,4.33680868994202E-16,0.));
#971=DIRECTION('',(0.,0.,-1.));
#972=DIRECTION('',(-1.,-4.33680868994202E-16,0.));
#973=DIRECTION('',(0.,0.,-1.));
#974=DIRECTION('',(1.,7.2280144832367E-16,0.));
#975=DIRECTION('',(-7.2280144832367E-16,1.,0.));
#976=DIRECTION('',(7.2280144832367E-16,-1.,0.));
#977=DIRECTION('',(0.,0.,-1.));
#978=DIRECTION('',(4.33680868994202E-16,-1.,0.));
#979=DIRECTION('',(1.,4.33680868994202E-16,0.));
#980=DIRECTION('',(-1.,-4.33680868994202E-16,0.));
#981=DIRECTION('',(0.,0.,-1.));
#982=DIRECTION('',(1.,5.42101086242753E-16,0.));
#983=DIRECTION('',(-5.42101086242753E-16,1.,0.));
#984=DIRECTION('',(5.42101086242753E-16,-1.,0.));
#985=DIRECTION('',(0.,0.,1.));
#986=DIRECTION('',(1.,0.,0.));
#987=DIRECTION('',(1.,0.,0.));
#988=DIRECTION('',(0.,0.,-1.));
#989=DIRECTION('',(0.,0.,-1.));
#990=DIRECTION('',(0.,-1.,0.));
#991=DIRECTION('',(0.,0.,-1.));
#992=DIRECTION('',(0.,-1.,0.));
#993=DIRECTION('',(0.,0.,-1.));
#994=DIRECTION('',(-1.,0.,0.));
#995=DIRECTION('',(0.,0.,-1.));
#996=DIRECTION('',(1.,1.0842021724855E-16,0.));
#997=DIRECTION('',(-1.0842021724855E-16,1.,0.));
#998=DIRECTION('',(1.0842021724855E-16,-1.,0.));
#999=DIRECTION('',(0.,0.,-1.));
#1000=DIRECTION('',(0.,-1.,0.));
#1001=DIRECTION('',(0.,0.,-1.));
#1002=DIRECTION('',(-1.,0.,0.));
#1003=DIRECTION('',(0.,0.,1.));
#1004=DIRECTION('',(1.,0.,0.));
#1005=CARTESIAN_POINT('',(0.,0.,0.));
#1006=CARTESIAN_POINT('',(-0.00035,0.00015,0.00055));
#1007=CARTESIAN_POINT('',(-0.00035,0.00015,0.00055));
#1008=CARTESIAN_POINT('',(-0.000275,0.00015,0.00055));
#1009=CARTESIAN_POINT('',(-0.00035,0.00015,0.0005));
#1010=CARTESIAN_POINT('',(-0.000275,0.00015,0.0005));
#1011=CARTESIAN_POINT('',(0.,0.,0.00055));
#1012=CARTESIAN_POINT('',(0.,0.,0.0005));
#1013=CARTESIAN_POINT('',(0.,0.,0.));
#1014=CARTESIAN_POINT('',(-0.000325,0.0001,5.E-05));
#1015=CARTESIAN_POINT('',(-0.000325,0.0001,0.));
#1016=CARTESIAN_POINT('',(-0.0002,0.0001,0.));
#1017=CARTESIAN_POINT('',(-0.00045,0.0001,0.));
#1018=CARTESIAN_POINT('',(-0.0002,0.0001,5.E-05));
#1019=CARTESIAN_POINT('',(-0.0002,0.0001,5.E-05));
#1020=CARTESIAN_POINT('',(-0.000325,0.0001,5.E-05));
#1021=CARTESIAN_POINT('',(-0.00045,0.0001,5.E-05));
#1022=CARTESIAN_POINT('',(-0.00045,0.0001,5.E-05));
#1023=CARTESIAN_POINT('',(-0.0002,0.000175,5.E-05));
#1024=CARTESIAN_POINT('',(-0.0002,0.000175,0.));
#1025=CARTESIAN_POINT('',(-0.0002,0.00025,0.));
#1026=CARTESIAN_POINT('',(-0.0002,0.00025,5.E-05));
#1027=CARTESIAN_POINT('',(-0.0002,0.00025,5.E-05));
#1028=CARTESIAN_POINT('',(-0.0002,0.000175,5.E-05));
#1029=CARTESIAN_POINT('',(-0.000325,0.00025,5.E-05));
#1030=CARTESIAN_POINT('',(-0.000325,0.00025,0.));
#1031=CARTESIAN_POINT('',(-0.00045,0.00025,0.));
#1032=CARTESIAN_POINT('',(-0.00045,0.00025,5.E-05));
#1033=CARTESIAN_POINT('',(-0.00045,0.00025,5.E-05));
#1034=CARTESIAN_POINT('',(-0.000325,0.00025,5.E-05));
#1035=CARTESIAN_POINT('',(-0.00045,0.000175,5.E-05));
#1036=CARTESIAN_POINT('',(-0.00045,0.000175,0.));
#1037=CARTESIAN_POINT('',(-0.00045,0.000175,5.E-05));
#1038=CARTESIAN_POINT('',(0.,0.,5.E-05));
#1039=CARTESIAN_POINT('',(0.,0.,0.));
#1040=CARTESIAN_POINT('',(0.,0.,0.));
#1041=CARTESIAN_POINT('',(-0.000325,-0.0001,5.E-05));
#1042=CARTESIAN_POINT('',(-0.000325,-0.0001,0.));
#1043=CARTESIAN_POINT('',(-0.0002,-0.0001,0.));
#1044=CARTESIAN_POINT('',(-0.00045,-0.0001,0.));
#1045=CARTESIAN_POINT('',(-0.00045,-0.0001,5.E-05));
#1046=CARTESIAN_POINT('',(-0.00045,-0.0001,5.E-05));
#1047=CARTESIAN_POINT('',(-0.000325,-0.0001,5.E-05));
#1048=CARTESIAN_POINT('',(-0.0002,-0.0001,5.E-05));
#1049=CARTESIAN_POINT('',(-0.0002,-0.0001,5.E-05));
#1050=CARTESIAN_POINT('',(-0.00045,-0.000175,5.E-05));
#1051=CARTESIAN_POINT('',(-0.00045,-0.000175,0.));
#1052=CARTESIAN_POINT('',(-0.00045,-0.00025,0.));
#1053=CARTESIAN_POINT('',(-0.00045,-0.00025,5.E-05));
#1054=CARTESIAN_POINT('',(-0.00045,-0.00025,5.E-05));
#1055=CARTESIAN_POINT('',(-0.00045,-0.000175,5.E-05));
#1056=CARTESIAN_POINT('',(-0.000325,-0.00025,5.E-05));
#1057=CARTESIAN_POINT('',(-0.000325,-0.00025,0.));
#1058=CARTESIAN_POINT('',(-0.0002,-0.00025,0.));
#1059=CARTESIAN_POINT('',(-0.0002,-0.00025,5.E-05));
#1060=CARTESIAN_POINT('',(-0.0002,-0.00025,5.E-05));
#1061=CARTESIAN_POINT('',(-0.000325,-0.00025,5.E-05));
#1062=CARTESIAN_POINT('',(-0.0002,-0.000175,5.E-05));
#1063=CARTESIAN_POINT('',(-0.0002,-0.000175,0.));
#1064=CARTESIAN_POINT('',(-0.0002,-0.000175,5.E-05));
#1065=CARTESIAN_POINT('',(0.,0.,5.E-05));
#1066=CARTESIAN_POINT('',(0.,0.,0.));
#1067=CARTESIAN_POINT('',(0.,0.,0.));
#1068=CARTESIAN_POINT('',(0.00045,-5.42101086242752E-20,5.E-05));
#1069=CARTESIAN_POINT('',(0.00045,-5.42101086242752E-20,0.));
#1070=CARTESIAN_POINT('',(0.00045,0.00025,0.));
#1071=CARTESIAN_POINT('',(0.00045,-0.00025,0.));
#1072=CARTESIAN_POINT('',(0.00045,0.00025,5.E-05));
#1073=CARTESIAN_POINT('',(0.00045,0.00025,5.E-05));
#1074=CARTESIAN_POINT('',(0.00045,-5.42101086242752E-20,5.E-05));
#1075=CARTESIAN_POINT('',(0.00045,-0.00025,5.E-05));
#1076=CARTESIAN_POINT('',(0.00045,-0.00025,5.E-05));
#1077=CARTESIAN_POINT('',(0.000325,0.00025,5.E-05));
#1078=CARTESIAN_POINT('',(0.000325,0.00025,0.));
#1079=CARTESIAN_POINT('',(0.0002,0.00025,0.));
#1080=CARTESIAN_POINT('',(0.0002,0.00025,5.E-05));
#1081=CARTESIAN_POINT('',(0.0002,0.00025,5.E-05));
#1082=CARTESIAN_POINT('',(0.000325,0.00025,5.E-05));
#1083=CARTESIAN_POINT('',(0.0002,-5.42101086242752E-20,5.E-05));
#1084=CARTESIAN_POINT('',(0.0002,-5.42101086242752E-20,0.));
#1085=CARTESIAN_POINT('',(0.0002,-0.00025,0.));
#1086=CARTESIAN_POINT('',(0.0002,-0.00025,5.E-05));
#1087=CARTESIAN_POINT('',(0.0002,-0.00025,5.E-05));
#1088=CARTESIAN_POINT('',(0.0002,-5.42101086242752E-20,5.E-05));
#1089=CARTESIAN_POINT('',(0.000325,-0.00025,5.E-05));
#1090=CARTESIAN_POINT('',(0.000325,-0.00025,0.));
#1091=CARTESIAN_POINT('',(0.000325,-0.00025,5.E-05));
#1092=CARTESIAN_POINT('',(0.,0.,5.E-05));
#1093=CARTESIAN_POINT('',(0.,0.,0.));
#1094=CARTESIAN_POINT('',(0.,0.,0.));
#1095=CARTESIAN_POINT('',(0.,0.,0.));
#1096=CARTESIAN_POINT('',(0.000325,-0.00025,0.));
#1097=CARTESIAN_POINT('',(0.00045,-0.00025,0.));
#1098=CARTESIAN_POINT('',(0.0002,-0.00025,0.));
#1099=CARTESIAN_POINT('',(0.00045,-5.42101086242752E-20,0.));
#1100=CARTESIAN_POINT('',(0.00045,0.00025,0.));
#1101=CARTESIAN_POINT('',(0.000325,0.00025,0.));
#1102=CARTESIAN_POINT('',(0.0002,0.00025,0.));
#1103=CARTESIAN_POINT('',(0.0002,-5.42101086242752E-20,0.));
#1104=CARTESIAN_POINT('',(0.,-0.0003,0.));
#1105=CARTESIAN_POINT('',(0.0005,-0.0003,0.));
#1106=CARTESIAN_POINT('',(-0.0005,-0.0003,0.));
#1107=CARTESIAN_POINT('',(-0.0005,-5.42101086242752E-20,0.));
#1108=CARTESIAN_POINT('',(-0.0005,0.0003,0.));
#1109=CARTESIAN_POINT('',(0.,0.0003,0.));
#1110=CARTESIAN_POINT('',(0.0005,0.0003,0.));
#1111=CARTESIAN_POINT('',(0.0005,1.0842021724855E-19,0.));
#1112=CARTESIAN_POINT('',(-0.00045,0.000175,0.));
#1113=CARTESIAN_POINT('',(-0.00045,0.0001,0.));
#1114=CARTESIAN_POINT('',(-0.00045,0.00025,0.));
#1115=CARTESIAN_POINT('',(-0.000325,0.0001,0.));
#1116=CARTESIAN_POINT('',(-0.0002,0.0001,0.));
#1117=CARTESIAN_POINT('',(-0.0002,0.000175,0.));
#1118=CARTESIAN_POINT('',(-0.0002,0.00025,0.));
#1119=CARTESIAN_POINT('',(-0.000325,0.00025,0.));
#1120=CARTESIAN_POINT('',(-0.000325,-0.0001,0.));
#1121=CARTESIAN_POINT('',(-0.0002,-0.0001,0.));
#1122=CARTESIAN_POINT('',(-0.00045,-0.0001,0.));
#1123=CARTESIAN_POINT('',(-0.00045,-0.000175,0.));
#1124=CARTESIAN_POINT('',(-0.00045,-0.00025,0.));
#1125=CARTESIAN_POINT('',(-0.000325,-0.00025,0.));
#1126=CARTESIAN_POINT('',(-0.0002,-0.00025,0.));
#1127=CARTESIAN_POINT('',(-0.0002,-0.000175,0.));
#1128=CARTESIAN_POINT('',(0.,-0.0003,0.00055));
#1129=CARTESIAN_POINT('',(0.0005,-0.0003,0.00055));
#1130=CARTESIAN_POINT('',(0.0005,-0.0003,0.00055));
#1131=CARTESIAN_POINT('',(0.,-0.0003,0.00055));
#1132=CARTESIAN_POINT('',(-0.0005,-0.0003,0.00055));
#1133=CARTESIAN_POINT('',(-0.0005,-0.0003,0.00055));
#1134=CARTESIAN_POINT('',(0.0005,1.0842021724855E-19,0.00055));
#1135=CARTESIAN_POINT('',(0.0005,0.0003,0.00055));
#1136=CARTESIAN_POINT('',(0.0005,0.0003,0.00055));
#1137=CARTESIAN_POINT('',(0.0005,1.0842021724855E-19,0.00055));
#1138=CARTESIAN_POINT('',(0.,0.0003,0.00055));
#1139=CARTESIAN_POINT('',(-0.0005,0.0003,0.00055));
#1140=CARTESIAN_POINT('',(-0.0005,0.0003,0.00055));
#1141=CARTESIAN_POINT('',(0.,0.0003,0.00055));
#1142=CARTESIAN_POINT('',(-0.0005,-5.42101086242752E-20,0.00055));
#1143=CARTESIAN_POINT('',(-0.0005,-5.42101086242752E-20,0.00055));
#1144=CARTESIAN_POINT('',(0.,0.,0.00055));
#1145=CARTESIAN_POINT('',(-0.00035,0.00015,0.00055));
#1146=CARTESIAN_POINT('',(-0.000275,0.00015,0.00055));
#1147=CARTESIAN_POINT('',(-0.00035,0.00015,0.0005));
#1148=CARTESIAN_POINT('',(-0.00035,0.00015,0.0005));
#1149=CARTESIAN_POINT('',(-0.000275,0.00015,0.0005));
#1150=CARTESIAN_POINT('',(0.,0.,0.0005));
#1151=CARTESIAN_POINT('',(-0.000325,0.0001,5.E-05));
#1152=CARTESIAN_POINT('',(-0.00045,0.0001,5.E-05));
#1153=CARTESIAN_POINT('',(-0.00045,0.0001,5.E-05));
#1154=CARTESIAN_POINT('',(-0.000325,0.0001,5.E-05));
#1155=CARTESIAN_POINT('',(-0.0002,0.0001,5.E-05));
#1156=CARTESIAN_POINT('',(-0.0002,0.0001,5.E-05));
#1157=CARTESIAN_POINT('',(-0.0002,0.000175,5.E-05));
#1158=CARTESIAN_POINT('',(-0.0002,0.000175,5.E-05));
#1159=CARTESIAN_POINT('',(-0.0002,0.00025,5.E-05));
#1160=CARTESIAN_POINT('',(-0.0002,0.00025,5.E-05));
#1161=CARTESIAN_POINT('',(-0.000325,0.00025,5.E-05));
#1162=CARTESIAN_POINT('',(-0.000325,0.00025,5.E-05));
#1163=CARTESIAN_POINT('',(-0.00045,0.00025,5.E-05));
#1164=CARTESIAN_POINT('',(-0.00045,0.00025,5.E-05));
#1165=CARTESIAN_POINT('',(-0.00045,0.000175,5.E-05));
#1166=CARTESIAN_POINT('',(-0.00045,0.000175,5.E-05));
#1167=CARTESIAN_POINT('',(0.,0.,5.E-05));
#1168=CARTESIAN_POINT('',(-0.000325,-0.0001,5.E-05));
#1169=CARTESIAN_POINT('',(-0.0002,-0.0001,5.E-05));
#1170=CARTESIAN_POINT('',(-0.0002,-0.0001,5.E-05));
#1171=CARTESIAN_POINT('',(-0.000325,-0.0001,5.E-05));
#1172=CARTESIAN_POINT('',(-0.00045,-0.0001,5.E-05));
#1173=CARTESIAN_POINT('',(-0.00045,-0.0001,5.E-05));
#1174=CARTESIAN_POINT('',(-0.00045,-0.000175,5.E-05));
#1175=CARTESIAN_POINT('',(-0.00045,-0.000175,5.E-05));
#1176=CARTESIAN_POINT('',(-0.00045,-0.00025,5.E-05));
#1177=CARTESIAN_POINT('',(-0.00045,-0.00025,5.E-05));
#1178=CARTESIAN_POINT('',(-0.000325,-0.00025,5.E-05));
#1179=CARTESIAN_POINT('',(-0.000325,-0.00025,5.E-05));
#1180=CARTESIAN_POINT('',(-0.0002,-0.00025,5.E-05));
#1181=CARTESIAN_POINT('',(-0.0002,-0.00025,5.E-05));
#1182=CARTESIAN_POINT('',(-0.0002,-0.000175,5.E-05));
#1183=CARTESIAN_POINT('',(-0.0002,-0.000175,5.E-05));
#1184=CARTESIAN_POINT('',(0.,0.,5.E-05));
#1185=CARTESIAN_POINT('',(0.00045,-5.42101086242752E-20,5.E-05));
#1186=CARTESIAN_POINT('',(0.00045,-0.00025,5.E-05));
#1187=CARTESIAN_POINT('',(0.00045,-0.00025,5.E-05));
#1188=CARTESIAN_POINT('',(0.00045,-5.42101086242752E-20,5.E-05));
#1189=CARTESIAN_POINT('',(0.00045,0.00025,5.E-05));
#1190=CARTESIAN_POINT('',(0.00045,0.00025,5.E-05));
#1191=CARTESIAN_POINT('',(0.000325,0.00025,5.E-05));
#1192=CARTESIAN_POINT('',(0.000325,0.00025,5.E-05));
#1193=CARTESIAN_POINT('',(0.0002,0.00025,5.E-05));
#1194=CARTESIAN_POINT('',(0.0002,0.00025,5.E-05));
#1195=CARTESIAN_POINT('',(0.0002,-5.42101086242752E-20,5.E-05));
#1196=CARTESIAN_POINT('',(0.0002,-5.42101086242752E-20,5.E-05));
#1197=CARTESIAN_POINT('',(0.0002,-0.00025,5.E-05));
#1198=CARTESIAN_POINT('',(0.0002,-0.00025,5.E-05));
#1199=CARTESIAN_POINT('',(0.000325,-0.00025,5.E-05));
#1200=CARTESIAN_POINT('',(0.000325,-0.00025,5.E-05));
#1201=CARTESIAN_POINT('',(0.,0.,5.E-05));
#1202=MECHANICAL_DESIGN_GEOMETRIC_PRESENTATION_REPRESENTATION('',(#709),#1207);
#1203=MECHANICAL_DESIGN_GEOMETRIC_PRESENTATION_REPRESENTATION('',(#710),#1208);
#1204=MECHANICAL_DESIGN_GEOMETRIC_PRESENTATION_REPRESENTATION('',(#711),#1209);
#1205=MECHANICAL_DESIGN_GEOMETRIC_PRESENTATION_REPRESENTATION('',(#712),#1210);
#1206=MECHANICAL_DESIGN_GEOMETRIC_PRESENTATION_REPRESENTATION('',(#713),#1211);
#1207=(
GEOMETRIC_REPRESENTATION_CONTEXT(3)
GLOBAL_UNCERTAINTY_ASSIGNED_CONTEXT((#1212))
GLOBAL_UNIT_ASSIGNED_CONTEXT((#1227,#1222,#1217))
REPRESENTATION_CONTEXT('Part 5','TOP_LEVEL_ASSEMBLY_PART')
);
#1208=(
GEOMETRIC_REPRESENTATION_CONTEXT(3)
GLOBAL_UNCERTAINTY_ASSIGNED_CONTEXT((#1213))
GLOBAL_UNIT_ASSIGNED_CONTEXT((#1228,#1223,#1218))
REPRESENTATION_CONTEXT('Part 1','TOP_LEVEL_ASSEMBLY_PART')
);
#1209=(
GEOMETRIC_REPRESENTATION_CONTEXT(3)
GLOBAL_UNCERTAINTY_ASSIGNED_CONTEXT((#1214))
GLOBAL_UNIT_ASSIGNED_CONTEXT((#1229,#1224,#1219))
REPRESENTATION_CONTEXT('Part 2','TOP_LEVEL_ASSEMBLY_PART')
);
#1210=(
GEOMETRIC_REPRESENTATION_CONTEXT(3)
GLOBAL_UNCERTAINTY_ASSIGNED_CONTEXT((#1215))
GLOBAL_UNIT_ASSIGNED_CONTEXT((#1230,#1225,#1220))
REPRESENTATION_CONTEXT('Part 3','TOP_LEVEL_ASSEMBLY_PART')
);
#1211=(
GEOMETRIC_REPRESENTATION_CONTEXT(3)
GLOBAL_UNCERTAINTY_ASSIGNED_CONTEXT((#1216))
GLOBAL_UNIT_ASSIGNED_CONTEXT((#1231,#1226,#1221))
REPRESENTATION_CONTEXT('Part 4','TOP_LEVEL_ASSEMBLY_PART')
);
#1212=UNCERTAINTY_MEASURE_WITH_UNIT(LENGTH_MEASURE(1.E-08),#1227,'DISTANCE_ACCURACY_VALUE','Maximum Tolerance applied to model');
#1213=UNCERTAINTY_MEASURE_WITH_UNIT(LENGTH_MEASURE(1.E-08),#1228,'DISTANCE_ACCURACY_VALUE','Maximum Tolerance applied to model');
#1214=UNCERTAINTY_MEASURE_WITH_UNIT(LENGTH_MEASURE(1.E-08),#1229,'DISTANCE_ACCURACY_VALUE','Maximum Tolerance applied to model');
#1215=UNCERTAINTY_MEASURE_WITH_UNIT(LENGTH_MEASURE(1.E-08),#1230,'DISTANCE_ACCURACY_VALUE','Maximum Tolerance applied to model');
#1216=UNCERTAINTY_MEASURE_WITH_UNIT(LENGTH_MEASURE(1.E-08),#1231,'DISTANCE_ACCURACY_VALUE','Maximum Tolerance applied to model');
#1217=(
NAMED_UNIT(*)
SI_UNIT($,.STERADIAN.)
SOLID_ANGLE_UNIT()
);
#1218=(
NAMED_UNIT(*)
SI_UNIT($,.STERADIAN.)
SOLID_ANGLE_UNIT()
);
#1219=(
NAMED_UNIT(*)
SI_UNIT($,.STERADIAN.)
SOLID_ANGLE_UNIT()
);
#1220=(
NAMED_UNIT(*)
SI_UNIT($,.STERADIAN.)
SOLID_ANGLE_UNIT()
);
#1221=(
NAMED_UNIT(*)
SI_UNIT($,.STERADIAN.)
SOLID_ANGLE_UNIT()
);
#1222=(
NAMED_UNIT(*)
PLANE_ANGLE_UNIT()
SI_UNIT($,.RADIAN.)
);
#1223=(
NAMED_UNIT(*)
PLANE_ANGLE_UNIT()
SI_UNIT($,.RADIAN.)
);
#1224=(
NAMED_UNIT(*)
PLANE_ANGLE_UNIT()
SI_UNIT($,.RADIAN.)
);
#1225=(
NAMED_UNIT(*)
PLANE_ANGLE_UNIT()
SI_UNIT($,.RADIAN.)
);
#1226=(
NAMED_UNIT(*)
PLANE_ANGLE_UNIT()
SI_UNIT($,.RADIAN.)
);
#1227=(
LENGTH_UNIT()
NAMED_UNIT(*)
SI_UNIT($,.METRE.)
);
#1228=(
LENGTH_UNIT()
NAMED_UNIT(*)
SI_UNIT($,.METRE.)
);
#1229=(
LENGTH_UNIT()
NAMED_UNIT(*)
SI_UNIT($,.METRE.)
);
#1230=(
LENGTH_UNIT()
NAMED_UNIT(*)
SI_UNIT($,.METRE.)
);
#1231=(
LENGTH_UNIT()
NAMED_UNIT(*)
SI_UNIT($,.METRE.)
);
#1232=PRODUCT_DEFINITION_SHAPE('','',#1237);
#1233=PRODUCT_DEFINITION_SHAPE('','',#1238);
#1234=PRODUCT_DEFINITION_SHAPE('','',#1239);
#1235=PRODUCT_DEFINITION_SHAPE('','',#1240);
#1236=PRODUCT_DEFINITION_SHAPE('','',#1241);
#1237=PRODUCT_DEFINITION('','',#1247,#1242);
#1238=PRODUCT_DEFINITION('','',#1248,#1243);
#1239=PRODUCT_DEFINITION('','',#1249,#1244);
#1240=PRODUCT_DEFINITION('','',#1250,#1245);
#1241=PRODUCT_DEFINITION('','',#1251,#1246);
#1242=PRODUCT_DEFINITION_CONTEXT('',#1277,'design');
#1243=PRODUCT_DEFINITION_CONTEXT('',#1278,'design');
#1244=PRODUCT_DEFINITION_CONTEXT('',#1279,'design');
#1245=PRODUCT_DEFINITION_CONTEXT('',#1280,'design');
#1246=PRODUCT_DEFINITION_CONTEXT('',#1281,'design');
#1247=PRODUCT_DEFINITION_FORMATION_WITH_SPECIFIED_SOURCE('','',#1257,.NOT_KNOWN.);
#1248=PRODUCT_DEFINITION_FORMATION_WITH_SPECIFIED_SOURCE('','',#1258,.NOT_KNOWN.);
#1249=PRODUCT_DEFINITION_FORMATION_WITH_SPECIFIED_SOURCE('','',#1259,.NOT_KNOWN.);
#1250=PRODUCT_DEFINITION_FORMATION_WITH_SPECIFIED_SOURCE('','',#1260,.NOT_KNOWN.);
#1251=PRODUCT_DEFINITION_FORMATION_WITH_SPECIFIED_SOURCE('','',#1261,.NOT_KNOWN.);
#1252=PRODUCT_RELATED_PRODUCT_CATEGORY('','',(#1257));
#1253=PRODUCT_RELATED_PRODUCT_CATEGORY('','',(#1258));
#1254=PRODUCT_RELATED_PRODUCT_CATEGORY('','',(#1259));
#1255=PRODUCT_RELATED_PRODUCT_CATEGORY('','',(#1260));
#1256=PRODUCT_RELATED_PRODUCT_CATEGORY('','',(#1261));
#1257=PRODUCT('Part 5','Part 5','Part 5',(#1267));
#1258=PRODUCT('Part 1','Part 1','Part 1',(#1268));
#1259=PRODUCT('Part 2','Part 2','Part 2',(#1269));
#1260=PRODUCT('Part 3','Part 3','Part 3',(#1270));
#1261=PRODUCT('Part 4','Part 4','Part 4',(#1271));
#1262=PRODUCT_CATEGORY('','');
#1263=PRODUCT_CATEGORY('','');
#1264=PRODUCT_CATEGORY('','');
#1265=PRODUCT_CATEGORY('','');
#1266=PRODUCT_CATEGORY('','');
#1267=PRODUCT_CONTEXT('',#1277,'mechanical');
#1268=PRODUCT_CONTEXT('',#1278,'mechanical');
#1269=PRODUCT_CONTEXT('',#1279,'mechanical');
#1270=PRODUCT_CONTEXT('',#1280,'mechanical');
#1271=PRODUCT_CONTEXT('',#1281,'mechanical');
#1272=APPLICATION_PROTOCOL_DEFINITION('international standard','ap242_managed_model_based_3d_engineering',2020,#1277);
#1273=APPLICATION_PROTOCOL_DEFINITION('international standard','ap242_managed_model_based_3d_engineering',2020,#1278);
#1274=APPLICATION_PROTOCOL_DEFINITION('international standard','ap242_managed_model_based_3d_engineering',2020,#1279);
#1275=APPLICATION_PROTOCOL_DEFINITION('international standard','ap242_managed_model_based_3d_engineering',2020,#1280);
#1276=APPLICATION_PROTOCOL_DEFINITION('international standard','ap242_managed_model_based_3d_engineering',2020,#1281);
#1277=APPLICATION_CONTEXT('managed model based 3d engineering');
#1278=APPLICATION_CONTEXT('managed model based 3d engineering');
#1279=APPLICATION_CONTEXT('managed model based 3d engineering');
#1280=APPLICATION_CONTEXT('managed model based 3d engineering');
#1281=APPLICATION_CONTEXT('managed model based 3d engineering');
ENDSEC;
END-ISO-10303-21;
