ISO-10303-21;
HEADER;
/*Generated by software containing ST-Developer
 * from STEP Tools, Inc. (www.steptools.com) 
 */
/*OPTION: using custom renumber hook */
/*description */
/*implementation_level */
FILE_DESCRIPTION(('STEP AP242 Edition 2','STEP AP242 Edition 2''CAx-IF Rec.Pracs.---Representation and Presentation of Product Manufa
cturing Information (PMI)---4.0---2014-10-13','STEP AP242 Edition 2''CAx-IF Rec.Pracs.---Representation and Presentation of Product Manufa
cturing Information (PMI)---4.0---2014-10-13''CAx-IF Rec.Pracs.---3D Tessellated Geometry---0.4---2014-09-14','STEP AP242 Edition 2''CAx-IF Rec.Pracs.---Representation and Presentation of Product Manufa
cturing Information (PMI)---4.0---2014-10-13''CAx-IF Rec.Pracs.---3D Tessellated Geometry---0.4---2014-09-14''2;1','STEP AP242 Edition 2''CAx-IF Rec.Pracs.---Representation and Presentation of Product Manufa
cturing Information (PMI)---4.0---2014-10-13''CAx-IF Rec.Pracs.---3D Tessellated Geometry---0.4---2014-09-14''2;1''CAx-IF Rec.Pracs.---User Defined Attributes---1.5---2016-08-15'),'2;1');
/*name */
/*time_stamp */
/*author */
/*organization */
/*preprocessor_version */
/*originating_system */
/*authorisation */
FILE_NAME('/vol/tmp/translate-1087360499070528457/DFN1006-2.step','2026-03-23T07:26:36',(''),(''),'ST-DEVELOPER v20','ONSHAPE BY PTC INC, 1.212','  ');
FILE_SCHEMA(('AP242_MANAGED_MODEL_BASED_3D_ENGINEERING_MIM_LF { 1 0 10303 442 3 1 4 }'));
ENDSEC;
DATA;
#10=SHAPE_REPRESENTATION_RELATIONSHIP('','',#693,#14);
#11=SHAPE_REPRESENTATION_RELATIONSHIP('','',#694,#15);
#12=SHAPE_REPRESENTATION_RELATIONSHIP('','',#695,#16);
#13=SHAPE_REPRESENTATION_RELATIONSHIP('','',#696,#17);
#14=ADVANCED_BREP_SHAPE_REPRESENTATION('',(#685),#1093);
#15=ADVANCED_BREP_SHAPE_REPRESENTATION('',(#686),#1094);
#16=ADVANCED_BREP_SHAPE_REPRESENTATION('',(#687),#1095);
#17=ADVANCED_BREP_SHAPE_REPRESENTATION('',(#688),#1096);
#18=ORIENTED_EDGE('',*,*,#186,.T.);
#19=ORIENTED_EDGE('',*,*,#187,.F.);
#20=ORIENTED_EDGE('',*,*,#188,.F.);
#21=ORIENTED_EDGE('',*,*,#189,.T.);
#22=ORIENTED_EDGE('',*,*,#190,.T.);
#23=ORIENTED_EDGE('',*,*,#191,.F.);
#24=ORIENTED_EDGE('',*,*,#192,.F.);
#25=ORIENTED_EDGE('',*,*,#187,.T.);
#26=ORIENTED_EDGE('',*,*,#193,.F.);
#27=ORIENTED_EDGE('',*,*,#194,.F.);
#28=ORIENTED_EDGE('',*,*,#195,.T.);
#29=ORIENTED_EDGE('',*,*,#191,.T.);
#30=ORIENTED_EDGE('',*,*,#196,.F.);
#31=ORIENTED_EDGE('',*,*,#189,.F.);
#32=ORIENTED_EDGE('',*,*,#197,.T.);
#33=ORIENTED_EDGE('',*,*,#194,.T.);
#34=ORIENTED_EDGE('',*,*,#188,.T.);
#35=ORIENTED_EDGE('',*,*,#192,.T.);
#36=ORIENTED_EDGE('',*,*,#195,.F.);
#37=ORIENTED_EDGE('',*,*,#197,.F.);
#38=ORIENTED_EDGE('',*,*,#186,.F.);
#39=ORIENTED_EDGE('',*,*,#196,.T.);
#40=ORIENTED_EDGE('',*,*,#193,.T.);
#41=ORIENTED_EDGE('',*,*,#190,.F.);
#42=ORIENTED_EDGE('',*,*,#198,.F.);
#43=ORIENTED_EDGE('',*,*,#199,.F.);
#44=ORIENTED_EDGE('',*,*,#200,.T.);
#45=ORIENTED_EDGE('',*,*,#201,.T.);
#46=ORIENTED_EDGE('',*,*,#202,.T.);
#47=ORIENTED_EDGE('',*,*,#203,.F.);
#48=ORIENTED_EDGE('',*,*,#204,.F.);
#49=ORIENTED_EDGE('',*,*,#199,.T.);
#50=ORIENTED_EDGE('',*,*,#205,.T.);
#51=ORIENTED_EDGE('',*,*,#206,.F.);
#52=ORIENTED_EDGE('',*,*,#207,.F.);
#53=ORIENTED_EDGE('',*,*,#203,.T.);
#54=ORIENTED_EDGE('',*,*,#208,.F.);
#55=ORIENTED_EDGE('',*,*,#201,.F.);
#56=ORIENTED_EDGE('',*,*,#209,.T.);
#57=ORIENTED_EDGE('',*,*,#206,.T.);
#58=ORIENTED_EDGE('',*,*,#200,.F.);
#59=ORIENTED_EDGE('',*,*,#204,.T.);
#60=ORIENTED_EDGE('',*,*,#207,.T.);
#61=ORIENTED_EDGE('',*,*,#209,.F.);
#62=ORIENTED_EDGE('',*,*,#198,.T.);
#63=ORIENTED_EDGE('',*,*,#208,.T.);
#64=ORIENTED_EDGE('',*,*,#205,.F.);
#65=ORIENTED_EDGE('',*,*,#202,.F.);
#66=ORIENTED_EDGE('',*,*,#210,.F.);
#67=ORIENTED_EDGE('',*,*,#211,.F.);
#68=ORIENTED_EDGE('',*,*,#212,.T.);
#69=ORIENTED_EDGE('',*,*,#213,.T.);
#70=ORIENTED_EDGE('',*,*,#214,.T.);
#71=ORIENTED_EDGE('',*,*,#215,.F.);
#72=ORIENTED_EDGE('',*,*,#216,.F.);
#73=ORIENTED_EDGE('',*,*,#211,.T.);
#74=ORIENTED_EDGE('',*,*,#217,.T.);
#75=ORIENTED_EDGE('',*,*,#218,.F.);
#76=ORIENTED_EDGE('',*,*,#219,.F.);
#77=ORIENTED_EDGE('',*,*,#215,.T.);
#78=ORIENTED_EDGE('',*,*,#220,.F.);
#79=ORIENTED_EDGE('',*,*,#213,.F.);
#80=ORIENTED_EDGE('',*,*,#221,.T.);
#81=ORIENTED_EDGE('',*,*,#218,.T.);
#82=ORIENTED_EDGE('',*,*,#212,.F.);
#83=ORIENTED_EDGE('',*,*,#216,.T.);
#84=ORIENTED_EDGE('',*,*,#219,.T.);
#85=ORIENTED_EDGE('',*,*,#221,.F.);
#86=ORIENTED_EDGE('',*,*,#210,.T.);
#87=ORIENTED_EDGE('',*,*,#220,.T.);
#88=ORIENTED_EDGE('',*,*,#217,.F.);
#89=ORIENTED_EDGE('',*,*,#214,.F.);
#90=ORIENTED_EDGE('',*,*,#222,.T.);
#91=ORIENTED_EDGE('',*,*,#223,.T.);
#92=ORIENTED_EDGE('',*,*,#224,.F.);
#93=ORIENTED_EDGE('',*,*,#225,.T.);
#94=ORIENTED_EDGE('',*,*,#226,.T.);
#95=ORIENTED_EDGE('',*,*,#227,.T.);
#96=ORIENTED_EDGE('',*,*,#228,.T.);
#97=ORIENTED_EDGE('',*,*,#229,.T.);
#98=ORIENTED_EDGE('',*,*,#230,.F.);
#99=ORIENTED_EDGE('',*,*,#231,.F.);
#100=ORIENTED_EDGE('',*,*,#224,.T.);
#101=ORIENTED_EDGE('',*,*,#232,.F.);
#102=ORIENTED_EDGE('',*,*,#233,.T.);
#103=ORIENTED_EDGE('',*,*,#234,.F.);
#104=ORIENTED_EDGE('',*,*,#225,.F.);
#105=ORIENTED_EDGE('',*,*,#231,.T.);
#106=ORIENTED_EDGE('',*,*,#235,.F.);
#107=ORIENTED_EDGE('',*,*,#236,.T.);
#108=ORIENTED_EDGE('',*,*,#222,.F.);
#109=ORIENTED_EDGE('',*,*,#234,.T.);
#110=ORIENTED_EDGE('',*,*,#237,.T.);
#111=ORIENTED_EDGE('',*,*,#238,.F.);
#112=ORIENTED_EDGE('',*,*,#239,.F.);
#113=ORIENTED_EDGE('',*,*,#240,.F.);
#114=ORIENTED_EDGE('',*,*,#241,.F.);
#115=ORIENTED_EDGE('',*,*,#229,.F.);
#116=ORIENTED_EDGE('',*,*,#242,.T.);
#117=ORIENTED_EDGE('',*,*,#238,.T.);
#118=ORIENTED_EDGE('',*,*,#243,.F.);
#119=ORIENTED_EDGE('',*,*,#239,.T.);
#120=ORIENTED_EDGE('',*,*,#242,.F.);
#121=ORIENTED_EDGE('',*,*,#228,.F.);
#122=ORIENTED_EDGE('',*,*,#244,.F.);
#123=ORIENTED_EDGE('',*,*,#245,.F.);
#124=ORIENTED_EDGE('',*,*,#246,.T.);
#125=ORIENTED_EDGE('',*,*,#247,.T.);
#126=ORIENTED_EDGE('',*,*,#248,.F.);
#127=ORIENTED_EDGE('',*,*,#249,.F.);
#128=ORIENTED_EDGE('',*,*,#250,.T.);
#129=ORIENTED_EDGE('',*,*,#251,.T.);
#130=ORIENTED_EDGE('',*,*,#230,.T.);
#131=ORIENTED_EDGE('',*,*,#241,.T.);
#132=ORIENTED_EDGE('',*,*,#237,.F.);
#133=ORIENTED_EDGE('',*,*,#233,.F.);
#134=ORIENTED_EDGE('',*,*,#243,.T.);
#135=ORIENTED_EDGE('',*,*,#227,.F.);
#136=ORIENTED_EDGE('',*,*,#252,.F.);
#137=ORIENTED_EDGE('',*,*,#240,.T.);
#138=ORIENTED_EDGE('',*,*,#223,.F.);
#139=ORIENTED_EDGE('',*,*,#236,.F.);
#140=ORIENTED_EDGE('',*,*,#253,.T.);
#141=ORIENTED_EDGE('',*,*,#232,.T.);
#142=ORIENTED_EDGE('',*,*,#235,.T.);
#143=ORIENTED_EDGE('',*,*,#252,.T.);
#144=ORIENTED_EDGE('',*,*,#226,.F.);
#145=ORIENTED_EDGE('',*,*,#253,.F.);
#146=ORIENTED_EDGE('',*,*,#249,.T.);
#147=ORIENTED_EDGE('',*,*,#254,.F.);
#148=ORIENTED_EDGE('',*,*,#255,.F.);
#149=ORIENTED_EDGE('',*,*,#256,.T.);
#150=ORIENTED_EDGE('',*,*,#250,.F.);
#151=ORIENTED_EDGE('',*,*,#256,.F.);
#152=ORIENTED_EDGE('',*,*,#257,.T.);
#153=ORIENTED_EDGE('',*,*,#258,.T.);
#154=ORIENTED_EDGE('',*,*,#251,.F.);
#155=ORIENTED_EDGE('',*,*,#258,.F.);
#156=ORIENTED_EDGE('',*,*,#259,.T.);
#157=ORIENTED_EDGE('',*,*,#260,.T.);
#158=ORIENTED_EDGE('',*,*,#248,.T.);
#159=ORIENTED_EDGE('',*,*,#260,.F.);
#160=ORIENTED_EDGE('',*,*,#261,.F.);
#161=ORIENTED_EDGE('',*,*,#254,.T.);
#162=ORIENTED_EDGE('',*,*,#255,.T.);
#163=ORIENTED_EDGE('',*,*,#261,.T.);
#164=ORIENTED_EDGE('',*,*,#259,.F.);
#165=ORIENTED_EDGE('',*,*,#257,.F.);
#166=ORIENTED_EDGE('',*,*,#245,.T.);
#167=ORIENTED_EDGE('',*,*,#262,.F.);
#168=ORIENTED_EDGE('',*,*,#263,.F.);
#169=ORIENTED_EDGE('',*,*,#264,.T.);
#170=ORIENTED_EDGE('',*,*,#246,.F.);
#171=ORIENTED_EDGE('',*,*,#264,.F.);
#172=ORIENTED_EDGE('',*,*,#265,.T.);
#173=ORIENTED_EDGE('',*,*,#266,.T.);
#174=ORIENTED_EDGE('',*,*,#247,.F.);
#175=ORIENTED_EDGE('',*,*,#266,.F.);
#176=ORIENTED_EDGE('',*,*,#267,.T.);
#177=ORIENTED_EDGE('',*,*,#268,.T.);
#178=ORIENTED_EDGE('',*,*,#244,.T.);
#179=ORIENTED_EDGE('',*,*,#268,.F.);
#180=ORIENTED_EDGE('',*,*,#269,.F.);
#181=ORIENTED_EDGE('',*,*,#262,.T.);
#182=ORIENTED_EDGE('',*,*,#263,.T.);
#183=ORIENTED_EDGE('',*,*,#269,.T.);
#184=ORIENTED_EDGE('',*,*,#267,.F.);
#185=ORIENTED_EDGE('',*,*,#265,.F.);
#186=EDGE_CURVE('',#270,#271,#326,.T.);
#187=EDGE_CURVE('',#272,#271,#327,.T.);
#188=EDGE_CURVE('',#273,#272,#328,.T.);
#189=EDGE_CURVE('',#273,#270,#329,.T.);
#190=EDGE_CURVE('',#271,#274,#330,.T.);
#191=EDGE_CURVE('',#275,#274,#331,.T.);
#192=EDGE_CURVE('',#272,#275,#332,.T.);
#193=EDGE_CURVE('',#276,#274,#333,.T.);
#194=EDGE_CURVE('',#277,#276,#334,.T.);
#195=EDGE_CURVE('',#277,#275,#335,.T.);
#196=EDGE_CURVE('',#270,#276,#336,.T.);
#197=EDGE_CURVE('',#273,#277,#337,.T.);
#198=EDGE_CURVE('',#278,#279,#338,.T.);
#199=EDGE_CURVE('',#280,#278,#339,.T.);
#200=EDGE_CURVE('',#280,#281,#340,.T.);
#201=EDGE_CURVE('',#281,#279,#341,.T.);
#202=EDGE_CURVE('',#278,#282,#342,.T.);
#203=EDGE_CURVE('',#283,#282,#343,.T.);
#204=EDGE_CURVE('',#280,#283,#344,.T.);
#205=EDGE_CURVE('',#282,#284,#345,.T.);
#206=EDGE_CURVE('',#285,#284,#346,.T.);
#207=EDGE_CURVE('',#283,#285,#347,.T.);
#208=EDGE_CURVE('',#279,#284,#348,.T.);
#209=EDGE_CURVE('',#281,#285,#349,.T.);
#210=EDGE_CURVE('',#286,#287,#350,.T.);
#211=EDGE_CURVE('',#288,#286,#351,.T.);
#212=EDGE_CURVE('',#288,#289,#352,.T.);
#213=EDGE_CURVE('',#289,#287,#353,.T.);
#214=EDGE_CURVE('',#286,#290,#354,.T.);
#215=EDGE_CURVE('',#291,#290,#355,.T.);
#216=EDGE_CURVE('',#288,#291,#356,.T.);
#217=EDGE_CURVE('',#290,#292,#357,.T.);
#218=EDGE_CURVE('',#293,#292,#358,.T.);
#219=EDGE_CURVE('',#291,#293,#359,.T.);
#220=EDGE_CURVE('',#287,#292,#360,.T.);
#221=EDGE_CURVE('',#289,#293,#361,.T.);
#222=EDGE_CURVE('',#294,#295,#362,.T.);
#223=EDGE_CURVE('',#295,#296,#363,.T.);
#224=EDGE_CURVE('',#297,#296,#364,.T.);
#225=EDGE_CURVE('',#297,#294,#365,.T.);
#226=EDGE_CURVE('',#298,#299,#366,.T.);
#227=EDGE_CURVE('',#299,#300,#367,.T.);
#228=EDGE_CURVE('',#300,#301,#368,.T.);
#229=EDGE_CURVE('',#301,#302,#369,.T.);
#230=EDGE_CURVE('',#303,#302,#370,.T.);
#231=EDGE_CURVE('',#297,#303,#371,.T.);
#232=EDGE_CURVE('',#298,#296,#372,.T.);
#233=EDGE_CURVE('',#303,#304,#373,.T.);
#234=EDGE_CURVE('',#294,#304,#374,.T.);
#235=EDGE_CURVE('',#305,#306,#375,.T.);
#236=EDGE_CURVE('',#305,#295,#376,.T.);
#237=EDGE_CURVE('',#304,#307,#377,.T.);
#238=EDGE_CURVE('',#308,#307,#378,.T.);
#239=EDGE_CURVE('',#309,#308,#379,.T.);
#240=EDGE_CURVE('',#306,#309,#380,.T.);
#241=EDGE_CURVE('',#302,#307,#381,.T.);
#242=EDGE_CURVE('',#301,#308,#382,.T.);
#243=EDGE_CURVE('',#309,#300,#383,.T.);
#244=EDGE_CURVE('',#310,#311,#384,.T.);
#245=EDGE_CURVE('',#312,#310,#385,.T.);
#246=EDGE_CURVE('',#312,#313,#386,.T.);
#247=EDGE_CURVE('',#313,#311,#387,.T.);
#248=EDGE_CURVE('',#314,#315,#388,.T.);
#249=EDGE_CURVE('',#316,#314,#389,.T.);
#250=EDGE_CURVE('',#316,#317,#390,.T.);
#251=EDGE_CURVE('',#317,#315,#391,.T.);
#252=EDGE_CURVE('',#306,#299,#392,.T.);
#253=EDGE_CURVE('',#305,#298,#393,.T.);
#254=EDGE_CURVE('',#318,#314,#394,.T.);
#255=EDGE_CURVE('',#319,#318,#395,.T.);
#256=EDGE_CURVE('',#319,#316,#396,.T.);
#257=EDGE_CURVE('',#319,#320,#397,.T.);
#258=EDGE_CURVE('',#320,#317,#398,.T.);
#259=EDGE_CURVE('',#320,#321,#399,.T.);
#260=EDGE_CURVE('',#321,#315,#400,.T.);
#261=EDGE_CURVE('',#318,#321,#401,.T.);
#262=EDGE_CURVE('',#322,#310,#402,.T.);
#263=EDGE_CURVE('',#323,#322,#403,.T.);
#264=EDGE_CURVE('',#323,#312,#404,.T.);
#265=EDGE_CURVE('',#323,#324,#405,.T.);
#266=EDGE_CURVE('',#324,#313,#406,.T.);
#267=EDGE_CURVE('',#324,#325,#407,.T.);
#268=EDGE_CURVE('',#325,#311,#408,.T.);
#269=EDGE_CURVE('',#322,#325,#409,.T.);
#270=VERTEX_POINT('',#910);
#271=VERTEX_POINT('',#911);
#272=VERTEX_POINT('',#913);
#273=VERTEX_POINT('',#915);
#274=VERTEX_POINT('',#919);
#275=VERTEX_POINT('',#921);
#276=VERTEX_POINT('',#925);
#277=VERTEX_POINT('',#927);
#278=VERTEX_POINT('',#937);
#279=VERTEX_POINT('',#938);
#280=VERTEX_POINT('',#940);
#281=VERTEX_POINT('',#942);
#282=VERTEX_POINT('',#946);
#283=VERTEX_POINT('',#948);
#284=VERTEX_POINT('',#952);
#285=VERTEX_POINT('',#954);
#286=VERTEX_POINT('',#964);
#287=VERTEX_POINT('',#965);
#288=VERTEX_POINT('',#967);
#289=VERTEX_POINT('',#969);
#290=VERTEX_POINT('',#973);
#291=VERTEX_POINT('',#975);
#292=VERTEX_POINT('',#979);
#293=VERTEX_POINT('',#981);
#294=VERTEX_POINT('',#991);
#295=VERTEX_POINT('',#992);
#296=VERTEX_POINT('',#994);
#297=VERTEX_POINT('',#996);
#298=VERTEX_POINT('',#1000);
#299=VERTEX_POINT('',#1001);
#300=VERTEX_POINT('',#1003);
#301=VERTEX_POINT('',#1005);
#302=VERTEX_POINT('',#1007);
#303=VERTEX_POINT('',#1009);
#304=VERTEX_POINT('',#1014);
#305=VERTEX_POINT('',#1018);
#306=VERTEX_POINT('',#1019);
#307=VERTEX_POINT('',#1022);
#308=VERTEX_POINT('',#1024);
#309=VERTEX_POINT('',#1026);
#310=VERTEX_POINT('',#1035);
#311=VERTEX_POINT('',#1036);
#312=VERTEX_POINT('',#1038);
#313=VERTEX_POINT('',#1040);
#314=VERTEX_POINT('',#1043);
#315=VERTEX_POINT('',#1044);
#316=VERTEX_POINT('',#1046);
#317=VERTEX_POINT('',#1048);
#318=VERTEX_POINT('',#1057);
#319=VERTEX_POINT('',#1059);
#320=VERTEX_POINT('',#1063);
#321=VERTEX_POINT('',#1067);
#322=VERTEX_POINT('',#1074);
#323=VERTEX_POINT('',#1076);
#324=VERTEX_POINT('',#1080);
#325=VERTEX_POINT('',#1084);
#326=LINE('',#909,#410);
#327=LINE('',#912,#411);
#328=LINE('',#914,#412);
#329=LINE('',#916,#413);
#330=LINE('',#918,#414);
#331=LINE('',#920,#415);
#332=LINE('',#922,#416);
#333=LINE('',#924,#417);
#334=LINE('',#926,#418);
#335=LINE('',#928,#419);
#336=LINE('',#930,#420);
#337=LINE('',#931,#421);
#338=LINE('',#936,#422);
#339=LINE('',#939,#423);
#340=LINE('',#941,#424);
#341=LINE('',#943,#425);
#342=LINE('',#945,#426);
#343=LINE('',#947,#427);
#344=LINE('',#949,#428);
#345=LINE('',#951,#429);
#346=LINE('',#953,#430);
#347=LINE('',#955,#431);
#348=LINE('',#957,#432);
#349=LINE('',#958,#433);
#350=LINE('',#963,#434);
#351=LINE('',#966,#435);
#352=LINE('',#968,#436);
#353=LINE('',#970,#437);
#354=LINE('',#972,#438);
#355=LINE('',#974,#439);
#356=LINE('',#976,#440);
#357=LINE('',#978,#441);
#358=LINE('',#980,#442);
#359=LINE('',#982,#443);
#360=LINE('',#984,#444);
#361=LINE('',#985,#445);
#362=LINE('',#990,#446);
#363=LINE('',#993,#447);
#364=LINE('',#995,#448);
#365=LINE('',#997,#449);
#366=LINE('',#999,#450);
#367=LINE('',#1002,#451);
#368=LINE('',#1004,#452);
#369=LINE('',#1006,#453);
#370=LINE('',#1008,#454);
#371=LINE('',#1010,#455);
#372=LINE('',#1011,#456);
#373=LINE('',#1013,#457);
#374=LINE('',#1015,#458);
#375=LINE('',#1017,#459);
#376=LINE('',#1020,#460);
#377=LINE('',#1021,#461);
#378=LINE('',#1023,#462);
#379=LINE('',#1025,#463);
#380=LINE('',#1027,#464);
#381=LINE('',#1029,#465);
#382=LINE('',#1030,#466);
#383=LINE('',#1032,#467);
#384=LINE('',#1034,#468);
#385=LINE('',#1037,#469);
#386=LINE('',#1039,#470);
#387=LINE('',#1041,#471);
#388=LINE('',#1042,#472);
#389=LINE('',#1045,#473);
#390=LINE('',#1047,#474);
#391=LINE('',#1049,#475);
#392=LINE('',#1051,#476);
#393=LINE('',#1053,#477);
#394=LINE('',#1056,#478);
#395=LINE('',#1058,#479);
#396=LINE('',#1060,#480);
#397=LINE('',#1062,#481);
#398=LINE('',#1064,#482);
#399=LINE('',#1066,#483);
#400=LINE('',#1068,#484);
#401=LINE('',#1070,#485);
#402=LINE('',#1073,#486);
#403=LINE('',#1075,#487);
#404=LINE('',#1077,#488);
#405=LINE('',#1079,#489);
#406=LINE('',#1081,#490);
#407=LINE('',#1083,#491);
#408=LINE('',#1085,#492);
#409=LINE('',#1087,#493);
#410=VECTOR('',#743,1.);
#411=VECTOR('',#744,1.);
#412=VECTOR('',#745,1.);
#413=VECTOR('',#746,1.);
#414=VECTOR('',#749,1.);
#415=VECTOR('',#750,1.);
#416=VECTOR('',#751,1.);
#417=VECTOR('',#754,1.);
#418=VECTOR('',#755,1.);
#419=VECTOR('',#756,1.);
#420=VECTOR('',#759,1.);
#421=VECTOR('',#760,1.);
#422=VECTOR('',#769,1.);
#423=VECTOR('',#770,1.);
#424=VECTOR('',#771,1.);
#425=VECTOR('',#772,1.);
#426=VECTOR('',#775,1.);
#427=VECTOR('',#776,1.);
#428=VECTOR('',#777,1.);
#429=VECTOR('',#780,1.);
#430=VECTOR('',#781,1.);
#431=VECTOR('',#782,1.);
#432=VECTOR('',#785,1.);
#433=VECTOR('',#786,1.);
#434=VECTOR('',#795,1.);
#435=VECTOR('',#796,1.);
#436=VECTOR('',#797,1.);
#437=VECTOR('',#798,1.);
#438=VECTOR('',#801,1.);
#439=VECTOR('',#802,1.);
#440=VECTOR('',#803,1.);
#441=VECTOR('',#806,1.);
#442=VECTOR('',#807,1.);
#443=VECTOR('',#808,1.);
#444=VECTOR('',#811,1.);
#445=VECTOR('',#812,1.);
#446=VECTOR('',#821,1.);
#447=VECTOR('',#822,1.);
#448=VECTOR('',#823,1.);
#449=VECTOR('',#824,1.);
#450=VECTOR('',#827,1.);
#451=VECTOR('',#828,1.);
#452=VECTOR('',#829,1.);
#453=VECTOR('',#830,1.);
#454=VECTOR('',#831,1.);
#455=VECTOR('',#832,1.);
#456=VECTOR('',#833,1.);
#457=VECTOR('',#836,1.);
#458=VECTOR('',#837,1.);
#459=VECTOR('',#840,1.);
#460=VECTOR('',#841,1.);
#461=VECTOR('',#842,1.);
#462=VECTOR('',#843,1.);
#463=VECTOR('',#844,1.);
#464=VECTOR('',#845,1.);
#465=VECTOR('',#848,1.);
#466=VECTOR('',#849,1.);
#467=VECTOR('',#852,1.);
#468=VECTOR('',#855,1.);
#469=VECTOR('',#856,1.);
#470=VECTOR('',#857,1.);
#471=VECTOR('',#858,1.);
#472=VECTOR('',#859,1.);
#473=VECTOR('',#860,1.);
#474=VECTOR('',#861,1.);
#475=VECTOR('',#862,1.);
#476=VECTOR('',#865,1.);
#477=VECTOR('',#868,1.);
#478=VECTOR('',#873,1.);
#479=VECTOR('',#874,1.);
#480=VECTOR('',#875,1.);
#481=VECTOR('',#878,1.);
#482=VECTOR('',#879,1.);
#483=VECTOR('',#882,1.);
#484=VECTOR('',#883,1.);
#485=VECTOR('',#886,1.);
#486=VECTOR('',#891,1.);
#487=VECTOR('',#892,1.);
#488=VECTOR('',#893,1.);
#489=VECTOR('',#896,1.);
#490=VECTOR('',#897,1.);
#491=VECTOR('',#900,1.);
#492=VECTOR('',#901,1.);
#493=VECTOR('',#904,1.);
#494=EDGE_LOOP('',(#18,#19,#20,#21));
#495=EDGE_LOOP('',(#22,#23,#24,#25));
#496=EDGE_LOOP('',(#26,#27,#28,#29));
#497=EDGE_LOOP('',(#30,#31,#32,#33));
#498=EDGE_LOOP('',(#34,#35,#36,#37));
#499=EDGE_LOOP('',(#38,#39,#40,#41));
#500=EDGE_LOOP('',(#42,#43,#44,#45));
#501=EDGE_LOOP('',(#46,#47,#48,#49));
#502=EDGE_LOOP('',(#50,#51,#52,#53));
#503=EDGE_LOOP('',(#54,#55,#56,#57));
#504=EDGE_LOOP('',(#58,#59,#60,#61));
#505=EDGE_LOOP('',(#62,#63,#64,#65));
#506=EDGE_LOOP('',(#66,#67,#68,#69));
#507=EDGE_LOOP('',(#70,#71,#72,#73));
#508=EDGE_LOOP('',(#74,#75,#76,#77));
#509=EDGE_LOOP('',(#78,#79,#80,#81));
#510=EDGE_LOOP('',(#82,#83,#84,#85));
#511=EDGE_LOOP('',(#86,#87,#88,#89));
#512=EDGE_LOOP('',(#90,#91,#92,#93));
#513=EDGE_LOOP('',(#94,#95,#96,#97,#98,#99,#100,#101));
#514=EDGE_LOOP('',(#102,#103,#104,#105));
#515=EDGE_LOOP('',(#106,#107,#108,#109,#110,#111,#112,#113));
#516=EDGE_LOOP('',(#114,#115,#116,#117));
#517=EDGE_LOOP('',(#118,#119,#120,#121));
#518=EDGE_LOOP('',(#122,#123,#124,#125));
#519=EDGE_LOOP('',(#126,#127,#128,#129));
#520=EDGE_LOOP('',(#130,#131,#132,#133));
#521=EDGE_LOOP('',(#134,#135,#136,#137));
#522=EDGE_LOOP('',(#138,#139,#140,#141));
#523=EDGE_LOOP('',(#142,#143,#144,#145));
#524=EDGE_LOOP('',(#146,#147,#148,#149));
#525=EDGE_LOOP('',(#150,#151,#152,#153));
#526=EDGE_LOOP('',(#154,#155,#156,#157));
#527=EDGE_LOOP('',(#158,#159,#160,#161));
#528=EDGE_LOOP('',(#162,#163,#164,#165));
#529=EDGE_LOOP('',(#166,#167,#168,#169));
#530=EDGE_LOOP('',(#170,#171,#172,#173));
#531=EDGE_LOOP('',(#174,#175,#176,#177));
#532=EDGE_LOOP('',(#178,#179,#180,#181));
#533=EDGE_LOOP('',(#182,#183,#184,#185));
#534=FACE_BOUND('',#494,.T.);
#535=FACE_BOUND('',#495,.T.);
#536=FACE_BOUND('',#496,.T.);
#537=FACE_BOUND('',#497,.T.);
#538=FACE_BOUND('',#498,.T.);
#539=FACE_BOUND('',#499,.T.);
#540=FACE_BOUND('',#500,.T.);
#541=FACE_BOUND('',#501,.T.);
#542=FACE_BOUND('',#502,.T.);
#543=FACE_BOUND('',#503,.T.);
#544=FACE_BOUND('',#504,.T.);
#545=FACE_BOUND('',#505,.T.);
#546=FACE_BOUND('',#506,.T.);
#547=FACE_BOUND('',#507,.T.);
#548=FACE_BOUND('',#508,.T.);
#549=FACE_BOUND('',#509,.T.);
#550=FACE_BOUND('',#510,.T.);
#551=FACE_BOUND('',#511,.T.);
#552=FACE_BOUND('',#512,.T.);
#553=FACE_BOUND('',#513,.T.);
#554=FACE_BOUND('',#514,.T.);
#555=FACE_BOUND('',#515,.T.);
#556=FACE_BOUND('',#516,.T.);
#557=FACE_BOUND('',#517,.T.);
#558=FACE_BOUND('',#518,.T.);
#559=FACE_BOUND('',#519,.T.);
#560=FACE_BOUND('',#520,.T.);
#561=FACE_BOUND('',#521,.T.);
#562=FACE_BOUND('',#522,.T.);
#563=FACE_BOUND('',#523,.T.);
#564=FACE_BOUND('',#524,.T.);
#565=FACE_BOUND('',#525,.T.);
#566=FACE_BOUND('',#526,.T.);
#567=FACE_BOUND('',#527,.T.);
#568=FACE_BOUND('',#528,.T.);
#569=FACE_BOUND('',#529,.T.);
#570=FACE_BOUND('',#530,.T.);
#571=FACE_BOUND('',#531,.T.);
#572=FACE_BOUND('',#532,.T.);
#573=FACE_BOUND('',#533,.T.);
#574=PLANE('',#698);
#575=PLANE('',#699);
#576=PLANE('',#700);
#577=PLANE('',#701);
#578=PLANE('',#702);
#579=PLANE('',#703);
#580=PLANE('',#705);
#581=PLANE('',#706);
#582=PLANE('',#707);
#583=PLANE('',#708);
#584=PLANE('',#709);
#585=PLANE('',#710);
#586=PLANE('',#712);
#587=PLANE('',#713);
#588=PLANE('',#714);
#589=PLANE('',#715);
#590=PLANE('',#716);
#591=PLANE('',#717);
#592=PLANE('',#719);
#593=PLANE('',#720);
#594=PLANE('',#721);
#595=PLANE('',#722);
#596=PLANE('',#723);
#597=PLANE('',#724);
#598=PLANE('',#725);
#599=PLANE('',#726);
#600=PLANE('',#727);
#601=PLANE('',#728);
#602=PLANE('',#729);
#603=PLANE('',#730);
#604=PLANE('',#731);
#605=PLANE('',#732);
#606=PLANE('',#733);
#607=PLANE('',#734);
#608=PLANE('',#735);
#609=PLANE('',#736);
#610=PLANE('',#737);
#611=PLANE('',#738);
#612=ADVANCED_FACE('',(#534),#574,.F.);
#613=ADVANCED_FACE('',(#535),#575,.F.);
#614=ADVANCED_FACE('',(#536),#576,.T.);
#615=ADVANCED_FACE('',(#537),#577,.T.);
#616=ADVANCED_FACE('',(#538),#578,.T.);
#617=ADVANCED_FACE('',(#539),#579,.F.);
#618=ADVANCED_FACE('',(#540),#580,.T.);
#619=ADVANCED_FACE('',(#541),#581,.F.);
#620=ADVANCED_FACE('',(#542),#582,.F.);
#621=ADVANCED_FACE('',(#543),#583,.T.);
#622=ADVANCED_FACE('',(#544),#584,.T.);
#623=ADVANCED_FACE('',(#545),#585,.F.);
#624=ADVANCED_FACE('',(#546),#586,.T.);
#625=ADVANCED_FACE('',(#547),#587,.F.);
#626=ADVANCED_FACE('',(#548),#588,.F.);
#627=ADVANCED_FACE('',(#549),#589,.T.);
#628=ADVANCED_FACE('',(#550),#590,.T.);
#629=ADVANCED_FACE('',(#551),#591,.F.);
#630=ADVANCED_FACE('',(#552),#592,.T.);
#631=ADVANCED_FACE('',(#553),#593,.T.);
#632=ADVANCED_FACE('',(#554),#594,.F.);
#633=ADVANCED_FACE('',(#555),#595,.F.);
#634=ADVANCED_FACE('',(#556),#596,.T.);
#635=ADVANCED_FACE('',(#557),#597,.T.);
#636=ADVANCED_FACE('',(#558,#559,#560),#598,.F.);
#637=ADVANCED_FACE('',(#561),#599,.F.);
#638=ADVANCED_FACE('',(#562),#600,.T.);
#639=ADVANCED_FACE('',(#563),#601,.T.);
#640=ADVANCED_FACE('',(#564),#602,.F.);
#641=ADVANCED_FACE('',(#565),#603,.T.);
#642=ADVANCED_FACE('',(#566),#604,.T.);
#643=ADVANCED_FACE('',(#567),#605,.F.);
#644=ADVANCED_FACE('',(#568),#606,.F.);
#645=ADVANCED_FACE('',(#569),#607,.F.);
#646=ADVANCED_FACE('',(#570),#608,.T.);
#647=ADVANCED_FACE('',(#571),#609,.T.);
#648=ADVANCED_FACE('',(#572),#610,.F.);
#649=ADVANCED_FACE('',(#573),#611,.F.);
#650=CLOSED_SHELL('',(#612,#613,#614,#615,#616,#617));
#651=CLOSED_SHELL('',(#618,#619,#620,#621,#622,#623));
#652=CLOSED_SHELL('',(#624,#625,#626,#627,#628,#629));
#653=CLOSED_SHELL('',(#630,#631,#632,#633,#634,#635,#636,#637,#638,#639,#640,#641,#642,#643,#644,#645,#646,#647,#648,#649));
#654=STYLED_ITEM('',(#658),#685);
#655=STYLED_ITEM('',(#659),#686);
#656=STYLED_ITEM('',(#660),#687);
#657=STYLED_ITEM('',(#661),#688);
#658=PRESENTATION_STYLE_ASSIGNMENT((#662));
#659=PRESENTATION_STYLE_ASSIGNMENT((#663));
#660=PRESENTATION_STYLE_ASSIGNMENT((#664));
#661=PRESENTATION_STYLE_ASSIGNMENT((#665));
#662=SURFACE_STYLE_USAGE(.BOTH.,#666);
#663=SURFACE_STYLE_USAGE(.BOTH.,#667);
#664=SURFACE_STYLE_USAGE(.BOTH.,#668);
#665=SURFACE_STYLE_USAGE(.BOTH.,#669);
#666=SURFACE_SIDE_STYLE('',(#670));
#667=SURFACE_SIDE_STYLE('',(#671));
#668=SURFACE_SIDE_STYLE('',(#672));
#669=SURFACE_SIDE_STYLE('',(#673));
#670=SURFACE_STYLE_FILL_AREA(#674);
#671=SURFACE_STYLE_FILL_AREA(#675);
#672=SURFACE_STYLE_FILL_AREA(#676);
#673=SURFACE_STYLE_FILL_AREA(#677);
#674=FILL_AREA_STYLE('',(#678));
#675=FILL_AREA_STYLE('',(#679));
#676=FILL_AREA_STYLE('',(#680));
#677=FILL_AREA_STYLE('',(#681));
#678=FILL_AREA_STYLE_COLOUR('',#682);
#679=FILL_AREA_STYLE_COLOUR('',#683);
#680=FILL_AREA_STYLE_COLOUR('',#683);
#681=FILL_AREA_STYLE_COLOUR('',#684);
#682=COLOUR_RGB('',0.870588235294118,0.870588235294118,0.870588235294118);
#683=COLOUR_RGB('',0.8,0.8,0.8);
#684=COLOUR_RGB('',0.2,0.2,0.2);
#685=MANIFOLD_SOLID_BREP('Part 4',#650);
#686=MANIFOLD_SOLID_BREP('Part 1',#651);
#687=MANIFOLD_SOLID_BREP('Part 2',#652);
#688=MANIFOLD_SOLID_BREP('Part 3',#653);
#689=SHAPE_DEFINITION_REPRESENTATION(#1113,#693);
#690=SHAPE_DEFINITION_REPRESENTATION(#1114,#694);
#691=SHAPE_DEFINITION_REPRESENTATION(#1115,#695);
#692=SHAPE_DEFINITION_REPRESENTATION(#1116,#696);
#693=SHAPE_REPRESENTATION('Part 4',(#697),#1093);
#694=SHAPE_REPRESENTATION('Part 1',(#704),#1094);
#695=SHAPE_REPRESENTATION('Part 2',(#711),#1095);
#696=SHAPE_REPRESENTATION('Part 3',(#718),#1096);
#697=AXIS2_PLACEMENT_3D('',#907,#739,#740);
#698=AXIS2_PLACEMENT_3D('',#908,#741,#742);
#699=AXIS2_PLACEMENT_3D('',#917,#747,#748);
#700=AXIS2_PLACEMENT_3D('',#923,#752,#753);
#701=AXIS2_PLACEMENT_3D('',#929,#757,#758);
#702=AXIS2_PLACEMENT_3D('',#932,#761,#762);
#703=AXIS2_PLACEMENT_3D('',#933,#763,#764);
#704=AXIS2_PLACEMENT_3D('',#934,#765,#766);
#705=AXIS2_PLACEMENT_3D('',#935,#767,#768);
#706=AXIS2_PLACEMENT_3D('',#944,#773,#774);
#707=AXIS2_PLACEMENT_3D('',#950,#778,#779);
#708=AXIS2_PLACEMENT_3D('',#956,#783,#784);
#709=AXIS2_PLACEMENT_3D('',#959,#787,#788);
#710=AXIS2_PLACEMENT_3D('',#960,#789,#790);
#711=AXIS2_PLACEMENT_3D('',#961,#791,#792);
#712=AXIS2_PLACEMENT_3D('',#962,#793,#794);
#713=AXIS2_PLACEMENT_3D('',#971,#799,#800);
#714=AXIS2_PLACEMENT_3D('',#977,#804,#805);
#715=AXIS2_PLACEMENT_3D('',#983,#809,#810);
#716=AXIS2_PLACEMENT_3D('',#986,#813,#814);
#717=AXIS2_PLACEMENT_3D('',#987,#815,#816);
#718=AXIS2_PLACEMENT_3D('',#988,#817,#818);
#719=AXIS2_PLACEMENT_3D('',#989,#819,#820);
#720=AXIS2_PLACEMENT_3D('',#998,#825,#826);
#721=AXIS2_PLACEMENT_3D('',#1012,#834,#835);
#722=AXIS2_PLACEMENT_3D('',#1016,#838,#839);
#723=AXIS2_PLACEMENT_3D('',#1028,#846,#847);
#724=AXIS2_PLACEMENT_3D('',#1031,#850,#851);
#725=AXIS2_PLACEMENT_3D('',#1033,#853,#854);
#726=AXIS2_PLACEMENT_3D('',#1050,#863,#864);
#727=AXIS2_PLACEMENT_3D('',#1052,#866,#867);
#728=AXIS2_PLACEMENT_3D('',#1054,#869,#870);
#729=AXIS2_PLACEMENT_3D('',#1055,#871,#872);
#730=AXIS2_PLACEMENT_3D('',#1061,#876,#877);
#731=AXIS2_PLACEMENT_3D('',#1065,#880,#881);
#732=AXIS2_PLACEMENT_3D('',#1069,#884,#885);
#733=AXIS2_PLACEMENT_3D('',#1071,#887,#888);
#734=AXIS2_PLACEMENT_3D('',#1072,#889,#890);
#735=AXIS2_PLACEMENT_3D('',#1078,#894,#895);
#736=AXIS2_PLACEMENT_3D('',#1082,#898,#899);
#737=AXIS2_PLACEMENT_3D('',#1086,#902,#903);
#738=AXIS2_PLACEMENT_3D('',#1088,#905,#906);
#739=DIRECTION('',(0.,0.,1.));
#740=DIRECTION('',(1.,0.,0.));
#741=DIRECTION('',(0.,-1.,0.));
#742=DIRECTION('',(0.,0.,-1.));
#743=DIRECTION('',(-1.,0.,0.));
#744=DIRECTION('',(0.,0.,-1.));
#745=DIRECTION('',(-1.,0.,0.));
#746=DIRECTION('',(0.,0.,-1.));
#747=DIRECTION('',(1.,0.,0.));
#748=DIRECTION('',(0.,0.,-1.));
#749=DIRECTION('',(0.,-1.,0.));
#750=DIRECTION('',(0.,0.,-1.));
#751=DIRECTION('',(0.,-1.,0.));
#752=DIRECTION('',(1.0842021724855E-16,-1.,0.));
#753=DIRECTION('',(1.,1.0842021724855E-16,0.));
#754=DIRECTION('',(-1.,-1.0842021724855E-16,0.));
#755=DIRECTION('',(0.,0.,-1.));
#756=DIRECTION('',(-1.,-1.0842021724855E-16,0.));
#757=DIRECTION('',(1.,0.,0.));
#758=DIRECTION('',(0.,0.,-1.));
#759=DIRECTION('',(0.,-1.,0.));
#760=DIRECTION('',(0.,-1.,0.));
#761=DIRECTION('',(0.,0.,1.));
#762=DIRECTION('',(1.,0.,0.));
#763=DIRECTION('',(0.,0.,1.));
#764=DIRECTION('',(1.,0.,0.));
#765=DIRECTION('',(0.,0.,1.));
#766=DIRECTION('',(1.,0.,0.));
#767=DIRECTION('',(1.,0.,0.));
#768=DIRECTION('',(0.,0.,-1.));
#769=DIRECTION('',(0.,-1.,0.));
#770=DIRECTION('',(0.,0.,-1.));
#771=DIRECTION('',(0.,-1.,0.));
#772=DIRECTION('',(0.,0.,-1.));
#773=DIRECTION('',(0.,-1.,0.));
#774=DIRECTION('',(0.,0.,-1.));
#775=DIRECTION('',(-1.,0.,0.));
#776=DIRECTION('',(0.,0.,-1.));
#777=DIRECTION('',(-1.,0.,0.));
#778=DIRECTION('',(1.,1.0842021724855E-16,0.));
#779=DIRECTION('',(-1.0842021724855E-16,1.,0.));
#780=DIRECTION('',(1.0842021724855E-16,-1.,0.));
#781=DIRECTION('',(0.,0.,-1.));
#782=DIRECTION('',(1.0842021724855E-16,-1.,0.));
#783=DIRECTION('',(0.,-1.,0.));
#784=DIRECTION('',(0.,0.,-1.));
#785=DIRECTION('',(-1.,0.,0.));
#786=DIRECTION('',(-1.,0.,0.));
#787=DIRECTION('',(0.,0.,1.));
#788=DIRECTION('',(1.,0.,0.));
#789=DIRECTION('',(0.,0.,1.));
#790=DIRECTION('',(1.,0.,0.));
#791=DIRECTION('',(0.,0.,1.));
#792=DIRECTION('',(1.,0.,0.));
#793=DIRECTION('',(0.,1.,0.));
#794=DIRECTION('',(0.,0.,1.));
#795=DIRECTION('',(1.,0.,0.));
#796=DIRECTION('',(0.,0.,-1.));
#797=DIRECTION('',(1.,0.,0.));
#798=DIRECTION('',(0.,0.,-1.));
#799=DIRECTION('',(1.,0.,0.));
#800=DIRECTION('',(0.,0.,-1.));
#801=DIRECTION('',(0.,-1.,0.));
#802=DIRECTION('',(0.,0.,-1.));
#803=DIRECTION('',(0.,-1.,0.));
#804=DIRECTION('',(0.,1.,0.));
#805=DIRECTION('',(0.,0.,1.));
#806=DIRECTION('',(1.,0.,0.));
#807=DIRECTION('',(0.,0.,-1.));
#808=DIRECTION('',(1.,0.,0.));
#809=DIRECTION('',(1.,-1.0842021724855E-16,0.));
#810=DIRECTION('',(1.0842021724855E-16,1.,0.));
#811=DIRECTION('',(-1.0842021724855E-16,-1.,0.));
#812=DIRECTION('',(-1.0842021724855E-16,-1.,0.));
#813=DIRECTION('',(0.,0.,1.));
#814=DIRECTION('',(1.,0.,0.));
#815=DIRECTION('',(0.,0.,1.));
#816=DIRECTION('',(1.,0.,0.));
#817=DIRECTION('',(0.,0.,1.));
#818=DIRECTION('',(1.,0.,0.));
#819=DIRECTION('',(0.,0.,1.));
#820=DIRECTION('',(1.,0.,0.));
#821=DIRECTION('',(-1.,0.,0.));
#822=DIRECTION('',(0.,-1.,0.));
#823=DIRECTION('',(-1.,-1.0842021724855E-16,0.));
#824=DIRECTION('',(0.,1.,0.));
#825=DIRECTION('',(1.0842021724855E-16,-1.,0.));
#826=DIRECTION('',(1.,1.0842021724855E-16,0.));
#827=DIRECTION('',(-1.,-1.0842021724855E-16,0.));
#828=DIRECTION('',(0.,0.,1.));
#829=DIRECTION('',(-1.,-1.0842021724855E-16,0.));
#830=DIRECTION('',(0.,0.,-1.));
#831=DIRECTION('',(-1.,-1.0842021724855E-16,0.));
#832=DIRECTION('',(0.,0.,-1.));
#833=DIRECTION('',(0.,0.,1.));
#834=DIRECTION('',(-1.,0.,0.));
#835=DIRECTION('',(0.,0.,1.));
#836=DIRECTION('',(0.,1.,0.));
#837=DIRECTION('',(0.,0.,-1.));
#838=DIRECTION('',(0.,-1.,0.));
#839=DIRECTION('',(0.,0.,-1.));
#840=DIRECTION('',(-1.,0.,0.));
#841=DIRECTION('',(0.,0.,1.));
#842=DIRECTION('',(-1.,0.,0.));
#843=DIRECTION('',(0.,0.,-1.));
#844=DIRECTION('',(-1.,0.,0.));
#845=DIRECTION('',(0.,0.,1.));
#846=DIRECTION('',(-1.,0.,0.));
#847=DIRECTION('',(0.,0.,1.));
#848=DIRECTION('',(0.,1.,0.));
#849=DIRECTION('',(0.,1.,0.));
#850=DIRECTION('',(0.,0.,1.));
#851=DIRECTION('',(1.,0.,0.));
#852=DIRECTION('',(0.,-1.,0.));
#853=DIRECTION('',(0.,0.,1.));
#854=DIRECTION('',(1.,0.,0.));
#855=DIRECTION('',(-1.,0.,0.));
#856=DIRECTION('',(0.,-1.,0.));
#857=DIRECTION('',(-1.,0.,0.));
#858=DIRECTION('',(1.0842021724855E-16,-1.,0.));
#859=DIRECTION('',(-1.0842021724855E-16,-1.,0.));
#860=DIRECTION('',(1.,0.,0.));
#861=DIRECTION('',(0.,-1.,0.));
#862=DIRECTION('',(1.,0.,0.));
#863=DIRECTION('',(-1.,0.,0.));
#864=DIRECTION('',(0.,0.,1.));
#865=DIRECTION('',(0.,-1.,0.));
#866=DIRECTION('',(-1.,0.,0.));
#867=DIRECTION('',(0.,0.,1.));
#868=DIRECTION('',(0.,-1.,0.));
#869=DIRECTION('',(0.,0.,1.));
#870=DIRECTION('',(1.,0.,0.));
#871=DIRECTION('',(0.,1.,0.));
#872=DIRECTION('',(0.,0.,1.));
#873=DIRECTION('',(0.,0.,-1.));
#874=DIRECTION('',(1.,0.,0.));
#875=DIRECTION('',(0.,0.,-1.));
#876=DIRECTION('',(1.,0.,0.));
#877=DIRECTION('',(0.,0.,-1.));
#878=DIRECTION('',(0.,-1.,0.));
#879=DIRECTION('',(0.,0.,-1.));
#880=DIRECTION('',(0.,1.,0.));
#881=DIRECTION('',(0.,0.,1.));
#882=DIRECTION('',(1.,0.,0.));
#883=DIRECTION('',(0.,0.,-1.));
#884=DIRECTION('',(1.,-1.0842021724855E-16,0.));
#885=DIRECTION('',(1.0842021724855E-16,1.,0.));
#886=DIRECTION('',(-1.0842021724855E-16,-1.,0.));
#887=DIRECTION('',(0.,0.,1.));
#888=DIRECTION('',(1.,0.,0.));
#889=DIRECTION('',(1.,0.,0.));
#890=DIRECTION('',(0.,0.,-1.));
#891=DIRECTION('',(0.,0.,-1.));
#892=DIRECTION('',(0.,-1.,0.));
#893=DIRECTION('',(0.,0.,-1.));
#894=DIRECTION('',(0.,-1.,0.));
#895=DIRECTION('',(0.,0.,-1.));
#896=DIRECTION('',(-1.,0.,0.));
#897=DIRECTION('',(0.,0.,-1.));
#898=DIRECTION('',(1.,1.0842021724855E-16,0.));
#899=DIRECTION('',(-1.0842021724855E-16,1.,0.));
#900=DIRECTION('',(1.0842021724855E-16,-1.,0.));
#901=DIRECTION('',(0.,0.,-1.));
#902=DIRECTION('',(0.,-1.,0.));
#903=DIRECTION('',(0.,0.,-1.));
#904=DIRECTION('',(-1.,0.,0.));
#905=DIRECTION('',(0.,0.,1.));
#906=DIRECTION('',(1.,0.,0.));
#907=CARTESIAN_POINT('',(0.,0.,0.));
#908=CARTESIAN_POINT('',(0.,0.0003,0.0005));
#909=CARTESIAN_POINT('',(0.,0.0003,0.00045));
#910=CARTESIAN_POINT('',(-0.0003,0.0003,0.00045));
#911=CARTESIAN_POINT('',(-0.0004,0.0003,0.00045));
#912=CARTESIAN_POINT('',(-0.0004,0.0003,0.0005));
#913=CARTESIAN_POINT('',(-0.0004,0.0003,0.0005));
#914=CARTESIAN_POINT('',(0.,0.0003,0.0005));
#915=CARTESIAN_POINT('',(-0.0003,0.0003,0.0005));
#916=CARTESIAN_POINT('',(-0.0003,0.0003,0.0005));
#917=CARTESIAN_POINT('',(-0.0004,0.,0.0005));
#918=CARTESIAN_POINT('',(-0.0004,0.,0.00045));
#919=CARTESIAN_POINT('',(-0.0004,-0.0003,0.00045));
#920=CARTESIAN_POINT('',(-0.0004,-0.0003,0.0005));
#921=CARTESIAN_POINT('',(-0.0004,-0.0003,0.0005));
#922=CARTESIAN_POINT('',(-0.0004,0.,0.0005));
#923=CARTESIAN_POINT('',(0.,-0.0003,0.0005));
#924=CARTESIAN_POINT('',(0.,-0.0003,0.00045));
#925=CARTESIAN_POINT('',(-0.0003,-0.0003,0.00045));
#926=CARTESIAN_POINT('',(-0.0003,-0.0003,0.0005));
#927=CARTESIAN_POINT('',(-0.0003,-0.0003,0.0005));
#928=CARTESIAN_POINT('',(0.,-0.0003,0.0005));
#929=CARTESIAN_POINT('',(-0.0003,-5.42101086242752E-20,0.0005));
#930=CARTESIAN_POINT('',(-0.0003,-5.42101086242752E-20,0.00045));
#931=CARTESIAN_POINT('',(-0.0003,-5.42101086242752E-20,0.0005));
#932=CARTESIAN_POINT('',(0.,0.,0.0005));
#933=CARTESIAN_POINT('',(0.,0.,0.00045));
#934=CARTESIAN_POINT('',(0.,0.,0.));
#935=CARTESIAN_POINT('',(0.00045,-5.42101086242752E-20,5.E-05));
#936=CARTESIAN_POINT('',(0.00045,-5.42101086242752E-20,0.));
#937=CARTESIAN_POINT('',(0.00045,0.00025,0.));
#938=CARTESIAN_POINT('',(0.00045,-0.00025,0.));
#939=CARTESIAN_POINT('',(0.00045,0.00025,5.E-05));
#940=CARTESIAN_POINT('',(0.00045,0.00025,5.E-05));
#941=CARTESIAN_POINT('',(0.00045,-5.42101086242752E-20,5.E-05));
#942=CARTESIAN_POINT('',(0.00045,-0.00025,5.E-05));
#943=CARTESIAN_POINT('',(0.00045,-0.00025,5.E-05));
#944=CARTESIAN_POINT('',(0.000325,0.00025,5.E-05));
#945=CARTESIAN_POINT('',(0.000325,0.00025,0.));
#946=CARTESIAN_POINT('',(0.0002,0.00025,0.));
#947=CARTESIAN_POINT('',(0.0002,0.00025,5.E-05));
#948=CARTESIAN_POINT('',(0.0002,0.00025,5.E-05));
#949=CARTESIAN_POINT('',(0.000325,0.00025,5.E-05));
#950=CARTESIAN_POINT('',(0.0002,-5.42101086242752E-20,5.E-05));
#951=CARTESIAN_POINT('',(0.0002,-5.42101086242752E-20,0.));
#952=CARTESIAN_POINT('',(0.0002,-0.00025,0.));
#953=CARTESIAN_POINT('',(0.0002,-0.00025,5.E-05));
#954=CARTESIAN_POINT('',(0.0002,-0.00025,5.E-05));
#955=CARTESIAN_POINT('',(0.0002,-5.42101086242752E-20,5.E-05));
#956=CARTESIAN_POINT('',(0.000325,-0.00025,5.E-05));
#957=CARTESIAN_POINT('',(0.000325,-0.00025,0.));
#958=CARTESIAN_POINT('',(0.000325,-0.00025,5.E-05));
#959=CARTESIAN_POINT('',(0.,0.,5.E-05));
#960=CARTESIAN_POINT('',(0.,0.,0.));
#961=CARTESIAN_POINT('',(0.,0.,0.));
#962=CARTESIAN_POINT('',(-0.000325,0.00025,5.E-05));
#963=CARTESIAN_POINT('',(-0.000325,0.00025,0.));
#964=CARTESIAN_POINT('',(-0.00045,0.00025,0.));
#965=CARTESIAN_POINT('',(-0.0002,0.00025,0.));
#966=CARTESIAN_POINT('',(-0.00045,0.00025,5.E-05));
#967=CARTESIAN_POINT('',(-0.00045,0.00025,5.E-05));
#968=CARTESIAN_POINT('',(-0.000325,0.00025,5.E-05));
#969=CARTESIAN_POINT('',(-0.0002,0.00025,5.E-05));
#970=CARTESIAN_POINT('',(-0.0002,0.00025,5.E-05));
#971=CARTESIAN_POINT('',(-0.00045,-5.42101086242752E-20,5.E-05));
#972=CARTESIAN_POINT('',(-0.00045,-5.42101086242752E-20,0.));
#973=CARTESIAN_POINT('',(-0.00045,-0.00025,0.));
#974=CARTESIAN_POINT('',(-0.00045,-0.00025,5.E-05));
#975=CARTESIAN_POINT('',(-0.00045,-0.00025,5.E-05));
#976=CARTESIAN_POINT('',(-0.00045,-5.42101086242752E-20,5.E-05));
#977=CARTESIAN_POINT('',(-0.000325,-0.00025,5.E-05));
#978=CARTESIAN_POINT('',(-0.000325,-0.00025,0.));
#979=CARTESIAN_POINT('',(-0.0002,-0.00025,0.));
#980=CARTESIAN_POINT('',(-0.0002,-0.00025,5.E-05));
#981=CARTESIAN_POINT('',(-0.0002,-0.00025,5.E-05));
#982=CARTESIAN_POINT('',(-0.000325,-0.00025,5.E-05));
#983=CARTESIAN_POINT('',(-0.0002,-5.42101086242752E-20,5.E-05));
#984=CARTESIAN_POINT('',(-0.0002,-5.42101086242752E-20,0.));
#985=CARTESIAN_POINT('',(-0.0002,-5.42101086242752E-20,5.E-05));
#986=CARTESIAN_POINT('',(0.,0.,5.E-05));
#987=CARTESIAN_POINT('',(0.,0.,0.));
#988=CARTESIAN_POINT('',(0.,0.,0.));
#989=CARTESIAN_POINT('',(0.,0.,0.0005));
#990=CARTESIAN_POINT('',(0.,0.0003,0.0005));
#991=CARTESIAN_POINT('',(0.0005,0.0003,0.0005));
#992=CARTESIAN_POINT('',(-0.0003,0.0003,0.0005));
#993=CARTESIAN_POINT('',(-0.0003,-5.42101086242752E-20,0.0005));
#994=CARTESIAN_POINT('',(-0.0003,-0.0003,0.0005));
#995=CARTESIAN_POINT('',(0.,-0.0003,0.0005));
#996=CARTESIAN_POINT('',(0.0005,-0.0003,0.0005));
#997=CARTESIAN_POINT('',(0.0005,1.0842021724855E-19,0.0005));
#998=CARTESIAN_POINT('',(0.,-0.0003,0.0005));
#999=CARTESIAN_POINT('',(0.,-0.0003,0.00045));
#1000=CARTESIAN_POINT('',(-0.0003,-0.0003,0.00045));
#1001=CARTESIAN_POINT('',(-0.0004,-0.0003,0.00045));
#1002=CARTESIAN_POINT('',(-0.0004,-0.0003,0.00045));
#1003=CARTESIAN_POINT('',(-0.0004,-0.0003,0.0005));
#1004=CARTESIAN_POINT('',(0.,-0.0003,0.0005));
#1005=CARTESIAN_POINT('',(-0.0005,-0.0003,0.0005));
#1006=CARTESIAN_POINT('',(-0.0005,-0.0003,0.0005));
#1007=CARTESIAN_POINT('',(-0.0005,-0.0003,0.));
#1008=CARTESIAN_POINT('',(0.,-0.0003,0.));
#1009=CARTESIAN_POINT('',(0.0005,-0.0003,0.));
#1010=CARTESIAN_POINT('',(0.0005,-0.0003,0.0005));
#1011=CARTESIAN_POINT('',(-0.0003,-0.0003,0.00045));
#1012=CARTESIAN_POINT('',(0.0005,1.0842021724855E-19,0.0005));
#1013=CARTESIAN_POINT('',(0.0005,1.0842021724855E-19,0.));
#1014=CARTESIAN_POINT('',(0.0005,0.0003,0.));
#1015=CARTESIAN_POINT('',(0.0005,0.0003,0.0005));
#1016=CARTESIAN_POINT('',(0.,0.0003,0.0005));
#1017=CARTESIAN_POINT('',(0.,0.0003,0.00045));
#1018=CARTESIAN_POINT('',(-0.0003,0.0003,0.00045));
#1019=CARTESIAN_POINT('',(-0.0004,0.0003,0.00045));
#1020=CARTESIAN_POINT('',(-0.0003,0.0003,0.00045));
#1021=CARTESIAN_POINT('',(0.,0.0003,0.));
#1022=CARTESIAN_POINT('',(-0.0005,0.0003,0.));
#1023=CARTESIAN_POINT('',(-0.0005,0.0003,0.0005));
#1024=CARTESIAN_POINT('',(-0.0005,0.0003,0.0005));
#1025=CARTESIAN_POINT('',(0.,0.0003,0.0005));
#1026=CARTESIAN_POINT('',(-0.0004,0.0003,0.0005));
#1027=CARTESIAN_POINT('',(-0.0004,0.0003,0.00045));
#1028=CARTESIAN_POINT('',(-0.0005,-5.42101086242752E-20,0.0005));
#1029=CARTESIAN_POINT('',(-0.0005,-5.42101086242752E-20,0.));
#1030=CARTESIAN_POINT('',(-0.0005,-5.42101086242752E-20,0.0005));
#1031=CARTESIAN_POINT('',(0.,0.,0.0005));
#1032=CARTESIAN_POINT('',(-0.0004,0.,0.0005));
#1033=CARTESIAN_POINT('',(0.,0.,0.));
#1034=CARTESIAN_POINT('',(0.000325,-0.00025,0.));
#1035=CARTESIAN_POINT('',(0.00045,-0.00025,0.));
#1036=CARTESIAN_POINT('',(0.0002,-0.00025,0.));
#1037=CARTESIAN_POINT('',(0.00045,-5.42101086242752E-20,0.));
#1038=CARTESIAN_POINT('',(0.00045,0.00025,0.));
#1039=CARTESIAN_POINT('',(0.000325,0.00025,0.));
#1040=CARTESIAN_POINT('',(0.0002,0.00025,0.));
#1041=CARTESIAN_POINT('',(0.0002,-5.42101086242752E-20,0.));
#1042=CARTESIAN_POINT('',(-0.0002,-5.42101086242752E-20,0.));
#1043=CARTESIAN_POINT('',(-0.0002,0.00025,0.));
#1044=CARTESIAN_POINT('',(-0.0002,-0.00025,0.));
#1045=CARTESIAN_POINT('',(-0.000325,0.00025,0.));
#1046=CARTESIAN_POINT('',(-0.00045,0.00025,0.));
#1047=CARTESIAN_POINT('',(-0.00045,-5.42101086242752E-20,0.));
#1048=CARTESIAN_POINT('',(-0.00045,-0.00025,0.));
#1049=CARTESIAN_POINT('',(-0.000325,-0.00025,0.));
#1050=CARTESIAN_POINT('',(-0.0004,0.,0.00045));
#1051=CARTESIAN_POINT('',(-0.0004,0.,0.00045));
#1052=CARTESIAN_POINT('',(-0.0003,-5.42101086242752E-20,0.00045));
#1053=CARTESIAN_POINT('',(-0.0003,-5.42101086242752E-20,0.00045));
#1054=CARTESIAN_POINT('',(0.,0.,0.00045));
#1055=CARTESIAN_POINT('',(-0.000325,0.00025,5.E-05));
#1056=CARTESIAN_POINT('',(-0.0002,0.00025,5.E-05));
#1057=CARTESIAN_POINT('',(-0.0002,0.00025,5.E-05));
#1058=CARTESIAN_POINT('',(-0.000325,0.00025,5.E-05));
#1059=CARTESIAN_POINT('',(-0.00045,0.00025,5.E-05));
#1060=CARTESIAN_POINT('',(-0.00045,0.00025,5.E-05));
#1061=CARTESIAN_POINT('',(-0.00045,-5.42101086242752E-20,5.E-05));
#1062=CARTESIAN_POINT('',(-0.00045,-5.42101086242752E-20,5.E-05));
#1063=CARTESIAN_POINT('',(-0.00045,-0.00025,5.E-05));
#1064=CARTESIAN_POINT('',(-0.00045,-0.00025,5.E-05));
#1065=CARTESIAN_POINT('',(-0.000325,-0.00025,5.E-05));
#1066=CARTESIAN_POINT('',(-0.000325,-0.00025,5.E-05));
#1067=CARTESIAN_POINT('',(-0.0002,-0.00025,5.E-05));
#1068=CARTESIAN_POINT('',(-0.0002,-0.00025,5.E-05));
#1069=CARTESIAN_POINT('',(-0.0002,-5.42101086242752E-20,5.E-05));
#1070=CARTESIAN_POINT('',(-0.0002,-5.42101086242752E-20,5.E-05));
#1071=CARTESIAN_POINT('',(0.,0.,5.E-05));
#1072=CARTESIAN_POINT('',(0.00045,-5.42101086242752E-20,5.E-05));
#1073=CARTESIAN_POINT('',(0.00045,-0.00025,5.E-05));
#1074=CARTESIAN_POINT('',(0.00045,-0.00025,5.E-05));
#1075=CARTESIAN_POINT('',(0.00045,-5.42101086242752E-20,5.E-05));
#1076=CARTESIAN_POINT('',(0.00045,0.00025,5.E-05));
#1077=CARTESIAN_POINT('',(0.00045,0.00025,5.E-05));
#1078=CARTESIAN_POINT('',(0.000325,0.00025,5.E-05));
#1079=CARTESIAN_POINT('',(0.000325,0.00025,5.E-05));
#1080=CARTESIAN_POINT('',(0.0002,0.00025,5.E-05));
#1081=CARTESIAN_POINT('',(0.0002,0.00025,5.E-05));
#1082=CARTESIAN_POINT('',(0.0002,-5.42101086242752E-20,5.E-05));
#1083=CARTESIAN_POINT('',(0.0002,-5.42101086242752E-20,5.E-05));
#1084=CARTESIAN_POINT('',(0.0002,-0.00025,5.E-05));
#1085=CARTESIAN_POINT('',(0.0002,-0.00025,5.E-05));
#1086=CARTESIAN_POINT('',(0.000325,-0.00025,5.E-05));
#1087=CARTESIAN_POINT('',(0.000325,-0.00025,5.E-05));
#1088=CARTESIAN_POINT('',(0.,0.,5.E-05));
#1089=MECHANICAL_DESIGN_GEOMETRIC_PRESENTATION_REPRESENTATION('',(#654),#1093);
#1090=MECHANICAL_DESIGN_GEOMETRIC_PRESENTATION_REPRESENTATION('',(#655),#1094);
#1091=MECHANICAL_DESIGN_GEOMETRIC_PRESENTATION_REPRESENTATION('',(#656),#1095);
#1092=MECHANICAL_DESIGN_GEOMETRIC_PRESENTATION_REPRESENTATION('',(#657),#1096);
#1093=(
GEOMETRIC_REPRESENTATION_CONTEXT(3)
GLOBAL_UNCERTAINTY_ASSIGNED_CONTEXT((#1097))
GLOBAL_UNIT_ASSIGNED_CONTEXT((#1109,#1105,#1101))
REPRESENTATION_CONTEXT('Part 4','TOP_LEVEL_ASSEMBLY_PART')
);
#1094=(
GEOMETRIC_REPRESENTATION_CONTEXT(3)
GLOBAL_UNCERTAINTY_ASSIGNED_CONTEXT((#1098))
GLOBAL_UNIT_ASSIGNED_CONTEXT((#1110,#1106,#1102))
REPRESENTATION_CONTEXT('Part 1','TOP_LEVEL_ASSEMBLY_PART')
);
#1095=(
GEOMETRIC_REPRESENTATION_CONTEXT(3)
GLOBAL_UNCERTAINTY_ASSIGNED_CONTEXT((#1099))
GLOBAL_UNIT_ASSIGNED_CONTEXT((#1111,#1107,#1103))
REPRESENTATION_CONTEXT('Part 2','TOP_LEVEL_ASSEMBLY_PART')
);
#1096=(
GEOMETRIC_REPRESENTATION_CONTEXT(3)
GLOBAL_UNCERTAINTY_ASSIGNED_CONTEXT((#1100))
GLOBAL_UNIT_ASSIGNED_CONTEXT((#1112,#1108,#1104))
REPRESENTATION_CONTEXT('Part 3','TOP_LEVEL_ASSEMBLY_PART')
);
#1097=UNCERTAINTY_MEASURE_WITH_UNIT(LENGTH_MEASURE(1.E-08),#1109,'DISTANCE_ACCURACY_VALUE','Maximum Tolerance applied to model');
#1098=UNCERTAINTY_MEASURE_WITH_UNIT(LENGTH_MEASURE(1.E-08),#1110,'DISTANCE_ACCURACY_VALUE','Maximum Tolerance applied to model');
#1099=UNCERTAINTY_MEASURE_WITH_UNIT(LENGTH_MEASURE(1.E-08),#1111,'DISTANCE_ACCURACY_VALUE','Maximum Tolerance applied to model');
#1100=UNCERTAINTY_MEASURE_WITH_UNIT(LENGTH_MEASURE(1.E-08),#1112,'DISTANCE_ACCURACY_VALUE','Maximum Tolerance applied to model');
#1101=(
NAMED_UNIT(*)
SI_UNIT($,.STERADIAN.)
SOLID_ANGLE_UNIT()
);
#1102=(
NAMED_UNIT(*)
SI_UNIT($,.STERADIAN.)
SOLID_ANGLE_UNIT()
);
#1103=(
NAMED_UNIT(*)
SI_UNIT($,.STERADIAN.)
SOLID_ANGLE_UNIT()
);
#1104=(
NAMED_UNIT(*)
SI_UNIT($,.STERADIAN.)
SOLID_ANGLE_UNIT()
);
#1105=(
NAMED_UNIT(*)
PLANE_ANGLE_UNIT()
SI_UNIT($,.RADIAN.)
);
#1106=(
NAMED_UNIT(*)
PLANE_ANGLE_UNIT()
SI_UNIT($,.RADIAN.)
);
#1107=(
NAMED_UNIT(*)
PLANE_ANGLE_UNIT()
SI_UNIT($,.RADIAN.)
);
#1108=(
NAMED_UNIT(*)
PLANE_ANGLE_UNIT()
SI_UNIT($,.RADIAN.)
);
#1109=(
LENGTH_UNIT()
NAMED_UNIT(*)
SI_UNIT($,.METRE.)
);
#1110=(
LENGTH_UNIT()
NAMED_UNIT(*)
SI_UNIT($,.METRE.)
);
#1111=(
LENGTH_UNIT()
NAMED_UNIT(*)
SI_UNIT($,.METRE.)
);
#1112=(
LENGTH_UNIT()
NAMED_UNIT(*)
SI_UNIT($,.METRE.)
);
#1113=PRODUCT_DEFINITION_SHAPE('','',#1117);
#1114=PRODUCT_DEFINITION_SHAPE('','',#1118);
#1115=PRODUCT_DEFINITION_SHAPE('','',#1119);
#1116=PRODUCT_DEFINITION_SHAPE('','',#1120);
#1117=PRODUCT_DEFINITION('','',#1125,#1121);
#1118=PRODUCT_DEFINITION('','',#1126,#1122);
#1119=PRODUCT_DEFINITION('','',#1127,#1123);
#1120=PRODUCT_DEFINITION('','',#1128,#1124);
#1121=PRODUCT_DEFINITION_CONTEXT('',#1149,'design');
#1122=PRODUCT_DEFINITION_CONTEXT('',#1150,'design');
#1123=PRODUCT_DEFINITION_CONTEXT('',#1151,'design');
#1124=PRODUCT_DEFINITION_CONTEXT('',#1152,'design');
#1125=PRODUCT_DEFINITION_FORMATION_WITH_SPECIFIED_SOURCE('','',#1133,.NOT_KNOWN.);
#1126=PRODUCT_DEFINITION_FORMATION_WITH_SPECIFIED_SOURCE('','',#1134,.NOT_KNOWN.);
#1127=PRODUCT_DEFINITION_FORMATION_WITH_SPECIFIED_SOURCE('','',#1135,.NOT_KNOWN.);
#1128=PRODUCT_DEFINITION_FORMATION_WITH_SPECIFIED_SOURCE('','',#1136,.NOT_KNOWN.);
#1129=PRODUCT_RELATED_PRODUCT_CATEGORY('','',(#1133));
#1130=PRODUCT_RELATED_PRODUCT_CATEGORY('','',(#1134));
#1131=PRODUCT_RELATED_PRODUCT_CATEGORY('','',(#1135));
#1132=PRODUCT_RELATED_PRODUCT_CATEGORY('','',(#1136));
#1133=PRODUCT('Part 4','Part 4','Part 4',(#1141));
#1134=PRODUCT('Part 1','Part 1','Part 1',(#1142));
#1135=PRODUCT('Part 2','Part 2','Part 2',(#1143));
#1136=PRODUCT('Part 3','Part 3','Part 3',(#1144));
#1137=PRODUCT_CATEGORY('','');
#1138=PRODUCT_CATEGORY('','');
#1139=PRODUCT_CATEGORY('','');
#1140=PRODUCT_CATEGORY('','');
#1141=PRODUCT_CONTEXT('',#1149,'mechanical');
#1142=PRODUCT_CONTEXT('',#1150,'mechanical');
#1143=PRODUCT_CONTEXT('',#1151,'mechanical');
#1144=PRODUCT_CONTEXT('',#1152,'mechanical');
#1145=APPLICATION_PROTOCOL_DEFINITION('international standard','ap242_managed_model_based_3d_engineering',2020,#1149);
#1146=APPLICATION_PROTOCOL_DEFINITION('international standard','ap242_managed_model_based_3d_engineering',2020,#1150);
#1147=APPLICATION_PROTOCOL_DEFINITION('international standard','ap242_managed_model_based_3d_engineering',2020,#1151);
#1148=APPLICATION_PROTOCOL_DEFINITION('international standard','ap242_managed_model_based_3d_engineering',2020,#1152);
#1149=APPLICATION_CONTEXT('managed model based 3d engineering');
#1150=APPLICATION_CONTEXT('managed model based 3d engineering');
#1151=APPLICATION_CONTEXT('managed model based 3d engineering');
#1152=APPLICATION_CONTEXT('managed model based 3d engineering');
ENDSEC;
END-ISO-10303-21;
